<?xml version="1.0" encoding="UTF-8" standalone="no"?><svg xmlns="http://www.w3.org/2000/svg" xmlns:xlink="http://www.w3.org/1999/xlink" contentScriptType="application/ecmascript" contentStyleType="text/css" height="316px" preserveAspectRatio="none" style="width:342px;height:316px;" version="1.1" viewBox="0 0 342 316" width="342px" zoomAndPan="magnify"><defs><filter height="300%" id="f14jnfq4ajx8u8" width="300%" x="-1" y="-1"><feGaussianBlur result="blurOut" stdDeviation="2.0"/><feColorMatrix in="blurOut" result="blurOut2" type="matrix" values="0 0 0 0 0 0 0 0 0 0 0 0 0 0 0 0 0 0 .4 0"/><feOffset dx="4.0" dy="4.0" in="blurOut2" result="blurOut3"/><feBlend in="SourceGraphic" in2="blurOut3" mode="normal"/></filter></defs><g><rect fill="#FFFFFF" filter="url(#f14jnfq4ajx8u8)" height="122.4063" style="stroke:#A80036;stroke-width:1.0;" width="10" x="46" y="99.6094"/><rect fill="#FFFFFF" filter="url(#f14jnfq4ajx8u8)" height="30.3516" style="stroke:#A80036;stroke-width:1.0;" width="10" x="295" y="121.9609"/><rect fill="#FFFFFF" filter="url(#f14jnfq4ajx8u8)" height="39.3516" style="stroke:#A80036;stroke-width:1.0;" width="10" x="295" y="182.6641"/><line style="stroke:#A80036;stroke-width:1.0;stroke-dasharray:5.0,5.0;" x1="51" x2="51" y1="89.6094" y2="231.0156"/><line style="stroke:#A80036;stroke-width:1.0;stroke-dasharray:5.0,5.0;" x1="300" x2="300" y1="89.6094" y2="231.0156"/><text fill="#000000" font-family="sans-serif" font-size="14" lengthAdjust="spacing" textLength="86" x="5" y="86.5332">Port Manager</text><ellipse cx="51" cy="15" fill="#FEFECE" filter="url(#f14jnfq4ajx8u8)" rx="8" ry="8" style="stroke:#A80036;stroke-width:2.0;"/><path d="M51,23 L51,50 M38,31 L64,31 M51,50 L38,65 M51,50 L64,65 " fill="none" filter="url(#f14jnfq4ajx8u8)" style="stroke:#A80036;stroke-width:2.0;"/><text fill="#000000" font-family="sans-serif" font-size="14" lengthAdjust="spacing" textLength="86" x="5" y="244.5488">Port Manager</text><ellipse cx="51" cy="257.625" fill="#FEFECE" filter="url(#f14jnfq4ajx8u8)" rx="8" ry="8" style="stroke:#A80036;stroke-width:2.0;"/><path d="M51,265.625 L51,292.625 M38,273.625 L64,273.625 M51,292.625 L38,307.625 M51,292.625 L64,307.625 " fill="none" filter="url(#f14jnfq4ajx8u8)" style="stroke:#A80036;stroke-width:2.0;"/><rect fill="#FEFECE" filter="url(#f14jnfq4ajx8u8)" height="31.6094" style="stroke:#A80036;stroke-width:1.5;" width="60" x="268" y="53"/><text fill="#000000" font-family="sans-serif" font-size="14" lengthAdjust="spacing" textLength="46" x="275" y="74.5332">System</text><rect fill="#FEFECE" filter="url(#f14jnfq4ajx8u8)" height="31.6094" style="stroke:#A80036;stroke-width:1.5;" width="60" x="268" y="230.0156"/><text fill="#000000" font-family="sans-serif" font-size="14" lengthAdjust="spacing" textLength="46" x="275" y="251.5488">System</text><rect fill="#FFFFFF" filter="url(#f14jnfq4ajx8u8)" height="122.4063" style="stroke:#A80036;stroke-width:1.0;" width="10" x="46" y="99.6094"/><rect fill="#FFFFFF" filter="url(#f14jnfq4ajx8u8)" height="30.3516" style="stroke:#A80036;stroke-width:1.0;" width="10" x="295" y="121.9609"/><rect fill="#FFFFFF" filter="url(#f14jnfq4ajx8u8)" height="39.3516" style="stroke:#A80036;stroke-width:1.0;" width="10" x="295" y="182.6641"/><polygon fill="#A80036" points="283,117.9609,293,121.9609,283,125.9609,287,121.9609" style="stroke:#A80036;stroke-width:1.0;"/><line style="stroke:#A80036;stroke-width:1.0;" x1="56" x2="289" y1="121.9609" y2="121.9609"/><text fill="#000000" font-family="sans-serif" font-size="13" font-weight="bold" lengthAdjust="spacing" textLength="7" x="63" y="117.1045">1</text><text fill="#000000" font-family="sans-serif" font-size="13" lengthAdjust="spacing" textLength="202" x="74" y="117.1045">asks to import ports from a text file</text><polygon fill="#A80036" points="67,148.3125,57,152.3125,67,156.3125,63,152.3125" style="stroke:#A80036;stroke-width:1.0;"/><line style="stroke:#A80036;stroke-width:1.0;stroke-dasharray:2.0,2.0;" x1="61" x2="299" y1="152.3125" y2="152.3125"/><text fill="#000000" font-family="sans-serif" font-size="13" font-weight="bold" lengthAdjust="spacing" textLength="7" x="73" y="147.4561">2</text><text fill="#000000" font-family="sans-serif" font-size="13" lengthAdjust="spacing" textLength="131" x="84" y="147.4561">asks for path of the file</text><polygon fill="#A80036" points="283,178.6641,293,182.6641,283,186.6641,287,182.6641" style="stroke:#A80036;stroke-width:1.0;"/><line style="stroke:#A80036;stroke-width:1.0;" x1="56" x2="289" y1="182.6641" y2="182.6641"/><text fill="#000000" font-family="sans-serif" font-size="13" font-weight="bold" lengthAdjust="spacing" textLength="7" x="63" y="177.8076">3</text><text fill="#000000" font-family="sans-serif" font-size="13" lengthAdjust="spacing" textLength="139" x="74" y="177.8076">types the path of the file</text><polygon fill="#A80036" points="67,209.0156,57,213.0156,67,217.0156,63,213.0156" style="stroke:#A80036;stroke-width:1.0;"/><line style="stroke:#A80036;stroke-width:1.0;stroke-dasharray:2.0,2.0;" x1="61" x2="294" y1="213.0156" y2="213.0156"/><text fill="#000000" font-family="sans-serif" font-size="13" font-weight="bold" lengthAdjust="spacing" textLength="7" x="73" y="208.1592">4</text><text fill="#000000" font-family="sans-serif" font-size="13" lengthAdjust="spacing" textLength="204" x="84" y="208.1592">shows the the operation successful</text><!--MD5=[4e9a70856de74e5aaffbff026f8f8169]
@startuml
'https://plantuml.com/sequence-diagram

autonumber

actor "Port Manager" as PM
participant "System" as S
activate PM

PM -> S: asks to import ports from a text file
activate S
S - -> PM: asks for path of the file
deactivate S
PM -> S: types the path of the file
activate S
PM <- - S: shows the the operation successful
@enduml

@startuml

autonumber

actor "Port Manager" as PM
participant "System" as S
activate PM

PM -> S: asks to import ports from a text file
activate S
S - -> PM: asks for path of the file
deactivate S
PM -> S: types the path of the file
activate S
PM <- - S: shows the the operation successful
@enduml

PlantUML version 1.2021.5(Sun Apr 25 12:20:28 BST 2021)
(GPL source distribution)
Java Runtime: OpenJDK Runtime Environment
JVM: OpenJDK 64-Bit Server VM
Default Encoding: Cp1252
Language: pt
Country: PT
--></g></svg>