<?xml version="1.0" encoding="UTF-8" standalone="no"?><svg xmlns="http://www.w3.org/2000/svg" xmlns:xlink="http://www.w3.org/1999/xlink" contentScriptType="application/ecmascript" contentStyleType="text/css" height="374px" preserveAspectRatio="none" style="width:347px;height:374px;background:#FFFFFF;" version="1.1" viewBox="0 0 347 374" width="347px" zoomAndPan="magnify"><defs><filter height="300%" id="fi23r0oel2omq" width="300%" x="-1" y="-1"><feGaussianBlur result="blurOut" stdDeviation="2.0"/><feColorMatrix in="blurOut" result="blurOut2" type="matrix" values="0 0 0 0 0 0 0 0 0 0 0 0 0 0 0 0 0 0 .4 0"/><feOffset dx="4.0" dy="4.0" in="blurOut2" result="blurOut3"/><feBlend in="SourceGraphic" in2="blurOut3" mode="normal"/></filter></defs><g><!--MD5=[7fa9be3100fa8818883210857b4be419]
class ImportPortsController--><rect fill="#FEFECE" filter="url(#fi23r0oel2omq)" height="60.8047" id="ImportPortsController" style="stroke:#A80036;stroke-width:1.5;" width="160" x="162.5" y="7"/><ellipse cx="177.5" cy="23" fill="#ADD1B2" rx="11" ry="11" style="stroke:#A80036;stroke-width:1.0;"/><path d="M179.8438,18.6719 C178.9063,18.2344 178.3125,18.0938 177.4375,18.0938 C174.8125,18.0938 172.8125,20.1719 172.8125,22.8906 L172.8125,24.0156 C172.8125,26.5938 174.9219,28.4844 177.8125,28.4844 C179.0313,28.4844 180.1875,28.1875 180.9375,27.6406 C181.5156,27.2344 181.8438,26.7813 181.8438,26.3906 C181.8438,25.9375 181.4531,25.5469 180.9844,25.5469 C180.7656,25.5469 180.5625,25.625 180.375,25.8125 C179.9219,26.2969 179.9219,26.2969 179.7344,26.3906 C179.3125,26.6563 178.625,26.7813 177.8594,26.7813 C175.8125,26.7813 174.5156,25.6875 174.5156,23.9844 L174.5156,22.8906 C174.5156,21.1094 175.7656,19.7969 177.5,19.7969 C178.0781,19.7969 178.6875,19.9531 179.1563,20.2031 C179.6406,20.4844 179.8125,20.7031 179.9063,21.1094 C179.9688,21.5156 180,21.6406 180.1406,21.7656 C180.2813,21.9063 180.5156,22.0156 180.7344,22.0156 C181,22.0156 181.2656,21.875 181.4375,21.6563 C181.5469,21.5 181.5781,21.3125 181.5781,20.8906 L181.5781,19.4688 C181.5781,19.0313 181.5625,18.9063 181.4688,18.75 C181.3125,18.4844 181.0313,18.3438 180.7344,18.3438 C180.4375,18.3438 180.2344,18.4375 180.0156,18.75 L179.8438,18.6719 Z " fill="#000000"/><text fill="#000000" font-family="sans-serif" font-size="12" lengthAdjust="spacing" textLength="128" x="191.5" y="27.1543">ImportPortsController</text><line style="stroke:#A80036;stroke-width:1.5;" x1="163.5" x2="321.5" y1="39" y2="39"/><line style="stroke:#A80036;stroke-width:1.5;" x1="163.5" x2="321.5" y1="47" y2="47"/><ellipse cx="173.5" cy="58" fill="#84BE84" rx="3" ry="3" style="stroke:#038048;stroke-width:1.0;"/><text fill="#000000" font-family="sans-serif" font-size="11" lengthAdjust="spacing" textLength="114" x="182.5" y="61.2104">importFromCSV(file)</text><!--MD5=[02e4b9b7573f1156f41e60aa5b4e25a4]
class Company--><rect fill="#FEFECE" filter="url(#fi23r0oel2omq)" height="99.2188" id="Company" style="stroke:#A80036;stroke-width:1.5;" width="141" x="7" y="134.5"/><ellipse cx="45.85" cy="150.5" fill="#ADD1B2" rx="11" ry="11" style="stroke:#A80036;stroke-width:1.0;"/><path d="M48.1938,146.1719 C47.2563,145.7344 46.6625,145.5938 45.7875,145.5938 C43.1625,145.5938 41.1625,147.6719 41.1625,150.3906 L41.1625,151.5156 C41.1625,154.0938 43.2719,155.9844 46.1625,155.9844 C47.3813,155.9844 48.5375,155.6875 49.2875,155.1406 C49.8656,154.7344 50.1938,154.2813 50.1938,153.8906 C50.1938,153.4375 49.8031,153.0469 49.3344,153.0469 C49.1156,153.0469 48.9125,153.125 48.725,153.3125 C48.2719,153.7969 48.2719,153.7969 48.0844,153.8906 C47.6625,154.1563 46.975,154.2813 46.2094,154.2813 C44.1625,154.2813 42.8656,153.1875 42.8656,151.4844 L42.8656,150.3906 C42.8656,148.6094 44.1156,147.2969 45.85,147.2969 C46.4281,147.2969 47.0375,147.4531 47.5063,147.7031 C47.9906,147.9844 48.1625,148.2031 48.2563,148.6094 C48.3188,149.0156 48.35,149.1406 48.4906,149.2656 C48.6313,149.4063 48.8656,149.5156 49.0844,149.5156 C49.35,149.5156 49.6156,149.375 49.7875,149.1563 C49.8969,149 49.9281,148.8125 49.9281,148.3906 L49.9281,146.9688 C49.9281,146.5313 49.9125,146.4063 49.8188,146.25 C49.6625,145.9844 49.3813,145.8438 49.0844,145.8438 C48.7875,145.8438 48.5844,145.9375 48.3656,146.25 L48.1938,146.1719 Z " fill="#000000"/><text fill="#000000" font-family="sans-serif" font-size="12" lengthAdjust="spacing" textLength="56" x="65.15" y="154.6543">Company</text><line style="stroke:#A80036;stroke-width:1.5;" x1="8" x2="147" y1="166.5" y2="166.5"/><rect fill="none" height="6" style="stroke:#C82930;stroke-width:1.0;" width="6" x="15" y="174.5"/><text fill="#000000" font-family="sans-serif" font-size="11" lengthAdjust="spacing" textLength="103" x="27" y="180.7104">bstShips: BSTShip</text><line style="stroke:#A80036;stroke-width:1.5;" x1="8" x2="147" y1="187.3047" y2="187.3047"/><ellipse cx="18" cy="198.3047" fill="#84BE84" rx="3" ry="3" style="stroke:#038048;stroke-width:1.0;"/><text fill="#000000" font-family="sans-serif" font-size="11" lengthAdjust="spacing" textLength="62" x="27" y="201.5151">Company()</text><ellipse cx="18" cy="211.1094" fill="#84BE84" rx="3" ry="3" style="stroke:#038048;stroke-width:1.0;"/><text fill="#000000" font-family="sans-serif" font-size="11" lengthAdjust="spacing" textLength="72" x="27" y="214.3198">getKdtPorts()</text><ellipse cx="18" cy="223.9141" fill="#84BE84" rx="3" ry="3" style="stroke:#038048;stroke-width:1.0;"/><text fill="#000000" font-family="sans-serif" font-size="11" lengthAdjust="spacing" textLength="115" x="27" y="227.1245">setKdtPorts(PortKDT)</text><!--MD5=[a0bfe97ac0a38e6e74cc1c7c7b744b71]
class Port--><rect fill="#FEFECE" filter="url(#fi23r0oel2omq)" height="112.0234" id="Port" style="stroke:#A80036;stroke-width:1.5;" width="119" x="183" y="128"/><ellipse cx="226.8" cy="144" fill="#ADD1B2" rx="11" ry="11" style="stroke:#A80036;stroke-width:1.0;"/><path d="M229.1438,139.6719 C228.2063,139.2344 227.6125,139.0938 226.7375,139.0938 C224.1125,139.0938 222.1125,141.1719 222.1125,143.8906 L222.1125,145.0156 C222.1125,147.5938 224.2219,149.4844 227.1125,149.4844 C228.3313,149.4844 229.4875,149.1875 230.2375,148.6406 C230.8156,148.2344 231.1438,147.7813 231.1438,147.3906 C231.1438,146.9375 230.7531,146.5469 230.2844,146.5469 C230.0656,146.5469 229.8625,146.625 229.675,146.8125 C229.2219,147.2969 229.2219,147.2969 229.0344,147.3906 C228.6125,147.6563 227.925,147.7813 227.1594,147.7813 C225.1125,147.7813 223.8156,146.6875 223.8156,144.9844 L223.8156,143.8906 C223.8156,142.1094 225.0656,140.7969 226.8,140.7969 C227.3781,140.7969 227.9875,140.9531 228.4563,141.2031 C228.9406,141.4844 229.1125,141.7031 229.2063,142.1094 C229.2688,142.5156 229.3,142.6406 229.4406,142.7656 C229.5813,142.9063 229.8156,143.0156 230.0344,143.0156 C230.3,143.0156 230.5656,142.875 230.7375,142.6563 C230.8469,142.5 230.8781,142.3125 230.8781,141.8906 L230.8781,140.4688 C230.8781,140.0313 230.8625,139.9063 230.7688,139.75 C230.6125,139.4844 230.3313,139.3438 230.0344,139.3438 C229.7375,139.3438 229.5344,139.4375 229.3156,139.75 L229.1438,139.6719 Z " fill="#000000"/><text fill="#000000" font-family="sans-serif" font-size="12" lengthAdjust="spacing" textLength="23" x="247.2" y="148.1543">Port</text><line style="stroke:#A80036;stroke-width:1.5;" x1="184" x2="301" y1="160" y2="160"/><rect fill="none" height="6" style="stroke:#C82930;stroke-width:1.0;" width="6" x="191" y="168"/><text fill="#000000" font-family="sans-serif" font-size="11" lengthAdjust="spacing" textLength="49" x="203" y="174.2104">code: int</text><rect fill="none" height="6" style="stroke:#C82930;stroke-width:1.0;" width="6" x="191" y="180.8047"/><text fill="#000000" font-family="sans-serif" font-size="11" lengthAdjust="spacing" textLength="73" x="203" y="187.0151">name: String</text><rect fill="none" height="6" style="stroke:#C82930;stroke-width:1.0;" width="6" x="191" y="193.6094"/><text fill="#000000" font-family="sans-serif" font-size="11" lengthAdjust="spacing" textLength="93" x="203" y="199.8198">country: Country</text><rect fill="none" height="6" style="stroke:#C82930;stroke-width:1.0;" width="6" x="191" y="206.4141"/><text fill="#000000" font-family="sans-serif" font-size="11" lengthAdjust="spacing" textLength="75" x="203" y="212.6245">latitude: float</text><rect fill="none" height="6" style="stroke:#C82930;stroke-width:1.0;" width="6" x="191" y="219.2188"/><text fill="#000000" font-family="sans-serif" font-size="11" lengthAdjust="spacing" textLength="85" x="203" y="225.4292">longitude: float</text><line style="stroke:#A80036;stroke-width:1.5;" x1="184" x2="301" y1="232.0234" y2="232.0234"/><!--MD5=[f14c97f009274192f499f18aa48d69a9]
class KdtPort--><rect fill="#FEFECE" filter="url(#fi23r0oel2omq)" height="60.8047" id="KdtPort" style="stroke:#A80036;stroke-width:1.5;" width="204" x="114.5" y="300"/><ellipse cx="190.75" cy="316" fill="#ADD1B2" rx="11" ry="11" style="stroke:#A80036;stroke-width:1.0;"/><path d="M193.0938,311.6719 C192.1563,311.2344 191.5625,311.0938 190.6875,311.0938 C188.0625,311.0938 186.0625,313.1719 186.0625,315.8906 L186.0625,317.0156 C186.0625,319.5938 188.1719,321.4844 191.0625,321.4844 C192.2813,321.4844 193.4375,321.1875 194.1875,320.6406 C194.7656,320.2344 195.0938,319.7813 195.0938,319.3906 C195.0938,318.9375 194.7031,318.5469 194.2344,318.5469 C194.0156,318.5469 193.8125,318.625 193.625,318.8125 C193.1719,319.2969 193.1719,319.2969 192.9844,319.3906 C192.5625,319.6563 191.875,319.7813 191.1094,319.7813 C189.0625,319.7813 187.7656,318.6875 187.7656,316.9844 L187.7656,315.8906 C187.7656,314.1094 189.0156,312.7969 190.75,312.7969 C191.3281,312.7969 191.9375,312.9531 192.4063,313.2031 C192.8906,313.4844 193.0625,313.7031 193.1563,314.1094 C193.2188,314.5156 193.25,314.6406 193.3906,314.7656 C193.5313,314.9063 193.7656,315.0156 193.9844,315.0156 C194.25,315.0156 194.5156,314.875 194.6875,314.6563 C194.7969,314.5 194.8281,314.3125 194.8281,313.8906 L194.8281,312.4688 C194.8281,312.0313 194.8125,311.9063 194.7188,311.75 C194.5625,311.4844 194.2813,311.3438 193.9844,311.3438 C193.6875,311.3438 193.4844,311.4375 193.2656,311.75 L193.0938,311.6719 Z " fill="#000000"/><text fill="#000000" font-family="sans-serif" font-size="12" lengthAdjust="spacing" textLength="43" x="211.25" y="320.1543">KdtPort</text><line style="stroke:#A80036;stroke-width:1.5;" x1="115.5" x2="317.5" y1="332" y2="332"/><line style="stroke:#A80036;stroke-width:1.5;" x1="115.5" x2="317.5" y1="340" y2="340"/><ellipse cx="125.5" cy="351" fill="#84BE84" rx="3" ry="3" style="stroke:#038048;stroke-width:1.0;"/><text fill="#000000" font-family="sans-serif" font-size="11" lengthAdjust="spacing" textLength="178" x="134.5" y="354.2104">insert(ports, latitude, longitude)</text><!--MD5=[43895423cfcebb248304ca1f35c2d60a]
link ImportPortsController to Company--><path codeLine="1" d="M208.712,68.09 C188.038,86.195 161.007,109.868 136.855,131.019 " fill="none" id="ImportPortsController-to-Company" style="stroke:#A80036;stroke-width:1.0;stroke-dasharray:7.0,7.0;"/><polygon fill="#A80036" points="133.005,134.391,142.4109,131.4705,136.7664,131.0968,137.1401,125.4523,133.005,134.391" style="stroke:#A80036;stroke-width:1.0;"/><!--MD5=[093670de952a97f84a3595d8c4df9b55]
link ImportPortsController to Port--><path codeLine="2" d="M242.5,68.09 C242.5,83.789 242.5,103.674 242.5,122.471 " fill="none" id="ImportPortsController-to-Port" style="stroke:#A80036;stroke-width:1.0;stroke-dasharray:7.0,7.0;"/><polygon fill="#A80036" points="242.5,127.739,246.5,118.739,242.5,122.739,238.5,118.739,242.5,127.739" style="stroke:#A80036;stroke-width:1.0;"/><!--MD5=[ea62d68fb37d32ac8f33e05e9b19a8ea]
link ImportPortsController to KdtPort--><path codeLine="3" d="M277.765,68.313 C293.782,84.184 311.016,105.131 319.5,128 C336.813,174.67 340.147,194.706 319.5,240 C309.132,262.7454 289.811,281.946 270.68,296.6595 " fill="none" id="ImportPortsController-to-KdtPort" style="stroke:#A80036;stroke-width:1.0;stroke-dasharray:7.0,7.0;"/><polygon fill="#A80036" points="266.347,299.9205,275.9437,297.7063,270.3426,296.9146,271.1343,291.3134,266.347,299.9205" style="stroke:#A80036;stroke-width:1.0;"/><!--MD5=[b3508693fa16e1126a1fc609796f8a97]
link Company to KdtPort--><path codeLine="14" d="M124.172,233.518 C143.988,254.118 166.589,277.6138 184.47,296.2023 " fill="none" id="Company-to-KdtPort" style="stroke:#A80036;stroke-width:1.0;stroke-dasharray:7.0,7.0;"/><polygon fill="#A80036" points="187.981,299.8522,184.6255,290.5926,184.5151,296.2483,178.8594,296.138,187.981,299.8522" style="stroke:#A80036;stroke-width:1.0;"/><!--MD5=[93a73c77cb89107d734ccb15beb5dc83]
@startuml
ImportPortsController ..>Company
ImportPortsController ..>Port
ImportPortsController ..>KdtPort


ImportPortsController : +importFromCSV(file)


Company : -bstShips: BSTShip
Company : +Company()
Company : +getKdtPorts()
Company : +setKdtPorts(PortKDT)

Company ..>KdtPort

KdtPort : +insert(ports, latitude, longitude)

Port : -code: int
Port : -name: String
Port : -country: Country
Port : -latitude: float
Port : -longitude: float
@enduml

PlantUML version 1.2021.16beta1(Unknown compile time)
(GPL source distribution)
Java Runtime: Java(TM) SE Runtime Environment
JVM: Java HotSpot(TM) 64-Bit Server VM
Default Encoding: UTF-8
Language: en
Country: US
--></g></svg>