<?xml version="1.0" encoding="UTF-8" standalone="no"?><svg xmlns="http://www.w3.org/2000/svg" xmlns:xlink="http://www.w3.org/1999/xlink" contentScriptType="application/ecmascript" contentStyleType="text/css" height="1475px" preserveAspectRatio="none" style="width:2190px;height:1475px;" version="1.1" viewBox="0 0 2190 1475" width="2190px" zoomAndPan="magnify"><defs><filter height="300%" id="f1ql0w2mbt5v8v" width="300%" x="-1" y="-1"><feGaussianBlur result="blurOut" stdDeviation="2.0"/><feColorMatrix in="blurOut" result="blurOut2" type="matrix" values="0 0 0 0 0 0 0 0 0 0 0 0 0 0 0 0 0 0 .4 0"/><feOffset dx="4.0" dy="4.0" in="blurOut2" result="blurOut3"/><feBlend in="SourceGraphic" in2="blurOut3" mode="normal"/></filter></defs><g><rect fill="#FFFFFF" filter="url(#f1ql0w2mbt5v8v)" height="1272.1953" style="stroke:#A80036;stroke-width:1.0;" width="10" x="68" y="99.6094"/><rect fill="#FFFFFF" filter="url(#f1ql0w2mbt5v8v)" height="1249.8438" style="stroke:#A80036;stroke-width:1.0;" width="10" x="433" y="121.9609"/><rect fill="#FFFFFF" filter="url(#f1ql0w2mbt5v8v)" height="1189.1406" style="stroke:#A80036;stroke-width:1.0;" width="10" x="571" y="152.3125"/><rect fill="#FFFFFF" filter="url(#f1ql0w2mbt5v8v)" height="521.2188" style="stroke:#A80036;stroke-width:1.0;" width="10" x="576" y="190.6641"/><rect fill="#FFFFFF" filter="url(#f1ql0w2mbt5v8v)" height="28" style="stroke:#A80036;stroke-width:1.0;" width="10" x="576" y="750.2344"/><rect fill="#FFFFFF" filter="url(#f1ql0w2mbt5v8v)" height="28" style="stroke:#A80036;stroke-width:1.0;" width="10" x="576" y="1148.0469"/><rect fill="#FFFFFF" filter="url(#f1ql0w2mbt5v8v)" height="30.3516" style="stroke:#A80036;stroke-width:1.0;" width="10" x="761" y="226.0156"/><rect fill="#FFFFFF" filter="url(#f1ql0w2mbt5v8v)" height="30.3516" style="stroke:#A80036;stroke-width:1.0;" width="10" x="761" y="286.7188"/><rect fill="#FFFFFF" filter="url(#f1ql0w2mbt5v8v)" height="30" style="stroke:#A80036;stroke-width:1.0;" width="10" x="865" y="372.7734"/><rect fill="#FFFFFF" filter="url(#f1ql0w2mbt5v8v)" height="30.3516" style="stroke:#A80036;stroke-width:1.0;" width="10" x="1089" y="1280.75"/><rect fill="#FFFFFF" filter="url(#f1ql0w2mbt5v8v)" height="30" style="stroke:#A80036;stroke-width:1.0;" width="10" x="1220" y="493.8281"/><rect fill="#FFFFFF" filter="url(#f1ql0w2mbt5v8v)" height="30" style="stroke:#A80036;stroke-width:1.0;" width="10" x="1220" y="621.5313"/><rect fill="#FFFFFF" filter="url(#f1ql0w2mbt5v8v)" height="30" style="stroke:#A80036;stroke-width:1.0;" width="10" x="1391.5" y="554.1797"/><rect fill="#FFFFFF" filter="url(#f1ql0w2mbt5v8v)" height="30" style="stroke:#A80036;stroke-width:1.0;" width="10" x="1391.5" y="681.8828"/><rect fill="#FFFFFF" filter="url(#f1ql0w2mbt5v8v)" height="30" style="stroke:#A80036;stroke-width:1.0;" width="10" x="1598" y="840.9375"/><rect fill="#FFFFFF" filter="url(#f1ql0w2mbt5v8v)" height="30" style="stroke:#A80036;stroke-width:1.0;" width="10" x="1598" y="1012.3438"/><rect fill="#FFFFFF" filter="url(#f1ql0w2mbt5v8v)" height="30" style="stroke:#A80036;stroke-width:1.0;" width="10" x="1804.5" y="901.2891"/><rect fill="#FFFFFF" filter="url(#f1ql0w2mbt5v8v)" height="30" style="stroke:#A80036;stroke-width:1.0;" width="10" x="1804.5" y="1072.6953"/><rect fill="#FFFFFF" filter="url(#f1ql0w2mbt5v8v)" height="30" style="stroke:#A80036;stroke-width:1.0;" width="10" x="1804.5" y="1213.3984"/><rect fill="#FFFFFF" filter="url(#f1ql0w2mbt5v8v)" height="30.3516" style="stroke:#A80036;stroke-width:1.0;" width="10" x="2133.5" y="433.125"/><rect fill="#FFFFFF" filter="url(#f1ql0w2mbt5v8v)" height="260.1094" style="stroke:#000000;stroke-width:2.0;" width="1686.5" x="489.5" y="332.0703"/><rect fill="#FFFFFF" filter="url(#f1ql0w2mbt5v8v)" height="305.1094" style="stroke:#000000;stroke-width:2.0;" width="1442.5" x="479.5" y="946.2891"/><rect fill="#FFFFFF" filter="url(#f1ql0w2mbt5v8v)" height="139.0547" style="stroke:#000000;stroke-width:2.0;" width="1422.5" x="489.5" y="971.6406"/><line style="stroke:#A80036;stroke-width:1.0;stroke-dasharray:5.0,5.0;" x1="73" x2="73" y1="89.6094" y2="1389.8047"/><line style="stroke:#A80036;stroke-width:1.0;stroke-dasharray:5.0,5.0;" x1="437.5" x2="437.5" y1="89.6094" y2="1389.8047"/><line style="stroke:#A80036;stroke-width:1.0;stroke-dasharray:5.0,5.0;" x1="575.5" x2="575.5" y1="89.6094" y2="1389.8047"/><line style="stroke:#A80036;stroke-width:1.0;stroke-dasharray:5.0,5.0;" x1="766" x2="766" y1="89.6094" y2="1389.8047"/><line style="stroke:#A80036;stroke-width:1.0;stroke-dasharray:5.0,5.0;" x1="870" x2="870" y1="89.6094" y2="1389.8047"/><line style="stroke:#A80036;stroke-width:1.0;stroke-dasharray:5.0,5.0;" x1="982" x2="982" y1="89.6094" y2="1389.8047"/><line style="stroke:#A80036;stroke-width:1.0;stroke-dasharray:5.0,5.0;" x1="1094" x2="1094" y1="89.6094" y2="1389.8047"/><line style="stroke:#A80036;stroke-width:1.0;stroke-dasharray:5.0,5.0;" x1="1225" x2="1225" y1="89.6094" y2="1389.8047"/><line style="stroke:#A80036;stroke-width:1.0;stroke-dasharray:5.0,5.0;" x1="1396" x2="1396" y1="89.6094" y2="1389.8047"/><line style="stroke:#A80036;stroke-width:1.0;stroke-dasharray:5.0,5.0;" x1="1603" x2="1603" y1="89.6094" y2="1389.8047"/><line style="stroke:#A80036;stroke-width:1.0;stroke-dasharray:5.0,5.0;" x1="1809" x2="1809" y1="89.6094" y2="1389.8047"/><line style="stroke:#A80036;stroke-width:1.0;stroke-dasharray:5.0,5.0;" x1="1968" x2="1968" y1="89.6094" y2="1389.8047"/><line style="stroke:#A80036;stroke-width:1.0;stroke-dasharray:5.0,5.0;" x1="2068" x2="2068" y1="89.6094" y2="1389.8047"/><line style="stroke:#A80036;stroke-width:1.0;stroke-dasharray:5.0,5.0;" x1="2138" x2="2138" y1="89.6094" y2="1389.8047"/><text fill="#000000" font-family="sans-serif" font-size="14" lengthAdjust="spacing" textLength="100" x="20" y="86.5332">Traffic Manager</text><ellipse cx="73" cy="15" fill="#FEFECE" filter="url(#f1ql0w2mbt5v8v)" rx="8" ry="8" style="stroke:#A80036;stroke-width:2.0;"/><path d="M73,23 L73,50 M60,31 L86,31 M73,50 L60,65 M73,50 L86,65 " fill="none" filter="url(#f1ql0w2mbt5v8v)" style="stroke:#A80036;stroke-width:2.0;"/><text fill="#000000" font-family="sans-serif" font-size="14" lengthAdjust="spacing" textLength="100" x="20" y="1403.3379">Traffic Manager</text><ellipse cx="73" cy="1416.4141" fill="#FEFECE" filter="url(#f1ql0w2mbt5v8v)" rx="8" ry="8" style="stroke:#A80036;stroke-width:2.0;"/><path d="M73,1424.4141 L73,1451.4141 M60,1432.4141 L86,1432.4141 M73,1451.4141 L60,1466.4141 M73,1451.4141 L86,1466.4141 " fill="none" filter="url(#f1ql0w2mbt5v8v)" style="stroke:#A80036;stroke-width:2.0;"/><rect fill="#FEFECE" filter="url(#f1ql0w2mbt5v8v)" height="31.6094" style="stroke:#A80036;stroke-width:1.5;" width="99" x="386.5" y="53"/><text fill="#000000" font-family="sans-serif" font-size="14" lengthAdjust="spacing" textLength="85" x="393.5" y="74.5332">:ColourMapUI</text><rect fill="#FEFECE" filter="url(#f1ql0w2mbt5v8v)" height="31.6094" style="stroke:#A80036;stroke-width:1.5;" width="99" x="386.5" y="1388.8047"/><text fill="#000000" font-family="sans-serif" font-size="14" lengthAdjust="spacing" textLength="85" x="393.5" y="1410.3379">:ColourMapUI</text><rect fill="#FEFECE" filter="url(#f1ql0w2mbt5v8v)" height="31.6094" style="stroke:#A80036;stroke-width:1.5;" width="149" x="499.5" y="53"/><text fill="#000000" font-family="sans-serif" font-size="14" lengthAdjust="spacing" textLength="135" x="506.5" y="74.5332">:ColourMapController</text><rect fill="#FEFECE" filter="url(#f1ql0w2mbt5v8v)" height="31.6094" style="stroke:#A80036;stroke-width:1.5;" width="149" x="499.5" y="1388.8047"/><text fill="#000000" font-family="sans-serif" font-size="14" lengthAdjust="spacing" textLength="135" x="506.5" y="1410.3379">:ColourMapController</text><rect fill="#FEFECE" filter="url(#f1ql0w2mbt5v8v)" height="31.6094" style="stroke:#A80036;stroke-width:1.5;" width="78" x="725" y="53"/><text fill="#000000" font-family="sans-serif" font-size="14" lengthAdjust="spacing" textLength="64" x="732" y="74.5332">:Company</text><rect fill="#FEFECE" filter="url(#f1ql0w2mbt5v8v)" height="31.6094" style="stroke:#A80036;stroke-width:1.5;" width="78" x="725" y="1388.8047"/><text fill="#000000" font-family="sans-serif" font-size="14" lengthAdjust="spacing" textLength="64" x="732" y="1410.3379">:Company</text><rect fill="#FEFECE" filter="url(#f1ql0w2mbt5v8v)" height="49.2188" style="stroke:#A80036;stroke-width:1.5;" width="102" x="817" y="35.3906"/><text fill="#000000" font-family="sans-serif" font-size="14" lengthAdjust="spacing" textLength="81" x="827.5" y="56.9238">countryStore</text><text fill="#000000" font-family="sans-serif" font-size="14" lengthAdjust="spacing" textLength="88" x="824" y="74.5332">:CountryStore</text><rect fill="#FEFECE" filter="url(#f1ql0w2mbt5v8v)" height="49.2188" style="stroke:#A80036;stroke-width:1.5;" width="102" x="817" y="1388.8047"/><text fill="#000000" font-family="sans-serif" font-size="14" lengthAdjust="spacing" textLength="81" x="827.5" y="1410.3379">countryStore</text><text fill="#000000" font-family="sans-serif" font-size="14" lengthAdjust="spacing" textLength="88" x="824" y="1427.9473">:CountryStore</text><rect fill="#FEFECE" filter="url(#f1ql0w2mbt5v8v)" height="49.2188" style="stroke:#A80036;stroke-width:1.5;" width="95" x="933" y="35.3906"/><text fill="#000000" font-family="sans-serif" font-size="14" lengthAdjust="spacing" textLength="37" x="962" y="56.9238">graph</text><text fill="#000000" font-family="sans-serif" font-size="14" lengthAdjust="spacing" textLength="81" x="940" y="74.5332">:MatrixGraph</text><rect fill="#FEFECE" filter="url(#f1ql0w2mbt5v8v)" height="49.2188" style="stroke:#A80036;stroke-width:1.5;" width="95" x="933" y="1388.8047"/><text fill="#000000" font-family="sans-serif" font-size="14" lengthAdjust="spacing" textLength="37" x="962" y="1410.3379">graph</text><text fill="#000000" font-family="sans-serif" font-size="14" lengthAdjust="spacing" textLength="81" x="940" y="1427.9473">:MatrixGraph</text><rect fill="#FEFECE" filter="url(#f1ql0w2mbt5v8v)" height="31.6094" style="stroke:#A80036;stroke-width:1.5;" width="100" x="1042" y="53"/><text fill="#000000" font-family="sans-serif" font-size="14" lengthAdjust="spacing" textLength="86" x="1049" y="74.5332">FileOperation</text><rect fill="#FEFECE" filter="url(#f1ql0w2mbt5v8v)" height="31.6094" style="stroke:#A80036;stroke-width:1.5;" width="100" x="1042" y="1388.8047"/><text fill="#000000" font-family="sans-serif" font-size="14" lengthAdjust="spacing" textLength="86" x="1049" y="1410.3379">FileOperation</text><rect fill="#FEFECE" filter="url(#f1ql0w2mbt5v8v)" height="49.2188" style="stroke:#A80036;stroke-width:1.5;" width="134" x="1156" y="35.3906"/><text fill="#000000" font-family="sans-serif" font-size="14" lengthAdjust="spacing" textLength="52" x="1197" y="56.9238">degrees</text><text fill="#000000" font-family="sans-serif" font-size="14" lengthAdjust="spacing" textLength="120" x="1163" y="74.5332">:ArrayList&lt;Integer&gt;</text><rect fill="#FEFECE" filter="url(#f1ql0w2mbt5v8v)" height="49.2188" style="stroke:#A80036;stroke-width:1.5;" width="134" x="1156" y="1388.8047"/><text fill="#000000" font-family="sans-serif" font-size="14" lengthAdjust="spacing" textLength="52" x="1197" y="1410.3379">degrees</text><text fill="#000000" font-family="sans-serif" font-size="14" lengthAdjust="spacing" textLength="120" x="1163" y="1427.9473">:ArrayList&lt;Integer&gt;</text><rect fill="#FEFECE" filter="url(#f1ql0w2mbt5v8v)" height="49.2188" style="stroke:#A80036;stroke-width:1.5;" width="181" x="1304" y="35.3906"/><text fill="#000000" font-family="sans-serif" font-size="14" lengthAdjust="spacing" textLength="57" x="1366" y="56.9238">elements</text><text fill="#000000" font-family="sans-serif" font-size="14" lengthAdjust="spacing" textLength="167" x="1311" y="74.5332">:ArrayList&lt;GraphElement&gt;</text><rect fill="#FEFECE" filter="url(#f1ql0w2mbt5v8v)" height="49.2188" style="stroke:#A80036;stroke-width:1.5;" width="181" x="1304" y="1388.8047"/><text fill="#000000" font-family="sans-serif" font-size="14" lengthAdjust="spacing" textLength="57" x="1366" y="1410.3379">elements</text><text fill="#000000" font-family="sans-serif" font-size="14" lengthAdjust="spacing" textLength="167" x="1311" y="1427.9473">:ArrayList&lt;GraphElement&gt;</text><rect fill="#FEFECE" filter="url(#f1ql0w2mbt5v8v)" height="49.2188" style="stroke:#A80036;stroke-width:1.5;" width="204" x="1499" y="35.3906"/><text fill="#000000" font-family="sans-serif" font-size="14" lengthAdjust="spacing" textLength="27" x="1587.5" y="56.9238">map</text><text fill="#000000" font-family="sans-serif" font-size="14" lengthAdjust="spacing" textLength="190" x="1506" y="74.5332">:Map&lt;GraphElement, Integer&gt;</text><rect fill="#FEFECE" filter="url(#f1ql0w2mbt5v8v)" height="49.2188" style="stroke:#A80036;stroke-width:1.5;" width="204" x="1499" y="1388.8047"/><text fill="#000000" font-family="sans-serif" font-size="14" lengthAdjust="spacing" textLength="27" x="1587.5" y="1410.3379">map</text><text fill="#000000" font-family="sans-serif" font-size="14" lengthAdjust="spacing" textLength="190" x="1506" y="1427.9473">:Map&lt;GraphElement, Integer&gt;</text><rect fill="#FEFECE" filter="url(#f1ql0w2mbt5v8v)" height="49.2188" style="stroke:#A80036;stroke-width:1.5;" width="181" x="1717" y="35.3906"/><text fill="#000000" font-family="sans-serif" font-size="14" lengthAdjust="spacing" textLength="75" x="1770" y="56.9238">listColoured</text><text fill="#000000" font-family="sans-serif" font-size="14" lengthAdjust="spacing" textLength="167" x="1724" y="74.5332">:ArrayList&lt;GraphElement&gt;</text><rect fill="#FEFECE" filter="url(#f1ql0w2mbt5v8v)" height="49.2188" style="stroke:#A80036;stroke-width:1.5;" width="181" x="1717" y="1388.8047"/><text fill="#000000" font-family="sans-serif" font-size="14" lengthAdjust="spacing" textLength="75" x="1770" y="1410.3379">listColoured</text><text fill="#000000" font-family="sans-serif" font-size="14" lengthAdjust="spacing" textLength="167" x="1724" y="1427.9473">:ArrayList&lt;GraphElement&gt;</text><rect fill="#FEFECE" filter="url(#f1ql0w2mbt5v8v)" height="49.2188" style="stroke:#A80036;stroke-width:1.5;" width="109" x="1912" y="35.3906"/><text fill="#000000" font-family="sans-serif" font-size="14" lengthAdjust="spacing" textLength="50" x="1941.5" y="56.9238">element</text><text fill="#000000" font-family="sans-serif" font-size="14" lengthAdjust="spacing" textLength="95" x="1919" y="74.5332">:GraphElement</text><rect fill="#FEFECE" filter="url(#f1ql0w2mbt5v8v)" height="49.2188" style="stroke:#A80036;stroke-width:1.5;" width="109" x="1912" y="1388.8047"/><text fill="#000000" font-family="sans-serif" font-size="14" lengthAdjust="spacing" textLength="50" x="1941.5" y="1410.3379">element</text><text fill="#000000" font-family="sans-serif" font-size="14" lengthAdjust="spacing" textLength="95" x="1919" y="1427.9473">:GraphElement</text><rect fill="#FEFECE" filter="url(#f1ql0w2mbt5v8v)" height="49.2188" style="stroke:#A80036;stroke-width:1.5;" width="62" x="2035" y="35.3906"/><text fill="#000000" font-family="sans-serif" font-size="14" lengthAdjust="spacing" textLength="39" x="2046.5" y="56.9238">colour</text><text fill="#000000" font-family="sans-serif" font-size="14" lengthAdjust="spacing" textLength="48" x="2042" y="74.5332">:Integer</text><rect fill="#FEFECE" filter="url(#f1ql0w2mbt5v8v)" height="49.2188" style="stroke:#A80036;stroke-width:1.5;" width="62" x="2035" y="1388.8047"/><text fill="#000000" font-family="sans-serif" font-size="14" lengthAdjust="spacing" textLength="39" x="2046.5" y="1410.3379">colour</text><text fill="#000000" font-family="sans-serif" font-size="14" lengthAdjust="spacing" textLength="48" x="2042" y="1427.9473">:Integer</text><rect fill="#FEFECE" filter="url(#f1ql0w2mbt5v8v)" height="31.6094" style="stroke:#A80036;stroke-width:1.5;" width="51" x="2111" y="53"/><text fill="#000000" font-family="sans-serif" font-size="14" lengthAdjust="spacing" textLength="37" x="2118" y="74.5332">graph</text><rect fill="#FEFECE" filter="url(#f1ql0w2mbt5v8v)" height="31.6094" style="stroke:#A80036;stroke-width:1.5;" width="51" x="2111" y="1388.8047"/><text fill="#000000" font-family="sans-serif" font-size="14" lengthAdjust="spacing" textLength="37" x="2118" y="1410.3379">graph</text><rect fill="#FFFFFF" filter="url(#f1ql0w2mbt5v8v)" height="1272.1953" style="stroke:#A80036;stroke-width:1.0;" width="10" x="68" y="99.6094"/><rect fill="#FFFFFF" filter="url(#f1ql0w2mbt5v8v)" height="1249.8438" style="stroke:#A80036;stroke-width:1.0;" width="10" x="433" y="121.9609"/><rect fill="#FFFFFF" filter="url(#f1ql0w2mbt5v8v)" height="1189.1406" style="stroke:#A80036;stroke-width:1.0;" width="10" x="571" y="152.3125"/><rect fill="#FFFFFF" filter="url(#f1ql0w2mbt5v8v)" height="521.2188" style="stroke:#A80036;stroke-width:1.0;" width="10" x="576" y="190.6641"/><rect fill="#FFFFFF" filter="url(#f1ql0w2mbt5v8v)" height="28" style="stroke:#A80036;stroke-width:1.0;" width="10" x="576" y="750.2344"/><rect fill="#FFFFFF" filter="url(#f1ql0w2mbt5v8v)" height="28" style="stroke:#A80036;stroke-width:1.0;" width="10" x="576" y="1148.0469"/><rect fill="#FFFFFF" filter="url(#f1ql0w2mbt5v8v)" height="30.3516" style="stroke:#A80036;stroke-width:1.0;" width="10" x="761" y="226.0156"/><rect fill="#FFFFFF" filter="url(#f1ql0w2mbt5v8v)" height="30.3516" style="stroke:#A80036;stroke-width:1.0;" width="10" x="761" y="286.7188"/><rect fill="#FFFFFF" filter="url(#f1ql0w2mbt5v8v)" height="30" style="stroke:#A80036;stroke-width:1.0;" width="10" x="865" y="372.7734"/><rect fill="#FFFFFF" filter="url(#f1ql0w2mbt5v8v)" height="30.3516" style="stroke:#A80036;stroke-width:1.0;" width="10" x="1089" y="1280.75"/><rect fill="#FFFFFF" filter="url(#f1ql0w2mbt5v8v)" height="30" style="stroke:#A80036;stroke-width:1.0;" width="10" x="1220" y="493.8281"/><rect fill="#FFFFFF" filter="url(#f1ql0w2mbt5v8v)" height="30" style="stroke:#A80036;stroke-width:1.0;" width="10" x="1220" y="621.5313"/><rect fill="#FFFFFF" filter="url(#f1ql0w2mbt5v8v)" height="30" style="stroke:#A80036;stroke-width:1.0;" width="10" x="1391.5" y="554.1797"/><rect fill="#FFFFFF" filter="url(#f1ql0w2mbt5v8v)" height="30" style="stroke:#A80036;stroke-width:1.0;" width="10" x="1391.5" y="681.8828"/><rect fill="#FFFFFF" filter="url(#f1ql0w2mbt5v8v)" height="30" style="stroke:#A80036;stroke-width:1.0;" width="10" x="1598" y="840.9375"/><rect fill="#FFFFFF" filter="url(#f1ql0w2mbt5v8v)" height="30" style="stroke:#A80036;stroke-width:1.0;" width="10" x="1598" y="1012.3438"/><rect fill="#FFFFFF" filter="url(#f1ql0w2mbt5v8v)" height="30" style="stroke:#A80036;stroke-width:1.0;" width="10" x="1804.5" y="901.2891"/><rect fill="#FFFFFF" filter="url(#f1ql0w2mbt5v8v)" height="30" style="stroke:#A80036;stroke-width:1.0;" width="10" x="1804.5" y="1072.6953"/><rect fill="#FFFFFF" filter="url(#f1ql0w2mbt5v8v)" height="30" style="stroke:#A80036;stroke-width:1.0;" width="10" x="1804.5" y="1213.3984"/><rect fill="#FFFFFF" filter="url(#f1ql0w2mbt5v8v)" height="30.3516" style="stroke:#A80036;stroke-width:1.0;" width="10" x="2133.5" y="433.125"/><polygon fill="#A80036" points="421,117.9609,431,121.9609,421,125.9609,425,121.9609" style="stroke:#A80036;stroke-width:1.0;"/><line style="stroke:#A80036;stroke-width:1.0;" x1="78" x2="427" y1="121.9609" y2="121.9609"/><text fill="#000000" font-family="sans-serif" font-size="13" font-weight="bold" lengthAdjust="spacing" textLength="7" x="85" y="117.1045">1</text><text fill="#000000" font-family="sans-serif" font-size="13" lengthAdjust="spacing" textLength="325" x="96" y="117.1045">asks to colour the map using as few colours as possible</text><polygon fill="#A80036" points="559,148.3125,569,152.3125,559,156.3125,563,152.3125" style="stroke:#A80036;stroke-width:1.0;"/><line style="stroke:#A80036;stroke-width:1.0;" x1="443" x2="565" y1="152.3125" y2="152.3125"/><text fill="#000000" font-family="sans-serif" font-size="13" font-weight="bold" lengthAdjust="spacing" textLength="7" x="450" y="147.4561">2</text><text fill="#000000" font-family="sans-serif" font-size="13" lengthAdjust="spacing" textLength="70" x="461" y="147.4561">ColourMap()</text><line style="stroke:#A80036;stroke-width:1.0;" x1="581" x2="628" y1="177.6641" y2="177.6641"/><line style="stroke:#A80036;stroke-width:1.0;" x1="628" x2="628" y1="177.6641" y2="190.6641"/><line style="stroke:#A80036;stroke-width:1.0;" x1="587" x2="628" y1="190.6641" y2="190.6641"/><polygon fill="#A80036" points="597,186.6641,587,190.6641,597,194.6641,593,190.6641" style="stroke:#A80036;stroke-width:1.0;"/><text fill="#000000" font-family="sans-serif" font-size="13" font-weight="bold" lengthAdjust="spacing" textLength="7" x="593" y="172.8076">3</text><text fill="#000000" font-family="sans-serif" font-size="13" lengthAdjust="spacing" textLength="122" x="604" y="172.8076">getCountriesDegree()</text><polygon fill="#A80036" points="749,222.0156,759,226.0156,749,230.0156,753,226.0156" style="stroke:#A80036;stroke-width:1.0;"/><line style="stroke:#A80036;stroke-width:1.0;" x1="586" x2="755" y1="226.0156" y2="226.0156"/><text fill="#000000" font-family="sans-serif" font-size="13" font-weight="bold" lengthAdjust="spacing" textLength="7" x="593" y="221.1592">4</text><text fill="#000000" font-family="sans-serif" font-size="13" lengthAdjust="spacing" textLength="145" x="604" y="221.1592">graph = getMatrixGraph()</text><polygon fill="#A80036" points="597,252.3672,587,256.3672,597,260.3672,593,256.3672" style="stroke:#A80036;stroke-width:1.0;"/><line style="stroke:#A80036;stroke-width:1.0;stroke-dasharray:2.0,2.0;" x1="591" x2="765" y1="256.3672" y2="256.3672"/><text fill="#000000" font-family="sans-serif" font-size="13" font-weight="bold" lengthAdjust="spacing" textLength="7" x="603" y="251.5107">5</text><text fill="#000000" font-family="sans-serif" font-size="13" lengthAdjust="spacing" textLength="32" x="614" y="251.5107">graph</text><polygon fill="#A80036" points="749,282.7188,759,286.7188,749,290.7188,753,286.7188" style="stroke:#A80036;stroke-width:1.0;"/><line style="stroke:#A80036;stroke-width:1.0;" x1="586" x2="755" y1="286.7188" y2="286.7188"/><text fill="#000000" font-family="sans-serif" font-size="13" font-weight="bold" lengthAdjust="spacing" textLength="7" x="593" y="281.8623">6</text><text fill="#000000" font-family="sans-serif" font-size="13" lengthAdjust="spacing" textLength="94" x="604" y="281.8623">getCountryStore</text><polygon fill="#A80036" points="597,313.0703,587,317.0703,597,321.0703,593,317.0703" style="stroke:#A80036;stroke-width:1.0;"/><line style="stroke:#A80036;stroke-width:1.0;stroke-dasharray:2.0,2.0;" x1="591" x2="765" y1="317.0703" y2="317.0703"/><text fill="#000000" font-family="sans-serif" font-size="13" font-weight="bold" lengthAdjust="spacing" textLength="7" x="603" y="312.2139">7</text><text fill="#000000" font-family="sans-serif" font-size="13" lengthAdjust="spacing" textLength="74" x="614" y="312.2139">countryStore</text><path d="M489.5,332.0703 L562.5,332.0703 L562.5,340.0703 L552.5,350.0703 L489.5,350.0703 L489.5,332.0703 " fill="#EEEEEE" style="stroke:#000000;stroke-width:1.0;"/><rect fill="none" height="260.1094" style="stroke:#000000;stroke-width:2.0;" width="1686.5" x="489.5" y="332.0703"/><text fill="#000000" font-family="sans-serif" font-size="13" font-weight="bold" lengthAdjust="spacing" textLength="28" x="504.5" y="346.5654">loop</text><text fill="#000000" font-family="sans-serif" font-size="11" font-weight="bold" lengthAdjust="spacing" textLength="111" x="577.5" y="345.4893">[i &lt; graph.vertices()]</text><polygon fill="#A80036" points="853,368.7734,863,372.7734,853,376.7734,857,372.7734" style="stroke:#A80036;stroke-width:1.0;"/><line style="stroke:#A80036;stroke-width:1.0;" x1="586" x2="859" y1="372.7734" y2="372.7734"/><text fill="#000000" font-family="sans-serif" font-size="13" font-weight="bold" lengthAdjust="spacing" textLength="7" x="593" y="367.917">8</text><text fill="#000000" font-family="sans-serif" font-size="13" lengthAdjust="spacing" textLength="127" x="604" y="367.917">getCountryByCapital()</text><polygon fill="#A80036" points="2121.5,429.125,2131.5,433.125,2121.5,437.125,2125.5,433.125" style="stroke:#A80036;stroke-width:1.0;"/><line style="stroke:#A80036;stroke-width:1.0;" x1="586" x2="2127.5" y1="433.125" y2="433.125"/><text fill="#000000" font-family="sans-serif" font-size="13" font-weight="bold" lengthAdjust="spacing" textLength="7" x="593" y="428.2686">9</text><text fill="#000000" font-family="sans-serif" font-size="13" lengthAdjust="spacing" textLength="153" x="604" y="428.2686">adjVertices(graphElement)</text><polygon fill="#A80036" points="597,459.4766,587,463.4766,597,467.4766,593,463.4766" style="stroke:#A80036;stroke-width:1.0;"/><line style="stroke:#A80036;stroke-width:1.0;stroke-dasharray:2.0,2.0;" x1="591" x2="2137.5" y1="463.4766" y2="463.4766"/><text fill="#000000" font-family="sans-serif" font-size="13" font-weight="bold" lengthAdjust="spacing" textLength="14" x="603" y="458.6201">10</text><text fill="#000000" font-family="sans-serif" font-size="13" lengthAdjust="spacing" textLength="24" x="621" y="458.6201">size</text><polygon fill="#A80036" points="1208,489.8281,1218,493.8281,1208,497.8281,1212,493.8281" style="stroke:#A80036;stroke-width:1.0;"/><line style="stroke:#A80036;stroke-width:1.0;" x1="586" x2="1214" y1="493.8281" y2="493.8281"/><text fill="#000000" font-family="sans-serif" font-size="13" font-weight="bold" lengthAdjust="spacing" textLength="14" x="593" y="488.9717">11</text><text fill="#000000" font-family="sans-serif" font-size="13" lengthAdjust="spacing" textLength="53" x="611" y="488.9717">add(size)</text><polygon fill="#A80036" points="1379.5,550.1797,1389.5,554.1797,1379.5,558.1797,1383.5,554.1797" style="stroke:#A80036;stroke-width:1.0;"/><line style="stroke:#A80036;stroke-width:1.0;" x1="586" x2="1385.5" y1="554.1797" y2="554.1797"/><text fill="#000000" font-family="sans-serif" font-size="13" font-weight="bold" lengthAdjust="spacing" textLength="14" x="593" y="549.3232">12</text><text fill="#000000" font-family="sans-serif" font-size="13" lengthAdjust="spacing" textLength="75" x="611" y="549.3232">add(element)</text><polygon fill="#A80036" points="1208,617.5313,1218,621.5313,1208,625.5313,1212,621.5313" style="stroke:#A80036;stroke-width:1.0;"/><line style="stroke:#A80036;stroke-width:1.0;" x1="586" x2="1214" y1="621.5313" y2="621.5313"/><text fill="#000000" font-family="sans-serif" font-size="13" font-weight="bold" lengthAdjust="spacing" textLength="14" x="593" y="616.6748">13</text><text fill="#000000" font-family="sans-serif" font-size="13" lengthAdjust="spacing" textLength="30" x="611" y="616.6748">sort()</text><polygon fill="#A80036" points="1379.5,677.8828,1389.5,681.8828,1379.5,685.8828,1383.5,681.8828" style="stroke:#A80036;stroke-width:1.0;"/><line style="stroke:#A80036;stroke-width:1.0;" x1="586" x2="1385.5" y1="681.8828" y2="681.8828"/><text fill="#000000" font-family="sans-serif" font-size="13" font-weight="bold" lengthAdjust="spacing" textLength="14" x="593" y="677.0264">14</text><text fill="#000000" font-family="sans-serif" font-size="13" lengthAdjust="spacing" textLength="30" x="611" y="677.0264">sort()</text><line style="stroke:#A80036;stroke-width:1.0;" x1="586" x2="628" y1="742.2344" y2="742.2344"/><line style="stroke:#A80036;stroke-width:1.0;" x1="628" x2="628" y1="742.2344" y2="755.2344"/><line style="stroke:#A80036;stroke-width:1.0;" x1="587" x2="628" y1="755.2344" y2="755.2344"/><polygon fill="#A80036" points="597,751.2344,587,755.2344,597,759.2344,593,755.2344" style="stroke:#A80036;stroke-width:1.0;"/><text fill="#000000" font-family="sans-serif" font-size="13" font-weight="bold" lengthAdjust="spacing" textLength="14" x="593" y="737.3779">15</text><text fill="#000000" font-family="sans-serif" font-size="13" lengthAdjust="spacing" textLength="58" x="611" y="737.3779">colour = 1</text><polygon fill="#A80036" points="1586,836.9375,1596,840.9375,1586,844.9375,1590,840.9375" style="stroke:#A80036;stroke-width:1.0;"/><line style="stroke:#A80036;stroke-width:1.0;" x1="581" x2="1592" y1="840.9375" y2="840.9375"/><text fill="#000000" font-family="sans-serif" font-size="13" font-weight="bold" lengthAdjust="spacing" textLength="14" x="588" y="836.0811">16</text><text fill="#000000" font-family="sans-serif" font-size="13" lengthAdjust="spacing" textLength="133" x="606" y="836.0811">put(elements(i), colour)</text><polygon fill="#A80036" points="1792.5,897.2891,1802.5,901.2891,1792.5,905.2891,1796.5,901.2891" style="stroke:#A80036;stroke-width:1.0;"/><line style="stroke:#A80036;stroke-width:1.0;" x1="581" x2="1798.5" y1="901.2891" y2="901.2891"/><text fill="#000000" font-family="sans-serif" font-size="13" font-weight="bold" lengthAdjust="spacing" textLength="14" x="588" y="896.4326">17</text><text fill="#000000" font-family="sans-serif" font-size="13" lengthAdjust="spacing" textLength="93" x="606" y="896.4326">add(elements(i))</text><path d="M479.5,946.2891 L552.5,946.2891 L552.5,954.2891 L542.5,964.2891 L479.5,964.2891 L479.5,946.2891 " fill="#EEEEEE" style="stroke:#000000;stroke-width:1.0;"/><rect fill="none" height="305.1094" style="stroke:#000000;stroke-width:2.0;" width="1442.5" x="479.5" y="946.2891"/><text fill="#000000" font-family="sans-serif" font-size="13" font-weight="bold" lengthAdjust="spacing" textLength="28" x="494.5" y="960.7842">loop</text><text fill="#000000" font-family="sans-serif" font-size="11" font-weight="bold" lengthAdjust="spacing" textLength="116" x="567.5" y="959.708">[element : elements]</text><path d="M489.5,971.6406 L550.5,971.6406 L550.5,979.6406 L540.5,989.6406 L489.5,989.6406 L489.5,971.6406 " fill="#EEEEEE" style="stroke:#000000;stroke-width:1.0;"/><rect fill="none" height="139.0547" style="stroke:#000000;stroke-width:2.0;" width="1422.5" x="489.5" y="971.6406"/><text fill="#000000" font-family="sans-serif" font-size="13" font-weight="bold" lengthAdjust="spacing" textLength="16" x="504.5" y="986.1357">alt</text><text fill="#000000" font-family="sans-serif" font-size="11" font-weight="bold" lengthAdjust="spacing" textLength="159" x="565.5" y="985.0596">[element not in listColoured]</text><polygon fill="#A80036" points="1586,1008.3438,1596,1012.3438,1586,1016.3438,1590,1012.3438" style="stroke:#A80036;stroke-width:1.0;"/><line style="stroke:#A80036;stroke-width:1.0;" x1="581" x2="1592" y1="1012.3438" y2="1012.3438"/><text fill="#000000" font-family="sans-serif" font-size="13" font-weight="bold" lengthAdjust="spacing" textLength="14" x="588" y="1007.4873">18</text><text fill="#000000" font-family="sans-serif" font-size="13" lengthAdjust="spacing" textLength="133" x="606" y="1007.4873">put(elements(i), colour)</text><polygon fill="#A80036" points="1792.5,1068.6953,1802.5,1072.6953,1792.5,1076.6953,1796.5,1072.6953" style="stroke:#A80036;stroke-width:1.0;"/><line style="stroke:#A80036;stroke-width:1.0;" x1="581" x2="1798.5" y1="1072.6953" y2="1072.6953"/><text fill="#000000" font-family="sans-serif" font-size="13" font-weight="bold" lengthAdjust="spacing" textLength="14" x="588" y="1067.8389">19</text><text fill="#000000" font-family="sans-serif" font-size="13" lengthAdjust="spacing" textLength="93" x="606" y="1067.8389">add(elements(i))</text><line style="stroke:#A80036;stroke-width:1.0;" x1="586" x2="628" y1="1140.0469" y2="1140.0469"/><line style="stroke:#A80036;stroke-width:1.0;" x1="628" x2="628" y1="1140.0469" y2="1153.0469"/><line style="stroke:#A80036;stroke-width:1.0;" x1="587" x2="628" y1="1153.0469" y2="1153.0469"/><polygon fill="#A80036" points="597,1149.0469,587,1153.0469,597,1157.0469,593,1153.0469" style="stroke:#A80036;stroke-width:1.0;"/><text fill="#000000" font-family="sans-serif" font-size="13" font-weight="bold" lengthAdjust="spacing" textLength="14" x="593" y="1135.1904">20</text><text fill="#000000" font-family="sans-serif" font-size="13" lengthAdjust="spacing" textLength="51" x="611" y="1135.1904">colour++</text><polygon fill="#A80036" points="1792.5,1209.3984,1802.5,1213.3984,1792.5,1217.3984,1796.5,1213.3984" style="stroke:#A80036;stroke-width:1.0;"/><line style="stroke:#A80036;stroke-width:1.0;" x1="581" x2="1798.5" y1="1213.3984" y2="1213.3984"/><text fill="#000000" font-family="sans-serif" font-size="13" font-weight="bold" lengthAdjust="spacing" textLength="14" x="588" y="1208.542">21</text><text fill="#000000" font-family="sans-serif" font-size="13" lengthAdjust="spacing" textLength="36" x="606" y="1208.542">clear()</text><polygon fill="#A80036" points="1077,1276.75,1087,1280.75,1077,1284.75,1081,1280.75" style="stroke:#A80036;stroke-width:1.0;"/><line style="stroke:#A80036;stroke-width:1.0;" x1="581" x2="1083" y1="1280.75" y2="1280.75"/><text fill="#000000" font-family="sans-serif" font-size="13" font-weight="bold" lengthAdjust="spacing" textLength="14" x="588" y="1275.8936">22</text><text fill="#000000" font-family="sans-serif" font-size="13" lengthAdjust="spacing" textLength="79" x="606" y="1275.8936">writeToAFile()</text><polygon fill="#A80036" points="592,1307.1016,582,1311.1016,592,1315.1016,588,1311.1016" style="stroke:#A80036;stroke-width:1.0;"/><line style="stroke:#A80036;stroke-width:1.0;stroke-dasharray:2.0,2.0;" x1="586" x2="1093" y1="1311.1016" y2="1311.1016"/><text fill="#000000" font-family="sans-serif" font-size="13" font-weight="bold" lengthAdjust="spacing" textLength="14" x="598" y="1306.2451">23</text><text fill="#000000" font-family="sans-serif" font-size="13" lengthAdjust="spacing" textLength="16" x="616" y="1306.2451">file</text><polygon fill="#A80036" points="454,1337.4531,444,1341.4531,454,1345.4531,450,1341.4531" style="stroke:#A80036;stroke-width:1.0;"/><line style="stroke:#A80036;stroke-width:1.0;stroke-dasharray:2.0,2.0;" x1="448" x2="575" y1="1341.4531" y2="1341.4531"/><text fill="#000000" font-family="sans-serif" font-size="13" font-weight="bold" lengthAdjust="spacing" textLength="14" x="460" y="1336.5967">24</text><text fill="#000000" font-family="sans-serif" font-size="13" lengthAdjust="spacing" textLength="16" x="478" y="1336.5967">file</text><polygon fill="#A80036" points="84,1367.8047,74,1371.8047,84,1375.8047,80,1371.8047" style="stroke:#A80036;stroke-width:1.0;"/><line style="stroke:#A80036;stroke-width:1.0;stroke-dasharray:2.0,2.0;" x1="78" x2="437" y1="1371.8047" y2="1371.8047"/><text fill="#000000" font-family="sans-serif" font-size="13" font-weight="bold" lengthAdjust="spacing" textLength="14" x="90" y="1366.9482">25</text><text fill="#000000" font-family="sans-serif" font-size="13" lengthAdjust="spacing" textLength="57" x="108" y="1366.9482">shows file</text><!--MD5=[ea2363ec3d2c72c0e7bd5a5c2a3330b9]
@startuml
actor "Traffic Manager" as Adm
participant ":ColourMapUI" as UI
participant ":ColourMapController" as controller
participant ":Company" as c
participant "countryStore\n:CountryStore" as cs
participant "element\n:GraphElement" as graphe
participant "graph\n:MatrixGraph" as mgraph
participant "FileOperation" as fo
participant "degrees\n:ArrayList<Integer>" as degrees
participant "elements\n:ArrayList<GraphElement>" as elements
participant "map\n:Map<GraphElement, Integer>" as map
participant "listColoured\n:ArrayList<GraphElement>" as listColoured
participant ":GraphElement" as graphe
participant "colour\n:Integer" as colour

autonumber

activate Adm

Adm -> UI: asks to colour the map using as few colours as possible

activate UI

UI -> controller: ColourMap()

activate controller

controller -> controller: getCountriesDegree()

activate controller

controller -> c: graph = getMatrixGraph()

activate c

c - -> controller: graph

deactivate c

controller -> c: getCountryStore

activate c

c - -> controller: countryStore

deactivate c

loop i < graph.vertices()

controller -> cs: getCountryByCapital()

activate cs

deactivate cs

controller -> graph: adjVertices(graphElement)

activate graph

graph - -> controller: size

deactivate graph

controller -> degrees: add(size)

activate degrees

deactivate degrees

controller -> elements: add(element)

activate elements

deactivate elements

end

controller -> degrees: sort()

activate degrees

deactivate degrees

controller -> elements: sort()

activate elements

deactivate elements

deactivate controller

controller -> controller: colour = 1

activate controller

deactivate controller

loop i < elements.size()

controller -> map: put(elements(i), colour)

activate map

deactivate map

controller -> listColoured: add(elements(i))

activate listColoured

deactivate listColoured

loop element : elements

alt element not in listColoured

controller -> map: put(elements(i), colour)

activate map

deactivate map

controller -> listColoured: add(elements(i))

activate listColoured

deactivate listColoured

end

controller -> controller: colour++

activate controller

deactivate controller

controller -> listColoured: clear()

activate listColoured

deactivate listColoured

end

controller -> fo: writeToAFile()

activate fo

fo - -> controller: file

deactivate fo

controller - -> UI: file


deactivate controller

UI - -> Adm: shows file

deactivate UI

deactivate Adm
@enduml

PlantUML version 1.2021.5(Sun Apr 25 12:20:28 BST 2021)
(GPL source distribution)
Java Runtime: OpenJDK Runtime Environment
JVM: OpenJDK 64-Bit Server VM
Default Encoding: Cp1252
Language: pt
Country: PT
--></g></svg>