<?xml version="1.0" encoding="UTF-8" standalone="no"?><svg xmlns="http://www.w3.org/2000/svg" xmlns:xlink="http://www.w3.org/1999/xlink" contentScriptType="application/ecmascript" contentStyleType="text/css" height="615px" preserveAspectRatio="none" style="width:632px;height:615px;" version="1.1" viewBox="0 0 632 615" width="632px" zoomAndPan="magnify"><defs><filter height="300%" id="fb5k83rg77m4c" width="300%" x="-1" y="-1"><feGaussianBlur result="blurOut" stdDeviation="2.0"/><feColorMatrix in="blurOut" result="blurOut2" type="matrix" values="0 0 0 0 0 0 0 0 0 0 0 0 0 0 0 0 0 0 .4 0"/><feOffset dx="4.0" dy="4.0" in="blurOut2" result="blurOut3"/><feBlend in="SourceGraphic" in2="blurOut3" mode="normal"/></filter></defs><g><!--MD5=[0b0cd4685579e6977db55e746db6c10c]
class ColourMapController--><rect fill="#FEFECE" filter="url(#fb5k83rg77m4c)" height="75.6719" id="ColourMapController" style="stroke:#A80036;stroke-width:1.5;" width="146" x="214.5" y="7"/><ellipse cx="229.5" cy="23" fill="#ADD1B2" rx="11" ry="11" style="stroke:#A80036;stroke-width:1.0;"/><path d="M231.5,19.5 Q231.7031,19 231.9375,18.75 Q232.1719,18.5 232.4375,18.5 Q232.9063,18.5 233.2031,18.7813 Q233.5,19.0625 233.5,19.7188 L233.5,21.2813 Q233.5,21.9375 233.2188,22.2188 Q232.9375,22.5 232.5,22.5 Q232.1094,22.5 231.8594,22.3281 Q231.6094,22.1563 231.5,21.7031 Q231.4531,21.3906 231.2813,21.2188 Q230.9688,20.8906 230.4063,20.7031 Q229.8438,20.5 229.2813,20.5 Q228.5781,20.5 227.9844,20.7813 Q227.4063,21.0625 226.9531,21.6875 Q226.5,22.3125 226.5,23.1719 L226.5,24.0938 Q226.5,25.125 227.3438,25.8125 Q228.1875,26.5 229.6875,26.5 Q230.5781,26.5 231.2031,26.2969 Q231.5625,26.1875 231.9688,25.8281 Q232.2344,25.625 232.375,25.5625 Q232.5156,25.5 232.6875,25.5 Q233.0156,25.5 233.25,25.7656 Q233.5,26.0156 233.5,26.375 Q233.5,26.7188 233.1563,27.125 Q232.6563,27.7188 231.8594,28.0469 Q230.8125,28.5 229.5313,28.5 Q228.0313,28.5 226.8281,27.9063 Q225.8594,27.4375 225.1719,26.4219 Q224.5,25.4063 224.5,24.2031 L224.5,23.1094 Q224.5,21.8594 225.0938,20.7656 Q225.7031,19.6719 226.75,19.0938 Q227.8125,18.5 229,18.5 Q229.7188,18.5 230.3438,18.75 Q230.9688,19 231.5,19.5 Z " fill="#000000"/><text fill="#000000" font-family="sans-serif" font-size="12" lengthAdjust="spacing" textLength="114" x="243.5" y="27.9102">ColourMapController</text><line style="stroke:#A80036;stroke-width:1.5;" x1="215.5" x2="359.5" y1="39" y2="39"/><line style="stroke:#A80036;stroke-width:1.5;" x1="215.5" x2="359.5" y1="47" y2="47"/><ellipse cx="225.5" cy="58" fill="#84BE84" rx="3" ry="3" style="stroke:#038048;stroke-width:1.0;"/><text fill="#000000" font-family="sans-serif" font-size="11" lengthAdjust="spacing" textLength="104" x="234.5" y="62.4189">getCountriesDegree()</text><ellipse cx="225.5" cy="71.8359" fill="#84BE84" rx="3" ry="3" style="stroke:#038048;stroke-width:1.0;"/><text fill="#000000" font-family="sans-serif" font-size="11" lengthAdjust="spacing" textLength="58" x="234.5" y="76.2549">colourMap()</text><!--MD5=[02e4b9b7573f1156f41e60aa5b4e25a4]
class Company--><rect fill="#FEFECE" filter="url(#fb5k83rg77m4c)" height="75.6719" id="Company" style="stroke:#A80036;stroke-width:1.5;" width="113" x="7" y="184.5"/><ellipse cx="34.6" cy="200.5" fill="#ADD1B2" rx="11" ry="11" style="stroke:#A80036;stroke-width:1.0;"/><path d="M36.6,197 Q36.8031,196.5 37.0375,196.25 Q37.2719,196 37.5375,196 Q38.0063,196 38.3031,196.2813 Q38.6,196.5625 38.6,197.2188 L38.6,198.7813 Q38.6,199.4375 38.3188,199.7188 Q38.0375,200 37.6,200 Q37.2094,200 36.9594,199.8281 Q36.7094,199.6563 36.6,199.2031 Q36.5531,198.8906 36.3813,198.7188 Q36.0688,198.3906 35.5063,198.2031 Q34.9438,198 34.3813,198 Q33.6781,198 33.0844,198.2813 Q32.5063,198.5625 32.0531,199.1875 Q31.6,199.8125 31.6,200.6719 L31.6,201.5938 Q31.6,202.625 32.4438,203.3125 Q33.2875,204 34.7875,204 Q35.6781,204 36.3031,203.7969 Q36.6625,203.6875 37.0688,203.3281 Q37.3344,203.125 37.475,203.0625 Q37.6156,203 37.7875,203 Q38.1156,203 38.35,203.2656 Q38.6,203.5156 38.6,203.875 Q38.6,204.2188 38.2563,204.625 Q37.7563,205.2188 36.9594,205.5469 Q35.9125,206 34.6313,206 Q33.1313,206 31.9281,205.4063 Q30.9594,204.9375 30.2719,203.9219 Q29.6,202.9063 29.6,201.7031 L29.6,200.6094 Q29.6,199.3594 30.1938,198.2656 Q30.8031,197.1719 31.85,196.5938 Q32.9125,196 34.1,196 Q34.8188,196 35.4438,196.25 Q36.0688,196.5 36.6,197 Z " fill="#000000"/><text fill="#000000" font-family="sans-serif" font-size="12" lengthAdjust="spacing" textLength="53" x="51.4" y="205.4102">Company</text><line style="stroke:#A80036;stroke-width:1.5;" x1="8" x2="119" y1="216.5" y2="216.5"/><line style="stroke:#A80036;stroke-width:1.5;" x1="8" x2="119" y1="224.5" y2="224.5"/><ellipse cx="18" cy="235.5" fill="#84BE84" rx="3" ry="3" style="stroke:#038048;stroke-width:1.0;"/><text fill="#000000" font-family="sans-serif" font-size="11" lengthAdjust="spacing" textLength="53" x="27" y="239.9189">Company()</text><ellipse cx="18" cy="249.3359" fill="#84BE84" rx="3" ry="3" style="stroke:#038048;stroke-width:1.0;"/><text fill="#000000" font-family="sans-serif" font-size="11" lengthAdjust="spacing" textLength="87" x="27" y="253.7549">getCountryStore()</text><!--MD5=[1fa23e875f7ea39406cc4f0fd95e1dab]
class CountryStore--><rect fill="#FEFECE" filter="url(#fb5k83rg77m4c)" height="61.8359" id="CountryStore" style="stroke:#A80036;stroke-width:1.5;" width="187" x="25" y="362"/><ellipse cx="78.75" cy="378" fill="#ADD1B2" rx="11" ry="11" style="stroke:#A80036;stroke-width:1.0;"/><path d="M80.75,374.5 Q80.9531,374 81.1875,373.75 Q81.4219,373.5 81.6875,373.5 Q82.1563,373.5 82.4531,373.7813 Q82.75,374.0625 82.75,374.7188 L82.75,376.2813 Q82.75,376.9375 82.4688,377.2188 Q82.1875,377.5 81.75,377.5 Q81.3594,377.5 81.1094,377.3281 Q80.8594,377.1563 80.75,376.7031 Q80.7031,376.3906 80.5313,376.2188 Q80.2188,375.8906 79.6563,375.7031 Q79.0938,375.5 78.5313,375.5 Q77.8281,375.5 77.2344,375.7813 Q76.6563,376.0625 76.2031,376.6875 Q75.75,377.3125 75.75,378.1719 L75.75,379.0938 Q75.75,380.125 76.5938,380.8125 Q77.4375,381.5 78.9375,381.5 Q79.8281,381.5 80.4531,381.2969 Q80.8125,381.1875 81.2188,380.8281 Q81.4844,380.625 81.625,380.5625 Q81.7656,380.5 81.9375,380.5 Q82.2656,380.5 82.5,380.7656 Q82.75,381.0156 82.75,381.375 Q82.75,381.7188 82.4063,382.125 Q81.9063,382.7188 81.1094,383.0469 Q80.0625,383.5 78.7813,383.5 Q77.2813,383.5 76.0781,382.9063 Q75.1094,382.4375 74.4219,381.4219 Q73.75,380.4063 73.75,379.2031 L73.75,378.1094 Q73.75,376.8594 74.3438,375.7656 Q74.9531,374.6719 76,374.0938 Q77.0625,373.5 78.25,373.5 Q78.9688,373.5 79.5938,373.75 Q80.2188,374 80.75,374.5 Z " fill="#000000"/><text fill="#000000" font-family="sans-serif" font-size="12" lengthAdjust="spacing" textLength="71" x="99.25" y="382.9102">CountryStore</text><line style="stroke:#A80036;stroke-width:1.5;" x1="26" x2="211" y1="394" y2="394"/><line style="stroke:#A80036;stroke-width:1.5;" x1="26" x2="211" y1="402" y2="402"/><ellipse cx="36" cy="413" fill="#84BE84" rx="3" ry="3" style="stroke:#038048;stroke-width:1.0;"/><text fill="#000000" font-family="sans-serif" font-size="11" lengthAdjust="spacing" textLength="161" x="45" y="417.4189">getCountryByCapital(designation)</text><!--MD5=[deb4e1f6eb1e3c1256fdb830f96abfbb]
class Country--><rect fill="#FEFECE" filter="url(#fb5k83rg77m4c)" height="158.6875" id="Country" style="stroke:#A80036;stroke-width:1.5;" width="122" x="226.5" y="143"/><ellipse cx="263.1" cy="159" fill="#ADD1B2" rx="11" ry="11" style="stroke:#A80036;stroke-width:1.0;"/><path d="M265.1,155.5 Q265.3031,155 265.5375,154.75 Q265.7719,154.5 266.0375,154.5 Q266.5063,154.5 266.8031,154.7813 Q267.1,155.0625 267.1,155.7188 L267.1,157.2813 Q267.1,157.9375 266.8188,158.2188 Q266.5375,158.5 266.1,158.5 Q265.7094,158.5 265.4594,158.3281 Q265.2094,158.1563 265.1,157.7031 Q265.0531,157.3906 264.8813,157.2188 Q264.5688,156.8906 264.0063,156.7031 Q263.4438,156.5 262.8813,156.5 Q262.1781,156.5 261.5844,156.7813 Q261.0063,157.0625 260.5531,157.6875 Q260.1,158.3125 260.1,159.1719 L260.1,160.0938 Q260.1,161.125 260.9438,161.8125 Q261.7875,162.5 263.2875,162.5 Q264.1781,162.5 264.8031,162.2969 Q265.1625,162.1875 265.5688,161.8281 Q265.8344,161.625 265.975,161.5625 Q266.1156,161.5 266.2875,161.5 Q266.6156,161.5 266.85,161.7656 Q267.1,162.0156 267.1,162.375 Q267.1,162.7188 266.7563,163.125 Q266.2563,163.7188 265.4594,164.0469 Q264.4125,164.5 263.1313,164.5 Q261.6313,164.5 260.4281,163.9063 Q259.4594,163.4375 258.7719,162.4219 Q258.1,161.4063 258.1,160.2031 L258.1,159.1094 Q258.1,157.8594 258.6938,156.7656 Q259.3031,155.6719 260.35,155.0938 Q261.4125,154.5 262.6,154.5 Q263.3188,154.5 263.9438,154.75 Q264.5688,155 265.1,155.5 Z " fill="#000000"/><text fill="#000000" font-family="sans-serif" font-size="12" lengthAdjust="spacing" textLength="42" x="281.9" y="163.9102">Country</text><line style="stroke:#A80036;stroke-width:1.5;" x1="227.5" x2="347.5" y1="175" y2="175"/><rect fill="none" height="6" style="stroke:#C82930;stroke-width:1.0;" width="6" x="234.5" y="183"/><text fill="#000000" font-family="sans-serif" font-size="11" lengthAdjust="spacing" textLength="78" x="246.5" y="190.4189">continent: String</text><rect fill="none" height="6" style="stroke:#C82930;stroke-width:1.0;" width="6" x="234.5" y="196.8359"/><text fill="#000000" font-family="sans-serif" font-size="11" lengthAdjust="spacing" textLength="60" x="246.5" y="204.2549">name: String</text><rect fill="none" height="6" style="stroke:#C82930;stroke-width:1.0;" width="6" x="234.5" y="210.6719"/><text fill="#000000" font-family="sans-serif" font-size="11" lengthAdjust="spacing" textLength="96" x="246.5" y="218.0908">alpha2_code: String</text><rect fill="none" height="6" style="stroke:#C82930;stroke-width:1.0;" width="6" x="234.5" y="224.5078"/><text fill="#000000" font-family="sans-serif" font-size="11" lengthAdjust="spacing" textLength="96" x="246.5" y="231.9268">alpha3_code: String</text><rect fill="none" height="6" style="stroke:#C82930;stroke-width:1.0;" width="6" x="234.5" y="238.3438"/><text fill="#000000" font-family="sans-serif" font-size="11" lengthAdjust="spacing" textLength="65" x="246.5" y="245.7627">capital: String</text><rect fill="none" height="6" style="stroke:#C82930;stroke-width:1.0;" width="6" x="234.5" y="252.1797"/><text fill="#000000" font-family="sans-serif" font-size="11" lengthAdjust="spacing" textLength="61" x="246.5" y="259.5986">latitude: float</text><rect fill="none" height="6" style="stroke:#C82930;stroke-width:1.0;" width="6" x="234.5" y="266.0156"/><text fill="#000000" font-family="sans-serif" font-size="11" lengthAdjust="spacing" textLength="70" x="246.5" y="273.4346">longitude: float</text><rect fill="none" height="6" style="stroke:#C82930;stroke-width:1.0;" width="6" x="234.5" y="279.8516"/><text fill="#000000" font-family="sans-serif" font-size="11" lengthAdjust="spacing" textLength="76" x="246.5" y="287.2705">population: float</text><line style="stroke:#A80036;stroke-width:1.5;" x1="227.5" x2="347.5" y1="293.6875" y2="293.6875"/><!--MD5=[b7b072196a724e538165319251b4d539]
class MatrixGraph--><rect fill="#FEFECE" filter="url(#fb5k83rg77m4c)" height="61.8359" id="MatrixGraph" style="stroke:#A80036;stroke-width:1.5;" width="154" x="383.5" y="191.5"/><ellipse cx="424.15" cy="207.5" fill="#ADD1B2" rx="11" ry="11" style="stroke:#A80036;stroke-width:1.0;"/><path d="M426.15,204 Q426.3531,203.5 426.5875,203.25 Q426.8219,203 427.0875,203 Q427.5563,203 427.8531,203.2813 Q428.15,203.5625 428.15,204.2188 L428.15,205.7813 Q428.15,206.4375 427.8688,206.7188 Q427.5875,207 427.15,207 Q426.7594,207 426.5094,206.8281 Q426.2594,206.6563 426.15,206.2031 Q426.1031,205.8906 425.9313,205.7188 Q425.6188,205.3906 425.0563,205.2031 Q424.4938,205 423.9313,205 Q423.2281,205 422.6344,205.2813 Q422.0563,205.5625 421.6031,206.1875 Q421.15,206.8125 421.15,207.6719 L421.15,208.5938 Q421.15,209.625 421.9938,210.3125 Q422.8375,211 424.3375,211 Q425.2281,211 425.8531,210.7969 Q426.2125,210.6875 426.6188,210.3281 Q426.8844,210.125 427.025,210.0625 Q427.1656,210 427.3375,210 Q427.6656,210 427.9,210.2656 Q428.15,210.5156 428.15,210.875 Q428.15,211.2188 427.8063,211.625 Q427.3063,212.2188 426.5094,212.5469 Q425.4625,213 424.1813,213 Q422.6813,213 421.4781,212.4063 Q420.5094,211.9375 419.8219,210.9219 Q419.15,209.9063 419.15,208.7031 L419.15,207.6094 Q419.15,206.3594 419.7438,205.2656 Q420.3531,204.1719 421.4,203.5938 Q422.4625,203 423.65,203 Q424.3688,203 424.9938,203.25 Q425.6188,203.5 426.15,204 Z " fill="#000000"/><text fill="#000000" font-family="sans-serif" font-size="12" lengthAdjust="spacing" textLength="65" x="443.85" y="212.4102">MatrixGraph</text><line style="stroke:#A80036;stroke-width:1.5;" x1="384.5" x2="536.5" y1="223.5" y2="223.5"/><line style="stroke:#A80036;stroke-width:1.5;" x1="384.5" x2="536.5" y1="231.5" y2="231.5"/><ellipse cx="394.5" cy="242.5" fill="#84BE84" rx="3" ry="3" style="stroke:#038048;stroke-width:1.0;"/><text fill="#000000" font-family="sans-serif" font-size="11" lengthAdjust="spacing" textLength="128" x="403.5" y="246.9189">adjVertices(graphElement)</text><!--MD5=[8dda998cb40a03280ba2930af26ca62e]
class GraphElement--><rect fill="#FEFECE" filter="url(#fb5k83rg77m4c)" height="117.1797" id="GraphElement" style="stroke:#A80036;stroke-width:1.5;" width="115" x="491" y="484"/><ellipse cx="507.35" cy="500" fill="#ADD1B2" rx="11" ry="11" style="stroke:#A80036;stroke-width:1.0;"/><path d="M509.35,496.5 Q509.5531,496 509.7875,495.75 Q510.0219,495.5 510.2875,495.5 Q510.7563,495.5 511.0531,495.7813 Q511.35,496.0625 511.35,496.7188 L511.35,498.2813 Q511.35,498.9375 511.0688,499.2188 Q510.7875,499.5 510.35,499.5 Q509.9594,499.5 509.7094,499.3281 Q509.4594,499.1563 509.35,498.7031 Q509.3031,498.3906 509.1313,498.2188 Q508.8188,497.8906 508.2563,497.7031 Q507.6938,497.5 507.1313,497.5 Q506.4281,497.5 505.8344,497.7813 Q505.2563,498.0625 504.8031,498.6875 Q504.35,499.3125 504.35,500.1719 L504.35,501.0938 Q504.35,502.125 505.1938,502.8125 Q506.0375,503.5 507.5375,503.5 Q508.4281,503.5 509.0531,503.2969 Q509.4125,503.1875 509.8188,502.8281 Q510.0844,502.625 510.225,502.5625 Q510.3656,502.5 510.5375,502.5 Q510.8656,502.5 511.1,502.7656 Q511.35,503.0156 511.35,503.375 Q511.35,503.7188 511.0063,504.125 Q510.5063,504.7188 509.7094,505.0469 Q508.6625,505.5 507.3813,505.5 Q505.8813,505.5 504.6781,504.9063 Q503.7094,504.4375 503.0219,503.4219 Q502.35,502.4063 502.35,501.2031 L502.35,500.1094 Q502.35,498.8594 502.9438,497.7656 Q503.5531,496.6719 504.6,496.0938 Q505.6625,495.5 506.85,495.5 Q507.5688,495.5 508.1938,495.75 Q508.8188,496 509.35,496.5 Z " fill="#000000"/><text fill="#000000" font-family="sans-serif" font-size="12" lengthAdjust="spacing" textLength="80" x="521.65" y="504.9102">GraphElement</text><line style="stroke:#A80036;stroke-width:1.5;" x1="492" x2="605" y1="516" y2="516"/><rect fill="none" height="6" style="stroke:#C82930;stroke-width:1.0;" width="6" x="499" y="524"/><text fill="#000000" font-family="sans-serif" font-size="11" lengthAdjust="spacing" textLength="89" x="511" y="531.4189">designation: String</text><rect fill="none" height="6" style="stroke:#C82930;stroke-width:1.0;" width="6" x="499" y="537.8359"/><text fill="#000000" font-family="sans-serif" font-size="11" lengthAdjust="spacing" textLength="71" x="511" y="545.2549">country: String</text><rect fill="none" height="6" style="stroke:#C82930;stroke-width:1.0;" width="6" x="499" y="551.6719"/><text fill="#000000" font-family="sans-serif" font-size="11" lengthAdjust="spacing" textLength="61" x="511" y="559.0908">latitude: float</text><rect fill="none" height="6" style="stroke:#C82930;stroke-width:1.0;" width="6" x="499" y="565.5078"/><text fill="#000000" font-family="sans-serif" font-size="11" lengthAdjust="spacing" textLength="70" x="511" y="572.9268">longitude: float</text><line style="stroke:#A80036;stroke-width:1.5;" x1="492" x2="605" y1="579.3438" y2="579.3438"/><ellipse cx="502" cy="590.3438" fill="#84BE84" rx="3" ry="3" style="stroke:#038048;stroke-width:1.0;"/><text fill="#000000" font-family="sans-serif" font-size="11" lengthAdjust="spacing" textLength="79" x="511" y="594.7627">getDesignation()</text><!--MD5=[2e2f8c8f62c4eb3bc59a59727cfd81a5]
class Edge--><rect fill="#FEFECE" filter="url(#fb5k83rg77m4c)" height="48" id="Edge" style="stroke:#A80036;stroke-width:1.5;" width="61" x="453" y="369"/><ellipse cx="468" cy="385" fill="#ADD1B2" rx="11" ry="11" style="stroke:#A80036;stroke-width:1.0;"/><path d="M470,381.5 Q470.2031,381 470.4375,380.75 Q470.6719,380.5 470.9375,380.5 Q471.4063,380.5 471.7031,380.7813 Q472,381.0625 472,381.7188 L472,383.2813 Q472,383.9375 471.7188,384.2188 Q471.4375,384.5 471,384.5 Q470.6094,384.5 470.3594,384.3281 Q470.1094,384.1563 470,383.7031 Q469.9531,383.3906 469.7813,383.2188 Q469.4688,382.8906 468.9063,382.7031 Q468.3438,382.5 467.7813,382.5 Q467.0781,382.5 466.4844,382.7813 Q465.9063,383.0625 465.4531,383.6875 Q465,384.3125 465,385.1719 L465,386.0938 Q465,387.125 465.8438,387.8125 Q466.6875,388.5 468.1875,388.5 Q469.0781,388.5 469.7031,388.2969 Q470.0625,388.1875 470.4688,387.8281 Q470.7344,387.625 470.875,387.5625 Q471.0156,387.5 471.1875,387.5 Q471.5156,387.5 471.75,387.7656 Q472,388.0156 472,388.375 Q472,388.7188 471.6563,389.125 Q471.1563,389.7188 470.3594,390.0469 Q469.3125,390.5 468.0313,390.5 Q466.5313,390.5 465.3281,389.9063 Q464.3594,389.4375 463.6719,388.4219 Q463,387.4063 463,386.2031 L463,385.1094 Q463,383.8594 463.5938,382.7656 Q464.2031,381.6719 465.25,381.0938 Q466.3125,380.5 467.5,380.5 Q468.2188,380.5 468.8438,380.75 Q469.4688,381 470,381.5 Z " fill="#000000"/><text fill="#000000" font-family="sans-serif" font-size="12" lengthAdjust="spacing" textLength="29" x="482" y="389.9102">Edge</text><line style="stroke:#A80036;stroke-width:1.5;" x1="454" x2="513" y1="401" y2="401"/><line style="stroke:#A80036;stroke-width:1.5;" x1="454" x2="513" y1="409" y2="409"/><!--MD5=[68984b5ba61964f5c986160575454b92]
link ColourMapController to Company--><path codeLine="1" d="M229.94,83.12 C204.1,100.48 173.62,121.93 147.5,143 C133.01,154.68 117.94,168.27 104.62,180.82 " fill="none" id="ColourMapController-to-Company" style="stroke:#A80036;stroke-width:1.0;stroke-dasharray:7.0,7.0;"/><polygon fill="#A80036" points="100.92,184.33,110.202,181.037,104.5471,180.8885,104.6956,175.2336,100.92,184.33" style="stroke:#A80036;stroke-width:1.0;"/><!--MD5=[086463b1778138f558ce4bf30263684b]
link ColourMapController to CountryStore--><path codeLine="2" d="M252.01,83.45 C237.1,100.62 220.48,121.83 208.5,143 C168.1,214.35 140.31,307.16 127.16,356.88 " fill="none" id="ColourMapController-to-CountryStore" style="stroke:#A80036;stroke-width:1.0;stroke-dasharray:7.0,7.0;"/><polygon fill="#A80036" points="125.86,361.85,132.0199,354.1652,127.1332,357.0148,124.2836,352.1281,125.86,361.85" style="stroke:#A80036;stroke-width:1.0;"/><!--MD5=[347aa097f3e84532670abcbe6cb13431]
link ColourMapController to Country--><path codeLine="3" d="M287.5,83.22 C287.5,99.13 287.5,118.4 287.5,137.44 " fill="none" id="ColourMapController-to-Country" style="stroke:#A80036;stroke-width:1.0;stroke-dasharray:7.0,7.0;"/><polygon fill="#A80036" points="287.5,142.81,291.5,133.81,287.5,137.81,283.5,133.81,287.5,142.81" style="stroke:#A80036;stroke-width:1.0;"/><!--MD5=[897a5ee84810bc305b750c473222f523]
link ColourMapController to MatrixGraph--><path codeLine="4" d="M324.19,83.22 C354.69,114.16 397.72,157.81 427.23,187.75 " fill="none" id="ColourMapController-to-MatrixGraph" style="stroke:#A80036;stroke-width:1.0;stroke-dasharray:7.0,7.0;"/><polygon fill="#A80036" points="430.76,191.33,427.2987,182.1094,427.2531,187.7661,421.5964,187.7205,430.76,191.33" style="stroke:#A80036;stroke-width:1.0;"/><!--MD5=[1c30c017d6f6e96a6d4ee2a946bbdace]
link ColourMapController to GraphElement--><path codeLine="5" d="M360.7,50.26 C423.93,58.26 511.81,80.72 555.5,143 C625.63,242.97 595.74,394.49 570.41,478.98 " fill="none" id="ColourMapController-to-GraphElement" style="stroke:#A80036;stroke-width:1.0;stroke-dasharray:7.0,7.0;"/><polygon fill="#A80036" points="568.9,483.95,575.3542,476.5107,570.3604,479.168,567.7031,474.1741,568.9,483.95" style="stroke:#A80036;stroke-width:1.0;"/><!--MD5=[88378fecc0214ccb54b388de34e73693]
link MatrixGraph to Edge--><path codeLine="6" d="M464.61,253.62 C468.87,284.85 475.49,333.29 479.65,363.79 " fill="none" id="MatrixGraph-to-Edge" style="stroke:#A80036;stroke-width:1.0;stroke-dasharray:7.0,7.0;"/><polygon fill="#A80036" points="480.35,368.9,483.1022,359.4435,479.677,363.9455,475.175,360.5203,480.35,368.9" style="stroke:#A80036;stroke-width:1.0;"/><!--MD5=[aa28705aa12875d1c0ba144a3ed06eee]
link Edge to GraphElement--><path codeLine="7" d="M493.66,417.05 C501.02,433.76 511.36,457.22 521.07,479.26 " fill="none" id="Edge-to-GraphElement" style="stroke:#A80036;stroke-width:1.0;stroke-dasharray:7.0,7.0;"/><polygon fill="#A80036" points="523.14,483.94,523.1715,474.0912,521.1239,479.3645,515.8506,477.3169,523.14,483.94" style="stroke:#A80036;stroke-width:1.0;"/><!--MD5=[3e62267ed92cd658fcc6f008fe587857]
link Company to CountryStore--><path codeLine="17" d="M75.71,260.9 C85.07,289.58 97.9,328.9 107.07,356.98 " fill="none" id="Company-to-CountryStore" style="stroke:#A80036;stroke-width:1.0;stroke-dasharray:7.0,7.0;"/><polygon fill="#A80036" points="108.62,361.73,109.6397,351.9341,107.0733,356.9753,102.0321,354.4088,108.62,361.73" style="stroke:#A80036;stroke-width:1.0;"/><!--MD5=[2c9ebe8bd40d57b9adffc7909cd9d137]
@startuml
ColourMapController ..>Company
ColourMapController ..>CountryStore
ColourMapController ..>Country
ColourMapController ..>MatrixGraph
ColourMapController ..>GraphElement
MatrixGraph ..>Edge
Edge ..>GraphElement


ColourMapController : +getCountriesDegree()
ColourMapController : +colourMap()


Company : +Company()
Company : +getCountryStore()

Company ..>CountryStore

MatrixGraph : +adjVertices(graphElement)

CountryStore : +getCountryByCapital(designation)

Country : -continent: String
Country : -name: String
Country : -alpha2_code: String
Country : -alpha3_code: String
Country : -capital: String
Country : -latitude: float
Country : -longitude: float
Country : -population: float

GraphElement : -designation: String
GraphElement : -country: String
GraphElement : -latitude: float
GraphElement : -longitude: float
GraphElement : +getDesignation()
@enduml

PlantUML version 1.2021.5(Sun Apr 25 12:20:28 BST 2021)
(GPL source distribution)
Java Runtime: OpenJDK Runtime Environment
JVM: OpenJDK 64-Bit Server VM
Default Encoding: Cp1252
Language: pt
Country: PT
--></g></svg>