<?xml version="1.0" encoding="UTF-8" standalone="no"?><svg xmlns="http://www.w3.org/2000/svg" xmlns:xlink="http://www.w3.org/1999/xlink" contentScriptType="application/ecmascript" contentStyleType="text/css" height="309px" preserveAspectRatio="none" style="width:589px;height:309px;background:#FFFFFF;" version="1.1" viewBox="0 0 589 309" width="589px" zoomAndPan="magnify"><defs><filter height="300%" id="f11ooh54mwp7fc" width="300%" x="-1" y="-1"><feGaussianBlur result="blurOut" stdDeviation="2.0"/><feColorMatrix in="blurOut" result="blurOut2" type="matrix" values="0 0 0 0 0 0 0 0 0 0 0 0 0 0 0 0 0 0 .4 0"/><feOffset dx="4.0" dy="4.0" in="blurOut2" result="blurOut3"/><feBlend in="SourceGraphic" in2="blurOut3" mode="normal"/></filter></defs><g><rect fill="#FFFFFF" filter="url(#f11ooh54mwp7fc)" height="108.5313" style="stroke:#A80036;stroke-width:1.0;" width="10" x="51" y="98.2969"/><rect fill="#FFFFFF" filter="url(#f11ooh54mwp7fc)" height="29.1328" style="stroke:#A80036;stroke-width:1.0;" width="10" x="538" y="119.4297"/><rect fill="#FFFFFF" filter="url(#f11ooh54mwp7fc)" height="29.1328" style="stroke:#A80036;stroke-width:1.0;" width="10" x="538" y="177.6953"/><line style="stroke:#A80036;stroke-width:1.0;stroke-dasharray:5.0,5.0;" x1="56" x2="56" y1="88.2969" y2="224.8281"/><line style="stroke:#A80036;stroke-width:1.0;stroke-dasharray:5.0,5.0;" x1="543" x2="543" y1="88.2969" y2="224.8281"/><text fill="#000000" font-family="sans-serif" font-size="14" lengthAdjust="spacing" textLength="96" x="5" y="84.9951">Port Manager</text><ellipse cx="56" cy="15" fill="#FEFECE" filter="url(#f11ooh54mwp7fc)" rx="8" ry="8" style="stroke:#A80036;stroke-width:2.0;"/><path d="M56,23 L56,50 M43,31 L69,31 M56,50 L43,65 M56,50 L69,65 " fill="none" filter="url(#f11ooh54mwp7fc)" style="stroke:#A80036;stroke-width:2.0;"/><text fill="#000000" font-family="sans-serif" font-size="14" lengthAdjust="spacing" textLength="96" x="5" y="236.8232">Port Manager</text><ellipse cx="56" cy="250.125" fill="#FEFECE" filter="url(#f11ooh54mwp7fc)" rx="8" ry="8" style="stroke:#A80036;stroke-width:2.0;"/><path d="M56,258.125 L56,285.125 M43,266.125 L69,266.125 M56,285.125 L43,300.125 M56,285.125 L69,300.125 " fill="none" filter="url(#f11ooh54mwp7fc)" style="stroke:#A80036;stroke-width:2.0;"/><rect fill="#FEFECE" filter="url(#f11ooh54mwp7fc)" height="30.2969" style="stroke:#A80036;stroke-width:1.5;" width="68" x="507" y="53"/><text fill="#000000" font-family="sans-serif" font-size="14" lengthAdjust="spacing" textLength="54" x="514" y="72.9951">System</text><rect fill="#FEFECE" filter="url(#f11ooh54mwp7fc)" height="30.2969" style="stroke:#A80036;stroke-width:1.5;" width="68" x="507" y="223.8281"/><text fill="#000000" font-family="sans-serif" font-size="14" lengthAdjust="spacing" textLength="54" x="514" y="243.8232">System</text><rect fill="#FFFFFF" filter="url(#f11ooh54mwp7fc)" height="108.5313" style="stroke:#A80036;stroke-width:1.0;" width="10" x="51" y="98.2969"/><rect fill="#FFFFFF" filter="url(#f11ooh54mwp7fc)" height="29.1328" style="stroke:#A80036;stroke-width:1.0;" width="10" x="538" y="119.4297"/><rect fill="#FFFFFF" filter="url(#f11ooh54mwp7fc)" height="29.1328" style="stroke:#A80036;stroke-width:1.0;" width="10" x="538" y="177.6953"/><polygon fill="#A80036" points="526,115.4297,536,119.4297,526,123.4297,530,119.4297" style="stroke:#A80036;stroke-width:1.0;"/><line style="stroke:#A80036;stroke-width:1.0;" x1="61" x2="532" y1="119.4297" y2="119.4297"/><text fill="#000000" font-family="sans-serif" font-size="13" font-weight="bold" lengthAdjust="spacing" textLength="9" x="68" y="114.3638">1</text><text fill="#000000" font-family="sans-serif" font-size="13" lengthAdjust="spacing" textLength="445" x="81" y="114.3638">want to generate, a week in advance, the loading and unloading map</text><polygon fill="#A80036" points="72,144.5625,62,148.5625,72,152.5625,68,148.5625" style="stroke:#A80036;stroke-width:1.0;"/><line style="stroke:#A80036;stroke-width:1.0;stroke-dasharray:2.0,2.0;" x1="66" x2="542" y1="148.5625" y2="148.5625"/><text fill="#000000" font-family="sans-serif" font-size="13" font-weight="bold" lengthAdjust="spacing" textLength="9" x="78" y="143.4966">2</text><text fill="#000000" font-family="sans-serif" font-size="13" lengthAdjust="spacing" textLength="121" x="91" y="143.4966">asks for the port id</text><polygon fill="#A80036" points="526,173.6953,536,177.6953,526,181.6953,530,177.6953" style="stroke:#A80036;stroke-width:1.0;"/><line style="stroke:#A80036;stroke-width:1.0;" x1="61" x2="532" y1="177.6953" y2="177.6953"/><text fill="#000000" font-family="sans-serif" font-size="13" font-weight="bold" lengthAdjust="spacing" textLength="8" x="68" y="172.6294">3</text><text fill="#000000" font-family="sans-serif" font-size="13" lengthAdjust="spacing" textLength="138" x="80" y="172.6294">types requested data</text><polygon fill="#A80036" points="67,202.8281,57,206.8281,67,210.8281,63,206.8281" style="stroke:#A80036;stroke-width:1.0;"/><line style="stroke:#A80036;stroke-width:1.0;stroke-dasharray:2.0,2.0;" x1="61" x2="542" y1="206.8281" y2="206.8281"/><text fill="#000000" font-family="sans-serif" font-size="13" font-weight="bold" lengthAdjust="spacing" textLength="9" x="73" y="201.7622">4</text><text fill="#000000" font-family="sans-serif" font-size="13" lengthAdjust="spacing" textLength="168" x="86" y="201.7622">shows the requested data</text><!--MD5=[f6f5fe48960735dc43c0eedda7322354]
@startuml
actor "Port Manager" as Adm
participant "System" as System

autonumber

activate Adm

Adm -> System: want to generate, a week in advance, the loading and unloading map

activate System

System - -> Adm: asks for the port id

deactivate System

Adm -> System: types requested data

activate System

System - -> Adm: shows the requested data

deactivate System

deactivate Adm
@enduml

PlantUML version 1.2022.1beta4(Unknown compile time)
(GPL source distribution)
Java Runtime: Java(TM) SE Runtime Environment
JVM: Java HotSpot(TM) 64-Bit Server VM
Default Encoding: UTF-8
Language: en
Country: US
--></g></svg>