<?xml version="1.0" encoding="UTF-8" standalone="no"?><svg xmlns="http://www.w3.org/2000/svg" xmlns:xlink="http://www.w3.org/1999/xlink" contentScriptType="application/ecmascript" contentStyleType="text/css" height="496px" preserveAspectRatio="none" style="width:1062px;height:496px;background:#FFFFFF;" version="1.1" viewBox="0 0 1062 496" width="1062px" zoomAndPan="magnify"><defs><filter height="300%" id="f1qg97yqfkmwrf" width="300%" x="-1" y="-1"><feGaussianBlur result="blurOut" stdDeviation="2.0"/><feColorMatrix in="blurOut" result="blurOut2" type="matrix" values="0 0 0 0 0 0 0 0 0 0 0 0 0 0 0 0 0 0 .4 0"/><feOffset dx="4.0" dy="4.0" in="blurOut2" result="blurOut3"/><feBlend in="SourceGraphic" in2="blurOut3" mode="normal"/></filter></defs><g><rect fill="#FFFFFF" filter="url(#f1qg97yqfkmwrf)" height="296.3281" style="stroke:#A80036;stroke-width:1.0;" width="10" x="51" y="98.2969"/><rect fill="#FFFFFF" filter="url(#f1qg97yqfkmwrf)" height="29.1328" style="stroke:#A80036;stroke-width:1.0;" width="10" x="538" y="119.4297"/><rect fill="#FFFFFF" filter="url(#f1qg97yqfkmwrf)" height="216.9297" style="stroke:#A80036;stroke-width:1.0;" width="10" x="538" y="177.6953"/><rect fill="#FFFFFF" filter="url(#f1qg97yqfkmwrf)" height="187.7969" style="stroke:#A80036;stroke-width:1.0;" width="10" x="693" y="206.8281"/><rect fill="#FFFFFF" filter="url(#f1qg97yqfkmwrf)" height="71.2656" style="stroke:#A80036;stroke-width:1.0;" width="10" x="826" y="235.9609"/><rect fill="#FFFFFF" filter="url(#f1qg97yqfkmwrf)" height="29.1328" style="stroke:#A80036;stroke-width:1.0;" width="10" x="987" y="307.2266"/><line style="stroke:#A80036;stroke-width:1.0;stroke-dasharray:5.0,5.0;" x1="56" x2="56" y1="88.2969" y2="412.625"/><line style="stroke:#A80036;stroke-width:1.0;stroke-dasharray:5.0,5.0;" x1="542.5" x2="542.5" y1="88.2969" y2="412.625"/><line style="stroke:#A80036;stroke-width:1.0;stroke-dasharray:5.0,5.0;" x1="697.5" x2="697.5" y1="88.2969" y2="412.625"/><line style="stroke:#A80036;stroke-width:1.0;stroke-dasharray:5.0,5.0;" x1="830.5" x2="830.5" y1="88.2969" y2="412.625"/><line style="stroke:#A80036;stroke-width:1.0;stroke-dasharray:5.0,5.0;" x1="991.5" x2="991.5" y1="88.2969" y2="412.625"/><text fill="#000000" font-family="sans-serif" font-size="14" lengthAdjust="spacing" textLength="96" x="5" y="84.9951">Port Manager</text><ellipse cx="56" cy="15" fill="#FEFECE" filter="url(#f1qg97yqfkmwrf)" rx="8" ry="8" style="stroke:#A80036;stroke-width:2.0;"/><path d="M56,23 L56,50 M43,31 L69,31 M56,50 L43,65 M56,50 L69,65 " fill="none" filter="url(#f1qg97yqfkmwrf)" style="stroke:#A80036;stroke-width:2.0;"/><text fill="#000000" font-family="sans-serif" font-size="14" lengthAdjust="spacing" textLength="96" x="5" y="424.6201">Port Manager</text><ellipse cx="56" cy="437.9219" fill="#FEFECE" filter="url(#f1qg97yqfkmwrf)" rx="8" ry="8" style="stroke:#A80036;stroke-width:2.0;"/><path d="M56,445.9219 L56,472.9219 M43,453.9219 L69,453.9219 M56,472.9219 L43,487.9219 M56,472.9219 L69,487.9219 " fill="none" filter="url(#f1qg97yqfkmwrf)" style="stroke:#A80036;stroke-width:2.0;"/><rect fill="#FEFECE" filter="url(#f1qg97yqfkmwrf)" height="30.2969" style="stroke:#A80036;stroke-width:1.5;" width="111" x="485.5" y="53"/><text fill="#000000" font-family="sans-serif" font-size="14" lengthAdjust="spacing" textLength="97" x="492.5" y="72.9951">:CreateMapUI</text><rect fill="#FEFECE" filter="url(#f1qg97yqfkmwrf)" height="30.2969" style="stroke:#A80036;stroke-width:1.5;" width="111" x="485.5" y="411.625"/><text fill="#000000" font-family="sans-serif" font-size="14" lengthAdjust="spacing" textLength="97" x="492.5" y="431.6201">:CreateMapUI</text><rect fill="#FEFECE" filter="url(#f1qg97yqfkmwrf)" height="30.2969" style="stroke:#A80036;stroke-width:1.5;" width="171" x="610.5" y="53"/><text fill="#000000" font-family="sans-serif" font-size="14" lengthAdjust="spacing" textLength="157" x="617.5" y="72.9951">:CreateMapController</text><rect fill="#FEFECE" filter="url(#f1qg97yqfkmwrf)" height="30.2969" style="stroke:#A80036;stroke-width:1.5;" width="171" x="610.5" y="411.625"/><text fill="#000000" font-family="sans-serif" font-size="14" lengthAdjust="spacing" textLength="157" x="617.5" y="431.6201">:CreateMapController</text><rect fill="#FEFECE" filter="url(#f1qg97yqfkmwrf)" height="30.2969" style="stroke:#A80036;stroke-width:1.5;" width="63" x="797.5" y="53"/><text fill="#000000" font-family="sans-serif" font-size="14" lengthAdjust="spacing" textLength="49" x="804.5" y="72.9951">:US407</text><rect fill="#FEFECE" filter="url(#f1qg97yqfkmwrf)" height="30.2969" style="stroke:#A80036;stroke-width:1.5;" width="63" x="797.5" y="411.625"/><text fill="#000000" font-family="sans-serif" font-size="14" lengthAdjust="spacing" textLength="49" x="804.5" y="431.6201">:US407</text><rect fill="#FEFECE" filter="url(#f1qg97yqfkmwrf)" height="30.2969" style="stroke:#A80036;stroke-width:1.5;" width="117" x="931.5" y="53"/><text fill="#000000" font-family="sans-serif" font-size="14" lengthAdjust="spacing" textLength="103" x="938.5" y="72.9951">:FileOperation</text><rect fill="#FEFECE" filter="url(#f1qg97yqfkmwrf)" height="30.2969" style="stroke:#A80036;stroke-width:1.5;" width="117" x="931.5" y="411.625"/><text fill="#000000" font-family="sans-serif" font-size="14" lengthAdjust="spacing" textLength="103" x="938.5" y="431.6201">:FileOperation</text><rect fill="#FFFFFF" filter="url(#f1qg97yqfkmwrf)" height="296.3281" style="stroke:#A80036;stroke-width:1.0;" width="10" x="51" y="98.2969"/><rect fill="#FFFFFF" filter="url(#f1qg97yqfkmwrf)" height="29.1328" style="stroke:#A80036;stroke-width:1.0;" width="10" x="538" y="119.4297"/><rect fill="#FFFFFF" filter="url(#f1qg97yqfkmwrf)" height="216.9297" style="stroke:#A80036;stroke-width:1.0;" width="10" x="538" y="177.6953"/><rect fill="#FFFFFF" filter="url(#f1qg97yqfkmwrf)" height="187.7969" style="stroke:#A80036;stroke-width:1.0;" width="10" x="693" y="206.8281"/><rect fill="#FFFFFF" filter="url(#f1qg97yqfkmwrf)" height="71.2656" style="stroke:#A80036;stroke-width:1.0;" width="10" x="826" y="235.9609"/><rect fill="#FFFFFF" filter="url(#f1qg97yqfkmwrf)" height="29.1328" style="stroke:#A80036;stroke-width:1.0;" width="10" x="987" y="307.2266"/><polygon fill="#A80036" points="526,115.4297,536,119.4297,526,123.4297,530,119.4297" style="stroke:#A80036;stroke-width:1.0;"/><line style="stroke:#A80036;stroke-width:1.0;" x1="61" x2="532" y1="119.4297" y2="119.4297"/><text fill="#000000" font-family="sans-serif" font-size="13" font-weight="bold" lengthAdjust="spacing" textLength="9" x="68" y="114.3638">1</text><text fill="#000000" font-family="sans-serif" font-size="13" lengthAdjust="spacing" textLength="445" x="81" y="114.3638">want to generate, a week in advance, the loading and unloading map</text><polygon fill="#A80036" points="72,144.5625,62,148.5625,72,152.5625,68,148.5625" style="stroke:#A80036;stroke-width:1.0;"/><line style="stroke:#A80036;stroke-width:1.0;stroke-dasharray:2.0,2.0;" x1="66" x2="542" y1="148.5625" y2="148.5625"/><text fill="#000000" font-family="sans-serif" font-size="13" font-weight="bold" lengthAdjust="spacing" textLength="9" x="78" y="143.4966">2</text><text fill="#000000" font-family="sans-serif" font-size="13" lengthAdjust="spacing" textLength="121" x="91" y="143.4966">asks for the port id</text><polygon fill="#A80036" points="526,173.6953,536,177.6953,526,181.6953,530,177.6953" style="stroke:#A80036;stroke-width:1.0;"/><line style="stroke:#A80036;stroke-width:1.0;" x1="61" x2="532" y1="177.6953" y2="177.6953"/><text fill="#000000" font-family="sans-serif" font-size="13" font-weight="bold" lengthAdjust="spacing" textLength="8" x="68" y="172.6294">3</text><text fill="#000000" font-family="sans-serif" font-size="13" lengthAdjust="spacing" textLength="138" x="80" y="172.6294">types requested data</text><polygon fill="#A80036" points="681,202.8281,691,206.8281,681,210.8281,685,206.8281" style="stroke:#A80036;stroke-width:1.0;"/><line style="stroke:#A80036;stroke-width:1.0;" x1="548" x2="687" y1="206.8281" y2="206.8281"/><text fill="#000000" font-family="sans-serif" font-size="13" font-weight="bold" lengthAdjust="spacing" textLength="9" x="555" y="201.7622">4</text><text fill="#000000" font-family="sans-serif" font-size="13" lengthAdjust="spacing" textLength="82" x="568" y="201.7622">createUS407</text><polygon fill="#A80036" points="814,231.9609,824,235.9609,814,239.9609,818,235.9609" style="stroke:#A80036;stroke-width:1.0;"/><line style="stroke:#A80036;stroke-width:1.0;" x1="703" x2="820" y1="235.9609" y2="235.9609"/><text fill="#000000" font-family="sans-serif" font-size="13" font-weight="bold" lengthAdjust="spacing" textLength="9" x="710" y="230.895">5</text><text fill="#000000" font-family="sans-serif" font-size="13" lengthAdjust="spacing" textLength="91" x="723" y="230.895">demo(port_id)</text><line style="stroke:#A80036;stroke-width:1.0;" x1="836" x2="878" y1="265.0938" y2="265.0938"/><line style="stroke:#A80036;stroke-width:1.0;" x1="878" x2="878" y1="265.0938" y2="278.0938"/><line style="stroke:#A80036;stroke-width:1.0;" x1="837" x2="878" y1="278.0938" y2="278.0938"/><polygon fill="#A80036" points="847,274.0938,837,278.0938,847,282.0938,843,278.0938" style="stroke:#A80036;stroke-width:1.0;"/><text fill="#000000" font-family="sans-serif" font-size="13" font-weight="bold" lengthAdjust="spacing" textLength="9" x="843" y="260.0278">6</text><text fill="#000000" font-family="sans-serif" font-size="13" lengthAdjust="spacing" textLength="51" x="856" y="260.0278">initialize</text><polygon fill="#A80036" points="975,303.2266,985,307.2266,975,311.2266,979,307.2266" style="stroke:#A80036;stroke-width:1.0;"/><line style="stroke:#A80036;stroke-width:1.0;" x1="831" x2="981" y1="307.2266" y2="307.2266"/><text fill="#000000" font-family="sans-serif" font-size="13" font-weight="bold" lengthAdjust="spacing" textLength="9" x="838" y="302.1606">7</text><text fill="#000000" font-family="sans-serif" font-size="13" lengthAdjust="spacing" textLength="119" x="851" y="302.1606">WriteToAFile(data)</text><polygon fill="#A80036" points="714,332.3594,704,336.3594,714,340.3594,710,336.3594" style="stroke:#A80036;stroke-width:1.0;"/><line style="stroke:#A80036;stroke-width:1.0;stroke-dasharray:2.0,2.0;" x1="708" x2="991" y1="336.3594" y2="336.3594"/><text fill="#000000" font-family="sans-serif" font-size="13" font-weight="bold" lengthAdjust="spacing" textLength="9" x="720" y="331.2935">8</text><text fill="#000000" font-family="sans-serif" font-size="13" lengthAdjust="spacing" textLength="19" x="733" y="331.2935">file</text><polygon fill="#A80036" points="559,361.4922,549,365.4922,559,369.4922,555,365.4922" style="stroke:#A80036;stroke-width:1.0;"/><line style="stroke:#A80036;stroke-width:1.0;stroke-dasharray:2.0,2.0;" x1="553" x2="692" y1="365.4922" y2="365.4922"/><text fill="#000000" font-family="sans-serif" font-size="13" font-weight="bold" lengthAdjust="spacing" textLength="9" x="565" y="360.4263">9</text><text fill="#000000" font-family="sans-serif" font-size="13" lengthAdjust="spacing" textLength="19" x="578" y="360.4263">file</text><polygon fill="#A80036" points="67,390.625,57,394.625,67,398.625,63,394.625" style="stroke:#A80036;stroke-width:1.0;"/><line style="stroke:#A80036;stroke-width:1.0;stroke-dasharray:2.0,2.0;" x1="61" x2="542" y1="394.625" y2="394.625"/><text fill="#000000" font-family="sans-serif" font-size="13" font-weight="bold" lengthAdjust="spacing" textLength="19" x="73" y="389.5591">10</text><text fill="#000000" font-family="sans-serif" font-size="13" lengthAdjust="spacing" textLength="168" x="96" y="389.5591">shows the requested data</text><!--MD5=[00abdce53869431821655884ab2e5366]
@startuml
actor "Port Manager" as Adm
participant ":CreateMapUI" as System
participant ":CreateMapController" as SSC
participant ":US407" as us
participant ":FileOperation" as f

autonumber

activate Adm

Adm -> System: want to generate, a week in advance, the loading and unloading map

activate System

System - -> Adm: asks for the port id

deactivate System

Adm -> System: types requested data

activate System

System -> SSC: createUS407

activate SSC

SSC -> us: demo(port_id)

activate us

us -> us: initialize

us -> f: WriteToAFile(data)

deactivate us

activate f

f - -> SSC: file

deactivate f

SSC - -> System: file

System - -> Adm: shows the requested data

deactivate SSC

deactivate System

deactivate Adm
@enduml

PlantUML version 1.2022.1beta4(Unknown compile time)
(GPL source distribution)
Java Runtime: Java(TM) SE Runtime Environment
JVM: Java HotSpot(TM) 64-Bit Server VM
Default Encoding: UTF-8
Language: en
Country: US
--></g></svg>