<?xml version="1.0" encoding="UTF-8" standalone="no"?><svg xmlns="http://www.w3.org/2000/svg" xmlns:xlink="http://www.w3.org/1999/xlink" contentScriptType="application/ecmascript" contentStyleType="text/css" height="805px" preserveAspectRatio="none" style="width:1389px;height:805px;" version="1.1" viewBox="0 0 1389 805" width="1389px" zoomAndPan="magnify"><defs><filter height="300%" id="fpy6h0kcg1o1n" width="300%" x="-1" y="-1"><feGaussianBlur result="blurOut" stdDeviation="2.0"/><feColorMatrix in="blurOut" result="blurOut2" type="matrix" values="0 0 0 0 0 0 0 0 0 0 0 0 0 0 0 0 0 0 .4 0"/><feOffset dx="4.0" dy="4.0" in="blurOut2" result="blurOut3"/><feBlend in="SourceGraphic" in2="blurOut3" mode="normal"/></filter></defs><g><!--MD5=[08ce13b08eea6363b854c27686b963d8]
class BuildFreightNetworkController--><rect fill="#FEFECE" filter="url(#fpy6h0kcg1o1n)" height="75.6719" id="BuildFreightNetworkController" style="stroke:#A80036;stroke-width:1.5;" width="197" x="472.5" y="7"/><ellipse cx="487.5" cy="23" fill="#ADD1B2" rx="11" ry="11" style="stroke:#A80036;stroke-width:1.0;"/><path d="M489.5,19.5 Q489.7031,19 489.9375,18.75 Q490.1719,18.5 490.4375,18.5 Q490.9063,18.5 491.2031,18.7813 Q491.5,19.0625 491.5,19.7188 L491.5,21.2813 Q491.5,21.9375 491.2188,22.2188 Q490.9375,22.5 490.5,22.5 Q490.1094,22.5 489.8594,22.3281 Q489.6094,22.1563 489.5,21.7031 Q489.4531,21.3906 489.2813,21.2188 Q488.9688,20.8906 488.4063,20.7031 Q487.8438,20.5 487.2813,20.5 Q486.5781,20.5 485.9844,20.7813 Q485.4063,21.0625 484.9531,21.6875 Q484.5,22.3125 484.5,23.1719 L484.5,24.0938 Q484.5,25.125 485.3438,25.8125 Q486.1875,26.5 487.6875,26.5 Q488.5781,26.5 489.2031,26.2969 Q489.5625,26.1875 489.9688,25.8281 Q490.2344,25.625 490.375,25.5625 Q490.5156,25.5 490.6875,25.5 Q491.0156,25.5 491.25,25.7656 Q491.5,26.0156 491.5,26.375 Q491.5,26.7188 491.1563,27.125 Q490.6563,27.7188 489.8594,28.0469 Q488.8125,28.5 487.5313,28.5 Q486.0313,28.5 484.8281,27.9063 Q483.8594,27.4375 483.1719,26.4219 Q482.5,25.4063 482.5,24.2031 L482.5,23.1094 Q482.5,21.8594 483.0938,20.7656 Q483.7031,19.6719 484.75,19.0938 Q485.8125,18.5 487,18.5 Q487.7188,18.5 488.3438,18.75 Q488.9688,19 489.5,19.5 Z " fill="#000000"/><text fill="#000000" font-family="sans-serif" font-size="12" lengthAdjust="spacing" textLength="165" x="501.5" y="27.9102">BuildFreightNetworkController</text><line style="stroke:#A80036;stroke-width:1.5;" x1="473.5" x2="668.5" y1="39" y2="39"/><line style="stroke:#A80036;stroke-width:1.5;" x1="473.5" x2="668.5" y1="47" y2="47"/><ellipse cx="483.5" cy="58" fill="#84BE84" rx="3" ry="3" style="stroke:#038048;stroke-width:1.0;"/><text fill="#000000" font-family="sans-serif" font-size="11" lengthAdjust="spacing" textLength="129" x="492.5" y="62.4189">ImportDataFromDatabase()</text><ellipse cx="483.5" cy="71.8359" fill="#84BE84" rx="3" ry="3" style="stroke:#038048;stroke-width:1.0;"/><text fill="#000000" font-family="sans-serif" font-size="11" lengthAdjust="spacing" textLength="105" x="492.5" y="76.2549">BuildFreightNetwork()</text><!--MD5=[02e4b9b7573f1156f41e60aa5b4e25a4]
class Company--><rect fill="#FEFECE" filter="url(#fpy6h0kcg1o1n)" height="131.0156" id="Company" style="stroke:#A80036;stroke-width:1.5;" width="129" x="246.5" y="150"/><ellipse cx="281.3" cy="166" fill="#ADD1B2" rx="11" ry="11" style="stroke:#A80036;stroke-width:1.0;"/><path d="M283.3,162.5 Q283.5031,162 283.7375,161.75 Q283.9719,161.5 284.2375,161.5 Q284.7063,161.5 285.0031,161.7813 Q285.3,162.0625 285.3,162.7188 L285.3,164.2813 Q285.3,164.9375 285.0188,165.2188 Q284.7375,165.5 284.3,165.5 Q283.9094,165.5 283.6594,165.3281 Q283.4094,165.1563 283.3,164.7031 Q283.2531,164.3906 283.0813,164.2188 Q282.7688,163.8906 282.2063,163.7031 Q281.6438,163.5 281.0813,163.5 Q280.3781,163.5 279.7844,163.7813 Q279.2063,164.0625 278.7531,164.6875 Q278.3,165.3125 278.3,166.1719 L278.3,167.0938 Q278.3,168.125 279.1438,168.8125 Q279.9875,169.5 281.4875,169.5 Q282.3781,169.5 283.0031,169.2969 Q283.3625,169.1875 283.7688,168.8281 Q284.0344,168.625 284.175,168.5625 Q284.3156,168.5 284.4875,168.5 Q284.8156,168.5 285.05,168.7656 Q285.3,169.0156 285.3,169.375 Q285.3,169.7188 284.9563,170.125 Q284.4563,170.7188 283.6594,171.0469 Q282.6125,171.5 281.3313,171.5 Q279.8313,171.5 278.6281,170.9063 Q277.6594,170.4375 276.9719,169.4219 Q276.3,168.4063 276.3,167.2031 L276.3,166.1094 Q276.3,164.8594 276.8938,163.7656 Q277.5031,162.6719 278.55,162.0938 Q279.6125,161.5 280.8,161.5 Q281.5188,161.5 282.1438,161.75 Q282.7688,162 283.3,162.5 Z " fill="#000000"/><text fill="#000000" font-family="sans-serif" font-size="12" lengthAdjust="spacing" textLength="53" x="299.7" y="170.9102">Company</text><line style="stroke:#A80036;stroke-width:1.5;" x1="247.5" x2="374.5" y1="182" y2="182"/><line style="stroke:#A80036;stroke-width:1.5;" x1="247.5" x2="374.5" y1="190" y2="190"/><ellipse cx="257.5" cy="201" fill="#84BE84" rx="3" ry="3" style="stroke:#038048;stroke-width:1.0;"/><text fill="#000000" font-family="sans-serif" font-size="11" lengthAdjust="spacing" textLength="53" x="266.5" y="205.4189">Company()</text><ellipse cx="257.5" cy="214.8359" fill="#84BE84" rx="3" ry="3" style="stroke:#038048;stroke-width:1.0;"/><text fill="#000000" font-family="sans-serif" font-size="11" lengthAdjust="spacing" textLength="64" x="266.5" y="219.2549">getKdtPorts()</text><ellipse cx="257.5" cy="228.6719" fill="#84BE84" rx="3" ry="3" style="stroke:#038048;stroke-width:1.0;"/><text fill="#000000" font-family="sans-serif" font-size="11" lengthAdjust="spacing" textLength="103" x="266.5" y="233.0908">setKdtPorts(PortKDT)</text><ellipse cx="257.5" cy="242.5078" fill="#84BE84" rx="3" ry="3" style="stroke:#038048;stroke-width:1.0;"/><text fill="#000000" font-family="sans-serif" font-size="11" lengthAdjust="spacing" textLength="87" x="266.5" y="246.9268">getCountryStore()</text><ellipse cx="257.5" cy="256.3438" fill="#84BE84" rx="3" ry="3" style="stroke:#038048;stroke-width:1.0;"/><text fill="#000000" font-family="sans-serif" font-size="11" lengthAdjust="spacing" textLength="82" x="266.5" y="260.7627">getBorderStore()</text><ellipse cx="257.5" cy="270.1797" fill="#84BE84" rx="3" ry="3" style="stroke:#038048;stroke-width:1.0;"/><text fill="#000000" font-family="sans-serif" font-size="11" lengthAdjust="spacing" textLength="85" x="266.5" y="274.5986">getSeadistStore()</text><!--MD5=[a0bfe97ac0a38e6e74cc1c7c7b744b71]
class Port--><rect fill="#FEFECE" filter="url(#fpy6h0kcg1o1n)" height="117.1797" id="Port" style="stroke:#A80036;stroke-width:1.5;" width="107" x="586.5" y="654"/><ellipse cx="625.35" cy="670" fill="#ADD1B2" rx="11" ry="11" style="stroke:#A80036;stroke-width:1.0;"/><path d="M627.35,666.5 Q627.5531,666 627.7875,665.75 Q628.0219,665.5 628.2875,665.5 Q628.7563,665.5 629.0531,665.7813 Q629.35,666.0625 629.35,666.7188 L629.35,668.2813 Q629.35,668.9375 629.0688,669.2188 Q628.7875,669.5 628.35,669.5 Q627.9594,669.5 627.7094,669.3281 Q627.4594,669.1563 627.35,668.7031 Q627.3031,668.3906 627.1313,668.2188 Q626.8188,667.8906 626.2563,667.7031 Q625.6938,667.5 625.1313,667.5 Q624.4281,667.5 623.8344,667.7813 Q623.2563,668.0625 622.8031,668.6875 Q622.35,669.3125 622.35,670.1719 L622.35,671.0938 Q622.35,672.125 623.1938,672.8125 Q624.0375,673.5 625.5375,673.5 Q626.4281,673.5 627.0531,673.2969 Q627.4125,673.1875 627.8188,672.8281 Q628.0844,672.625 628.225,672.5625 Q628.3656,672.5 628.5375,672.5 Q628.8656,672.5 629.1,672.7656 Q629.35,673.0156 629.35,673.375 Q629.35,673.7188 629.0063,674.125 Q628.5063,674.7188 627.7094,675.0469 Q626.6625,675.5 625.3813,675.5 Q623.8813,675.5 622.6781,674.9063 Q621.7094,674.4375 621.0219,673.4219 Q620.35,672.4063 620.35,671.2031 L620.35,670.1094 Q620.35,668.8594 620.9438,667.7656 Q621.5531,666.6719 622.6,666.0938 Q623.6625,665.5 624.85,665.5 Q625.5688,665.5 626.1938,665.75 Q626.8188,666 627.35,666.5 Z " fill="#000000"/><text fill="#000000" font-family="sans-serif" font-size="12" lengthAdjust="spacing" textLength="22" x="644.65" y="674.9102">Port</text><line style="stroke:#A80036;stroke-width:1.5;" x1="587.5" x2="692.5" y1="686" y2="686"/><rect fill="none" height="6" style="stroke:#C82930;stroke-width:1.0;" width="6" x="594.5" y="694"/><text fill="#000000" font-family="sans-serif" font-size="11" lengthAdjust="spacing" textLength="41" x="606.5" y="701.4189">code: int</text><rect fill="none" height="6" style="stroke:#C82930;stroke-width:1.0;" width="6" x="594.5" y="707.8359"/><text fill="#000000" font-family="sans-serif" font-size="11" lengthAdjust="spacing" textLength="60" x="606.5" y="715.2549">name: String</text><rect fill="none" height="6" style="stroke:#C82930;stroke-width:1.0;" width="6" x="594.5" y="721.6719"/><text fill="#000000" font-family="sans-serif" font-size="11" lengthAdjust="spacing" textLength="81" x="606.5" y="729.0908">country: Country</text><rect fill="none" height="6" style="stroke:#C82930;stroke-width:1.0;" width="6" x="594.5" y="735.5078"/><text fill="#000000" font-family="sans-serif" font-size="11" lengthAdjust="spacing" textLength="61" x="606.5" y="742.9268">latitude: float</text><rect fill="none" height="6" style="stroke:#C82930;stroke-width:1.0;" width="6" x="594.5" y="749.3438"/><text fill="#000000" font-family="sans-serif" font-size="11" lengthAdjust="spacing" textLength="70" x="606.5" y="756.7627">longitude: float</text><line style="stroke:#A80036;stroke-width:1.5;" x1="587.5" x2="692.5" y1="763.1797" y2="763.1797"/><!--MD5=[f14c97f009274192f499f18aa48d69a9]
class KdtPort--><rect fill="#FEFECE" filter="url(#fpy6h0kcg1o1n)" height="61.8359" id="KdtPort" style="stroke:#A80036;stroke-width:1.5;" width="72" x="7" y="348"/><ellipse cx="22" cy="364" fill="#ADD1B2" rx="11" ry="11" style="stroke:#A80036;stroke-width:1.0;"/><path d="M24,360.5 Q24.2031,360 24.4375,359.75 Q24.6719,359.5 24.9375,359.5 Q25.4063,359.5 25.7031,359.7813 Q26,360.0625 26,360.7188 L26,362.2813 Q26,362.9375 25.7188,363.2188 Q25.4375,363.5 25,363.5 Q24.6094,363.5 24.3594,363.3281 Q24.1094,363.1563 24,362.7031 Q23.9531,362.3906 23.7813,362.2188 Q23.4688,361.8906 22.9063,361.7031 Q22.3438,361.5 21.7813,361.5 Q21.0781,361.5 20.4844,361.7813 Q19.9063,362.0625 19.4531,362.6875 Q19,363.3125 19,364.1719 L19,365.0938 Q19,366.125 19.8438,366.8125 Q20.6875,367.5 22.1875,367.5 Q23.0781,367.5 23.7031,367.2969 Q24.0625,367.1875 24.4688,366.8281 Q24.7344,366.625 24.875,366.5625 Q25.0156,366.5 25.1875,366.5 Q25.5156,366.5 25.75,366.7656 Q26,367.0156 26,367.375 Q26,367.7188 25.6563,368.125 Q25.1563,368.7188 24.3594,369.0469 Q23.3125,369.5 22.0313,369.5 Q20.5313,369.5 19.3281,368.9063 Q18.3594,368.4375 17.6719,367.4219 Q17,366.4063 17,365.2031 L17,364.1094 Q17,362.8594 17.5938,361.7656 Q18.2031,360.6719 19.25,360.0938 Q20.3125,359.5 21.5,359.5 Q22.2188,359.5 22.8438,359.75 Q23.4688,360 24,360.5 Z " fill="#000000"/><text fill="#000000" font-family="sans-serif" font-size="12" lengthAdjust="spacing" textLength="40" x="36" y="368.9102">KdtPort</text><line style="stroke:#A80036;stroke-width:1.5;" x1="8" x2="78" y1="380" y2="380"/><line style="stroke:#A80036;stroke-width:1.5;" x1="8" x2="78" y1="388" y2="388"/><ellipse cx="18" cy="399" fill="#84BE84" rx="3" ry="3" style="stroke:#038048;stroke-width:1.0;"/><text fill="#000000" font-family="sans-serif" font-size="11" lengthAdjust="spacing" textLength="44" x="27" y="403.4189">inOrder()</text><!--MD5=[1fa23e875f7ea39406cc4f0fd95e1dab]
class CountryStore--><rect fill="#FEFECE" filter="url(#fpy6h0kcg1o1n)" height="61.8359" id="CountryStore" style="stroke:#A80036;stroke-width:1.5;" width="103" x="114.5" y="348"/><ellipse cx="129.5" cy="364" fill="#ADD1B2" rx="11" ry="11" style="stroke:#A80036;stroke-width:1.0;"/><path d="M131.5,360.5 Q131.7031,360 131.9375,359.75 Q132.1719,359.5 132.4375,359.5 Q132.9063,359.5 133.2031,359.7813 Q133.5,360.0625 133.5,360.7188 L133.5,362.2813 Q133.5,362.9375 133.2188,363.2188 Q132.9375,363.5 132.5,363.5 Q132.1094,363.5 131.8594,363.3281 Q131.6094,363.1563 131.5,362.7031 Q131.4531,362.3906 131.2813,362.2188 Q130.9688,361.8906 130.4063,361.7031 Q129.8438,361.5 129.2813,361.5 Q128.5781,361.5 127.9844,361.7813 Q127.4063,362.0625 126.9531,362.6875 Q126.5,363.3125 126.5,364.1719 L126.5,365.0938 Q126.5,366.125 127.3438,366.8125 Q128.1875,367.5 129.6875,367.5 Q130.5781,367.5 131.2031,367.2969 Q131.5625,367.1875 131.9688,366.8281 Q132.2344,366.625 132.375,366.5625 Q132.5156,366.5 132.6875,366.5 Q133.0156,366.5 133.25,366.7656 Q133.5,367.0156 133.5,367.375 Q133.5,367.7188 133.1563,368.125 Q132.6563,368.7188 131.8594,369.0469 Q130.8125,369.5 129.5313,369.5 Q128.0313,369.5 126.8281,368.9063 Q125.8594,368.4375 125.1719,367.4219 Q124.5,366.4063 124.5,365.2031 L124.5,364.1094 Q124.5,362.8594 125.0938,361.7656 Q125.7031,360.6719 126.75,360.0938 Q127.8125,359.5 129,359.5 Q129.7188,359.5 130.3438,359.75 Q130.9688,360 131.5,360.5 Z " fill="#000000"/><text fill="#000000" font-family="sans-serif" font-size="12" lengthAdjust="spacing" textLength="71" x="143.5" y="368.9102">CountryStore</text><line style="stroke:#A80036;stroke-width:1.5;" x1="115.5" x2="216.5" y1="380" y2="380"/><line style="stroke:#A80036;stroke-width:1.5;" x1="115.5" x2="216.5" y1="388" y2="388"/><ellipse cx="125.5" cy="399" fill="#84BE84" rx="3" ry="3" style="stroke:#038048;stroke-width:1.0;"/><text fill="#000000" font-family="sans-serif" font-size="11" lengthAdjust="spacing" textLength="69" x="134.5" y="403.4189">getCountries()</text><!--MD5=[1a5e2587019baa51be2acd1776bfe516]
class BorderStore--><rect fill="#FEFECE" filter="url(#fpy6h0kcg1o1n)" height="61.8359" id="BorderStore" style="stroke:#A80036;stroke-width:1.5;" width="126" x="253" y="348"/><ellipse cx="280.6" cy="364" fill="#ADD1B2" rx="11" ry="11" style="stroke:#A80036;stroke-width:1.0;"/><path d="M282.6,360.5 Q282.8031,360 283.0375,359.75 Q283.2719,359.5 283.5375,359.5 Q284.0063,359.5 284.3031,359.7813 Q284.6,360.0625 284.6,360.7188 L284.6,362.2813 Q284.6,362.9375 284.3188,363.2188 Q284.0375,363.5 283.6,363.5 Q283.2094,363.5 282.9594,363.3281 Q282.7094,363.1563 282.6,362.7031 Q282.5531,362.3906 282.3813,362.2188 Q282.0688,361.8906 281.5063,361.7031 Q280.9438,361.5 280.3813,361.5 Q279.6781,361.5 279.0844,361.7813 Q278.5063,362.0625 278.0531,362.6875 Q277.6,363.3125 277.6,364.1719 L277.6,365.0938 Q277.6,366.125 278.4438,366.8125 Q279.2875,367.5 280.7875,367.5 Q281.6781,367.5 282.3031,367.2969 Q282.6625,367.1875 283.0688,366.8281 Q283.3344,366.625 283.475,366.5625 Q283.6156,366.5 283.7875,366.5 Q284.1156,366.5 284.35,366.7656 Q284.6,367.0156 284.6,367.375 Q284.6,367.7188 284.2563,368.125 Q283.7563,368.7188 282.9594,369.0469 Q281.9125,369.5 280.6313,369.5 Q279.1313,369.5 277.9281,368.9063 Q276.9594,368.4375 276.2719,367.4219 Q275.6,366.4063 275.6,365.2031 L275.6,364.1094 Q275.6,362.8594 276.1938,361.7656 Q276.8031,360.6719 277.85,360.0938 Q278.9125,359.5 280.1,359.5 Q280.8188,359.5 281.4438,359.75 Q282.0688,360 282.6,360.5 Z " fill="#000000"/><text fill="#000000" font-family="sans-serif" font-size="12" lengthAdjust="spacing" textLength="66" x="297.4" y="368.9102">BorderStore</text><line style="stroke:#A80036;stroke-width:1.5;" x1="254" x2="378" y1="380" y2="380"/><line style="stroke:#A80036;stroke-width:1.5;" x1="254" x2="378" y1="388" y2="388"/><ellipse cx="264" cy="399" fill="#84BE84" rx="3" ry="3" style="stroke:#038048;stroke-width:1.0;"/><text fill="#000000" font-family="sans-serif" font-size="11" lengthAdjust="spacing" textLength="100" x="273" y="403.4189">getBordersCountry()</text><!--MD5=[1422bb85f79f029a0f123e8b9236e461]
class SeadistStore--><rect fill="#FEFECE" filter="url(#fpy6h0kcg1o1n)" height="61.8359" id="SeadistStore" style="stroke:#A80036;stroke-width:1.5;" width="103" x="414.5" y="348"/><ellipse cx="429.5" cy="364" fill="#ADD1B2" rx="11" ry="11" style="stroke:#A80036;stroke-width:1.0;"/><path d="M431.5,360.5 Q431.7031,360 431.9375,359.75 Q432.1719,359.5 432.4375,359.5 Q432.9063,359.5 433.2031,359.7813 Q433.5,360.0625 433.5,360.7188 L433.5,362.2813 Q433.5,362.9375 433.2188,363.2188 Q432.9375,363.5 432.5,363.5 Q432.1094,363.5 431.8594,363.3281 Q431.6094,363.1563 431.5,362.7031 Q431.4531,362.3906 431.2813,362.2188 Q430.9688,361.8906 430.4063,361.7031 Q429.8438,361.5 429.2813,361.5 Q428.5781,361.5 427.9844,361.7813 Q427.4063,362.0625 426.9531,362.6875 Q426.5,363.3125 426.5,364.1719 L426.5,365.0938 Q426.5,366.125 427.3438,366.8125 Q428.1875,367.5 429.6875,367.5 Q430.5781,367.5 431.2031,367.2969 Q431.5625,367.1875 431.9688,366.8281 Q432.2344,366.625 432.375,366.5625 Q432.5156,366.5 432.6875,366.5 Q433.0156,366.5 433.25,366.7656 Q433.5,367.0156 433.5,367.375 Q433.5,367.7188 433.1563,368.125 Q432.6563,368.7188 431.8594,369.0469 Q430.8125,369.5 429.5313,369.5 Q428.0313,369.5 426.8281,368.9063 Q425.8594,368.4375 425.1719,367.4219 Q424.5,366.4063 424.5,365.2031 L424.5,364.1094 Q424.5,362.8594 425.0938,361.7656 Q425.7031,360.6719 426.75,360.0938 Q427.8125,359.5 429,359.5 Q429.7188,359.5 430.3438,359.75 Q430.9688,360 431.5,360.5 Z " fill="#000000"/><text fill="#000000" font-family="sans-serif" font-size="12" lengthAdjust="spacing" textLength="71" x="443.5" y="368.9102">SeadistStore</text><line style="stroke:#A80036;stroke-width:1.5;" x1="415.5" x2="516.5" y1="380" y2="380"/><line style="stroke:#A80036;stroke-width:1.5;" x1="415.5" x2="516.5" y1="388" y2="388"/><ellipse cx="425.5" cy="399" fill="#84BE84" rx="3" ry="3" style="stroke:#038048;stroke-width:1.0;"/><text fill="#000000" font-family="sans-serif" font-size="11" lengthAdjust="spacing" textLength="59" x="434.5" y="403.4189">getSeadist()</text><!--MD5=[deb4e1f6eb1e3c1256fdb830f96abfbb]
class Country--><rect fill="#FEFECE" filter="url(#fpy6h0kcg1o1n)" height="158.6875" id="Country" style="stroke:#A80036;stroke-width:1.5;" width="122" x="755" y="633"/><ellipse cx="791.6" cy="649" fill="#ADD1B2" rx="11" ry="11" style="stroke:#A80036;stroke-width:1.0;"/><path d="M793.6,645.5 Q793.8031,645 794.0375,644.75 Q794.2719,644.5 794.5375,644.5 Q795.0063,644.5 795.3031,644.7813 Q795.6,645.0625 795.6,645.7188 L795.6,647.2813 Q795.6,647.9375 795.3188,648.2188 Q795.0375,648.5 794.6,648.5 Q794.2094,648.5 793.9594,648.3281 Q793.7094,648.1563 793.6,647.7031 Q793.5531,647.3906 793.3813,647.2188 Q793.0688,646.8906 792.5063,646.7031 Q791.9438,646.5 791.3813,646.5 Q790.6781,646.5 790.0844,646.7813 Q789.5063,647.0625 789.0531,647.6875 Q788.6,648.3125 788.6,649.1719 L788.6,650.0938 Q788.6,651.125 789.4438,651.8125 Q790.2875,652.5 791.7875,652.5 Q792.6781,652.5 793.3031,652.2969 Q793.6625,652.1875 794.0688,651.8281 Q794.3344,651.625 794.475,651.5625 Q794.6156,651.5 794.7875,651.5 Q795.1156,651.5 795.35,651.7656 Q795.6,652.0156 795.6,652.375 Q795.6,652.7188 795.2563,653.125 Q794.7563,653.7188 793.9594,654.0469 Q792.9125,654.5 791.6313,654.5 Q790.1313,654.5 788.9281,653.9063 Q787.9594,653.4375 787.2719,652.4219 Q786.6,651.4063 786.6,650.2031 L786.6,649.1094 Q786.6,647.8594 787.1938,646.7656 Q787.8031,645.6719 788.85,645.0938 Q789.9125,644.5 791.1,644.5 Q791.8188,644.5 792.4438,644.75 Q793.0688,645 793.6,645.5 Z " fill="#000000"/><text fill="#000000" font-family="sans-serif" font-size="12" lengthAdjust="spacing" textLength="42" x="810.4" y="653.9102">Country</text><line style="stroke:#A80036;stroke-width:1.5;" x1="756" x2="876" y1="665" y2="665"/><rect fill="none" height="6" style="stroke:#C82930;stroke-width:1.0;" width="6" x="763" y="673"/><text fill="#000000" font-family="sans-serif" font-size="11" lengthAdjust="spacing" textLength="78" x="775" y="680.4189">continent: String</text><rect fill="none" height="6" style="stroke:#C82930;stroke-width:1.0;" width="6" x="763" y="686.8359"/><text fill="#000000" font-family="sans-serif" font-size="11" lengthAdjust="spacing" textLength="60" x="775" y="694.2549">name: String</text><rect fill="none" height="6" style="stroke:#C82930;stroke-width:1.0;" width="6" x="763" y="700.6719"/><text fill="#000000" font-family="sans-serif" font-size="11" lengthAdjust="spacing" textLength="96" x="775" y="708.0908">alpha2_code: String</text><rect fill="none" height="6" style="stroke:#C82930;stroke-width:1.0;" width="6" x="763" y="714.5078"/><text fill="#000000" font-family="sans-serif" font-size="11" lengthAdjust="spacing" textLength="96" x="775" y="721.9268">alpha3_code: String</text><rect fill="none" height="6" style="stroke:#C82930;stroke-width:1.0;" width="6" x="763" y="728.3438"/><text fill="#000000" font-family="sans-serif" font-size="11" lengthAdjust="spacing" textLength="65" x="775" y="735.7627">capital: String</text><rect fill="none" height="6" style="stroke:#C82930;stroke-width:1.0;" width="6" x="763" y="742.1797"/><text fill="#000000" font-family="sans-serif" font-size="11" lengthAdjust="spacing" textLength="61" x="775" y="749.5986">latitude: float</text><rect fill="none" height="6" style="stroke:#C82930;stroke-width:1.0;" width="6" x="763" y="756.0156"/><text fill="#000000" font-family="sans-serif" font-size="11" lengthAdjust="spacing" textLength="70" x="775" y="763.4346">longitude: float</text><rect fill="none" height="6" style="stroke:#C82930;stroke-width:1.0;" width="6" x="763" y="769.8516"/><text fill="#000000" font-family="sans-serif" font-size="11" lengthAdjust="spacing" textLength="76" x="775" y="777.2705">population: float</text><line style="stroke:#A80036;stroke-width:1.5;" x1="756" x2="876" y1="783.6875" y2="783.6875"/><!--MD5=[a0336aaa8110b78d9cacadb9d45e00a3]
class Border--><rect fill="#FEFECE" filter="url(#fpy6h0kcg1o1n)" height="75.6719" id="Border" style="stroke:#A80036;stroke-width:1.5;" width="140" x="1053" y="177.5"/><ellipse cx="1100.25" cy="193.5" fill="#ADD1B2" rx="11" ry="11" style="stroke:#A80036;stroke-width:1.0;"/><path d="M1102.25,190 Q1102.4531,189.5 1102.6875,189.25 Q1102.9219,189 1103.1875,189 Q1103.6563,189 1103.9531,189.2813 Q1104.25,189.5625 1104.25,190.2188 L1104.25,191.7813 Q1104.25,192.4375 1103.9688,192.7188 Q1103.6875,193 1103.25,193 Q1102.8594,193 1102.6094,192.8281 Q1102.3594,192.6563 1102.25,192.2031 Q1102.2031,191.8906 1102.0313,191.7188 Q1101.7188,191.3906 1101.1563,191.2031 Q1100.5938,191 1100.0313,191 Q1099.3281,191 1098.7344,191.2813 Q1098.1563,191.5625 1097.7031,192.1875 Q1097.25,192.8125 1097.25,193.6719 L1097.25,194.5938 Q1097.25,195.625 1098.0938,196.3125 Q1098.9375,197 1100.4375,197 Q1101.3281,197 1101.9531,196.7969 Q1102.3125,196.6875 1102.7188,196.3281 Q1102.9844,196.125 1103.125,196.0625 Q1103.2656,196 1103.4375,196 Q1103.7656,196 1104,196.2656 Q1104.25,196.5156 1104.25,196.875 Q1104.25,197.2188 1103.9063,197.625 Q1103.4063,198.2188 1102.6094,198.5469 Q1101.5625,199 1100.2813,199 Q1098.7813,199 1097.5781,198.4063 Q1096.6094,197.9375 1095.9219,196.9219 Q1095.25,195.9063 1095.25,194.7031 L1095.25,193.6094 Q1095.25,192.3594 1095.8438,191.2656 Q1096.4531,190.1719 1097.5,189.5938 Q1098.5625,189 1099.75,189 Q1100.4688,189 1101.0938,189.25 Q1101.7188,189.5 1102.25,190 Z " fill="#000000"/><text fill="#000000" font-family="sans-serif" font-size="12" lengthAdjust="spacing" textLength="37" x="1120.75" y="198.4102">Border</text><line style="stroke:#A80036;stroke-width:1.5;" x1="1054" x2="1192" y1="209.5" y2="209.5"/><rect fill="none" height="6" style="stroke:#C82930;stroke-width:1.0;" width="6" x="1061" y="217.5"/><text fill="#000000" font-family="sans-serif" font-size="11" lengthAdjust="spacing" textLength="114" x="1073" y="224.9189">countryName1: Country</text><rect fill="none" height="6" style="stroke:#C82930;stroke-width:1.0;" width="6" x="1061" y="231.3359"/><text fill="#000000" font-family="sans-serif" font-size="11" lengthAdjust="spacing" textLength="114" x="1073" y="238.7549">countryName2: Country</text><line style="stroke:#A80036;stroke-width:1.5;" x1="1054" x2="1192" y1="245.1719" y2="245.1719"/><!--MD5=[e24af10a0367b93d82d6bdd24a6ec764]
class Seadist--><rect fill="#FEFECE" filter="url(#fpy6h0kcg1o1n)" height="144.8516" id="Seadist" style="stroke:#A80036;stroke-width:1.5;" width="147" x="1228.5" y="143"/><ellipse cx="1276.75" cy="159" fill="#ADD1B2" rx="11" ry="11" style="stroke:#A80036;stroke-width:1.0;"/><path d="M1278.75,155.5 Q1278.9531,155 1279.1875,154.75 Q1279.4219,154.5 1279.6875,154.5 Q1280.1563,154.5 1280.4531,154.7813 Q1280.75,155.0625 1280.75,155.7188 L1280.75,157.2813 Q1280.75,157.9375 1280.4688,158.2188 Q1280.1875,158.5 1279.75,158.5 Q1279.3594,158.5 1279.1094,158.3281 Q1278.8594,158.1563 1278.75,157.7031 Q1278.7031,157.3906 1278.5313,157.2188 Q1278.2188,156.8906 1277.6563,156.7031 Q1277.0938,156.5 1276.5313,156.5 Q1275.8281,156.5 1275.2344,156.7813 Q1274.6563,157.0625 1274.2031,157.6875 Q1273.75,158.3125 1273.75,159.1719 L1273.75,160.0938 Q1273.75,161.125 1274.5938,161.8125 Q1275.4375,162.5 1276.9375,162.5 Q1277.8281,162.5 1278.4531,162.2969 Q1278.8125,162.1875 1279.2188,161.8281 Q1279.4844,161.625 1279.625,161.5625 Q1279.7656,161.5 1279.9375,161.5 Q1280.2656,161.5 1280.5,161.7656 Q1280.75,162.0156 1280.75,162.375 Q1280.75,162.7188 1280.4063,163.125 Q1279.9063,163.7188 1279.1094,164.0469 Q1278.0625,164.5 1276.7813,164.5 Q1275.2813,164.5 1274.0781,163.9063 Q1273.1094,163.4375 1272.4219,162.4219 Q1271.75,161.4063 1271.75,160.2031 L1271.75,159.1094 Q1271.75,157.8594 1272.3438,156.7656 Q1272.9531,155.6719 1274,155.0938 Q1275.0625,154.5 1276.25,154.5 Q1276.9688,154.5 1277.5938,154.75 Q1278.2188,155 1278.75,155.5 Z " fill="#000000"/><text fill="#000000" font-family="sans-serif" font-size="12" lengthAdjust="spacing" textLength="42" x="1297.25" y="163.9102">Seadist</text><line style="stroke:#A80036;stroke-width:1.5;" x1="1229.5" x2="1374.5" y1="175" y2="175"/><rect fill="none" height="6" style="stroke:#C82930;stroke-width:1.0;" width="6" x="1236.5" y="183"/><text fill="#000000" font-family="sans-serif" font-size="11" lengthAdjust="spacing" textLength="121" x="1248.5" y="190.4189">fromCountryName: String</text><rect fill="none" height="6" style="stroke:#C82930;stroke-width:1.0;" width="6" x="1236.5" y="196.8359"/><text fill="#000000" font-family="sans-serif" font-size="11" lengthAdjust="spacing" textLength="66" x="1248.5" y="204.2549">fromPortId: int</text><rect fill="none" height="6" style="stroke:#C82930;stroke-width:1.0;" width="6" x="1236.5" y="210.6719"/><text fill="#000000" font-family="sans-serif" font-size="11" lengthAdjust="spacing" textLength="53" x="1248.5" y="218.0908">toPortId: int</text><rect fill="none" height="6" style="stroke:#C82930;stroke-width:1.0;" width="6" x="1236.5" y="224.5078"/><text fill="#000000" font-family="sans-serif" font-size="11" lengthAdjust="spacing" textLength="102" x="1248.5" y="231.9268">fromPortName: String</text><rect fill="none" height="6" style="stroke:#C82930;stroke-width:1.0;" width="6" x="1236.5" y="238.3438"/><text fill="#000000" font-family="sans-serif" font-size="11" lengthAdjust="spacing" textLength="108" x="1248.5" y="245.7627">toCountryName: String</text><rect fill="none" height="6" style="stroke:#C82930;stroke-width:1.0;" width="6" x="1236.5" y="252.1797"/><text fill="#000000" font-family="sans-serif" font-size="11" lengthAdjust="spacing" textLength="89" x="1248.5" y="259.5986">toPortName: String</text><rect fill="none" height="6" style="stroke:#C82930;stroke-width:1.0;" width="6" x="1236.5" y="266.0156"/><text fill="#000000" font-family="sans-serif" font-size="11" lengthAdjust="spacing" textLength="77" x="1248.5" y="273.4346">seaDistance: int</text><line style="stroke:#A80036;stroke-width:1.5;" x1="1229.5" x2="1374.5" y1="279.8516" y2="279.8516"/><!--MD5=[b7b072196a724e538165319251b4d539]
class MatrixGraph--><rect fill="#FEFECE" filter="url(#fpy6h0kcg1o1n)" height="61.8359" id="MatrixGraph" style="stroke:#A80036;stroke-width:1.5;" width="251" x="695.5" y="184.5"/><ellipse cx="784.25" cy="200.5" fill="#ADD1B2" rx="11" ry="11" style="stroke:#A80036;stroke-width:1.0;"/><path d="M786.25,197 Q786.4531,196.5 786.6875,196.25 Q786.9219,196 787.1875,196 Q787.6563,196 787.9531,196.2813 Q788.25,196.5625 788.25,197.2188 L788.25,198.7813 Q788.25,199.4375 787.9688,199.7188 Q787.6875,200 787.25,200 Q786.8594,200 786.6094,199.8281 Q786.3594,199.6563 786.25,199.2031 Q786.2031,198.8906 786.0313,198.7188 Q785.7188,198.3906 785.1563,198.2031 Q784.5938,198 784.0313,198 Q783.3281,198 782.7344,198.2813 Q782.1563,198.5625 781.7031,199.1875 Q781.25,199.8125 781.25,200.6719 L781.25,201.5938 Q781.25,202.625 782.0938,203.3125 Q782.9375,204 784.4375,204 Q785.3281,204 785.9531,203.7969 Q786.3125,203.6875 786.7188,203.3281 Q786.9844,203.125 787.125,203.0625 Q787.2656,203 787.4375,203 Q787.7656,203 788,203.2656 Q788.25,203.5156 788.25,203.875 Q788.25,204.2188 787.9063,204.625 Q787.4063,205.2188 786.6094,205.5469 Q785.5625,206 784.2813,206 Q782.7813,206 781.5781,205.4063 Q780.6094,204.9375 779.9219,203.9219 Q779.25,202.9063 779.25,201.7031 L779.25,200.6094 Q779.25,199.3594 779.8438,198.2656 Q780.4531,197.1719 781.5,196.5938 Q782.5625,196 783.75,196 Q784.4688,196 785.0938,196.25 Q785.7188,196.5 786.25,197 Z " fill="#000000"/><text fill="#000000" font-family="sans-serif" font-size="12" lengthAdjust="spacing" textLength="65" x="804.75" y="205.4102">MatrixGraph</text><line style="stroke:#A80036;stroke-width:1.5;" x1="696.5" x2="945.5" y1="216.5" y2="216.5"/><line style="stroke:#A80036;stroke-width:1.5;" x1="696.5" x2="945.5" y1="224.5" y2="224.5"/><ellipse cx="706.5" cy="235.5" fill="#84BE84" rx="3" ry="3" style="stroke:#038048;stroke-width:1.0;"/><text fill="#000000" font-family="sans-serif" font-size="11" lengthAdjust="spacing" textLength="225" x="715.5" y="239.9189">addEdge(graphElement, graphElement, weight)</text><!--MD5=[2e2f8c8f62c4eb3bc59a59727cfd81a5]
class Edge--><rect fill="#FEFECE" filter="url(#fpy6h0kcg1o1n)" height="48" id="Edge" style="stroke:#A80036;stroke-width:1.5;" width="61" x="743.5" y="355"/><ellipse cx="758.5" cy="371" fill="#ADD1B2" rx="11" ry="11" style="stroke:#A80036;stroke-width:1.0;"/><path d="M760.5,367.5 Q760.7031,367 760.9375,366.75 Q761.1719,366.5 761.4375,366.5 Q761.9063,366.5 762.2031,366.7813 Q762.5,367.0625 762.5,367.7188 L762.5,369.2813 Q762.5,369.9375 762.2188,370.2188 Q761.9375,370.5 761.5,370.5 Q761.1094,370.5 760.8594,370.3281 Q760.6094,370.1563 760.5,369.7031 Q760.4531,369.3906 760.2813,369.2188 Q759.9688,368.8906 759.4063,368.7031 Q758.8438,368.5 758.2813,368.5 Q757.5781,368.5 756.9844,368.7813 Q756.4063,369.0625 755.9531,369.6875 Q755.5,370.3125 755.5,371.1719 L755.5,372.0938 Q755.5,373.125 756.3438,373.8125 Q757.1875,374.5 758.6875,374.5 Q759.5781,374.5 760.2031,374.2969 Q760.5625,374.1875 760.9688,373.8281 Q761.2344,373.625 761.375,373.5625 Q761.5156,373.5 761.6875,373.5 Q762.0156,373.5 762.25,373.7656 Q762.5,374.0156 762.5,374.375 Q762.5,374.7188 762.1563,375.125 Q761.6563,375.7188 760.8594,376.0469 Q759.8125,376.5 758.5313,376.5 Q757.0313,376.5 755.8281,375.9063 Q754.8594,375.4375 754.1719,374.4219 Q753.5,373.4063 753.5,372.2031 L753.5,371.1094 Q753.5,369.8594 754.0938,368.7656 Q754.7031,367.6719 755.75,367.0938 Q756.8125,366.5 758,366.5 Q758.7188,366.5 759.3438,366.75 Q759.9688,367 760.5,367.5 Z " fill="#000000"/><text fill="#000000" font-family="sans-serif" font-size="12" lengthAdjust="spacing" textLength="29" x="772.5" y="375.9102">Edge</text><line style="stroke:#A80036;stroke-width:1.5;" x1="744.5" x2="803.5" y1="387" y2="387"/><line style="stroke:#A80036;stroke-width:1.5;" x1="744.5" x2="803.5" y1="395" y2="395"/><!--MD5=[8dda998cb40a03280ba2930af26ca62e]
class GraphElement--><rect fill="#FEFECE" filter="url(#fpy6h0kcg1o1n)" height="103.3438" id="GraphElement" style="stroke:#A80036;stroke-width:1.5;" width="115" x="670.5" y="470"/><ellipse cx="686.85" cy="486" fill="#ADD1B2" rx="11" ry="11" style="stroke:#A80036;stroke-width:1.0;"/><path d="M688.85,482.5 Q689.0531,482 689.2875,481.75 Q689.5219,481.5 689.7875,481.5 Q690.2563,481.5 690.5531,481.7813 Q690.85,482.0625 690.85,482.7188 L690.85,484.2813 Q690.85,484.9375 690.5688,485.2188 Q690.2875,485.5 689.85,485.5 Q689.4594,485.5 689.2094,485.3281 Q688.9594,485.1563 688.85,484.7031 Q688.8031,484.3906 688.6313,484.2188 Q688.3188,483.8906 687.7563,483.7031 Q687.1938,483.5 686.6313,483.5 Q685.9281,483.5 685.3344,483.7813 Q684.7563,484.0625 684.3031,484.6875 Q683.85,485.3125 683.85,486.1719 L683.85,487.0938 Q683.85,488.125 684.6938,488.8125 Q685.5375,489.5 687.0375,489.5 Q687.9281,489.5 688.5531,489.2969 Q688.9125,489.1875 689.3188,488.8281 Q689.5844,488.625 689.725,488.5625 Q689.8656,488.5 690.0375,488.5 Q690.3656,488.5 690.6,488.7656 Q690.85,489.0156 690.85,489.375 Q690.85,489.7188 690.5063,490.125 Q690.0063,490.7188 689.2094,491.0469 Q688.1625,491.5 686.8813,491.5 Q685.3813,491.5 684.1781,490.9063 Q683.2094,490.4375 682.5219,489.4219 Q681.85,488.4063 681.85,487.2031 L681.85,486.1094 Q681.85,484.8594 682.4438,483.7656 Q683.0531,482.6719 684.1,482.0938 Q685.1625,481.5 686.35,481.5 Q687.0688,481.5 687.6938,481.75 Q688.3188,482 688.85,482.5 Z " fill="#000000"/><text fill="#000000" font-family="sans-serif" font-size="12" lengthAdjust="spacing" textLength="80" x="701.15" y="490.9102">GraphElement</text><line style="stroke:#A80036;stroke-width:1.5;" x1="671.5" x2="784.5" y1="502" y2="502"/><rect fill="none" height="6" style="stroke:#C82930;stroke-width:1.0;" width="6" x="678.5" y="510"/><text fill="#000000" font-family="sans-serif" font-size="11" lengthAdjust="spacing" textLength="89" x="690.5" y="517.4189">designation: String</text><rect fill="none" height="6" style="stroke:#C82930;stroke-width:1.0;" width="6" x="678.5" y="523.8359"/><text fill="#000000" font-family="sans-serif" font-size="11" lengthAdjust="spacing" textLength="71" x="690.5" y="531.2549">country: String</text><rect fill="none" height="6" style="stroke:#C82930;stroke-width:1.0;" width="6" x="678.5" y="537.6719"/><text fill="#000000" font-family="sans-serif" font-size="11" lengthAdjust="spacing" textLength="61" x="690.5" y="545.0908">latitude: float</text><rect fill="none" height="6" style="stroke:#C82930;stroke-width:1.0;" width="6" x="678.5" y="551.5078"/><text fill="#000000" font-family="sans-serif" font-size="11" lengthAdjust="spacing" textLength="70" x="690.5" y="558.9268">longitude: float</text><line style="stroke:#A80036;stroke-width:1.5;" x1="671.5" x2="784.5" y1="565.3438" y2="565.3438"/><!--MD5=[d16402e5c19a7aa4643a6d045a5d969e]
link BuildFreightNetworkController to Company--><path codeLine="1" d="M501.86,83.1 C471.01,100.37 434.58,121.76 403,143 C395.35,148.14 387.51,153.72 379.79,159.42 " fill="none" id="BuildFreightNetworkController-to-Company" style="stroke:#A80036;stroke-width:1.0;stroke-dasharray:7.0,7.0;"/><polygon fill="#A80036" points="375.52,162.59,385.1373,160.4668,379.5438,159.6221,380.3886,154.0286,375.52,162.59" style="stroke:#A80036;stroke-width:1.0;"/><!--MD5=[8e829e24e6e06409c5f0eece8dce06eb]
link BuildFreightNetworkController to Port--><path codeLine="2" d="M574.86,83.21 C586.16,192.25 619.31,511.98 633.47,648.52 " fill="none" id="BuildFreightNetworkController-to-Port" style="stroke:#A80036;stroke-width:1.0;stroke-dasharray:7.0,7.0;"/><polygon fill="#A80036" points="634.01,653.69,637.0627,644.3262,633.4955,648.7165,629.1051,645.1494,634.01,653.69" style="stroke:#A80036;stroke-width:1.0;"/><!--MD5=[217f5d3e7633aa96278ab6d5916a6931]
link BuildFreightNetworkController to KdtPort--><path codeLine="3" d="M472.05,59.71 C366.95,75.94 209.5,105.56 162,143 C96.76,194.42 64.19,291.18 50.77,343.05 " fill="none" id="BuildFreightNetworkController-to-KdtPort" style="stroke:#A80036;stroke-width:1.0;stroke-dasharray:7.0,7.0;"/><polygon fill="#A80036" points="49.54,347.93,55.6303,340.1899,50.7695,343.0835,47.8759,338.2227,49.54,347.93" style="stroke:#A80036;stroke-width:1.0;"/><!--MD5=[23c82effbbeb72af3af8bae8011931a8]
link BuildFreightNetworkController to CountryStore--><path codeLine="4" d="M472.43,48.64 C396,55.99 292.69,78.39 229,143 C175.54,197.24 166.13,291.65 165.24,342.74 " fill="none" id="BuildFreightNetworkController-to-CountryStore" style="stroke:#A80036;stroke-width:1.0;stroke-dasharray:7.0,7.0;"/><polygon fill="#A80036" points="165.18,347.85,169.2826,338.8963,165.2371,342.8503,161.2831,338.8049,165.18,347.85" style="stroke:#A80036;stroke-width:1.0;"/><!--MD5=[f8444dc3e0626b619948d4d1ad3f38ce]
link BuildFreightNetworkController to BorderStore--><path codeLine="5" d="M538.51,83.02 C523.31,100.8 505.25,122.63 490,143 C443.53,205.07 439.84,226.21 393,288 C378.57,307.03 361.38,327.32 346.91,343.81 " fill="none" id="BuildFreightNetworkController-to-BorderStore" style="stroke:#A80036;stroke-width:1.0;stroke-dasharray:7.0,7.0;"/><polygon fill="#A80036" points="343.29,347.92,352.2424,343.8146,346.5967,344.1696,346.2417,338.5239,343.29,347.92" style="stroke:#A80036;stroke-width:1.0;"/><!--MD5=[54359b2b741ee396fb3f0f61ac229e49]
link BuildFreightNetworkController to SeadistStore--><path codeLine="6" d="M559.26,83.12 C538.82,147.76 496.96,280.12 477.02,343.15 " fill="none" id="BuildFreightNetworkController-to-SeadistStore" style="stroke:#A80036;stroke-width:1.0;stroke-dasharray:7.0,7.0;"/><polygon fill="#A80036" points="475.51,347.93,482.0451,340.5616,477.0225,343.1642,474.4199,338.1417,475.51,347.93" style="stroke:#A80036;stroke-width:1.0;"/><!--MD5=[09223bdd1fb66f01ffd290f2894c8a7d]
link BuildFreightNetworkController to Country--><path codeLine="7" d="M669.7,56.57 C773.93,70.01 928.09,97.15 964,143 C1076.95,287.22 958.54,508.93 877.83,628.39 " fill="none" id="BuildFreightNetworkController-to-Country" style="stroke:#A80036;stroke-width:1.0;stroke-dasharray:7.0,7.0;"/><polygon fill="#A80036" points="874.97,632.6,883.3237,627.3832,877.7698,628.4574,876.6956,622.9035,874.97,632.6" style="stroke:#A80036;stroke-width:1.0;"/><!--MD5=[a7974eb5a1429547cdb66925bbfdad58]
link BuildFreightNetworkController to Border--><path codeLine="8" d="M669.72,54.86 C764.5,66.13 909.98,90.82 1026,143 C1043.61,150.92 1061.14,162.43 1076.35,173.9 " fill="none" id="BuildFreightNetworkController-to-Border" style="stroke:#A80036;stroke-width:1.0;stroke-dasharray:7.0,7.0;"/><polygon fill="#A80036" points="1080.58,177.14,1075.8687,168.4911,1076.611,174.099,1071.0031,174.8414,1080.58,177.14" style="stroke:#A80036;stroke-width:1.0;"/><!--MD5=[f82ff9a58b8bbcba0140c23bc7428eef]
link BuildFreightNetworkController to Seadist--><path codeLine="9" d="M669.57,45.56 C799.03,48.37 1031.01,65.16 1211,143 C1215.33,144.87 1219.64,147.01 1223.88,149.33 " fill="none" id="BuildFreightNetworkController-to-Seadist" style="stroke:#A80036;stroke-width:1.0;stroke-dasharray:7.0,7.0;"/><polygon fill="#A80036" points="1228.46,151.93,1222.6051,144.0104,1224.1109,149.4631,1218.6581,150.9689,1228.46,151.93" style="stroke:#A80036;stroke-width:1.0;"/><!--MD5=[be596a7e77cd88f40363be95a23fec44]
link BuildFreightNetworkController to MatrixGraph--><path codeLine="10" d="M626.17,83.19 C669.83,112.61 730.2,153.3 772.13,181.56 " fill="none" id="BuildFreightNetworkController-to-MatrixGraph" style="stroke:#A80036;stroke-width:1.0;stroke-dasharray:7.0,7.0;"/><polygon fill="#A80036" points="776.38,184.43,771.1434,176.0887,772.2308,181.64,766.6794,182.7274,776.38,184.43" style="stroke:#A80036;stroke-width:1.0;"/><!--MD5=[88378fecc0214ccb54b388de34e73693]
link MatrixGraph to Edge--><path codeLine="11" d="M812.16,246.88 C803.54,276.5 790.53,321.19 782.15,349.99 " fill="none" id="MatrixGraph-to-Edge" style="stroke:#A80036;stroke-width:1.0;stroke-dasharray:7.0,7.0;"/><polygon fill="#A80036" points="780.75,354.82,787.0893,347.2826,782.1368,350.0162,779.4032,345.0637,780.75,354.82" style="stroke:#A80036;stroke-width:1.0;"/><!--MD5=[4804094e86b21eea12c2fb275d689f3d]
link BuildFreightNetworkController to GraphElement--><path codeLine="12" d="M583.32,83.23 C610.79,166.27 677.21,366.99 709.61,464.91 " fill="none" id="BuildFreightNetworkController-to-GraphElement" style="stroke:#A80036;stroke-width:1.0;stroke-dasharray:7.0,7.0;"/><polygon fill="#A80036" points="711.22,469.78,712.1864,459.9787,709.6474,465.0337,704.5924,462.4948,711.22,469.78" style="stroke:#A80036;stroke-width:1.0;"/><!--MD5=[13256c403d692a9633e5350d253fb261]
link GraphElement to Country--><path codeLine="13" d="M751.58,573.15 C759.47,590.08 768.48,609.43 777.21,628.18 " fill="none" id="GraphElement-to-Country" style="stroke:#A80036;stroke-width:1.0;stroke-dasharray:7.0,7.0;"/><polygon fill="#A80036" points="779.42,632.94,779.2744,623.0922,777.322,628.4015,772.0128,626.449,779.42,632.94" style="stroke:#A80036;stroke-width:1.0;"/><!--MD5=[aad5858678b7d6bcd85a2e7fa2be9519]
link GraphElement to Port--><path codeLine="14" d="M704.42,573.15 C693.54,596.52 680.52,624.48 669.04,649.13 " fill="none" id="GraphElement-to-Port" style="stroke:#A80036;stroke-width:1.0;stroke-dasharray:7.0,7.0;"/><polygon fill="#A80036" points="666.92,653.69,674.3518,647.2272,669.0352,649.1594,667.1029,643.8428,666.92,653.69" style="stroke:#A80036;stroke-width:1.0;"/><!--MD5=[aa28705aa12875d1c0ba144a3ed06eee]
link Edge to GraphElement--><path codeLine="15" d="M766.4,403.2 C760.9,420.01 753.22,443.48 746.17,465 " fill="none" id="Edge-to-GraphElement" style="stroke:#A80036;stroke-width:1.0;stroke-dasharray:7.0,7.0;"/><polygon fill="#A80036" points="744.58,469.85,751.1878,462.5468,746.1397,465.0995,743.587,460.0513,744.58,469.85" style="stroke:#A80036;stroke-width:1.0;"/><!--MD5=[b3508693fa16e1126a1fc609796f8a97]
link Company to KdtPort--><path codeLine="29" d="M246.47,255.39 C195.7,285.98 126.56,327.65 83.36,353.68 " fill="none" id="Company-to-KdtPort" style="stroke:#A80036;stroke-width:1.0;stroke-dasharray:7.0,7.0;"/><polygon fill="#A80036" points="79.01,356.3,88.7854,355.0995,83.2975,353.7275,84.6695,348.2396,79.01,356.3" style="stroke:#A80036;stroke-width:1.0;"/><!--MD5=[3e62267ed92cd658fcc6f008fe587857]
link Company to CountryStore--><path codeLine="30" d="M252.86,281.26 C233.67,302.63 213.08,325.57 196.76,343.74 " fill="none" id="Company-to-CountryStore" style="stroke:#A80036;stroke-width:1.0;stroke-dasharray:7.0,7.0;"/><polygon fill="#A80036" points="193.14,347.77,202.1339,343.7562,196.4848,344.0535,196.1875,338.4045,193.14,347.77" style="stroke:#A80036;stroke-width:1.0;"/><!--MD5=[1a1e73f5a7c19fafb6bcbfc7e076e2ac]
link Company to BorderStore--><path codeLine="31" d="M313,281.26 C313.65,302.09 314.34,324.41 314.9,342.35 " fill="none" id="Company-to-BorderStore" style="stroke:#A80036;stroke-width:1.0;stroke-dasharray:7.0,7.0;"/><polygon fill="#A80036" points="315.06,347.77,318.7753,338.6488,314.9029,342.7725,310.7793,338.9001,315.06,347.77" style="stroke:#A80036;stroke-width:1.0;"/><!--MD5=[31fb6ef21b66e9cc4d1a3c34a89f0b54]
link Company to SeadistStore--><path codeLine="32" d="M373.15,281.26 C393.67,302.63 415.68,325.57 433.11,343.74 " fill="none" id="Company-to-SeadistStore" style="stroke:#A80036;stroke-width:1.0;stroke-dasharray:7.0,7.0;"/><polygon fill="#A80036" points="436.99,347.77,433.6222,338.5149,433.5193,344.1708,427.8634,344.0679,436.99,347.77" style="stroke:#A80036;stroke-width:1.0;"/><!--MD5=[98451ee0969606c2fe4960e4cbd615ed]
@startuml
BuildFreightNetworkController ..>Company
BuildFreightNetworkController ..>Port
BuildFreightNetworkController ..>KdtPort
BuildFreightNetworkController ..>CountryStore
BuildFreightNetworkController ..>BorderStore
BuildFreightNetworkController ..>SeadistStore
BuildFreightNetworkController ..>Country
BuildFreightNetworkController ..>Border
BuildFreightNetworkController ..>Seadist
BuildFreightNetworkController ..>MatrixGraph
MatrixGraph ..>Edge
BuildFreightNetworkController ..>GraphElement
GraphElement ..>Country
GraphElement ..>Port
Edge ..>GraphElement


BuildFreightNetworkController : +ImportDataFromDatabase()
BuildFreightNetworkController : +BuildFreightNetwork()


Company : +Company()
Company : +getKdtPorts()
Company : +setKdtPorts(PortKDT)
Company : +getCountryStore()
Company : +getBorderStore()
Company : +getSeadistStore()

Company ..>KdtPort
Company ..>CountryStore
Company ..>BorderStore
Company ..>SeadistStore

KdtPort : +inOrder()

MatrixGraph : +addEdge(graphElement, graphElement, weight)

CountryStore : +getCountries()
BorderStore : +getBordersCountry()
SeadistStore : +getSeadist()

Port : -code: int
Port : -name: String
Port : -country: Country
Port : -latitude: float
Port : -longitude: float

Country : -continent: String
Country : -name: String
Country : -alpha2_code: String
Country : -alpha3_code: String
Country : -capital: String
Country : -latitude: float
Country : -longitude: float
Country : -population: float

Border : -countryName1: Country
Border : -countryName2: Country

Seadist : -fromCountryName: String
Seadist : -fromPortId: int
Seadist : -toPortId: int
Seadist : -fromPortName: String
Seadist : -toCountryName: String
Seadist : -toPortName: String
Seadist : -seaDistance: int

GraphElement : -designation: String
GraphElement : -country: String
GraphElement : -latitude: float
GraphElement : -longitude: float
@enduml

PlantUML version 1.2021.5(Sun Apr 25 12:20:28 BST 2021)
(GPL source distribution)
Java Runtime: OpenJDK Runtime Environment
JVM: OpenJDK 64-Bit Server VM
Default Encoding: Cp1252
Language: pt
Country: PT
--></g></svg>