<?xml version="1.0" encoding="UTF-8" standalone="no"?><svg xmlns="http://www.w3.org/2000/svg" xmlns:xlink="http://www.w3.org/1999/xlink" contentScriptType="application/ecmascript" contentStyleType="text/css" height="916px" preserveAspectRatio="none" style="width:1409px;height:916px;" version="1.1" viewBox="0 0 1409 916" width="1409px" zoomAndPan="magnify"><defs><filter height="300%" id="f14n68klwoawjk" width="300%" x="-1" y="-1"><feGaussianBlur result="blurOut" stdDeviation="2.0"/><feColorMatrix in="blurOut" result="blurOut2" type="matrix" values="0 0 0 0 0 0 0 0 0 0 0 0 0 0 0 0 0 0 .4 0"/><feOffset dx="4.0" dy="4.0" in="blurOut2" result="blurOut3"/><feBlend in="SourceGraphic" in2="blurOut3" mode="normal"/></filter></defs><g><rect fill="#FFFFFF" filter="url(#f14n68klwoawjk)" height="713.6484" style="stroke:#A80036;stroke-width:1.0;" width="10" x="43.5" y="99.6094"/><rect fill="#FFFFFF" filter="url(#f14n68klwoawjk)" height="30.3516" style="stroke:#A80036;stroke-width:1.0;" width="10" x="408.5" y="121.9609"/><rect fill="#FFFFFF" filter="url(#f14n68klwoawjk)" height="630.5938" style="stroke:#A80036;stroke-width:1.0;" width="10" x="408.5" y="182.6641"/><rect fill="#FFFFFF" filter="url(#f14n68klwoawjk)" height="569.8906" style="stroke:#A80036;stroke-width:1.0;" width="10" x="659.5" y="213.0156"/><rect fill="#FFFFFF" filter="url(#f14n68klwoawjk)" height="387.7813" style="stroke:#A80036;stroke-width:1.0;" width="10" x="959.5" y="243.3672"/><rect fill="#FFFFFF" filter="url(#f14n68klwoawjk)" height="28" style="stroke:#A80036;stroke-width:1.0;" width="10" x="964.5" y="307.0703"/><rect fill="#FFFFFF" filter="url(#f14n68klwoawjk)" height="28" style="stroke:#A80036;stroke-width:1.0;" width="10" x="964.5" y="396.2578"/><rect fill="#FFFFFF" filter="url(#f14n68klwoawjk)" height="28" style="stroke:#A80036;stroke-width:1.0;" width="10" x="964.5" y="485.4453"/><rect fill="#FFFFFF" filter="url(#f14n68klwoawjk)" height="28" style="stroke:#A80036;stroke-width:1.0;" width="10" x="964.5" y="565.7969"/><rect fill="#FFFFFF" filter="url(#f14n68klwoawjk)" height="30.3516" style="stroke:#A80036;stroke-width:1.0;" width="10" x="959.5" y="661.5"/><rect fill="#FFFFFF" filter="url(#f14n68klwoawjk)" height="30.3516" style="stroke:#A80036;stroke-width:1.0;" width="10" x="1230.5" y="722.2031"/><rect fill="#FFFFFF" filter="url(#f14n68klwoawjk)" height="270.0781" style="stroke:#000000;stroke-width:2.0;" width="363.5" x="877" y="258.3672"/><rect fill="#FFFFFF" height="89.1875" style="stroke:none;stroke-width:1.0;" width="363.5" x="877" y="350.0703"/><rect fill="#FFFFFF" height="89.1875" style="stroke:none;stroke-width:1.0;" width="363.5" x="877" y="439.2578"/><line style="stroke:#A80036;stroke-width:1.0;stroke-dasharray:5.0,5.0;" x1="48" x2="48" y1="89.6094" y2="831.2578"/><line style="stroke:#A80036;stroke-width:1.0;stroke-dasharray:5.0,5.0;" x1="413" x2="413" y1="89.6094" y2="831.2578"/><line style="stroke:#A80036;stroke-width:1.0;stroke-dasharray:5.0,5.0;" x1="664" x2="664" y1="89.6094" y2="831.2578"/><line style="stroke:#A80036;stroke-width:1.0;stroke-dasharray:5.0,5.0;" x1="824" x2="824" y1="89.6094" y2="831.2578"/><line style="stroke:#A80036;stroke-width:1.0;stroke-dasharray:5.0,5.0;" x1="964" x2="964" y1="89.6094" y2="831.2578"/><line style="stroke:#A80036;stroke-width:1.0;stroke-dasharray:5.0,5.0;" x1="1235.5" x2="1235.5" y1="89.6094" y2="831.2578"/><line style="stroke:#A80036;stroke-width:1.0;stroke-dasharray:5.0,5.0;" x1="1348.5" x2="1348.5" y1="89.6094" y2="831.2578"/><text fill="#000000" font-family="sans-serif" font-size="14" lengthAdjust="spacing" textLength="81" x="5" y="86.5332">Ship Captain</text><ellipse cx="48.5" cy="15" fill="#FEFECE" filter="url(#f14n68klwoawjk)" rx="8" ry="8" style="stroke:#A80036;stroke-width:2.0;"/><path d="M48.5,23 L48.5,50 M35.5,31 L61.5,31 M48.5,50 L35.5,65 M48.5,50 L61.5,65 " fill="none" filter="url(#f14n68klwoawjk)" style="stroke:#A80036;stroke-width:2.0;"/><text fill="#000000" font-family="sans-serif" font-size="14" lengthAdjust="spacing" textLength="81" x="5" y="844.791">Ship Captain</text><ellipse cx="48.5" cy="857.8672" fill="#FEFECE" filter="url(#f14n68klwoawjk)" rx="8" ry="8" style="stroke:#A80036;stroke-width:2.0;"/><path d="M48.5,865.8672 L48.5,892.8672 M35.5,873.8672 L61.5,873.8672 M48.5,892.8672 L35.5,907.8672 M48.5,892.8672 L61.5,907.8672 " fill="none" filter="url(#f14n68klwoawjk)" style="stroke:#A80036;stroke-width:2.0;"/><rect fill="#FEFECE" filter="url(#f14n68klwoawjk)" height="31.6094" style="stroke:#A80036;stroke-width:1.5;" width="163" x="330" y="53"/><text fill="#000000" font-family="sans-serif" font-size="14" lengthAdjust="spacing" textLength="149" x="337" y="74.5332">:VesselCenterOfMassUI</text><rect fill="#FEFECE" filter="url(#f14n68klwoawjk)" height="31.6094" style="stroke:#A80036;stroke-width:1.5;" width="163" x="330" y="830.2578"/><text fill="#000000" font-family="sans-serif" font-size="14" lengthAdjust="spacing" textLength="149" x="337" y="851.791">:VesselCenterOfMassUI</text><rect fill="#FEFECE" filter="url(#f14n68klwoawjk)" height="31.6094" style="stroke:#A80036;stroke-width:1.5;" width="213" x="556" y="53"/><text fill="#000000" font-family="sans-serif" font-size="14" lengthAdjust="spacing" textLength="199" x="563" y="74.5332">:VesselCenterOfMassController</text><rect fill="#FEFECE" filter="url(#f14n68klwoawjk)" height="31.6094" style="stroke:#A80036;stroke-width:1.5;" width="213" x="556" y="830.2578"/><text fill="#000000" font-family="sans-serif" font-size="14" lengthAdjust="spacing" textLength="199" x="563" y="851.791">:VesselCenterOfMassController</text><rect fill="#FEFECE" filter="url(#f14n68klwoawjk)" height="31.6094" style="stroke:#A80036;stroke-width:1.5;" width="78" x="783" y="53"/><text fill="#000000" font-family="sans-serif" font-size="14" lengthAdjust="spacing" textLength="64" x="790" y="74.5332">:Company</text><rect fill="#FEFECE" filter="url(#f14n68klwoawjk)" height="31.6094" style="stroke:#A80036;stroke-width:1.5;" width="78" x="783" y="830.2578"/><text fill="#000000" font-family="sans-serif" font-size="14" lengthAdjust="spacing" textLength="64" x="790" y="851.791">:Company</text><rect fill="#FEFECE" filter="url(#f14n68klwoawjk)" height="49.2188" style="stroke:#A80036;stroke-width:1.5;" width="151" x="887" y="35.3906"/><text fill="#000000" font-family="sans-serif" font-size="14" lengthAdjust="spacing" textLength="88" x="918.5" y="56.9238">centerOfMass</text><text fill="#000000" font-family="sans-serif" font-size="14" lengthAdjust="spacing" textLength="137" x="894" y="74.5332">:VesselCenterOfMass</text><rect fill="#FEFECE" filter="url(#f14n68klwoawjk)" height="49.2188" style="stroke:#A80036;stroke-width:1.5;" width="151" x="887" y="830.2578"/><text fill="#000000" font-family="sans-serif" font-size="14" lengthAdjust="spacing" textLength="88" x="918.5" y="851.791">centerOfMass</text><text fill="#000000" font-family="sans-serif" font-size="14" lengthAdjust="spacing" textLength="137" x="894" y="869.4004">:VesselCenterOfMass</text><rect fill="#FEFECE" filter="url(#f14n68klwoawjk)" height="31.6094" style="stroke:#A80036;stroke-width:1.5;" width="100" x="1183.5" y="53"/><text fill="#000000" font-family="sans-serif" font-size="14" lengthAdjust="spacing" textLength="86" x="1190.5" y="74.5332">FileOperation</text><rect fill="#FEFECE" filter="url(#f14n68klwoawjk)" height="31.6094" style="stroke:#A80036;stroke-width:1.5;" width="100" x="1183.5" y="830.2578"/><text fill="#000000" font-family="sans-serif" font-size="14" lengthAdjust="spacing" textLength="86" x="1190.5" y="851.791">FileOperation</text><rect fill="#FEFECE" filter="url(#f14n68klwoawjk)" height="49.2188" style="stroke:#A80036;stroke-width:1.5;" width="98" x="1297.5" y="35.3906"/><text fill="#000000" font-family="sans-serif" font-size="14" lengthAdjust="spacing" textLength="84" x="1304.5" y="56.9238">vesselLength</text><text fill="#000000" font-family="sans-serif" font-size="14" lengthAdjust="spacing" textLength="47" x="1323" y="74.5332">:double</text><rect fill="#FEFECE" filter="url(#f14n68klwoawjk)" height="49.2188" style="stroke:#A80036;stroke-width:1.5;" width="98" x="1297.5" y="830.2578"/><text fill="#000000" font-family="sans-serif" font-size="14" lengthAdjust="spacing" textLength="84" x="1304.5" y="851.791">vesselLength</text><text fill="#000000" font-family="sans-serif" font-size="14" lengthAdjust="spacing" textLength="47" x="1323" y="869.4004">:double</text><rect fill="#FFFFFF" filter="url(#f14n68klwoawjk)" height="713.6484" style="stroke:#A80036;stroke-width:1.0;" width="10" x="43.5" y="99.6094"/><rect fill="#FFFFFF" filter="url(#f14n68klwoawjk)" height="30.3516" style="stroke:#A80036;stroke-width:1.0;" width="10" x="408.5" y="121.9609"/><rect fill="#FFFFFF" filter="url(#f14n68klwoawjk)" height="630.5938" style="stroke:#A80036;stroke-width:1.0;" width="10" x="408.5" y="182.6641"/><rect fill="#FFFFFF" filter="url(#f14n68klwoawjk)" height="569.8906" style="stroke:#A80036;stroke-width:1.0;" width="10" x="659.5" y="213.0156"/><rect fill="#FFFFFF" filter="url(#f14n68klwoawjk)" height="387.7813" style="stroke:#A80036;stroke-width:1.0;" width="10" x="959.5" y="243.3672"/><rect fill="#FFFFFF" filter="url(#f14n68klwoawjk)" height="28" style="stroke:#A80036;stroke-width:1.0;" width="10" x="964.5" y="307.0703"/><rect fill="#FFFFFF" filter="url(#f14n68klwoawjk)" height="28" style="stroke:#A80036;stroke-width:1.0;" width="10" x="964.5" y="396.2578"/><rect fill="#FFFFFF" filter="url(#f14n68klwoawjk)" height="28" style="stroke:#A80036;stroke-width:1.0;" width="10" x="964.5" y="485.4453"/><rect fill="#FFFFFF" filter="url(#f14n68klwoawjk)" height="28" style="stroke:#A80036;stroke-width:1.0;" width="10" x="964.5" y="565.7969"/><rect fill="#FFFFFF" filter="url(#f14n68klwoawjk)" height="30.3516" style="stroke:#A80036;stroke-width:1.0;" width="10" x="959.5" y="661.5"/><rect fill="#FFFFFF" filter="url(#f14n68klwoawjk)" height="30.3516" style="stroke:#A80036;stroke-width:1.0;" width="10" x="1230.5" y="722.2031"/><polygon fill="#A80036" points="396.5,117.9609,406.5,121.9609,396.5,125.9609,400.5,121.9609" style="stroke:#A80036;stroke-width:1.0;"/><line style="stroke:#A80036;stroke-width:1.0;" x1="53.5" x2="402.5" y1="121.9609" y2="121.9609"/><text fill="#000000" font-family="sans-serif" font-size="13" font-weight="bold" lengthAdjust="spacing" textLength="7" x="60.5" y="117.1045">1</text><text fill="#000000" font-family="sans-serif" font-size="13" lengthAdjust="spacing" textLength="325" x="71.5" y="117.1045">request to show the center of mass of a determined ship</text><polygon fill="#A80036" points="64.5,148.3125,54.5,152.3125,64.5,156.3125,60.5,152.3125" style="stroke:#A80036;stroke-width:1.0;"/><line style="stroke:#A80036;stroke-width:1.0;stroke-dasharray:2.0,2.0;" x1="58.5" x2="412.5" y1="152.3125" y2="152.3125"/><text fill="#000000" font-family="sans-serif" font-size="13" font-weight="bold" lengthAdjust="spacing" textLength="7" x="70.5" y="147.4561">2</text><text fill="#000000" font-family="sans-serif" font-size="13" lengthAdjust="spacing" textLength="158" x="81.5" y="147.4561">request the type of the ship</text><polygon fill="#A80036" points="396.5,178.6641,406.5,182.6641,396.5,186.6641,400.5,182.6641" style="stroke:#A80036;stroke-width:1.0;"/><line style="stroke:#A80036;stroke-width:1.0;" x1="53.5" x2="402.5" y1="182.6641" y2="182.6641"/><text fill="#000000" font-family="sans-serif" font-size="13" font-weight="bold" lengthAdjust="spacing" textLength="7" x="60.5" y="177.8076">3</text><text fill="#000000" font-family="sans-serif" font-size="13" lengthAdjust="spacing" textLength="175" x="71.5" y="177.8076">introduces the type of the ship</text><polygon fill="#A80036" points="647.5,209.0156,657.5,213.0156,647.5,217.0156,651.5,213.0156" style="stroke:#A80036;stroke-width:1.0;"/><line style="stroke:#A80036;stroke-width:1.0;" x1="418.5" x2="653.5" y1="213.0156" y2="213.0156"/><text fill="#000000" font-family="sans-serif" font-size="13" font-weight="bold" lengthAdjust="spacing" textLength="7" x="425.5" y="208.1592">4</text><text fill="#000000" font-family="sans-serif" font-size="13" lengthAdjust="spacing" textLength="211" x="436.5" y="208.1592">getCenterOfMass(String typeOfShip)</text><polygon fill="#A80036" points="947.5,239.3672,957.5,243.3672,947.5,247.3672,951.5,243.3672" style="stroke:#A80036;stroke-width:1.0;"/><line style="stroke:#A80036;stroke-width:1.0;" x1="669.5" x2="953.5" y1="243.3672" y2="243.3672"/><text fill="#000000" font-family="sans-serif" font-size="13" font-weight="bold" lengthAdjust="spacing" textLength="7" x="676.5" y="238.5107">5</text><text fill="#000000" font-family="sans-serif" font-size="13" lengthAdjust="spacing" textLength="260" x="687.5" y="238.5107">new VesselCenterOfMass(String typeOfShip)</text><path d="M877,258.3672 L938,258.3672 L938,266.3672 L928,276.3672 L877,276.3672 L877,258.3672 " fill="#EEEEEE" style="stroke:#000000;stroke-width:1.0;"/><rect fill="none" height="270.0781" style="stroke:#000000;stroke-width:2.0;" width="363.5" x="877" y="258.3672"/><text fill="#000000" font-family="sans-serif" font-size="13" font-weight="bold" lengthAdjust="spacing" textLength="16" x="892" y="272.8623">alt</text><text fill="#000000" font-family="sans-serif" font-size="11" font-weight="bold" lengthAdjust="spacing" textLength="171" x="953" y="271.7861">[typeOfShip = "Container Ship"]</text><line style="stroke:#A80036;stroke-width:1.0;" x1="974.5" x2="1016.5" y1="299.0703" y2="299.0703"/><line style="stroke:#A80036;stroke-width:1.0;" x1="1016.5" x2="1016.5" y1="299.0703" y2="312.0703"/><line style="stroke:#A80036;stroke-width:1.0;" x1="975.5" x2="1016.5" y1="312.0703" y2="312.0703"/><polygon fill="#A80036" points="985.5,308.0703,975.5,312.0703,985.5,316.0703,981.5,312.0703" style="stroke:#A80036;stroke-width:1.0;"/><text fill="#000000" font-family="sans-serif" font-size="13" font-weight="bold" lengthAdjust="spacing" textLength="7" x="981.5" y="294.2139">6</text><text fill="#000000" font-family="sans-serif" font-size="13" lengthAdjust="spacing" textLength="236" x="992.5" y="294.2139">calculateCenterOfMassX(vesselLength/2)</text><line style="stroke:#000000;stroke-width:1.0;stroke-dasharray:2.0,2.0;" x1="877" x2="1240.5" y1="351.0703" y2="351.0703"/><text fill="#000000" font-family="sans-serif" font-size="11" font-weight="bold" lengthAdjust="spacing" textLength="147" x="882" y="362.4893">[typeOfShip = "Oil Tunker"]</text><line style="stroke:#A80036;stroke-width:1.0;" x1="974.5" x2="1016.5" y1="388.2578" y2="388.2578"/><line style="stroke:#A80036;stroke-width:1.0;" x1="1016.5" x2="1016.5" y1="388.2578" y2="401.2578"/><line style="stroke:#A80036;stroke-width:1.0;" x1="975.5" x2="1016.5" y1="401.2578" y2="401.2578"/><polygon fill="#A80036" points="985.5,397.2578,975.5,401.2578,985.5,405.2578,981.5,401.2578" style="stroke:#A80036;stroke-width:1.0;"/><text fill="#000000" font-family="sans-serif" font-size="13" font-weight="bold" lengthAdjust="spacing" textLength="7" x="981.5" y="383.4014">7</text><text fill="#000000" font-family="sans-serif" font-size="13" lengthAdjust="spacing" textLength="164" x="992.5" y="383.4014">calculateCenterOfMassX(20)</text><line style="stroke:#000000;stroke-width:1.0;stroke-dasharray:2.0,2.0;" x1="877" x2="1240.5" y1="440.2578" y2="440.2578"/><text fill="#000000" font-family="sans-serif" font-size="11" font-weight="bold" lengthAdjust="spacing" textLength="156" x="882" y="451.6768">[typeOfShip = "Bulk Carrier"]</text><line style="stroke:#A80036;stroke-width:1.0;" x1="974.5" x2="1016.5" y1="477.4453" y2="477.4453"/><line style="stroke:#A80036;stroke-width:1.0;" x1="1016.5" x2="1016.5" y1="477.4453" y2="490.4453"/><line style="stroke:#A80036;stroke-width:1.0;" x1="975.5" x2="1016.5" y1="490.4453" y2="490.4453"/><polygon fill="#A80036" points="985.5,486.4453,975.5,490.4453,985.5,494.4453,981.5,490.4453" style="stroke:#A80036;stroke-width:1.0;"/><text fill="#000000" font-family="sans-serif" font-size="13" font-weight="bold" lengthAdjust="spacing" textLength="7" x="981.5" y="472.5889">8</text><text fill="#000000" font-family="sans-serif" font-size="13" lengthAdjust="spacing" textLength="171" x="992.5" y="472.5889">calculateCenterOfMassX(330)</text><line style="stroke:#A80036;stroke-width:1.0;" x1="974.5" x2="1016.5" y1="557.7969" y2="557.7969"/><line style="stroke:#A80036;stroke-width:1.0;" x1="1016.5" x2="1016.5" y1="557.7969" y2="570.7969"/><line style="stroke:#A80036;stroke-width:1.0;" x1="975.5" x2="1016.5" y1="570.7969" y2="570.7969"/><polygon fill="#A80036" points="985.5,566.7969,975.5,570.7969,985.5,574.7969,981.5,570.7969" style="stroke:#A80036;stroke-width:1.0;"/><text fill="#000000" font-family="sans-serif" font-size="13" font-weight="bold" lengthAdjust="spacing" textLength="7" x="981.5" y="552.9404">9</text><text fill="#000000" font-family="sans-serif" font-size="13" lengthAdjust="spacing" textLength="152" x="992.5" y="552.9404">calculateCenterOfMassY()</text><polygon fill="#A80036" points="680.5,627.1484,670.5,631.1484,680.5,635.1484,676.5,631.1484" style="stroke:#A80036;stroke-width:1.0;"/><line style="stroke:#A80036;stroke-width:1.0;stroke-dasharray:2.0,2.0;" x1="674.5" x2="963.5" y1="631.1484" y2="631.1484"/><text fill="#000000" font-family="sans-serif" font-size="13" font-weight="bold" lengthAdjust="spacing" textLength="14" x="686.5" y="626.292">10</text><text fill="#000000" font-family="sans-serif" font-size="13" lengthAdjust="spacing" textLength="81" x="704.5" y="626.292">centerOfMass</text><polygon fill="#A80036" points="947.5,657.5,957.5,661.5,947.5,665.5,951.5,661.5" style="stroke:#A80036;stroke-width:1.0;"/><line style="stroke:#A80036;stroke-width:1.0;" x1="669.5" x2="953.5" y1="661.5" y2="661.5"/><text fill="#000000" font-family="sans-serif" font-size="13" font-weight="bold" lengthAdjust="spacing" textLength="14" x="676.5" y="656.6436">11</text><text fill="#000000" font-family="sans-serif" font-size="13" lengthAdjust="spacing" textLength="61" x="694.5" y="656.6436">data = info</text><polygon fill="#A80036" points="680.5,687.8516,670.5,691.8516,680.5,695.8516,676.5,691.8516" style="stroke:#A80036;stroke-width:1.0;"/><line style="stroke:#A80036;stroke-width:1.0;stroke-dasharray:2.0,2.0;" x1="674.5" x2="963.5" y1="691.8516" y2="691.8516"/><text fill="#000000" font-family="sans-serif" font-size="13" font-weight="bold" lengthAdjust="spacing" textLength="14" x="686.5" y="686.9951">12</text><text fill="#000000" font-family="sans-serif" font-size="13" lengthAdjust="spacing" textLength="20" x="704.5" y="686.9951">info</text><polygon fill="#A80036" points="1218.5,718.2031,1228.5,722.2031,1218.5,726.2031,1222.5,722.2031" style="stroke:#A80036;stroke-width:1.0;"/><line style="stroke:#A80036;stroke-width:1.0;" x1="669.5" x2="1224.5" y1="722.2031" y2="722.2031"/><text fill="#000000" font-family="sans-serif" font-size="13" font-weight="bold" lengthAdjust="spacing" textLength="14" x="676.5" y="717.3467">13</text><text fill="#000000" font-family="sans-serif" font-size="13" lengthAdjust="spacing" textLength="104" x="694.5" y="717.3467">writeToAFile(data)</text><polygon fill="#A80036" points="680.5,748.5547,670.5,752.5547,680.5,756.5547,676.5,752.5547" style="stroke:#A80036;stroke-width:1.0;"/><line style="stroke:#A80036;stroke-width:1.0;stroke-dasharray:2.0,2.0;" x1="674.5" x2="1234.5" y1="752.5547" y2="752.5547"/><text fill="#000000" font-family="sans-serif" font-size="13" font-weight="bold" lengthAdjust="spacing" textLength="14" x="686.5" y="747.6982">14</text><text fill="#000000" font-family="sans-serif" font-size="13" lengthAdjust="spacing" textLength="16" x="704.5" y="747.6982">file</text><polygon fill="#A80036" points="429.5,778.9063,419.5,782.9063,429.5,786.9063,425.5,782.9063" style="stroke:#A80036;stroke-width:1.0;"/><line style="stroke:#A80036;stroke-width:1.0;stroke-dasharray:2.0,2.0;" x1="423.5" x2="663.5" y1="782.9063" y2="782.9063"/><text fill="#000000" font-family="sans-serif" font-size="13" font-weight="bold" lengthAdjust="spacing" textLength="14" x="435.5" y="778.0498">15</text><text fill="#000000" font-family="sans-serif" font-size="13" lengthAdjust="spacing" textLength="16" x="453.5" y="778.0498">file</text><polygon fill="#A80036" points="59.5,809.2578,49.5,813.2578,59.5,817.2578,55.5,813.2578" style="stroke:#A80036;stroke-width:1.0;"/><line style="stroke:#A80036;stroke-width:1.0;stroke-dasharray:2.0,2.0;" x1="53.5" x2="412.5" y1="813.2578" y2="813.2578"/><text fill="#000000" font-family="sans-serif" font-size="13" font-weight="bold" lengthAdjust="spacing" textLength="14" x="65.5" y="808.4014">16</text><text fill="#000000" font-family="sans-serif" font-size="13" lengthAdjust="spacing" textLength="57" x="83.5" y="808.4014">shows file</text><!--MD5=[0ae662983078f03689ae58bece6b50fc]
@startuml
actor "Ship Captain" as Adm
participant ":VesselCenterOfMassUI" as UI
participant ":VesselCenterOfMassController" as controller
participant ":Company" as c
participant "centerOfMass\n:VesselCenterOfMass" as com
participant "FileOperation" as fo
participant "vesselLength\n:double" as vesselLength

autonumber

activate Adm

Adm -> UI: request to show the center of mass of a determined ship

activate UI

Adm <- - UI: request the type of the ship

deactivate UI

Adm -> UI: introduces the type of the ship

activate UI

UI -> controller: getCenterOfMass(String typeOfShip)

activate controller

controller -> com: new VesselCenterOfMass(String typeOfShip)

activate com

alt typeOfShip = "Container Ship"

com -> com: calculateCenterOfMassX(vesselLength/2)

activate com

deactivate com

else typeOfShip = "Oil Tunker"

com -> com: calculateCenterOfMassX(20)

activate com

deactivate com

else typeOfShip = "Bulk Carrier"

com -> com: calculateCenterOfMassX(330)

activate com

deactivate com

end

com -> com: calculateCenterOfMassY()

activate com

deactivate com

com - -> controller: centerOfMass

deactivate com

controller -> com: data = info

activate com

com - -> controller: info

deactivate com

controller -> fo: writeToAFile(data)

activate fo

fo - -> controller: file

deactivate fo

controller - -> UI: file

deactivate controller

UI - -> Adm: shows file

deactivate UI

deactivate Adm
@enduml

PlantUML version 1.2021.5(Sun Apr 25 12:20:28 BST 2021)
(GPL source distribution)
Java Runtime: OpenJDK Runtime Environment
JVM: OpenJDK 64-Bit Server VM
Default Encoding: Cp1252
Language: pt
Country: PT
--></g></svg>