<?xml version="1.0" encoding="UTF-8" standalone="no"?><svg xmlns="http://www.w3.org/2000/svg" xmlns:xlink="http://www.w3.org/1999/xlink" contentScriptType="application/ecmascript" contentStyleType="text/css" height="440px" preserveAspectRatio="none" style="width:303px;height:440px;" version="1.1" viewBox="0 0 303 440" width="303px" zoomAndPan="magnify"><defs><filter height="300%" id="f1k343iczzyqz6" width="300%" x="-1" y="-1"><feGaussianBlur result="blurOut" stdDeviation="2.0"/><feColorMatrix in="blurOut" result="blurOut2" type="matrix" values="0 0 0 0 0 0 0 0 0 0 0 0 0 0 0 0 0 0 .4 0"/><feOffset dx="4.0" dy="4.0" in="blurOut2" result="blurOut3"/><feBlend in="SourceGraphic" in2="blurOut3" mode="normal"/></filter></defs><g><!--MD5=[786e391d2c30c0c6151ff4b701dca275]
class VesselCenterOfMassController--><rect fill="#FEFECE" filter="url(#f1k343iczzyqz6)" height="61.8359" id="VesselCenterOfMassController" style="stroke:#A80036;stroke-width:1.5;" width="204" x="26.5" y="7"/><ellipse cx="41.95" cy="23" fill="#ADD1B2" rx="11" ry="11" style="stroke:#A80036;stroke-width:1.0;"/><path d="M43.95,19.5 Q44.1531,19 44.3875,18.75 Q44.6219,18.5 44.8875,18.5 Q45.3563,18.5 45.6531,18.7813 Q45.95,19.0625 45.95,19.7188 L45.95,21.2813 Q45.95,21.9375 45.6688,22.2188 Q45.3875,22.5 44.95,22.5 Q44.5594,22.5 44.3094,22.3281 Q44.0594,22.1563 43.95,21.7031 Q43.9031,21.3906 43.7313,21.2188 Q43.4188,20.8906 42.8563,20.7031 Q42.2938,20.5 41.7313,20.5 Q41.0281,20.5 40.4344,20.7813 Q39.8563,21.0625 39.4031,21.6875 Q38.95,22.3125 38.95,23.1719 L38.95,24.0938 Q38.95,25.125 39.7938,25.8125 Q40.6375,26.5 42.1375,26.5 Q43.0281,26.5 43.6531,26.2969 Q44.0125,26.1875 44.4188,25.8281 Q44.6844,25.625 44.825,25.5625 Q44.9656,25.5 45.1375,25.5 Q45.4656,25.5 45.7,25.7656 Q45.95,26.0156 45.95,26.375 Q45.95,26.7188 45.6063,27.125 Q45.1063,27.7188 44.3094,28.0469 Q43.2625,28.5 41.9813,28.5 Q40.4813,28.5 39.2781,27.9063 Q38.3094,27.4375 37.6219,26.4219 Q36.95,25.4063 36.95,24.2031 L36.95,23.1094 Q36.95,21.8594 37.5438,20.7656 Q38.1531,19.6719 39.2,19.0938 Q40.2625,18.5 41.45,18.5 Q42.1688,18.5 42.7938,18.75 Q43.4188,19 43.95,19.5 Z " fill="#000000"/><text fill="#000000" font-family="sans-serif" font-size="12" lengthAdjust="spacing" textLength="171" x="56.05" y="27.9102">VesselCenterOfMassController</text><line style="stroke:#A80036;stroke-width:1.5;" x1="27.5" x2="229.5" y1="39" y2="39"/><line style="stroke:#A80036;stroke-width:1.5;" x1="27.5" x2="229.5" y1="47" y2="47"/><ellipse cx="37.5" cy="58" fill="#84BE84" rx="3" ry="3" style="stroke:#038048;stroke-width:1.0;"/><text fill="#000000" font-family="sans-serif" font-size="11" lengthAdjust="spacing" textLength="178" x="46.5" y="62.4189">getCenterOfMass(String typeOfShip)</text><!--MD5=[02e4b9b7573f1156f41e60aa5b4e25a4]
class Company--><rect fill="#FEFECE" filter="url(#f1k343iczzyqz6)" height="61.8359" id="Company" style="stroke:#A80036;stroke-width:1.5;" width="85" x="7" y="246.5"/><ellipse cx="22" cy="262.5" fill="#ADD1B2" rx="11" ry="11" style="stroke:#A80036;stroke-width:1.0;"/><path d="M24,259 Q24.2031,258.5 24.4375,258.25 Q24.6719,258 24.9375,258 Q25.4063,258 25.7031,258.2813 Q26,258.5625 26,259.2188 L26,260.7813 Q26,261.4375 25.7188,261.7188 Q25.4375,262 25,262 Q24.6094,262 24.3594,261.8281 Q24.1094,261.6563 24,261.2031 Q23.9531,260.8906 23.7813,260.7188 Q23.4688,260.3906 22.9063,260.2031 Q22.3438,260 21.7813,260 Q21.0781,260 20.4844,260.2813 Q19.9063,260.5625 19.4531,261.1875 Q19,261.8125 19,262.6719 L19,263.5938 Q19,264.625 19.8438,265.3125 Q20.6875,266 22.1875,266 Q23.0781,266 23.7031,265.7969 Q24.0625,265.6875 24.4688,265.3281 Q24.7344,265.125 24.875,265.0625 Q25.0156,265 25.1875,265 Q25.5156,265 25.75,265.2656 Q26,265.5156 26,265.875 Q26,266.2188 25.6563,266.625 Q25.1563,267.2188 24.3594,267.5469 Q23.3125,268 22.0313,268 Q20.5313,268 19.3281,267.4063 Q18.3594,266.9375 17.6719,265.9219 Q17,264.9063 17,263.7031 L17,262.6094 Q17,261.3594 17.5938,260.2656 Q18.2031,259.1719 19.25,258.5938 Q20.3125,258 21.5,258 Q22.2188,258 22.8438,258.25 Q23.4688,258.5 24,259 Z " fill="#000000"/><text fill="#000000" font-family="sans-serif" font-size="12" lengthAdjust="spacing" textLength="53" x="36" y="267.4102">Company</text><line style="stroke:#A80036;stroke-width:1.5;" x1="8" x2="91" y1="278.5" y2="278.5"/><line style="stroke:#A80036;stroke-width:1.5;" x1="8" x2="91" y1="286.5" y2="286.5"/><ellipse cx="18" cy="297.5" fill="#84BE84" rx="3" ry="3" style="stroke:#038048;stroke-width:1.0;"/><text fill="#000000" font-family="sans-serif" font-size="11" lengthAdjust="spacing" textLength="53" x="27" y="301.9189">Company()</text><!--MD5=[cf0b515ae0e6efe730666e7900c766c4]
class VesselCenterOfMass--><rect fill="#FEFECE" filter="url(#f1k343iczzyqz6)" height="297.0469" id="VesselCenterOfMass" style="stroke:#A80036;stroke-width:1.5;" width="162" x="127.5" y="129"/><ellipse cx="148.35" cy="145" fill="#ADD1B2" rx="11" ry="11" style="stroke:#A80036;stroke-width:1.0;"/><path d="M150.35,141.5 Q150.5531,141 150.7875,140.75 Q151.0219,140.5 151.2875,140.5 Q151.7563,140.5 152.0531,140.7813 Q152.35,141.0625 152.35,141.7188 L152.35,143.2813 Q152.35,143.9375 152.0688,144.2188 Q151.7875,144.5 151.35,144.5 Q150.9594,144.5 150.7094,144.3281 Q150.4594,144.1563 150.35,143.7031 Q150.3031,143.3906 150.1313,143.2188 Q149.8188,142.8906 149.2563,142.7031 Q148.6938,142.5 148.1313,142.5 Q147.4281,142.5 146.8344,142.7813 Q146.2563,143.0625 145.8031,143.6875 Q145.35,144.3125 145.35,145.1719 L145.35,146.0938 Q145.35,147.125 146.1938,147.8125 Q147.0375,148.5 148.5375,148.5 Q149.4281,148.5 150.0531,148.2969 Q150.4125,148.1875 150.8188,147.8281 Q151.0844,147.625 151.225,147.5625 Q151.3656,147.5 151.5375,147.5 Q151.8656,147.5 152.1,147.7656 Q152.35,148.0156 152.35,148.375 Q152.35,148.7188 152.0063,149.125 Q151.5063,149.7188 150.7094,150.0469 Q149.6625,150.5 148.3813,150.5 Q146.8813,150.5 145.6781,149.9063 Q144.7094,149.4375 144.0219,148.4219 Q143.35,147.4063 143.35,146.2031 L143.35,145.1094 Q143.35,143.8594 143.9438,142.7656 Q144.5531,141.6719 145.6,141.0938 Q146.6625,140.5 147.85,140.5 Q148.5688,140.5 149.1938,140.75 Q149.8188,141 150.35,141.5 Z " fill="#000000"/><text fill="#000000" font-family="sans-serif" font-size="12" lengthAdjust="spacing" textLength="117" x="163.65" y="149.9102">VesselCenterOfMass</text><line style="stroke:#A80036;stroke-width:1.5;" x1="128.5" x2="288.5" y1="161" y2="161"/><rect fill="none" height="6" style="stroke:#C82930;stroke-width:1.0;" width="6" x="135.5" y="169"/><text fill="#000000" font-family="sans-serif" font-size="11" lengthAdjust="spacing" textLength="65" x="147.5" y="176.4189">vesselLength</text><rect fill="none" height="6" style="stroke:#C82930;stroke-width:1.0;" width="6" x="135.5" y="182.8359"/><text fill="#000000" font-family="sans-serif" font-size="11" lengthAdjust="spacing" textLength="59" x="147.5" y="190.2549">vesselWidth</text><rect fill="none" height="6" style="stroke:#C82930;stroke-width:1.0;" width="6" x="135.5" y="196.6719"/><text fill="#000000" font-family="sans-serif" font-size="11" lengthAdjust="spacing" textLength="62" x="147.5" y="204.0908">vesselHeight</text><rect fill="none" height="6" style="stroke:#C82930;stroke-width:1.0;" width="6" x="135.5" y="210.5078"/><text fill="#000000" font-family="sans-serif" font-size="11" lengthAdjust="spacing" textLength="79" x="147.5" y="217.9268">vesselTipLength</text><rect fill="none" height="6" style="stroke:#C82930;stroke-width:1.0;" width="6" x="135.5" y="224.3438"/><text fill="#000000" font-family="sans-serif" font-size="11" lengthAdjust="spacing" textLength="76" x="147.5" y="231.7627">vesselTipHeight</text><rect fill="none" height="6" style="stroke:#C82930;stroke-width:1.0;" width="6" x="135.5" y="238.1797"/><text fill="#000000" font-family="sans-serif" font-size="11" lengthAdjust="spacing" textLength="90" x="147.5" y="245.5986">vesselBodyLength</text><rect fill="none" height="6" style="stroke:#C82930;stroke-width:1.0;" width="6" x="135.5" y="252.0156"/><text fill="#000000" font-family="sans-serif" font-size="11" lengthAdjust="spacing" textLength="87" x="147.5" y="259.4346">vesselBodyHeight</text><rect fill="none" height="6" style="stroke:#C82930;stroke-width:1.0;" width="6" x="135.5" y="265.8516"/><text fill="#000000" font-family="sans-serif" font-size="11" lengthAdjust="spacing" textLength="97" x="147.5" y="273.2705">vesselTowerLength</text><rect fill="none" height="6" style="stroke:#C82930;stroke-width:1.0;" width="6" x="135.5" y="279.6875"/><text fill="#000000" font-family="sans-serif" font-size="11" lengthAdjust="spacing" textLength="94" x="147.5" y="287.1064">vesselTowerHeight</text><rect fill="none" height="6" style="stroke:#C82930;stroke-width:1.0;" width="6" x="135.5" y="293.5234"/><text fill="#000000" font-family="sans-serif" font-size="11" lengthAdjust="spacing" textLength="136" x="147.5" y="300.9424">MATERIAL_DENSITY=7800d</text><rect fill="none" height="6" style="stroke:#C82930;stroke-width:1.0;" width="6" x="135.5" y="307.3594"/><text fill="#000000" font-family="sans-serif" font-size="11" lengthAdjust="spacing" textLength="76" x="147.5" y="314.7783">centerOfMassX</text><rect fill="none" height="6" style="stroke:#C82930;stroke-width:1.0;" width="6" x="135.5" y="321.1953"/><text fill="#000000" font-family="sans-serif" font-size="11" lengthAdjust="spacing" textLength="77" x="147.5" y="328.6143">centerOfMassY</text><line style="stroke:#A80036;stroke-width:1.5;" x1="128.5" x2="288.5" y1="335.0313" y2="335.0313"/><ellipse cx="138.5" cy="346.0313" fill="#84BE84" rx="3" ry="3" style="stroke:#038048;stroke-width:1.0;"/><text fill="#000000" font-family="sans-serif" font-size="11" lengthAdjust="spacing" textLength="128" x="147.5" y="350.4502">calculateCenterOfMassX()</text><ellipse cx="138.5" cy="359.8672" fill="#84BE84" rx="3" ry="3" style="stroke:#038048;stroke-width:1.0;"/><text fill="#000000" font-family="sans-serif" font-size="11" lengthAdjust="spacing" textLength="129" x="147.5" y="364.2861">calculateCenterOfMassY()</text><ellipse cx="138.5" cy="373.7031" fill="#84BE84" rx="3" ry="3" style="stroke:#038048;stroke-width:1.0;"/><text fill="#000000" font-family="sans-serif" font-size="11" lengthAdjust="spacing" textLength="118" x="147.5" y="378.1221">getMass(double volume)</text><ellipse cx="138.5" cy="387.5391" fill="#84BE84" rx="3" ry="3" style="stroke:#038048;stroke-width:1.0;"/><text fill="#000000" font-family="sans-serif" font-size="11" lengthAdjust="spacing" textLength="73" x="147.5" y="391.958">getTipVolume()</text><ellipse cx="138.5" cy="401.375" fill="#84BE84" rx="3" ry="3" style="stroke:#038048;stroke-width:1.0;"/><text fill="#000000" font-family="sans-serif" font-size="11" lengthAdjust="spacing" textLength="84" x="147.5" y="405.7939">getBodyVolume()</text><ellipse cx="138.5" cy="415.2109" fill="#84BE84" rx="3" ry="3" style="stroke:#038048;stroke-width:1.0;"/><text fill="#000000" font-family="sans-serif" font-size="11" lengthAdjust="spacing" textLength="91" x="147.5" y="419.6299">getTowerVolume()</text><!--MD5=[1e26a7415ae1921785f31e697ab01e55]
link VesselCenterOfMassController to Company--><path codeLine="1" d="M118.49,69.08 C103.87,113.04 76.72,194.66 61.2,241.33 " fill="none" id="VesselCenterOfMassController-to-Company" style="stroke:#A80036;stroke-width:1.0;stroke-dasharray:7.0,7.0;"/><polygon fill="#A80036" points="59.55,246.29,66.1974,239.0228,61.1354,241.548,58.6102,236.4861,59.55,246.29" style="stroke:#A80036;stroke-width:1.0;"/><!--MD5=[8760b1ad203a73727288d68e0a012b1e]
link VesselCenterOfMassController to VesselCenterOfMass--><path codeLine="2" d="M138.63,69.08 C143.67,84.05 150.19,103.39 157.21,124.22 " fill="none" id="VesselCenterOfMassController-to-VesselCenterOfMass" style="stroke:#A80036;stroke-width:1.0;stroke-dasharray:7.0,7.0;"/><polygon fill="#A80036" points="158.81,128.98,159.7233,119.1736,157.2117,124.2423,152.143,121.7308,158.81,128.98" style="stroke:#A80036;stroke-width:1.0;"/><!--MD5=[478136d396d3e269a6a1b7137f6581f1]
@startuml
VesselCenterOfMassController ..>Company
VesselCenterOfMassController ..>VesselCenterOfMass


VesselCenterOfMassController : +getCenterOfMass(String typeOfShip)


Company : +Company()
VesselCenterOfMass : -vesselLength
VesselCenterOfMass : -vesselWidth
VesselCenterOfMass : -vesselHeight
VesselCenterOfMass : -vesselTipLength
VesselCenterOfMass : -vesselTipHeight
VesselCenterOfMass : -vesselBodyLength
VesselCenterOfMass : -vesselBodyHeight
VesselCenterOfMass : -vesselTowerLength
VesselCenterOfMass : -vesselTowerHeight
VesselCenterOfMass : -MATERIAL_DENSITY=7800d
VesselCenterOfMass : -centerOfMassX
VesselCenterOfMass : -centerOfMassY
VesselCenterOfMass : +calculateCenterOfMassX()
VesselCenterOfMass : +calculateCenterOfMassY()
VesselCenterOfMass : +getMass(double volume)
VesselCenterOfMass : +getTipVolume()
VesselCenterOfMass : +getBodyVolume()
VesselCenterOfMass : +getTowerVolume()
@enduml

PlantUML version 1.2021.5(Sun Apr 25 12:20:28 BST 2021)
(GPL source distribution)
Java Runtime: OpenJDK Runtime Environment
JVM: OpenJDK 64-Bit Server VM
Default Encoding: Cp1252
Language: pt
Country: PT
--></g></svg>