<?xml version="1.0" encoding="UTF-8" standalone="no"?><svg xmlns="http://www.w3.org/2000/svg" xmlns:xlink="http://www.w3.org/1999/xlink" contentScriptType="application/ecmascript" contentStyleType="text/css" height="564px" preserveAspectRatio="none" style="width:360px;height:564px;" version="1.1" viewBox="0 0 360 564" width="360px" zoomAndPan="magnify"><defs><filter height="300%" id="f1mc81qfiyxo6s" width="300%" x="-1" y="-1"><feGaussianBlur result="blurOut" stdDeviation="2.0"/><feColorMatrix in="blurOut" result="blurOut2" type="matrix" values="0 0 0 0 0 0 0 0 0 0 0 0 0 0 0 0 0 0 .4 0"/><feOffset dx="4.0" dy="4.0" in="blurOut2" result="blurOut3"/><feBlend in="SourceGraphic" in2="blurOut3" mode="normal"/></filter></defs><g><!--MD5=[196f995e943472464a1f4d495f566b6e]
class VesselContainersPositionController--><rect fill="#FEFECE" filter="url(#f1mc81qfiyxo6s)" height="61.8359" id="VesselContainersPositionController" style="stroke:#A80036;stroke-width:1.5;" width="252" x="16.5" y="7"/><ellipse cx="41.4" cy="23" fill="#ADD1B2" rx="11" ry="11" style="stroke:#A80036;stroke-width:1.0;"/><path d="M43.4,19.5 Q43.6031,19 43.8375,18.75 Q44.0719,18.5 44.3375,18.5 Q44.8063,18.5 45.1031,18.7813 Q45.4,19.0625 45.4,19.7188 L45.4,21.2813 Q45.4,21.9375 45.1188,22.2188 Q44.8375,22.5 44.4,22.5 Q44.0094,22.5 43.7594,22.3281 Q43.5094,22.1563 43.4,21.7031 Q43.3531,21.3906 43.1813,21.2188 Q42.8688,20.8906 42.3063,20.7031 Q41.7438,20.5 41.1813,20.5 Q40.4781,20.5 39.8844,20.7813 Q39.3063,21.0625 38.8531,21.6875 Q38.4,22.3125 38.4,23.1719 L38.4,24.0938 Q38.4,25.125 39.2438,25.8125 Q40.0875,26.5 41.5875,26.5 Q42.4781,26.5 43.1031,26.2969 Q43.4625,26.1875 43.8688,25.8281 Q44.1344,25.625 44.275,25.5625 Q44.4156,25.5 44.5875,25.5 Q44.9156,25.5 45.15,25.7656 Q45.4,26.0156 45.4,26.375 Q45.4,26.7188 45.0563,27.125 Q44.5563,27.7188 43.7594,28.0469 Q42.7125,28.5 41.4313,28.5 Q39.9313,28.5 38.7281,27.9063 Q37.7594,27.4375 37.0719,26.4219 Q36.4,25.4063 36.4,24.2031 L36.4,23.1094 Q36.4,21.8594 36.9938,20.7656 Q37.6031,19.6719 38.65,19.0938 Q39.7125,18.5 40.9,18.5 Q41.6188,18.5 42.2438,18.75 Q42.8688,19 43.4,19.5 Z " fill="#000000"/><text fill="#000000" font-family="sans-serif" font-size="12" lengthAdjust="spacing" textLength="198" x="57.6" y="27.9102">VesselContainersPositionController</text><line style="stroke:#A80036;stroke-width:1.5;" x1="17.5" x2="267.5" y1="39" y2="39"/><line style="stroke:#A80036;stroke-width:1.5;" x1="17.5" x2="267.5" y1="47" y2="47"/><ellipse cx="27.5" cy="58" fill="#84BE84" rx="3" ry="3" style="stroke:#038048;stroke-width:1.0;"/><text fill="#000000" font-family="sans-serif" font-size="11" lengthAdjust="spacing" textLength="226" x="36.5" y="62.4189">getPositionContainers(int numberOfContainers)</text><!--MD5=[02e4b9b7573f1156f41e60aa5b4e25a4]
class Company--><rect fill="#FEFECE" filter="url(#f1mc81qfiyxo6s)" height="61.8359" id="Company" style="stroke:#A80036;stroke-width:1.5;" width="85" x="7" y="309"/><ellipse cx="22" cy="325" fill="#ADD1B2" rx="11" ry="11" style="stroke:#A80036;stroke-width:1.0;"/><path d="M24,321.5 Q24.2031,321 24.4375,320.75 Q24.6719,320.5 24.9375,320.5 Q25.4063,320.5 25.7031,320.7813 Q26,321.0625 26,321.7188 L26,323.2813 Q26,323.9375 25.7188,324.2188 Q25.4375,324.5 25,324.5 Q24.6094,324.5 24.3594,324.3281 Q24.1094,324.1563 24,323.7031 Q23.9531,323.3906 23.7813,323.2188 Q23.4688,322.8906 22.9063,322.7031 Q22.3438,322.5 21.7813,322.5 Q21.0781,322.5 20.4844,322.7813 Q19.9063,323.0625 19.4531,323.6875 Q19,324.3125 19,325.1719 L19,326.0938 Q19,327.125 19.8438,327.8125 Q20.6875,328.5 22.1875,328.5 Q23.0781,328.5 23.7031,328.2969 Q24.0625,328.1875 24.4688,327.8281 Q24.7344,327.625 24.875,327.5625 Q25.0156,327.5 25.1875,327.5 Q25.5156,327.5 25.75,327.7656 Q26,328.0156 26,328.375 Q26,328.7188 25.6563,329.125 Q25.1563,329.7188 24.3594,330.0469 Q23.3125,330.5 22.0313,330.5 Q20.5313,330.5 19.3281,329.9063 Q18.3594,329.4375 17.6719,328.4219 Q17,327.4063 17,326.2031 L17,325.1094 Q17,323.8594 17.5938,322.7656 Q18.2031,321.6719 19.25,321.0938 Q20.3125,320.5 21.5,320.5 Q22.2188,320.5 22.8438,320.75 Q23.4688,321 24,321.5 Z " fill="#000000"/><text fill="#000000" font-family="sans-serif" font-size="12" lengthAdjust="spacing" textLength="53" x="36" y="329.9102">Company</text><line style="stroke:#A80036;stroke-width:1.5;" x1="8" x2="91" y1="341" y2="341"/><line style="stroke:#A80036;stroke-width:1.5;" x1="8" x2="91" y1="349" y2="349"/><ellipse cx="18" cy="360" fill="#84BE84" rx="3" ry="3" style="stroke:#038048;stroke-width:1.0;"/><text fill="#000000" font-family="sans-serif" font-size="11" lengthAdjust="spacing" textLength="53" x="27" y="364.4189">Company()</text><!--MD5=[5dbc38acd8fdc67cbd019156cb4c38db]
class VesselContainersPosition--><rect fill="#FEFECE" filter="url(#f1mc81qfiyxo6s)" height="421.5703" id="VesselContainersPosition" style="stroke:#A80036;stroke-width:1.5;" width="219" x="127" y="129"/><ellipse cx="161.35" cy="145" fill="#ADD1B2" rx="11" ry="11" style="stroke:#A80036;stroke-width:1.0;"/><path d="M163.35,141.5 Q163.5531,141 163.7875,140.75 Q164.0219,140.5 164.2875,140.5 Q164.7563,140.5 165.0531,140.7813 Q165.35,141.0625 165.35,141.7188 L165.35,143.2813 Q165.35,143.9375 165.0688,144.2188 Q164.7875,144.5 164.35,144.5 Q163.9594,144.5 163.7094,144.3281 Q163.4594,144.1563 163.35,143.7031 Q163.3031,143.3906 163.1313,143.2188 Q162.8188,142.8906 162.2563,142.7031 Q161.6938,142.5 161.1313,142.5 Q160.4281,142.5 159.8344,142.7813 Q159.2563,143.0625 158.8031,143.6875 Q158.35,144.3125 158.35,145.1719 L158.35,146.0938 Q158.35,147.125 159.1938,147.8125 Q160.0375,148.5 161.5375,148.5 Q162.4281,148.5 163.0531,148.2969 Q163.4125,148.1875 163.8188,147.8281 Q164.0844,147.625 164.225,147.5625 Q164.3656,147.5 164.5375,147.5 Q164.8656,147.5 165.1,147.7656 Q165.35,148.0156 165.35,148.375 Q165.35,148.7188 165.0063,149.125 Q164.5063,149.7188 163.7094,150.0469 Q162.6625,150.5 161.3813,150.5 Q159.8813,150.5 158.6781,149.9063 Q157.7094,149.4375 157.0219,148.4219 Q156.35,147.4063 156.35,146.2031 L156.35,145.1094 Q156.35,143.8594 156.9438,142.7656 Q157.5531,141.6719 158.6,141.0938 Q159.6625,140.5 160.85,140.5 Q161.5688,140.5 162.1938,140.75 Q162.8188,141 163.35,141.5 Z " fill="#000000"/><text fill="#000000" font-family="sans-serif" font-size="12" lengthAdjust="spacing" textLength="144" x="179.65" y="149.9102">VesselContainersPosition</text><line style="stroke:#A80036;stroke-width:1.5;" x1="128" x2="345" y1="161" y2="161"/><rect fill="none" height="6" style="stroke:#C82930;stroke-width:1.0;" width="6" x="135" y="169"/><text fill="#000000" font-family="sans-serif" font-size="11" lengthAdjust="spacing" textLength="65" x="147" y="176.4189">vesselLength</text><rect fill="none" height="6" style="stroke:#C82930;stroke-width:1.0;" width="6" x="135" y="182.8359"/><text fill="#000000" font-family="sans-serif" font-size="11" lengthAdjust="spacing" textLength="59" x="147" y="190.2549">vesselWidth</text><rect fill="none" height="6" style="stroke:#C82930;stroke-width:1.0;" width="6" x="135" y="196.6719"/><text fill="#000000" font-family="sans-serif" font-size="11" lengthAdjust="spacing" textLength="62" x="147" y="204.0908">vesselHeight</text><rect fill="none" height="6" style="stroke:#C82930;stroke-width:1.0;" width="6" x="135" y="210.5078"/><text fill="#000000" font-family="sans-serif" font-size="11" lengthAdjust="spacing" textLength="79" x="147" y="217.9268">vesselTipLength</text><rect fill="none" height="6" style="stroke:#C82930;stroke-width:1.0;" width="6" x="135" y="224.3438"/><text fill="#000000" font-family="sans-serif" font-size="11" lengthAdjust="spacing" textLength="76" x="147" y="231.7627">vesselTipHeight</text><rect fill="none" height="6" style="stroke:#C82930;stroke-width:1.0;" width="6" x="135" y="238.1797"/><text fill="#000000" font-family="sans-serif" font-size="11" lengthAdjust="spacing" textLength="90" x="147" y="245.5986">vesselBodyLength</text><rect fill="none" height="6" style="stroke:#C82930;stroke-width:1.0;" width="6" x="135" y="252.0156"/><text fill="#000000" font-family="sans-serif" font-size="11" lengthAdjust="spacing" textLength="87" x="147" y="259.4346">vesselBodyHeight</text><rect fill="none" height="6" style="stroke:#C82930;stroke-width:1.0;" width="6" x="135" y="265.8516"/><text fill="#000000" font-family="sans-serif" font-size="11" lengthAdjust="spacing" textLength="97" x="147" y="273.2705">vesselTowerLength</text><rect fill="none" height="6" style="stroke:#C82930;stroke-width:1.0;" width="6" x="135" y="279.6875"/><text fill="#000000" font-family="sans-serif" font-size="11" lengthAdjust="spacing" textLength="94" x="147" y="287.1064">vesselTowerHeight</text><rect fill="none" height="6" style="stroke:#C82930;stroke-width:1.0;" width="6" x="135" y="293.5234"/><text fill="#000000" font-family="sans-serif" font-size="11" lengthAdjust="spacing" textLength="136" x="147" y="300.9424">MATERIAL_DENSITY=7800d</text><rect fill="none" height="6" style="stroke:#C82930;stroke-width:1.0;" width="6" x="135" y="307.3594"/><text fill="#000000" font-family="sans-serif" font-size="11" lengthAdjust="spacing" textLength="117" x="147" y="314.7783">containerLenght = 6.06d</text><rect fill="none" height="6" style="stroke:#C82930;stroke-width:1.0;" width="6" x="135" y="321.1953"/><text fill="#000000" font-family="sans-serif" font-size="11" lengthAdjust="spacing" textLength="111" x="147" y="328.6143">containerWidth = 2.44d</text><rect fill="none" height="6" style="stroke:#C82930;stroke-width:1.0;" width="6" x="135" y="335.0313"/><text fill="#000000" font-family="sans-serif" font-size="11" lengthAdjust="spacing" textLength="114" x="147" y="342.4502">containerHeight = 2.59d</text><rect fill="none" height="6" style="stroke:#C82930;stroke-width:1.0;" width="6" x="135" y="348.8672"/><text fill="#000000" font-family="sans-serif" font-size="11" lengthAdjust="spacing" textLength="122" x="147" y="356.2861">containerMass = 298.74d</text><rect fill="none" height="6" style="stroke:#C82930;stroke-width:1.0;" width="6" x="135" y="362.7031"/><text fill="#000000" font-family="sans-serif" font-size="11" lengthAdjust="spacing" textLength="100" x="147" y="370.1221">numberOfContainers</text><rect fill="none" height="6" style="stroke:#C82930;stroke-width:1.0;" width="6" x="135" y="376.5391"/><text fill="#000000" font-family="sans-serif" font-size="11" lengthAdjust="spacing" textLength="183" x="147" y="383.958">containersBodyCenterOfMassX = 45d</text><rect fill="none" height="6" style="stroke:#C82930;stroke-width:1.0;" width="6" x="135" y="390.375"/><text fill="#000000" font-family="sans-serif" font-size="11" lengthAdjust="spacing" textLength="193" x="147" y="397.7939">containersBodyCenterOfMassY = 16.5d</text><rect fill="none" height="6" style="stroke:#C82930;stroke-width:1.0;" width="6" x="135" y="404.2109"/><text fill="#000000" font-family="sans-serif" font-size="11" lengthAdjust="spacing" textLength="109" x="147" y="411.6299">vesselCenterOfMassX</text><rect fill="none" height="6" style="stroke:#C82930;stroke-width:1.0;" width="6" x="135" y="418.0469"/><text fill="#000000" font-family="sans-serif" font-size="11" lengthAdjust="spacing" textLength="110" x="147" y="425.4658">vesselCenterOfMassY</text><rect fill="none" height="6" style="stroke:#C82930;stroke-width:1.0;" width="6" x="135" y="431.8828"/><text fill="#000000" font-family="sans-serif" font-size="11" lengthAdjust="spacing" textLength="69" x="147" y="439.3018">centerOfMass</text><line style="stroke:#A80036;stroke-width:1.5;" x1="128" x2="345" y1="445.7188" y2="445.7188"/><ellipse cx="138" cy="456.7188" fill="#84BE84" rx="3" ry="3" style="stroke:#038048;stroke-width:1.0;"/><text fill="#000000" font-family="sans-serif" font-size="11" lengthAdjust="spacing" textLength="93" x="147" y="461.1377">getContainerArea()</text><ellipse cx="138" cy="470.5547" fill="#84BE84" rx="3" ry="3" style="stroke:#038048;stroke-width:1.0;"/><text fill="#000000" font-family="sans-serif" font-size="11" lengthAdjust="spacing" textLength="129" x="147" y="474.9736">calculateCenterOfMassY()</text><ellipse cx="138" cy="484.3906" fill="#84BE84" rx="3" ry="3" style="stroke:#038048;stroke-width:1.0;"/><text fill="#000000" font-family="sans-serif" font-size="11" lengthAdjust="spacing" textLength="118" x="147" y="488.8096">getMass(double volume)</text><ellipse cx="138" cy="498.2266" fill="#84BE84" rx="3" ry="3" style="stroke:#038048;stroke-width:1.0;"/><text fill="#000000" font-family="sans-serif" font-size="11" lengthAdjust="spacing" textLength="105" x="147" y="502.6455">getContainerVolume()</text><ellipse cx="138" cy="512.0625" fill="#84BE84" rx="3" ry="3" style="stroke:#038048;stroke-width:1.0;"/><text fill="#000000" font-family="sans-serif" font-size="11" lengthAdjust="spacing" textLength="146" x="147" y="516.4814">getCenterOfMassContainerX()</text><ellipse cx="138" cy="525.8984" fill="#84BE84" rx="3" ry="3" style="stroke:#038048;stroke-width:1.0;"/><text fill="#000000" font-family="sans-serif" font-size="11" lengthAdjust="spacing" textLength="147" x="147" y="530.3174">getCenterOfMassContainerY()</text><ellipse cx="138" cy="539.7344" fill="#84BE84" rx="3" ry="3" style="stroke:#038048;stroke-width:1.0;"/><text fill="#000000" font-family="sans-serif" font-size="11" lengthAdjust="spacing" textLength="146" x="147" y="544.1533">getCenterOfMassContainerZ()</text><!--MD5=[651bfa75cd11ed502bf5a54134012359]
link VesselContainersPositionController to Company--><path codeLine="1" d="M130.79,69.22 C124.22,86.6 116.05,108.9 109.5,129 C89.64,189.97 69.83,262.04 58.68,303.93 " fill="none" id="VesselContainersPositionController-to-Company" style="stroke:#A80036;stroke-width:1.0;stroke-dasharray:7.0,7.0;"/><polygon fill="#A80036" points="57.36,308.88,63.5355,301.2077,58.643,304.0474,55.8033,299.1549,57.36,308.88" style="stroke:#A80036;stroke-width:1.0;"/><!--MD5=[10a7d9e76a64037031a22d8dcabccbb2]
link VesselContainersPositionController to VesselContainersPosition--><path codeLine="2" d="M151.94,69.14 C156.53,83.78 162.49,102.78 169.11,123.93 " fill="none" id="VesselContainersPositionController-to-VesselContainersPosition" style="stroke:#A80036;stroke-width:1.0;stroke-dasharray:7.0,7.0;"/><polygon fill="#A80036" points="170.62,128.76,171.7635,118.9777,169.1335,123.9861,164.1252,121.3561,170.62,128.76" style="stroke:#A80036;stroke-width:1.0;"/><!--MD5=[bdb5512fd2eba9050f00a1b084915670]
@startuml
VesselContainersPositionController ..>Company
VesselContainersPositionController ..>VesselContainersPosition


VesselContainersPositionController : +getPositionContainers(int numberOfContainers)


Company : +Company()
VesselContainersPosition : -vesselLength
VesselContainersPosition : -vesselWidth
VesselContainersPosition : -vesselHeight
VesselContainersPosition : -vesselTipLength
VesselContainersPosition : -vesselTipHeight
VesselContainersPosition : -vesselBodyLength
VesselContainersPosition : -vesselBodyHeight
VesselContainersPosition : -vesselTowerLength
VesselContainersPosition : -vesselTowerHeight
VesselContainersPosition : -MATERIAL_DENSITY=7800d
VesselContainersPosition : -containerLenght = 6.06d
VesselContainersPosition : -containerWidth = 2.44d
VesselContainersPosition : -containerHeight = 2.59d
VesselContainersPosition : -containerMass = 298.74d
VesselContainersPosition : -numberOfContainers
VesselContainersPosition : -containersBodyCenterOfMassX = 45d
VesselContainersPosition : -containersBodyCenterOfMassY = 16.5d
VesselContainersPosition : -vesselCenterOfMassX
VesselContainersPosition : -vesselCenterOfMassY
VesselContainersPosition : -centerOfMass
VesselContainersPosition : +getContainerArea()
VesselContainersPosition : +calculateCenterOfMassY()
VesselContainersPosition : +getMass(double volume)
VesselContainersPosition : +getContainerVolume()
VesselContainersPosition : +getCenterOfMassContainerX()
VesselContainersPosition : +getCenterOfMassContainerY()
VesselContainersPosition : +getCenterOfMassContainerZ()
@enduml

PlantUML version 1.2021.5(Sun Apr 25 12:20:28 BST 2021)
(GPL source distribution)
Java Runtime: OpenJDK Runtime Environment
JVM: OpenJDK 64-Bit Server VM
Default Encoding: Cp1252
Language: pt
Country: PT
--></g></svg>