<?xml version="1.0" encoding="UTF-8" standalone="no"?><svg xmlns="http://www.w3.org/2000/svg" xmlns:xlink="http://www.w3.org/1999/xlink" contentScriptType="application/ecmascript" contentStyleType="text/css" height="722px" preserveAspectRatio="none" style="width:1267px;height:722px;" version="1.1" viewBox="0 0 1267 722" width="1267px" zoomAndPan="magnify"><defs><filter height="300%" id="f1fcpeaj04jezi" width="300%" x="-1" y="-1"><feGaussianBlur result="blurOut" stdDeviation="2.0"/><feColorMatrix in="blurOut" result="blurOut2" type="matrix" values="0 0 0 0 0 0 0 0 0 0 0 0 0 0 0 0 0 0 .4 0"/><feOffset dx="4.0" dy="4.0" in="blurOut2" result="blurOut3"/><feBlend in="SourceGraphic" in2="blurOut3" mode="normal"/></filter></defs><g><rect fill="#FFFFFF" filter="url(#f1fcpeaj04jezi)" height="519.2734" style="stroke:#A80036;stroke-width:1.0;" width="10" x="43.5" y="99.6094"/><rect fill="#FFFFFF" filter="url(#f1fcpeaj04jezi)" height="30.3516" style="stroke:#A80036;stroke-width:1.0;" width="10" x="360.5" y="138.3125"/><rect fill="#FFFFFF" filter="url(#f1fcpeaj04jezi)" height="419.8672" style="stroke:#A80036;stroke-width:1.0;" width="10" x="360.5" y="199.0156"/><rect fill="#FFFFFF" filter="url(#f1fcpeaj04jezi)" height="359.1641" style="stroke:#A80036;stroke-width:1.0;" width="10" x="671.5" y="229.3672"/><rect fill="#FFFFFF" filter="url(#f1fcpeaj04jezi)" height="177.0547" style="stroke:#A80036;stroke-width:1.0;" width="10" x="1013.5" y="259.7188"/><rect fill="#FFFFFF" filter="url(#f1fcpeaj04jezi)" height="28" style="stroke:#A80036;stroke-width:1.0;" width="10" x="1018.5" y="298.0703"/><rect fill="#FFFFFF" filter="url(#f1fcpeaj04jezi)" height="28" style="stroke:#A80036;stroke-width:1.0;" width="10" x="1018.5" y="371.4219"/><rect fill="#FFFFFF" filter="url(#f1fcpeaj04jezi)" height="30.3516" style="stroke:#A80036;stroke-width:1.0;" width="10" x="1013.5" y="467.125"/><rect fill="#FFFFFF" filter="url(#f1fcpeaj04jezi)" height="30.3516" style="stroke:#A80036;stroke-width:1.0;" width="10" x="1200.5" y="527.8281"/><line style="stroke:#A80036;stroke-width:1.0;stroke-dasharray:5.0,5.0;" x1="48" x2="48" y1="89.6094" y2="636.8828"/><line style="stroke:#A80036;stroke-width:1.0;stroke-dasharray:5.0,5.0;" x1="365" x2="365" y1="89.6094" y2="636.8828"/><line style="stroke:#A80036;stroke-width:1.0;stroke-dasharray:5.0,5.0;" x1="676" x2="676" y1="89.6094" y2="636.8828"/><line style="stroke:#A80036;stroke-width:1.0;stroke-dasharray:5.0,5.0;" x1="850" x2="850" y1="89.6094" y2="636.8828"/><line style="stroke:#A80036;stroke-width:1.0;stroke-dasharray:5.0,5.0;" x1="1018" x2="1018" y1="89.6094" y2="636.8828"/><line style="stroke:#A80036;stroke-width:1.0;stroke-dasharray:5.0,5.0;" x1="1205.5" x2="1205.5" y1="89.6094" y2="636.8828"/><text fill="#000000" font-family="sans-serif" font-size="14" lengthAdjust="spacing" textLength="81" x="5" y="86.5332">Ship Captain</text><ellipse cx="48.5" cy="15" fill="#FEFECE" filter="url(#f1fcpeaj04jezi)" rx="8" ry="8" style="stroke:#A80036;stroke-width:2.0;"/><path d="M48.5,23 L48.5,50 M35.5,31 L61.5,31 M48.5,50 L35.5,65 M48.5,50 L61.5,65 " fill="none" filter="url(#f1fcpeaj04jezi)" style="stroke:#A80036;stroke-width:2.0;"/><text fill="#000000" font-family="sans-serif" font-size="14" lengthAdjust="spacing" textLength="81" x="5" y="650.416">Ship Captain</text><ellipse cx="48.5" cy="663.4922" fill="#FEFECE" filter="url(#f1fcpeaj04jezi)" rx="8" ry="8" style="stroke:#A80036;stroke-width:2.0;"/><path d="M48.5,671.4922 L48.5,698.4922 M35.5,679.4922 L61.5,679.4922 M48.5,698.4922 L35.5,713.4922 M48.5,698.4922 L61.5,713.4922 " fill="none" filter="url(#f1fcpeaj04jezi)" style="stroke:#A80036;stroke-width:2.0;"/><rect fill="#FEFECE" filter="url(#f1fcpeaj04jezi)" height="31.6094" style="stroke:#A80036;stroke-width:1.5;" width="191" x="268" y="53"/><text fill="#000000" font-family="sans-serif" font-size="14" lengthAdjust="spacing" textLength="177" x="275" y="74.5332">:VesselContainersPositionUI</text><rect fill="#FEFECE" filter="url(#f1fcpeaj04jezi)" height="31.6094" style="stroke:#A80036;stroke-width:1.5;" width="191" x="268" y="635.8828"/><text fill="#000000" font-family="sans-serif" font-size="14" lengthAdjust="spacing" textLength="177" x="275" y="657.416">:VesselContainersPositionUI</text><rect fill="#FEFECE" filter="url(#f1fcpeaj04jezi)" height="31.6094" style="stroke:#A80036;stroke-width:1.5;" width="241" x="554" y="53"/><text fill="#000000" font-family="sans-serif" font-size="14" lengthAdjust="spacing" textLength="227" x="561" y="74.5332">:VesselContainersPositionController</text><rect fill="#FEFECE" filter="url(#f1fcpeaj04jezi)" height="31.6094" style="stroke:#A80036;stroke-width:1.5;" width="241" x="554" y="635.8828"/><text fill="#000000" font-family="sans-serif" font-size="14" lengthAdjust="spacing" textLength="227" x="561" y="657.416">:VesselContainersPositionController</text><rect fill="#FEFECE" filter="url(#f1fcpeaj04jezi)" height="31.6094" style="stroke:#A80036;stroke-width:1.5;" width="78" x="809" y="53"/><text fill="#000000" font-family="sans-serif" font-size="14" lengthAdjust="spacing" textLength="64" x="816" y="74.5332">:Company</text><rect fill="#FEFECE" filter="url(#f1fcpeaj04jezi)" height="31.6094" style="stroke:#A80036;stroke-width:1.5;" width="78" x="809" y="635.8828"/><text fill="#000000" font-family="sans-serif" font-size="14" lengthAdjust="spacing" textLength="64" x="816" y="657.416">:Company</text><rect fill="#FEFECE" filter="url(#f1fcpeaj04jezi)" height="49.2188" style="stroke:#A80036;stroke-width:1.5;" width="179" x="927" y="35.3906"/><text fill="#000000" font-family="sans-serif" font-size="14" lengthAdjust="spacing" textLength="159" x="937" y="56.9238">vesselContainersPosition</text><text fill="#000000" font-family="sans-serif" font-size="14" lengthAdjust="spacing" textLength="165" x="934" y="74.5332">:VesselContainersPosition</text><rect fill="#FEFECE" filter="url(#f1fcpeaj04jezi)" height="49.2188" style="stroke:#A80036;stroke-width:1.5;" width="179" x="927" y="635.8828"/><text fill="#000000" font-family="sans-serif" font-size="14" lengthAdjust="spacing" textLength="159" x="937" y="657.416">vesselContainersPosition</text><text fill="#000000" font-family="sans-serif" font-size="14" lengthAdjust="spacing" textLength="165" x="934" y="675.0254">:VesselContainersPosition</text><rect fill="#FEFECE" filter="url(#f1fcpeaj04jezi)" height="31.6094" style="stroke:#A80036;stroke-width:1.5;" width="100" x="1153.5" y="53"/><text fill="#000000" font-family="sans-serif" font-size="14" lengthAdjust="spacing" textLength="86" x="1160.5" y="74.5332">FileOperation</text><rect fill="#FEFECE" filter="url(#f1fcpeaj04jezi)" height="31.6094" style="stroke:#A80036;stroke-width:1.5;" width="100" x="1153.5" y="635.8828"/><text fill="#000000" font-family="sans-serif" font-size="14" lengthAdjust="spacing" textLength="86" x="1160.5" y="657.416">FileOperation</text><rect fill="#FFFFFF" filter="url(#f1fcpeaj04jezi)" height="519.2734" style="stroke:#A80036;stroke-width:1.0;" width="10" x="43.5" y="99.6094"/><rect fill="#FFFFFF" filter="url(#f1fcpeaj04jezi)" height="30.3516" style="stroke:#A80036;stroke-width:1.0;" width="10" x="360.5" y="138.3125"/><rect fill="#FFFFFF" filter="url(#f1fcpeaj04jezi)" height="419.8672" style="stroke:#A80036;stroke-width:1.0;" width="10" x="360.5" y="199.0156"/><rect fill="#FFFFFF" filter="url(#f1fcpeaj04jezi)" height="359.1641" style="stroke:#A80036;stroke-width:1.0;" width="10" x="671.5" y="229.3672"/><rect fill="#FFFFFF" filter="url(#f1fcpeaj04jezi)" height="177.0547" style="stroke:#A80036;stroke-width:1.0;" width="10" x="1013.5" y="259.7188"/><rect fill="#FFFFFF" filter="url(#f1fcpeaj04jezi)" height="28" style="stroke:#A80036;stroke-width:1.0;" width="10" x="1018.5" y="298.0703"/><rect fill="#FFFFFF" filter="url(#f1fcpeaj04jezi)" height="28" style="stroke:#A80036;stroke-width:1.0;" width="10" x="1018.5" y="371.4219"/><rect fill="#FFFFFF" filter="url(#f1fcpeaj04jezi)" height="30.3516" style="stroke:#A80036;stroke-width:1.0;" width="10" x="1013.5" y="467.125"/><rect fill="#FFFFFF" filter="url(#f1fcpeaj04jezi)" height="30.3516" style="stroke:#A80036;stroke-width:1.0;" width="10" x="1200.5" y="527.8281"/><polygon fill="#A80036" points="348.5,134.3125,358.5,138.3125,348.5,142.3125,352.5,138.3125" style="stroke:#A80036;stroke-width:1.0;"/><line style="stroke:#A80036;stroke-width:1.0;" x1="53.5" x2="354.5" y1="138.3125" y2="138.3125"/><text fill="#000000" font-family="sans-serif" font-size="13" font-weight="bold" lengthAdjust="spacing" textLength="7" x="60.5" y="125.2803">1</text><text fill="#000000" font-family="sans-serif" font-size="13" lengthAdjust="spacing" textLength="216" x="71.5" y="117.1045">request to know where to position the</text><text fill="#000000" font-family="sans-serif" font-size="13" lengthAdjust="spacing" textLength="273" x="75.5" y="133.4561">containers without changing the center of mass</text><polygon fill="#A80036" points="64.5,164.6641,54.5,168.6641,64.5,172.6641,60.5,168.6641" style="stroke:#A80036;stroke-width:1.0;"/><line style="stroke:#A80036;stroke-width:1.0;stroke-dasharray:2.0,2.0;" x1="58.5" x2="364.5" y1="168.6641" y2="168.6641"/><text fill="#000000" font-family="sans-serif" font-size="13" font-weight="bold" lengthAdjust="spacing" textLength="7" x="70.5" y="163.8076">2</text><text fill="#000000" font-family="sans-serif" font-size="13" lengthAdjust="spacing" textLength="190" x="81.5" y="163.8076">request the number of containers</text><polygon fill="#A80036" points="348.5,195.0156,358.5,199.0156,348.5,203.0156,352.5,199.0156" style="stroke:#A80036;stroke-width:1.0;"/><line style="stroke:#A80036;stroke-width:1.0;" x1="53.5" x2="354.5" y1="199.0156" y2="199.0156"/><text fill="#000000" font-family="sans-serif" font-size="13" font-weight="bold" lengthAdjust="spacing" textLength="7" x="60.5" y="194.1592">3</text><text fill="#000000" font-family="sans-serif" font-size="13" lengthAdjust="spacing" textLength="207" x="71.5" y="194.1592">introduces the number of containers</text><polygon fill="#A80036" points="659.5,225.3672,669.5,229.3672,659.5,233.3672,663.5,229.3672" style="stroke:#A80036;stroke-width:1.0;"/><line style="stroke:#A80036;stroke-width:1.0;" x1="370.5" x2="665.5" y1="229.3672" y2="229.3672"/><text fill="#000000" font-family="sans-serif" font-size="13" font-weight="bold" lengthAdjust="spacing" textLength="7" x="377.5" y="224.5107">4</text><text fill="#000000" font-family="sans-serif" font-size="13" lengthAdjust="spacing" textLength="271" x="388.5" y="224.5107">getPositionContainers(int numberOfContainers)</text><polygon fill="#A80036" points="1001.5,255.7188,1011.5,259.7188,1001.5,263.7188,1005.5,259.7188" style="stroke:#A80036;stroke-width:1.0;"/><line style="stroke:#A80036;stroke-width:1.0;" x1="681.5" x2="1007.5" y1="259.7188" y2="259.7188"/><text fill="#000000" font-family="sans-serif" font-size="13" font-weight="bold" lengthAdjust="spacing" textLength="7" x="688.5" y="254.8623">5</text><text fill="#000000" font-family="sans-serif" font-size="13" lengthAdjust="spacing" textLength="302" x="699.5" y="254.8623">new VesselContainersPosition(numberOfContainers)</text><line style="stroke:#A80036;stroke-width:1.0;" x1="1028.5" x2="1070.5" y1="290.0703" y2="290.0703"/><line style="stroke:#A80036;stroke-width:1.0;" x1="1070.5" x2="1070.5" y1="290.0703" y2="303.0703"/><line style="stroke:#A80036;stroke-width:1.0;" x1="1029.5" x2="1070.5" y1="303.0703" y2="303.0703"/><polygon fill="#A80036" points="1039.5,299.0703,1029.5,303.0703,1039.5,307.0703,1035.5,303.0703" style="stroke:#A80036;stroke-width:1.0;"/><text fill="#000000" font-family="sans-serif" font-size="13" font-weight="bold" lengthAdjust="spacing" textLength="7" x="1035.5" y="285.2139">6</text><text fill="#000000" font-family="sans-serif" font-size="13" lengthAdjust="spacing" textLength="150" x="1046.5" y="285.2139">calculateCenterOfMassX()</text><line style="stroke:#A80036;stroke-width:1.0;" x1="1028.5" x2="1070.5" y1="363.4219" y2="363.4219"/><line style="stroke:#A80036;stroke-width:1.0;" x1="1070.5" x2="1070.5" y1="363.4219" y2="376.4219"/><line style="stroke:#A80036;stroke-width:1.0;" x1="1029.5" x2="1070.5" y1="376.4219" y2="376.4219"/><polygon fill="#A80036" points="1039.5,372.4219,1029.5,376.4219,1039.5,380.4219,1035.5,376.4219" style="stroke:#A80036;stroke-width:1.0;"/><text fill="#000000" font-family="sans-serif" font-size="13" font-weight="bold" lengthAdjust="spacing" textLength="7" x="1035.5" y="358.5654">7</text><text fill="#000000" font-family="sans-serif" font-size="13" lengthAdjust="spacing" textLength="152" x="1046.5" y="358.5654">calculateCenterOfMassY()</text><polygon fill="#A80036" points="692.5,432.7734,682.5,436.7734,692.5,440.7734,688.5,436.7734" style="stroke:#A80036;stroke-width:1.0;"/><line style="stroke:#A80036;stroke-width:1.0;stroke-dasharray:2.0,2.0;" x1="686.5" x2="1017.5" y1="436.7734" y2="436.7734"/><text fill="#000000" font-family="sans-serif" font-size="13" font-weight="bold" lengthAdjust="spacing" textLength="7" x="698.5" y="431.917">8</text><text fill="#000000" font-family="sans-serif" font-size="13" lengthAdjust="spacing" textLength="145" x="709.5" y="431.917">vesselContainersPosition</text><polygon fill="#A80036" points="1001.5,463.125,1011.5,467.125,1001.5,471.125,1005.5,467.125" style="stroke:#A80036;stroke-width:1.0;"/><line style="stroke:#A80036;stroke-width:1.0;" x1="681.5" x2="1007.5" y1="467.125" y2="467.125"/><text fill="#000000" font-family="sans-serif" font-size="13" font-weight="bold" lengthAdjust="spacing" textLength="7" x="688.5" y="462.2686">9</text><text fill="#000000" font-family="sans-serif" font-size="13" lengthAdjust="spacing" textLength="61" x="699.5" y="462.2686">data = info</text><polygon fill="#A80036" points="692.5,493.4766,682.5,497.4766,692.5,501.4766,688.5,497.4766" style="stroke:#A80036;stroke-width:1.0;"/><line style="stroke:#A80036;stroke-width:1.0;stroke-dasharray:2.0,2.0;" x1="686.5" x2="1017.5" y1="497.4766" y2="497.4766"/><text fill="#000000" font-family="sans-serif" font-size="13" font-weight="bold" lengthAdjust="spacing" textLength="14" x="698.5" y="492.6201">10</text><text fill="#000000" font-family="sans-serif" font-size="13" lengthAdjust="spacing" textLength="20" x="716.5" y="492.6201">info</text><polygon fill="#A80036" points="1188.5,523.8281,1198.5,527.8281,1188.5,531.8281,1192.5,527.8281" style="stroke:#A80036;stroke-width:1.0;"/><line style="stroke:#A80036;stroke-width:1.0;" x1="681.5" x2="1194.5" y1="527.8281" y2="527.8281"/><text fill="#000000" font-family="sans-serif" font-size="13" font-weight="bold" lengthAdjust="spacing" textLength="14" x="688.5" y="522.9717">11</text><text fill="#000000" font-family="sans-serif" font-size="13" lengthAdjust="spacing" textLength="104" x="706.5" y="522.9717">writeToAFile(data)</text><polygon fill="#A80036" points="692.5,554.1797,682.5,558.1797,692.5,562.1797,688.5,558.1797" style="stroke:#A80036;stroke-width:1.0;"/><line style="stroke:#A80036;stroke-width:1.0;stroke-dasharray:2.0,2.0;" x1="686.5" x2="1204.5" y1="558.1797" y2="558.1797"/><text fill="#000000" font-family="sans-serif" font-size="13" font-weight="bold" lengthAdjust="spacing" textLength="14" x="698.5" y="553.3232">12</text><text fill="#000000" font-family="sans-serif" font-size="13" lengthAdjust="spacing" textLength="16" x="716.5" y="553.3232">file</text><polygon fill="#A80036" points="381.5,584.5313,371.5,588.5313,381.5,592.5313,377.5,588.5313" style="stroke:#A80036;stroke-width:1.0;"/><line style="stroke:#A80036;stroke-width:1.0;stroke-dasharray:2.0,2.0;" x1="375.5" x2="675.5" y1="588.5313" y2="588.5313"/><text fill="#000000" font-family="sans-serif" font-size="13" font-weight="bold" lengthAdjust="spacing" textLength="14" x="387.5" y="583.6748">13</text><text fill="#000000" font-family="sans-serif" font-size="13" lengthAdjust="spacing" textLength="16" x="405.5" y="583.6748">file</text><polygon fill="#A80036" points="59.5,614.8828,49.5,618.8828,59.5,622.8828,55.5,618.8828" style="stroke:#A80036;stroke-width:1.0;"/><line style="stroke:#A80036;stroke-width:1.0;stroke-dasharray:2.0,2.0;" x1="53.5" x2="364.5" y1="618.8828" y2="618.8828"/><text fill="#000000" font-family="sans-serif" font-size="13" font-weight="bold" lengthAdjust="spacing" textLength="14" x="65.5" y="614.0264">14</text><text fill="#000000" font-family="sans-serif" font-size="13" lengthAdjust="spacing" textLength="57" x="83.5" y="614.0264">shows file</text><!--MD5=[2e7bf7b22e74a4e3daeb764a40588ccf]
@startuml
actor "Ship Captain" as Adm
participant ":VesselContainersPositionUI" as UI
participant ":VesselContainersPositionController" as controller
participant ":Company" as c
participant "vesselContainersPosition\n:VesselContainersPosition" as com
participant "FileOperation" as fo

autonumber

activate Adm

Adm -> UI: request to know where to position the\n containers without changing the center of mass

activate UI

Adm <- - UI: request the number of containers

deactivate UI

Adm -> UI: introduces the number of containers

activate UI

UI -> controller: getPositionContainers(int numberOfContainers)

activate controller

controller -> com: new VesselContainersPosition(numberOfContainers)

activate com

com -> com: calculateCenterOfMassX()

activate com

deactivate com

com -> com: calculateCenterOfMassY()

activate com

deactivate com

com - -> controller: vesselContainersPosition

deactivate com

controller -> com: data = info

activate com

com - -> controller: info

deactivate com

controller -> fo: writeToAFile(data)

activate fo

fo - -> controller: file

deactivate fo

controller - -> UI: file

deactivate controller

UI - -> Adm: shows file

deactivate UI

deactivate Adm
@enduml

PlantUML version 1.2021.5(Sun Apr 25 12:20:28 BST 2021)
(GPL source distribution)
Java Runtime: OpenJDK Runtime Environment
JVM: OpenJDK 64-Bit Server VM
Default Encoding: Cp1252
Language: pt
Country: PT
--></g></svg>