<?xml version="1.0" encoding="UTF-8" standalone="no"?><svg xmlns="http://www.w3.org/2000/svg" xmlns:xlink="http://www.w3.org/1999/xlink" contentScriptType="application/ecmascript" contentStyleType="text/css" height="438px" preserveAspectRatio="none" style="width:1257px;height:438px;background:#FFFFFF;" version="1.1" viewBox="0 0 1257 438" width="1257px" zoomAndPan="magnify"><defs><filter height="300%" id="f13kgb6dh3pv43" width="300%" x="-1" y="-1"><feGaussianBlur result="blurOut" stdDeviation="2.0"/><feColorMatrix in="blurOut" result="blurOut2" type="matrix" values="0 0 0 0 0 0 0 0 0 0 0 0 0 0 0 0 0 0 .4 0"/><feOffset dx="4.0" dy="4.0" in="blurOut2" result="blurOut3"/><feBlend in="SourceGraphic" in2="blurOut3" mode="normal"/></filter></defs><g><rect fill="#FFFFFF" filter="url(#f13kgb6dh3pv43)" height="238.0625" style="stroke:#A80036;stroke-width:1.0;" width="10" x="51" y="98.2969"/><rect fill="#FFFFFF" filter="url(#f13kgb6dh3pv43)" height="216.9297" style="stroke:#A80036;stroke-width:1.0;" width="10" x="656" y="119.4297"/><rect fill="#FFFFFF" filter="url(#f13kgb6dh3pv43)" height="187.7969" style="stroke:#A80036;stroke-width:1.0;" width="10" x="823" y="148.5625"/><rect fill="#FFFFFF" filter="url(#f13kgb6dh3pv43)" height="71.2656" style="stroke:#A80036;stroke-width:1.0;" width="10" x="960.5" y="177.6953"/><rect fill="#FFFFFF" filter="url(#f13kgb6dh3pv43)" height="29.1328" style="stroke:#A80036;stroke-width:1.0;" width="10" x="1181.5" y="248.9609"/><line style="stroke:#A80036;stroke-width:1.0;stroke-dasharray:5.0,5.0;" x1="56" x2="56" y1="88.2969" y2="354.3594"/><line style="stroke:#A80036;stroke-width:1.0;stroke-dasharray:5.0,5.0;" x1="660.5" x2="660.5" y1="88.2969" y2="354.3594"/><line style="stroke:#A80036;stroke-width:1.0;stroke-dasharray:5.0,5.0;" x1="827.5" x2="827.5" y1="88.2969" y2="354.3594"/><line style="stroke:#A80036;stroke-width:1.0;stroke-dasharray:5.0,5.0;" x1="965.5" x2="965.5" y1="88.2969" y2="354.3594"/><line style="stroke:#A80036;stroke-width:1.0;stroke-dasharray:5.0,5.0;" x1="1186" x2="1186" y1="88.2969" y2="354.3594"/><text fill="#000000" font-family="sans-serif" font-size="14" lengthAdjust="spacing" textLength="96" x="5" y="84.9951">Port Manager</text><ellipse cx="56" cy="15" fill="#FEFECE" filter="url(#f13kgb6dh3pv43)" rx="8" ry="8" style="stroke:#A80036;stroke-width:2.0;"/><path d="M56,23 L56,50 M43,31 L69,31 M56,50 L43,65 M56,50 L69,65 " fill="none" filter="url(#f13kgb6dh3pv43)" style="stroke:#A80036;stroke-width:2.0;"/><text fill="#000000" font-family="sans-serif" font-size="14" lengthAdjust="spacing" textLength="96" x="5" y="366.3545">Port Manager</text><ellipse cx="56" cy="379.6563" fill="#FEFECE" filter="url(#f13kgb6dh3pv43)" rx="8" ry="8" style="stroke:#A80036;stroke-width:2.0;"/><path d="M56,387.6563 L56,414.6563 M43,395.6563 L69,395.6563 M56,414.6563 L43,429.6563 M56,414.6563 L69,429.6563 " fill="none" filter="url(#f13kgb6dh3pv43)" style="stroke:#A80036;stroke-width:2.0;"/><rect fill="#FEFECE" filter="url(#f13kgb6dh3pv43)" height="30.2969" style="stroke:#A80036;stroke-width:1.5;" width="123" x="597.5" y="53"/><text fill="#000000" font-family="sans-serif" font-size="14" lengthAdjust="spacing" textLength="109" x="604.5" y="72.9951">:WarningShipUI</text><rect fill="#FEFECE" filter="url(#f13kgb6dh3pv43)" height="30.2969" style="stroke:#A80036;stroke-width:1.5;" width="123" x="597.5" y="353.3594"/><text fill="#000000" font-family="sans-serif" font-size="14" lengthAdjust="spacing" textLength="109" x="604.5" y="373.3545">:WarningShipUI</text><rect fill="#FEFECE" filter="url(#f13kgb6dh3pv43)" height="30.2969" style="stroke:#A80036;stroke-width:1.5;" width="183" x="734.5" y="53"/><text fill="#000000" font-family="sans-serif" font-size="14" lengthAdjust="spacing" textLength="169" x="741.5" y="72.9951">:WarningShipController</text><rect fill="#FEFECE" filter="url(#f13kgb6dh3pv43)" height="30.2969" style="stroke:#A80036;stroke-width:1.5;" width="183" x="734.5" y="353.3594"/><text fill="#000000" font-family="sans-serif" font-size="14" lengthAdjust="spacing" textLength="169" x="741.5" y="373.3545">:WarningShipController</text><rect fill="#FEFECE" filter="url(#f13kgb6dh3pv43)" height="30.2969" style="stroke:#A80036;stroke-width:1.5;" width="64" x="931.5" y="53"/><text fill="#000000" font-family="sans-serif" font-size="14" lengthAdjust="spacing" textLength="50" x="938.5" y="72.9951">:US309</text><rect fill="#FEFECE" filter="url(#f13kgb6dh3pv43)" height="30.2969" style="stroke:#A80036;stroke-width:1.5;" width="64" x="931.5" y="353.3594"/><text fill="#000000" font-family="sans-serif" font-size="14" lengthAdjust="spacing" textLength="50" x="938.5" y="373.3545">:US309</text><rect fill="#FEFECE" filter="url(#f13kgb6dh3pv43)" height="30.2969" style="stroke:#A80036;stroke-width:1.5;" width="117" x="1126" y="53"/><text fill="#000000" font-family="sans-serif" font-size="14" lengthAdjust="spacing" textLength="103" x="1133" y="72.9951">:FileOperation</text><rect fill="#FEFECE" filter="url(#f13kgb6dh3pv43)" height="30.2969" style="stroke:#A80036;stroke-width:1.5;" width="117" x="1126" y="353.3594"/><text fill="#000000" font-family="sans-serif" font-size="14" lengthAdjust="spacing" textLength="103" x="1133" y="373.3545">:FileOperation</text><rect fill="#FFFFFF" filter="url(#f13kgb6dh3pv43)" height="238.0625" style="stroke:#A80036;stroke-width:1.0;" width="10" x="51" y="98.2969"/><rect fill="#FFFFFF" filter="url(#f13kgb6dh3pv43)" height="216.9297" style="stroke:#A80036;stroke-width:1.0;" width="10" x="656" y="119.4297"/><rect fill="#FFFFFF" filter="url(#f13kgb6dh3pv43)" height="187.7969" style="stroke:#A80036;stroke-width:1.0;" width="10" x="823" y="148.5625"/><rect fill="#FFFFFF" filter="url(#f13kgb6dh3pv43)" height="71.2656" style="stroke:#A80036;stroke-width:1.0;" width="10" x="960.5" y="177.6953"/><rect fill="#FFFFFF" filter="url(#f13kgb6dh3pv43)" height="29.1328" style="stroke:#A80036;stroke-width:1.0;" width="10" x="1181.5" y="248.9609"/><polygon fill="#A80036" points="644,115.4297,654,119.4297,644,123.4297,648,119.4297" style="stroke:#A80036;stroke-width:1.0;"/><line style="stroke:#A80036;stroke-width:1.0;" x1="61" x2="650" y1="119.4297" y2="119.4297"/><text fill="#000000" font-family="sans-serif" font-size="13" font-weight="bold" lengthAdjust="spacing" textLength="9" x="68" y="114.3638">1</text><text fill="#000000" font-family="sans-serif" font-size="13" lengthAdjust="spacing" textLength="563" x="81" y="114.3638">regist a cargo manifest for a particular ship on a date when the ship is already occupied</text><polygon fill="#A80036" points="811,144.5625,821,148.5625,811,152.5625,815,148.5625" style="stroke:#A80036;stroke-width:1.0;"/><line style="stroke:#A80036;stroke-width:1.0;" x1="666" x2="817" y1="148.5625" y2="148.5625"/><text fill="#000000" font-family="sans-serif" font-size="13" font-weight="bold" lengthAdjust="spacing" textLength="9" x="673" y="143.4966">2</text><text fill="#000000" font-family="sans-serif" font-size="13" lengthAdjust="spacing" textLength="82" x="686" y="143.4966">createUS309</text><polygon fill="#A80036" points="948.5,173.6953,958.5,177.6953,948.5,181.6953,952.5,177.6953" style="stroke:#A80036;stroke-width:1.0;"/><line style="stroke:#A80036;stroke-width:1.0;" x1="833" x2="954.5" y1="177.6953" y2="177.6953"/><text fill="#000000" font-family="sans-serif" font-size="13" font-weight="bold" lengthAdjust="spacing" textLength="8" x="840" y="172.6294">3</text><text fill="#000000" font-family="sans-serif" font-size="13" lengthAdjust="spacing" textLength="92" x="852" y="172.6294">demo(INSERT)</text><line style="stroke:#A80036;stroke-width:1.0;" x1="970.5" x2="1012.5" y1="206.8281" y2="206.8281"/><line style="stroke:#A80036;stroke-width:1.0;" x1="1012.5" x2="1012.5" y1="206.8281" y2="219.8281"/><line style="stroke:#A80036;stroke-width:1.0;" x1="971.5" x2="1012.5" y1="219.8281" y2="219.8281"/><polygon fill="#A80036" points="981.5,215.8281,971.5,219.8281,981.5,223.8281,977.5,219.8281" style="stroke:#A80036;stroke-width:1.0;"/><text fill="#000000" font-family="sans-serif" font-size="13" font-weight="bold" lengthAdjust="spacing" textLength="9" x="977.5" y="201.7622">4</text><text fill="#000000" font-family="sans-serif" font-size="13" lengthAdjust="spacing" textLength="51" x="990.5" y="201.7622">initialize</text><polygon fill="#A80036" points="1169.5,244.9609,1179.5,248.9609,1169.5,252.9609,1173.5,248.9609" style="stroke:#A80036;stroke-width:1.0;"/><line style="stroke:#A80036;stroke-width:1.0;" x1="965.5" x2="1175.5" y1="248.9609" y2="248.9609"/><text fill="#000000" font-family="sans-serif" font-size="13" font-weight="bold" lengthAdjust="spacing" textLength="9" x="972.5" y="243.895">5</text><text fill="#000000" font-family="sans-serif" font-size="13" lengthAdjust="spacing" textLength="179" x="985.5" y="243.895">WriteToAFile(e.getMessage)</text><polygon fill="#A80036" points="844,274.0938,834,278.0938,844,282.0938,840,278.0938" style="stroke:#A80036;stroke-width:1.0;"/><line style="stroke:#A80036;stroke-width:1.0;stroke-dasharray:2.0,2.0;" x1="838" x2="1185.5" y1="278.0938" y2="278.0938"/><text fill="#000000" font-family="sans-serif" font-size="13" font-weight="bold" lengthAdjust="spacing" textLength="9" x="850" y="273.0278">6</text><text fill="#000000" font-family="sans-serif" font-size="13" lengthAdjust="spacing" textLength="19" x="863" y="273.0278">file</text><polygon fill="#A80036" points="677,303.2266,667,307.2266,677,311.2266,673,307.2266" style="stroke:#A80036;stroke-width:1.0;"/><line style="stroke:#A80036;stroke-width:1.0;stroke-dasharray:2.0,2.0;" x1="671" x2="822" y1="307.2266" y2="307.2266"/><text fill="#000000" font-family="sans-serif" font-size="13" font-weight="bold" lengthAdjust="spacing" textLength="9" x="683" y="302.1606">7</text><text fill="#000000" font-family="sans-serif" font-size="13" lengthAdjust="spacing" textLength="19" x="696" y="302.1606">file</text><polygon fill="#A80036" points="67,332.3594,57,336.3594,67,340.3594,63,336.3594" style="stroke:#A80036;stroke-width:1.0;"/><line style="stroke:#A80036;stroke-width:1.0;stroke-dasharray:2.0,2.0;" x1="61" x2="660" y1="336.3594" y2="336.3594"/><text fill="#000000" font-family="sans-serif" font-size="13" font-weight="bold" lengthAdjust="spacing" textLength="9" x="73" y="331.2935">8</text><text fill="#000000" font-family="sans-serif" font-size="13" lengthAdjust="spacing" textLength="168" x="86" y="331.2935">shows the requested data</text><!--MD5=[6aacdd1e19e9599ca8caa751a6a9876c]
@startuml
actor "Port Manager" as Adm
participant ":WarningShipUI" as System
participant ":WarningShipController" as SSC
participant ":US309" as us
participant ":FileOperation" as f

autonumber

activate Adm

Adm -> System: regist a cargo manifest for a particular ship on a date when the ship is already occupied

activate System

System -> SSC: createUS309

activate SSC

SSC -> us: demo(INSERT)

activate us

us -> us: initialize

us -> f: WriteToAFile(e.getMessage)

deactivate us

activate f

f - -> SSC: file

deactivate f

SSC - -> System: file

System - -> Adm: shows the requested data

deactivate SSC

deactivate System

deactivate Adm
@enduml

PlantUML version 1.2021.17beta7(Unknown compile time)
(GPL source distribution)
Java Runtime: Java(TM) SE Runtime Environment
JVM: Java HotSpot(TM) 64-Bit Server VM
Default Encoding: UTF-8
Language: en
Country: US
--></g></svg>