<?xml version="1.0" encoding="UTF-8" standalone="no"?><svg xmlns="http://www.w3.org/2000/svg" xmlns:xlink="http://www.w3.org/1999/xlink" contentScriptType="application/ecmascript" contentStyleType="text/css" height="250px" preserveAspectRatio="none" style="width:715px;height:250px;background:#FFFFFF;" version="1.1" viewBox="0 0 715 250" width="715px" zoomAndPan="magnify"><defs><filter height="300%" id="fh5hu0f7ujm5m" width="300%" x="-1" y="-1"><feGaussianBlur result="blurOut" stdDeviation="2.0"/><feColorMatrix in="blurOut" result="blurOut2" type="matrix" values="0 0 0 0 0 0 0 0 0 0 0 0 0 0 0 0 0 0 .4 0"/><feOffset dx="4.0" dy="4.0" in="blurOut2" result="blurOut3"/><feBlend in="SourceGraphic" in2="blurOut3" mode="normal"/></filter></defs><g><rect fill="#FFFFFF" filter="url(#fh5hu0f7ujm5m)" height="50.2656" style="stroke:#A80036;stroke-width:1.0;" width="10" x="59" y="98.2969"/><rect fill="#FFFFFF" filter="url(#fh5hu0f7ujm5m)" height="29.1328" style="stroke:#A80036;stroke-width:1.0;" width="10" x="664" y="119.4297"/><line style="stroke:#A80036;stroke-width:1.0;stroke-dasharray:5.0,5.0;" x1="64" x2="64" y1="88.2969" y2="166.5625"/><line style="stroke:#A80036;stroke-width:1.0;stroke-dasharray:5.0,5.0;" x1="669" x2="669" y1="88.2969" y2="166.5625"/><text fill="#000000" font-family="sans-serif" font-size="14" lengthAdjust="spacing" textLength="112" x="5" y="84.9951">Traffic Manager</text><ellipse cx="64" cy="15" fill="#FEFECE" filter="url(#fh5hu0f7ujm5m)" rx="8" ry="8" style="stroke:#A80036;stroke-width:2.0;"/><path d="M64,23 L64,50 M51,31 L77,31 M64,50 L51,65 M64,50 L77,65 " fill="none" filter="url(#fh5hu0f7ujm5m)" style="stroke:#A80036;stroke-width:2.0;"/><text fill="#000000" font-family="sans-serif" font-size="14" lengthAdjust="spacing" textLength="112" x="5" y="178.5576">Traffic Manager</text><ellipse cx="64" cy="191.8594" fill="#FEFECE" filter="url(#fh5hu0f7ujm5m)" rx="8" ry="8" style="stroke:#A80036;stroke-width:2.0;"/><path d="M64,199.8594 L64,226.8594 M51,207.8594 L77,207.8594 M64,226.8594 L51,241.8594 M64,226.8594 L77,241.8594 " fill="none" filter="url(#fh5hu0f7ujm5m)" style="stroke:#A80036;stroke-width:2.0;"/><rect fill="#FEFECE" filter="url(#fh5hu0f7ujm5m)" height="30.2969" style="stroke:#A80036;stroke-width:1.5;" width="68" x="633" y="53"/><text fill="#000000" font-family="sans-serif" font-size="14" lengthAdjust="spacing" textLength="54" x="640" y="72.9951">System</text><rect fill="#FEFECE" filter="url(#fh5hu0f7ujm5m)" height="30.2969" style="stroke:#A80036;stroke-width:1.5;" width="68" x="633" y="165.5625"/><text fill="#000000" font-family="sans-serif" font-size="14" lengthAdjust="spacing" textLength="54" x="640" y="185.5576">System</text><rect fill="#FFFFFF" filter="url(#fh5hu0f7ujm5m)" height="50.2656" style="stroke:#A80036;stroke-width:1.0;" width="10" x="59" y="98.2969"/><rect fill="#FFFFFF" filter="url(#fh5hu0f7ujm5m)" height="29.1328" style="stroke:#A80036;stroke-width:1.0;" width="10" x="664" y="119.4297"/><polygon fill="#A80036" points="652,115.4297,662,119.4297,652,123.4297,656,119.4297" style="stroke:#A80036;stroke-width:1.0;"/><line style="stroke:#A80036;stroke-width:1.0;" x1="69" x2="658" y1="119.4297" y2="119.4297"/><text fill="#000000" font-family="sans-serif" font-size="13" font-weight="bold" lengthAdjust="spacing" textLength="9" x="76" y="114.3638">1</text><text fill="#000000" font-family="sans-serif" font-size="13" lengthAdjust="spacing" textLength="563" x="89" y="114.3638">regist a cargo manifest for a particular ship on a date when the ship is already occupied</text><polygon fill="#A80036" points="75,144.5625,65,148.5625,75,152.5625,71,148.5625" style="stroke:#A80036;stroke-width:1.0;"/><line style="stroke:#A80036;stroke-width:1.0;stroke-dasharray:2.0,2.0;" x1="69" x2="668" y1="148.5625" y2="148.5625"/><text fill="#000000" font-family="sans-serif" font-size="13" font-weight="bold" lengthAdjust="spacing" textLength="9" x="81" y="143.4966">2</text><text fill="#000000" font-family="sans-serif" font-size="13" lengthAdjust="spacing" textLength="122" x="94" y="143.4966">Shows the warning</text><!--MD5=[6d50041e7e83cd5782787a1f9b55d084]
@startuml
actor "Traffic Manager" as Adm
participant "System" as System

autonumber

activate Adm

Adm -> System: regist a cargo manifest for a particular ship on a date when the ship is already occupied

activate System

System - -> Adm: Shows the warning

deactivate System

deactivate Adm
@enduml

PlantUML version 1.2021.17beta7(Unknown compile time)
(GPL source distribution)
Java Runtime: Java(TM) SE Runtime Environment
JVM: Java HotSpot(TM) 64-Bit Server VM
Default Encoding: UTF-8
Language: en
Country: US
--></g></svg>