<?xml version="1.0" encoding="UTF-8" standalone="no"?><svg xmlns="http://www.w3.org/2000/svg" xmlns:xlink="http://www.w3.org/1999/xlink" contentScriptType="application/ecmascript" contentStyleType="text/css" height="400px" preserveAspectRatio="none" style="width:568px;height:400px;background:#FFFFFF;" version="1.1" viewBox="0 0 568 400" width="568px" zoomAndPan="magnify"><defs><filter height="300%" id="f8r53vll1hstt" width="300%" x="-1" y="-1"><feGaussianBlur result="blurOut" stdDeviation="2.0"/><feColorMatrix in="blurOut" result="blurOut2" type="matrix" values="0 0 0 0 0 0 0 0 0 0 0 0 0 0 0 0 0 0 .4 0"/><feOffset dx="4.0" dy="4.0" in="blurOut2" result="blurOut3"/><feBlend in="SourceGraphic" in2="blurOut3" mode="normal"/></filter></defs><g><!--MD5=[a367388c8eaf9030f6582ecb9488d52a]
class US415Controller--><rect fill="#FEFECE" filter="url(#f8r53vll1hstt)" height="60.8047" id="US415Controller" style="stroke:#A80036;stroke-width:1.5;" width="177" x="252" y="7"/><ellipse cx="287.7" cy="23" fill="#ADD1B2" rx="11" ry="11" style="stroke:#A80036;stroke-width:1.0;"/><path d="M290.0438,18.6719 C289.1063,18.2344 288.5125,18.0938 287.6375,18.0938 C285.0125,18.0938 283.0125,20.1719 283.0125,22.8906 L283.0125,24.0156 C283.0125,26.5938 285.1219,28.4844 288.0125,28.4844 C289.2313,28.4844 290.3875,28.1875 291.1375,27.6406 C291.7156,27.2344 292.0438,26.7813 292.0438,26.3906 C292.0438,25.9375 291.6531,25.5469 291.1844,25.5469 C290.9656,25.5469 290.7625,25.625 290.575,25.8125 C290.1219,26.2969 290.1219,26.2969 289.9344,26.3906 C289.5125,26.6563 288.825,26.7813 288.0594,26.7813 C286.0125,26.7813 284.7156,25.6875 284.7156,23.9844 L284.7156,22.8906 C284.7156,21.1094 285.9656,19.7969 287.7,19.7969 C288.2781,19.7969 288.8875,19.9531 289.3563,20.2031 C289.8406,20.4844 290.0125,20.7031 290.1063,21.1094 C290.1688,21.5156 290.2,21.6406 290.3406,21.7656 C290.4813,21.9063 290.7156,22.0156 290.9344,22.0156 C291.2,22.0156 291.4656,21.875 291.6375,21.6563 C291.7469,21.5 291.7781,21.3125 291.7781,20.8906 L291.7781,19.4688 C291.7781,19.0313 291.7625,18.9063 291.6688,18.75 C291.5125,18.4844 291.2313,18.3438 290.9344,18.3438 C290.6375,18.3438 290.4344,18.4375 290.2156,18.75 L290.0438,18.6719 Z " fill="#000000"/><text fill="#000000" font-family="sans-serif" font-size="12" lengthAdjust="spacing" textLength="99" x="306.3" y="27.1543">US415Controller</text><line style="stroke:#A80036;stroke-width:1.5;" x1="253" x2="428" y1="39" y2="39"/><line style="stroke:#A80036;stroke-width:1.5;" x1="253" x2="428" y1="47" y2="47"/><ellipse cx="263" cy="58" fill="#84BE84" rx="3" ry="3" style="stroke:#038048;stroke-width:1.0;"/><text fill="#000000" font-family="sans-serif" font-size="11" lengthAdjust="spacing" textLength="151" x="272" y="61.2104">auxiliaryPowerEquipment()</text><!--MD5=[02e4b9b7573f1156f41e60aa5b4e25a4]
class Company--><rect fill="#FEFECE" filter="url(#f8r53vll1hstt)" height="60.8047" id="Company" style="stroke:#A80036;stroke-width:1.5;" width="139" x="7" y="166.5"/><ellipse cx="44.95" cy="182.5" fill="#ADD1B2" rx="11" ry="11" style="stroke:#A80036;stroke-width:1.0;"/><path d="M47.2938,178.1719 C46.3563,177.7344 45.7625,177.5938 44.8875,177.5938 C42.2625,177.5938 40.2625,179.6719 40.2625,182.3906 L40.2625,183.5156 C40.2625,186.0938 42.3719,187.9844 45.2625,187.9844 C46.4813,187.9844 47.6375,187.6875 48.3875,187.1406 C48.9656,186.7344 49.2938,186.2813 49.2938,185.8906 C49.2938,185.4375 48.9031,185.0469 48.4344,185.0469 C48.2156,185.0469 48.0125,185.125 47.825,185.3125 C47.3719,185.7969 47.3719,185.7969 47.1844,185.8906 C46.7625,186.1563 46.075,186.2813 45.3094,186.2813 C43.2625,186.2813 41.9656,185.1875 41.9656,183.4844 L41.9656,182.3906 C41.9656,180.6094 43.2156,179.2969 44.95,179.2969 C45.5281,179.2969 46.1375,179.4531 46.6063,179.7031 C47.0906,179.9844 47.2625,180.2031 47.3563,180.6094 C47.4188,181.0156 47.45,181.1406 47.5906,181.2656 C47.7313,181.4063 47.9656,181.5156 48.1844,181.5156 C48.45,181.5156 48.7156,181.375 48.8875,181.1563 C48.9969,181 49.0281,180.8125 49.0281,180.3906 L49.0281,178.9688 C49.0281,178.5313 49.0125,178.4063 48.9188,178.25 C48.7625,177.9844 48.4813,177.8438 48.1844,177.8438 C47.8875,177.8438 47.6844,177.9375 47.4656,178.25 L47.2938,178.1719 Z " fill="#000000"/><text fill="#000000" font-family="sans-serif" font-size="12" lengthAdjust="spacing" textLength="56" x="64.05" y="186.6543">Company</text><line style="stroke:#A80036;stroke-width:1.5;" x1="8" x2="145" y1="198.5" y2="198.5"/><line style="stroke:#A80036;stroke-width:1.5;" x1="8" x2="145" y1="206.5" y2="206.5"/><ellipse cx="18" cy="217.5" fill="#84BE84" rx="3" ry="3" style="stroke:#038048;stroke-width:1.0;"/><text fill="#000000" font-family="sans-serif" font-size="11" lengthAdjust="spacing" textLength="113" x="27" y="220.7104">getContainerStore()</text><!--MD5=[f65e5490e62f3ccd15c37e1f85ddff5b]
class Energy--><rect fill="#FEFECE" filter="url(#f8r53vll1hstt)" height="99.2188" id="Energy" style="stroke:#A80036;stroke-width:1.5;" width="177" x="181" y="147.5"/><ellipse cx="244.25" cy="163.5" fill="#ADD1B2" rx="11" ry="11" style="stroke:#A80036;stroke-width:1.0;"/><path d="M246.5938,159.1719 C245.6563,158.7344 245.0625,158.5938 244.1875,158.5938 C241.5625,158.5938 239.5625,160.6719 239.5625,163.3906 L239.5625,164.5156 C239.5625,167.0938 241.6719,168.9844 244.5625,168.9844 C245.7813,168.9844 246.9375,168.6875 247.6875,168.1406 C248.2656,167.7344 248.5938,167.2813 248.5938,166.8906 C248.5938,166.4375 248.2031,166.0469 247.7344,166.0469 C247.5156,166.0469 247.3125,166.125 247.125,166.3125 C246.6719,166.7969 246.6719,166.7969 246.4844,166.8906 C246.0625,167.1563 245.375,167.2813 244.6094,167.2813 C242.5625,167.2813 241.2656,166.1875 241.2656,164.4844 L241.2656,163.3906 C241.2656,161.6094 242.5156,160.2969 244.25,160.2969 C244.8281,160.2969 245.4375,160.4531 245.9063,160.7031 C246.3906,160.9844 246.5625,161.2031 246.6563,161.6094 C246.7188,162.0156 246.75,162.1406 246.8906,162.2656 C247.0313,162.4063 247.2656,162.5156 247.4844,162.5156 C247.75,162.5156 248.0156,162.375 248.1875,162.1563 C248.2969,162 248.3281,161.8125 248.3281,161.3906 L248.3281,159.9688 C248.3281,159.5313 248.3125,159.4063 248.2188,159.25 C248.0625,158.9844 247.7813,158.8438 247.4844,158.8438 C247.1875,158.8438 246.9844,158.9375 246.7656,159.25 L246.5938,159.1719 Z " fill="#000000"/><text fill="#000000" font-family="sans-serif" font-size="12" lengthAdjust="spacing" textLength="42" x="264.75" y="167.6543">Energy</text><line style="stroke:#A80036;stroke-width:1.5;" x1="182" x2="357" y1="179.5" y2="179.5"/><rect fill="none" height="6" style="stroke:#C82930;stroke-width:1.0;" width="6" x="189" y="187.5"/><text fill="#000000" font-family="sans-serif" font-size="11" lengthAdjust="spacing" textLength="51" x="201" y="193.7104">heatFlow</text><rect fill="none" height="6" style="stroke:#C82930;stroke-width:1.0;" width="6" x="189" y="200.3047"/><text fill="#000000" font-family="sans-serif" font-size="11" lengthAdjust="spacing" textLength="41" x="201" y="206.5151">energy</text><rect fill="none" height="6" style="stroke:#C82930;stroke-width:1.0;" width="6" x="189" y="213.1094"/><text fill="#000000" font-family="sans-serif" font-size="11" lengthAdjust="spacing" textLength="7" x="201" y="219.3198">x</text><line style="stroke:#A80036;stroke-width:1.5;" x1="182" x2="357" y1="225.9141" y2="225.9141"/><ellipse cx="192" cy="236.9141" fill="#84BE84" rx="3" ry="3" style="stroke:#038048;stroke-width:1.0;"/><text fill="#000000" font-family="sans-serif" font-size="11" lengthAdjust="spacing" textLength="151" x="201" y="240.1245">auxiliaryPowerEquipment()</text><!--MD5=[421f7538b11410e8370fa0324235b51e]
class ContainerStore--><rect fill="#FEFECE" filter="url(#f8r53vll1hstt)" height="60.8047" id="ContainerStore" style="stroke:#A80036;stroke-width:1.5;" width="127" x="180" y="326"/><ellipse cx="197.25" cy="342" fill="#ADD1B2" rx="11" ry="11" style="stroke:#A80036;stroke-width:1.0;"/><path d="M199.5938,337.6719 C198.6563,337.2344 198.0625,337.0938 197.1875,337.0938 C194.5625,337.0938 192.5625,339.1719 192.5625,341.8906 L192.5625,343.0156 C192.5625,345.5938 194.6719,347.4844 197.5625,347.4844 C198.7813,347.4844 199.9375,347.1875 200.6875,346.6406 C201.2656,346.2344 201.5938,345.7813 201.5938,345.3906 C201.5938,344.9375 201.2031,344.5469 200.7344,344.5469 C200.5156,344.5469 200.3125,344.625 200.125,344.8125 C199.6719,345.2969 199.6719,345.2969 199.4844,345.3906 C199.0625,345.6563 198.375,345.7813 197.6094,345.7813 C195.5625,345.7813 194.2656,344.6875 194.2656,342.9844 L194.2656,341.8906 C194.2656,340.1094 195.5156,338.7969 197.25,338.7969 C197.8281,338.7969 198.4375,338.9531 198.9063,339.2031 C199.3906,339.4844 199.5625,339.7031 199.6563,340.1094 C199.7188,340.5156 199.75,340.6406 199.8906,340.7656 C200.0313,340.9063 200.2656,341.0156 200.4844,341.0156 C200.75,341.0156 201.0156,340.875 201.1875,340.6563 C201.2969,340.5 201.3281,340.3125 201.3281,339.8906 L201.3281,338.4688 C201.3281,338.0313 201.3125,337.9063 201.2188,337.75 C201.0625,337.4844 200.7813,337.3438 200.4844,337.3438 C200.1875,337.3438 199.9844,337.4375 199.7656,337.75 L199.5938,337.6719 Z " fill="#000000"/><text fill="#000000" font-family="sans-serif" font-size="12" lengthAdjust="spacing" textLength="90" x="211.75" y="346.1543">ContainerStore</text><line style="stroke:#A80036;stroke-width:1.5;" x1="181" x2="306" y1="358" y2="358"/><line style="stroke:#A80036;stroke-width:1.5;" x1="181" x2="306" y1="366" y2="366"/><ellipse cx="191" cy="377" fill="#84BE84" rx="3" ry="3" style="stroke:#038048;stroke-width:1.0;"/><text fill="#000000" font-family="sans-serif" font-size="11" lengthAdjust="spacing" textLength="101" x="200" y="380.2104">getContainerList()</text><!--MD5=[e9a58730c562b34349daa605d1ed6662]
class Container--><rect fill="#FEFECE" filter="url(#f8r53vll1hstt)" height="137.6328" id="Container" style="stroke:#A80036;stroke-width:1.5;" width="89" x="465" y="128"/><ellipse cx="480" cy="144" fill="#ADD1B2" rx="11" ry="11" style="stroke:#A80036;stroke-width:1.0;"/><path d="M482.3438,139.6719 C481.4063,139.2344 480.8125,139.0938 479.9375,139.0938 C477.3125,139.0938 475.3125,141.1719 475.3125,143.8906 L475.3125,145.0156 C475.3125,147.5938 477.4219,149.4844 480.3125,149.4844 C481.5313,149.4844 482.6875,149.1875 483.4375,148.6406 C484.0156,148.2344 484.3438,147.7813 484.3438,147.3906 C484.3438,146.9375 483.9531,146.5469 483.4844,146.5469 C483.2656,146.5469 483.0625,146.625 482.875,146.8125 C482.4219,147.2969 482.4219,147.2969 482.2344,147.3906 C481.8125,147.6563 481.125,147.7813 480.3594,147.7813 C478.3125,147.7813 477.0156,146.6875 477.0156,144.9844 L477.0156,143.8906 C477.0156,142.1094 478.2656,140.7969 480,140.7969 C480.5781,140.7969 481.1875,140.9531 481.6563,141.2031 C482.1406,141.4844 482.3125,141.7031 482.4063,142.1094 C482.4688,142.5156 482.5,142.6406 482.6406,142.7656 C482.7813,142.9063 483.0156,143.0156 483.2344,143.0156 C483.5,143.0156 483.7656,142.875 483.9375,142.6563 C484.0469,142.5 484.0781,142.3125 484.0781,141.8906 L484.0781,140.4688 C484.0781,140.0313 484.0625,139.9063 483.9688,139.75 C483.8125,139.4844 483.5313,139.3438 483.2344,139.3438 C482.9375,139.3438 482.7344,139.4375 482.5156,139.75 L482.3438,139.6719 Z " fill="#000000"/><text fill="#000000" font-family="sans-serif" font-size="12" lengthAdjust="spacing" textLength="57" x="494" y="148.1543">Container</text><line style="stroke:#A80036;stroke-width:1.5;" x1="466" x2="553" y1="160" y2="160"/><line style="stroke:#A80036;stroke-width:1.5;" x1="466" x2="553" y1="168" y2="168"/><ellipse cx="476" cy="179" fill="#84BE84" rx="3" ry="3" style="stroke:#038048;stroke-width:1.0;"/><text fill="#000000" font-family="sans-serif" font-size="11" lengthAdjust="spacing" textLength="54" x="485" y="182.2104">getArea()</text><ellipse cx="476" cy="191.8047" fill="#84BE84" rx="3" ry="3" style="stroke:#038048;stroke-width:1.0;"/><text fill="#000000" font-family="sans-serif" font-size="11" lengthAdjust="spacing" textLength="40" x="485" y="195.0151">getL1()</text><ellipse cx="476" cy="204.6094" fill="#84BE84" rx="3" ry="3" style="stroke:#038048;stroke-width:1.0;"/><text fill="#000000" font-family="sans-serif" font-size="11" lengthAdjust="spacing" textLength="40" x="485" y="207.8198">getL2()</text><ellipse cx="476" cy="217.4141" fill="#84BE84" rx="3" ry="3" style="stroke:#038048;stroke-width:1.0;"/><text fill="#000000" font-family="sans-serif" font-size="11" lengthAdjust="spacing" textLength="40" x="485" y="220.6245">getL3()</text><ellipse cx="476" cy="230.2188" fill="#84BE84" rx="3" ry="3" style="stroke:#038048;stroke-width:1.0;"/><text fill="#000000" font-family="sans-serif" font-size="11" lengthAdjust="spacing" textLength="41" x="485" y="233.4292">getK1()</text><ellipse cx="476" cy="243.0234" fill="#84BE84" rx="3" ry="3" style="stroke:#038048;stroke-width:1.0;"/><text fill="#000000" font-family="sans-serif" font-size="11" lengthAdjust="spacing" textLength="41" x="485" y="246.2339">getK2()</text><ellipse cx="476" cy="255.8281" fill="#84BE84" rx="3" ry="3" style="stroke:#038048;stroke-width:1.0;"/><text fill="#000000" font-family="sans-serif" font-size="11" lengthAdjust="spacing" textLength="41" x="485" y="259.0386">getK3()</text><!--MD5=[3adb6264497ffd1c3b03e89bd172e328]
link US415Controller to Company--><path codeLine="1" d="M274.511,68.083 C240.481,84.272 198.818,105.572 163.5,128 C147.081,138.427 130.01,151.27 115.384,162.977 " fill="none" id="US415Controller-to-Company" style="stroke:#A80036;stroke-width:1.0;stroke-dasharray:7.0,7.0;"/><polygon fill="#A80036" points="111.326,166.245,120.8446,163.7161,115.2204,163.1092,115.8273,157.485,111.326,166.245" style="stroke:#A80036;stroke-width:1.0;"/><!--MD5=[e7ea7b3622332c9bfa688b2e91365daa]
link US415Controller to Energy--><path codeLine="2" d="M327.145,68.125 C317.691,89.097 304.749,117.808 293.522,142.712 " fill="none" id="US415Controller-to-Energy" style="stroke:#A80036;stroke-width:1.0;stroke-dasharray:7.0,7.0;"/><polygon fill="#A80036" points="291.447,147.315,298.7915,140.7531,293.5013,142.7565,291.4979,137.4663,291.447,147.315" style="stroke:#A80036;stroke-width:1.0;"/><!--MD5=[ecefc8bc9712df929702ebf6d4d4a9c3]
link US415Controller to ContainerStore--><path codeLine="3" d="M355.946,68.057 C377.328,113.382 409.66,201.566 375.5,266 C361.704,292.0229 336.58,311.873 311.925,326.187 " fill="none" id="US415Controller-to-ContainerStore" style="stroke:#A80036;stroke-width:1.0;stroke-dasharray:7.0,7.0;"/><polygon fill="#A80036" points="307.33,328.7955,317.1317,327.8332,311.6788,326.3281,313.1839,320.8751,307.33,328.7955" style="stroke:#A80036;stroke-width:1.0;"/><!--MD5=[080e7288b98f0a571c2a9ff55b1d00af]
link US415Controller to Container--><path codeLine="4" d="M372.92,68.24 C391.81,85.611 416.06,107.986 437.5,128 C445.061,135.058 453.044,142.554 460.833,149.892 " fill="none" id="US415Controller-to-Container" style="stroke:#A80036;stroke-width:1.0;stroke-dasharray:7.0,7.0;"/><polygon fill="#A80036" points="464.639,153.479,460.8339,144.3949,461.0007,150.0493,455.3463,150.2161,464.639,153.479" style="stroke:#A80036;stroke-width:1.0;"/><!--MD5=[4546f9ecd2c2e8ec56683289b93f5556]
link Company to ContainerStore--><path codeLine="5" d="M107.911,227.625 C136.395,254.488 178.343,294.0493 208.025,322.0426 " fill="none" id="Company-to-ContainerStore" style="stroke:#A80036;stroke-width:1.0;stroke-dasharray:7.0,7.0;"/><polygon fill="#A80036" points="211.946,325.741,208.1421,316.6564,208.3082,322.3108,202.6538,322.4768,211.946,325.741" style="stroke:#A80036;stroke-width:1.0;"/><!--MD5=[a927fa4866247076a54949b69e8ead7b]
@startuml
US415Controller ..> Company
US415Controller ..> Energy
US415Controller ..> ContainerStore
US415Controller ..> Container
Company ..> ContainerStore

US415Controller : +auxiliaryPowerEquipment()

Energy : -heatFlow
Energy : -energy
Energy : - x
Energy : +auxiliaryPowerEquipment()

Company : +getContainerStore()

Container : +getArea()
Container : +getL1()
Container : +getL2()
Container : +getL3()
Container : +getK1()
Container : +getK2()
Container : +getK3()

ContainerStore : +getContainerList()
@enduml

PlantUML version 1.2022.1beta4(Unknown compile time)
(GPL source distribution)
Java Runtime: Java(TM) SE Runtime Environment
JVM: Java HotSpot(TM) 64-Bit Server VM
Default Encoding: UTF-8
Language: en
Country: US
--></g></svg>