<?xml version="1.0" encoding="UTF-8" standalone="no"?><svg xmlns="http://www.w3.org/2000/svg" xmlns:xlink="http://www.w3.org/1999/xlink" contentScriptType="application/ecmascript" contentStyleType="text/css" height="509px" preserveAspectRatio="none" style="width:1580px;height:509px;background:#FFFFFF;" version="1.1" viewBox="0 0 1580 509" width="1580px" zoomAndPan="magnify"><defs><filter height="300%" id="fhsbb0edf020s" width="300%" x="-1" y="-1"><feGaussianBlur result="blurOut" stdDeviation="2.0"/><feColorMatrix in="blurOut" result="blurOut2" type="matrix" values="0 0 0 0 0 0 0 0 0 0 0 0 0 0 0 0 0 0 .4 0"/><feOffset dx="4.0" dy="4.0" in="blurOut2" result="blurOut3"/><feBlend in="SourceGraphic" in2="blurOut3" mode="normal"/></filter></defs><g><rect fill="#FFFFFF" filter="url(#fhsbb0edf020s)" height="309.3281" style="stroke:#A80036;stroke-width:1.0;" width="10" x="49" y="98.2969"/><rect fill="#FFFFFF" filter="url(#fhsbb0edf020s)" height="288.1953" style="stroke:#A80036;stroke-width:1.0;" width="10" x="608" y="119.4297"/><rect fill="#FFFFFF" filter="url(#fhsbb0edf020s)" height="229.9297" style="stroke:#A80036;stroke-width:1.0;" width="10" x="828" y="148.5625"/><rect fill="#FFFFFF" filter="url(#fhsbb0edf020s)" height="171.6641" style="stroke:#A80036;stroke-width:1.0;" width="10" x="1018" y="177.6953"/><rect fill="#FFFFFF" filter="url(#fhsbb0edf020s)" height="29.1328" style="stroke:#A80036;stroke-width:1.0;" width="10" x="1262" y="291.0938"/><line style="stroke:#A80036;stroke-width:1.0;stroke-dasharray:5.0,5.0;" x1="54" x2="54" y1="88.2969" y2="425.625"/><line style="stroke:#A80036;stroke-width:1.0;stroke-dasharray:5.0,5.0;" x1="613" x2="613" y1="88.2969" y2="425.625"/><line style="stroke:#A80036;stroke-width:1.0;stroke-dasharray:5.0,5.0;" x1="833" x2="833" y1="88.2969" y2="425.625"/><line style="stroke:#A80036;stroke-width:1.0;stroke-dasharray:5.0,5.0;" x1="1022.5" x2="1022.5" y1="88.2969" y2="425.625"/><line style="stroke:#A80036;stroke-width:1.0;stroke-dasharray:5.0,5.0;" x1="1266.5" x2="1266.5" y1="88.2969" y2="425.625"/><line style="stroke:#A80036;stroke-width:1.0;stroke-dasharray:5.0,5.0;" x1="1406.5" x2="1406.5" y1="88.2969" y2="425.625"/><line style="stroke:#A80036;stroke-width:1.0;stroke-dasharray:5.0,5.0;" x1="1528.5" x2="1528.5" y1="88.2969" y2="425.625"/><text fill="#000000" font-family="sans-serif" font-size="14" lengthAdjust="spacing" textLength="92" x="5" y="84.9951">Ship Captain</text><ellipse cx="54" cy="15" fill="#FEFECE" filter="url(#fhsbb0edf020s)" rx="8" ry="8" style="stroke:#A80036;stroke-width:2.0;"/><path d="M54,23 L54,50 M41,31 L67,31 M54,50 L41,65 M54,50 L67,65 " fill="none" filter="url(#fhsbb0edf020s)" style="stroke:#A80036;stroke-width:2.0;"/><text fill="#000000" font-family="sans-serif" font-size="14" lengthAdjust="spacing" textLength="92" x="5" y="437.6201">Ship Captain</text><ellipse cx="54" cy="450.9219" fill="#FEFECE" filter="url(#fhsbb0edf020s)" rx="8" ry="8" style="stroke:#A80036;stroke-width:2.0;"/><path d="M54,458.9219 L54,485.9219 M41,466.9219 L67,466.9219 M54,485.9219 L41,500.9219 M54,485.9219 L67,500.9219 " fill="none" filter="url(#fhsbb0edf020s)" style="stroke:#A80036;stroke-width:2.0;"/><rect fill="#FEFECE" filter="url(#fhsbb0edf020s)" height="30.2969" style="stroke:#A80036;stroke-width:1.5;" width="76" x="573" y="53"/><text fill="#000000" font-family="sans-serif" font-size="14" lengthAdjust="spacing" textLength="62" x="580" y="72.9951">:US415UI</text><rect fill="#FEFECE" filter="url(#fhsbb0edf020s)" height="30.2969" style="stroke:#A80036;stroke-width:1.5;" width="76" x="573" y="424.625"/><text fill="#000000" font-family="sans-serif" font-size="14" lengthAdjust="spacing" textLength="62" x="580" y="444.6201">:US415UI</text><rect fill="#FEFECE" filter="url(#fhsbb0edf020s)" height="30.2969" style="stroke:#A80036;stroke-width:1.5;" width="136" x="763" y="53"/><text fill="#000000" font-family="sans-serif" font-size="14" lengthAdjust="spacing" textLength="122" x="770" y="72.9951">:US415Controller</text><rect fill="#FEFECE" filter="url(#fhsbb0edf020s)" height="30.2969" style="stroke:#A80036;stroke-width:1.5;" width="136" x="763" y="424.625"/><text fill="#000000" font-family="sans-serif" font-size="14" lengthAdjust="spacing" textLength="122" x="770" y="444.6201">:US415Controller</text><rect fill="#FEFECE" filter="url(#fhsbb0edf020s)" height="30.2969" style="stroke:#A80036;stroke-width:1.5;" width="69" x="986.5" y="53"/><text fill="#000000" font-family="sans-serif" font-size="14" lengthAdjust="spacing" textLength="55" x="993.5" y="72.9951">:Energy</text><rect fill="#FEFECE" filter="url(#fhsbb0edf020s)" height="30.2969" style="stroke:#A80036;stroke-width:1.5;" width="69" x="986.5" y="424.625"/><text fill="#000000" font-family="sans-serif" font-size="14" lengthAdjust="spacing" textLength="55" x="993.5" y="444.6201">:Energy</text><rect fill="#FEFECE" filter="url(#fhsbb0edf020s)" height="30.2969" style="stroke:#A80036;stroke-width:1.5;" width="117" x="1206.5" y="53"/><text fill="#000000" font-family="sans-serif" font-size="14" lengthAdjust="spacing" textLength="103" x="1213.5" y="72.9951">:FileOperation</text><rect fill="#FEFECE" filter="url(#fhsbb0edf020s)" height="30.2969" style="stroke:#A80036;stroke-width:1.5;" width="117" x="1206.5" y="424.625"/><text fill="#000000" font-family="sans-serif" font-size="14" lengthAdjust="spacing" textLength="103" x="1213.5" y="444.6201">:FileOperation</text><rect fill="#FEFECE" filter="url(#fhsbb0edf020s)" height="30.2969" style="stroke:#A80036;stroke-width:1.5;" width="135" x="1337.5" y="53"/><text fill="#000000" font-family="sans-serif" font-size="14" lengthAdjust="spacing" textLength="121" x="1344.5" y="72.9951">heatflow :double</text><rect fill="#FEFECE" filter="url(#fhsbb0edf020s)" height="30.2969" style="stroke:#A80036;stroke-width:1.5;" width="135" x="1337.5" y="424.625"/><text fill="#000000" font-family="sans-serif" font-size="14" lengthAdjust="spacing" textLength="121" x="1344.5" y="444.6201">heatflow :double</text><rect fill="#FEFECE" filter="url(#fhsbb0edf020s)" height="30.2969" style="stroke:#A80036;stroke-width:1.5;" width="80" x="1486.5" y="53"/><text fill="#000000" font-family="sans-serif" font-size="14" lengthAdjust="spacing" textLength="66" x="1493.5" y="72.9951">x :double</text><rect fill="#FEFECE" filter="url(#fhsbb0edf020s)" height="30.2969" style="stroke:#A80036;stroke-width:1.5;" width="80" x="1486.5" y="424.625"/><text fill="#000000" font-family="sans-serif" font-size="14" lengthAdjust="spacing" textLength="66" x="1493.5" y="444.6201">x :double</text><rect fill="#FFFFFF" filter="url(#fhsbb0edf020s)" height="309.3281" style="stroke:#A80036;stroke-width:1.0;" width="10" x="49" y="98.2969"/><rect fill="#FFFFFF" filter="url(#fhsbb0edf020s)" height="288.1953" style="stroke:#A80036;stroke-width:1.0;" width="10" x="608" y="119.4297"/><rect fill="#FFFFFF" filter="url(#fhsbb0edf020s)" height="229.9297" style="stroke:#A80036;stroke-width:1.0;" width="10" x="828" y="148.5625"/><rect fill="#FFFFFF" filter="url(#fhsbb0edf020s)" height="171.6641" style="stroke:#A80036;stroke-width:1.0;" width="10" x="1018" y="177.6953"/><rect fill="#FFFFFF" filter="url(#fhsbb0edf020s)" height="29.1328" style="stroke:#A80036;stroke-width:1.0;" width="10" x="1262" y="291.0938"/><polygon fill="#A80036" points="596,115.4297,606,119.4297,596,123.4297,600,119.4297" style="stroke:#A80036;stroke-width:1.0;"/><line style="stroke:#A80036;stroke-width:1.0;" x1="59" x2="602" y1="119.4297" y2="119.4297"/><text fill="#000000" font-family="sans-serif" font-size="13" font-weight="bold" lengthAdjust="spacing" textLength="9" x="66" y="114.3638">1</text><text fill="#000000" font-family="sans-serif" font-size="13" lengthAdjust="spacing" textLength="517" x="79" y="114.3638">wants to know how many auxiliary power equipment are needed for the voyage</text><polygon fill="#A80036" points="816,144.5625,826,148.5625,816,152.5625,820,148.5625" style="stroke:#A80036;stroke-width:1.0;"/><line style="stroke:#A80036;stroke-width:1.0;" x1="618" x2="822" y1="148.5625" y2="148.5625"/><text fill="#000000" font-family="sans-serif" font-size="13" font-weight="bold" lengthAdjust="spacing" textLength="9" x="625" y="143.4966">2</text><text fill="#000000" font-family="sans-serif" font-size="13" lengthAdjust="spacing" textLength="178" x="638" y="143.4966">auxiliaryPowerEquipment();</text><polygon fill="#A80036" points="1006,173.6953,1016,177.6953,1006,181.6953,1010,177.6953" style="stroke:#A80036;stroke-width:1.0;"/><line style="stroke:#A80036;stroke-width:1.0;" x1="838" x2="1012" y1="177.6953" y2="177.6953"/><text fill="#000000" font-family="sans-serif" font-size="13" font-weight="bold" lengthAdjust="spacing" textLength="8" x="845" y="172.6294">3</text><text fill="#000000" font-family="sans-serif" font-size="13" lengthAdjust="spacing" textLength="149" x="857" y="172.6294">exposedSidesEnergy();</text><line style="stroke:#A80036;stroke-width:1.0;" x1="1028" x2="1070" y1="206.8281" y2="206.8281"/><line style="stroke:#A80036;stroke-width:1.0;" x1="1070" x2="1070" y1="206.8281" y2="219.8281"/><line style="stroke:#A80036;stroke-width:1.0;" x1="1029" x2="1070" y1="219.8281" y2="219.8281"/><polygon fill="#A80036" points="1039,215.8281,1029,219.8281,1039,223.8281,1035,219.8281" style="stroke:#A80036;stroke-width:1.0;"/><text fill="#000000" font-family="sans-serif" font-size="13" font-weight="bold" lengthAdjust="spacing" textLength="9" x="1035" y="201.7622">4</text><text fill="#000000" font-family="sans-serif" font-size="13" lengthAdjust="spacing" textLength="207" x="1048" y="201.7622">heatFlow = totalEnergy/seconds</text><line style="stroke:#A80036;stroke-width:1.0;" x1="1028" x2="1070" y1="248.9609" y2="248.9609"/><line style="stroke:#A80036;stroke-width:1.0;" x1="1070" x2="1070" y1="248.9609" y2="261.9609"/><line style="stroke:#A80036;stroke-width:1.0;" x1="1029" x2="1070" y1="261.9609" y2="261.9609"/><polygon fill="#A80036" points="1039,257.9609,1029,261.9609,1039,265.9609,1035,261.9609" style="stroke:#A80036;stroke-width:1.0;"/><text fill="#000000" font-family="sans-serif" font-size="13" font-weight="bold" lengthAdjust="spacing" textLength="9" x="1035" y="243.895">5</text><text fill="#000000" font-family="sans-serif" font-size="13" lengthAdjust="spacing" textLength="156" x="1048" y="243.895">double x = heatFlow/pot</text><polygon fill="#A80036" points="1250,287.0938,1260,291.0938,1250,295.0938,1254,291.0938" style="stroke:#A80036;stroke-width:1.0;"/><line style="stroke:#A80036;stroke-width:1.0;" x1="1028" x2="1256" y1="291.0938" y2="291.0938"/><text fill="#000000" font-family="sans-serif" font-size="13" font-weight="bold" lengthAdjust="spacing" textLength="9" x="1035" y="286.0278">6</text><text fill="#000000" font-family="sans-serif" font-size="13" lengthAdjust="spacing" textLength="127" x="1048" y="286.0278">WriteToAFile(data2)</text><polygon fill="#A80036" points="1039,316.2266,1029,320.2266,1039,324.2266,1035,320.2266" style="stroke:#A80036;stroke-width:1.0;"/><line style="stroke:#A80036;stroke-width:1.0;stroke-dasharray:2.0,2.0;" x1="1033" x2="1266" y1="320.2266" y2="320.2266"/><text fill="#000000" font-family="sans-serif" font-size="13" font-weight="bold" lengthAdjust="spacing" textLength="9" x="1045" y="315.1606">7</text><text fill="#000000" font-family="sans-serif" font-size="13" lengthAdjust="spacing" textLength="37" x="1058" y="315.1606">data2</text><polygon fill="#A80036" points="849,345.3594,839,349.3594,849,353.3594,845,349.3594" style="stroke:#A80036;stroke-width:1.0;"/><line style="stroke:#A80036;stroke-width:1.0;stroke-dasharray:2.0,2.0;" x1="843" x2="1022" y1="349.3594" y2="349.3594"/><text fill="#000000" font-family="sans-serif" font-size="13" font-weight="bold" lengthAdjust="spacing" textLength="9" x="855" y="344.2935">8</text><text fill="#000000" font-family="sans-serif" font-size="13" lengthAdjust="spacing" textLength="37" x="868" y="344.2935">data2</text><polygon fill="#A80036" points="629,374.4922,619,378.4922,629,382.4922,625,378.4922" style="stroke:#A80036;stroke-width:1.0;"/><line style="stroke:#A80036;stroke-width:1.0;stroke-dasharray:2.0,2.0;" x1="623" x2="832" y1="378.4922" y2="378.4922"/><text fill="#000000" font-family="sans-serif" font-size="13" font-weight="bold" lengthAdjust="spacing" textLength="9" x="635" y="373.4263">9</text><text fill="#000000" font-family="sans-serif" font-size="13" lengthAdjust="spacing" textLength="37" x="648" y="373.4263">data2</text><polygon fill="#A80036" points="65,403.625,55,407.625,65,411.625,61,407.625" style="stroke:#A80036;stroke-width:1.0;"/><line style="stroke:#A80036;stroke-width:1.0;stroke-dasharray:2.0,2.0;" x1="59" x2="612" y1="407.625" y2="407.625"/><text fill="#000000" font-family="sans-serif" font-size="13" font-weight="bold" lengthAdjust="spacing" textLength="19" x="71" y="402.5591">10</text><text fill="#000000" font-family="sans-serif" font-size="13" lengthAdjust="spacing" textLength="168" x="94" y="402.5591">shows the requested data</text><!--MD5=[f6443404273f0c501b1ddd06ff95cc7e]
@startuml
actor "Ship Captain" as Adm
participant ":US415UI" as System
participant ":US415Controller" as SSC
participant ":Energy" as us
participant ":FileOperation" as f
participant "heatflow :double"
participant "x :double"

autonumber

activate Adm

Adm -> System: wants to know how many auxiliary power equipment are needed for the voyage

activate System

System -> SSC: auxiliaryPowerEquipment();

activate SSC

SSC -> us: exposedSidesEnergy();

activate us

us -> us: heatFlow = totalEnergy/seconds

us -> us: double x = heatFlow/pot

us -> f: WriteToAFile(data2)

activate f

f - -> us: data2

deactivate f

us - -> SSC: data2

deactivate us

SSC - -> System: data2

deactivate SSC

System - -> Adm: shows the requested data

deactivate System

deactivate Adm
@enduml

PlantUML version 1.2022.1beta4(Unknown compile time)
(GPL source distribution)
Java Runtime: Java(TM) SE Runtime Environment
JVM: Java HotSpot(TM) 64-Bit Server VM
Default Encoding: UTF-8
Language: en
Country: US
--></g></svg>