<?xml version="1.0" encoding="UTF-8" standalone="no"?><svg xmlns="http://www.w3.org/2000/svg" xmlns:xlink="http://www.w3.org/1999/xlink" contentScriptType="application/ecmascript" contentStyleType="text/css" height="250px" preserveAspectRatio="none" style="width:658px;height:250px;background:#FFFFFF;" version="1.1" viewBox="0 0 658 250" width="658px" zoomAndPan="magnify"><defs><filter height="300%" id="f1mcnjky9ekikp" width="300%" x="-1" y="-1"><feGaussianBlur result="blurOut" stdDeviation="2.0"/><feColorMatrix in="blurOut" result="blurOut2" type="matrix" values="0 0 0 0 0 0 0 0 0 0 0 0 0 0 0 0 0 0 .4 0"/><feOffset dx="4.0" dy="4.0" in="blurOut2" result="blurOut3"/><feBlend in="SourceGraphic" in2="blurOut3" mode="normal"/></filter></defs><g><rect fill="#FFFFFF" filter="url(#f1mcnjky9ekikp)" height="50.2656" style="stroke:#A80036;stroke-width:1.0;" width="10" x="48" y="98.2969"/><rect fill="#FFFFFF" filter="url(#f1mcnjky9ekikp)" height="29.1328" style="stroke:#A80036;stroke-width:1.0;" width="10" x="607" y="119.4297"/><line style="stroke:#A80036;stroke-width:1.0;stroke-dasharray:5.0,5.0;" x1="53" x2="53" y1="88.2969" y2="166.5625"/><line style="stroke:#A80036;stroke-width:1.0;stroke-dasharray:5.0,5.0;" x1="612" x2="612" y1="88.2969" y2="166.5625"/><text fill="#000000" font-family="sans-serif" font-size="14" lengthAdjust="spacing" textLength="90" x="5" y="84.9951">Ship captain</text><ellipse cx="53" cy="15" fill="#FEFECE" filter="url(#f1mcnjky9ekikp)" rx="8" ry="8" style="stroke:#A80036;stroke-width:2.0;"/><path d="M53,23 L53,50 M40,31 L66,31 M53,50 L40,65 M53,50 L66,65 " fill="none" filter="url(#f1mcnjky9ekikp)" style="stroke:#A80036;stroke-width:2.0;"/><text fill="#000000" font-family="sans-serif" font-size="14" lengthAdjust="spacing" textLength="90" x="5" y="178.5576">Ship captain</text><ellipse cx="53" cy="191.8594" fill="#FEFECE" filter="url(#f1mcnjky9ekikp)" rx="8" ry="8" style="stroke:#A80036;stroke-width:2.0;"/><path d="M53,199.8594 L53,226.8594 M40,207.8594 L66,207.8594 M53,226.8594 L40,241.8594 M53,226.8594 L66,241.8594 " fill="none" filter="url(#f1mcnjky9ekikp)" style="stroke:#A80036;stroke-width:2.0;"/><rect fill="#FEFECE" filter="url(#f1mcnjky9ekikp)" height="30.2969" style="stroke:#A80036;stroke-width:1.5;" width="68" x="576" y="53"/><text fill="#000000" font-family="sans-serif" font-size="14" lengthAdjust="spacing" textLength="54" x="583" y="72.9951">System</text><rect fill="#FEFECE" filter="url(#f1mcnjky9ekikp)" height="30.2969" style="stroke:#A80036;stroke-width:1.5;" width="68" x="576" y="165.5625"/><text fill="#000000" font-family="sans-serif" font-size="14" lengthAdjust="spacing" textLength="54" x="583" y="185.5576">System</text><rect fill="#FFFFFF" filter="url(#f1mcnjky9ekikp)" height="50.2656" style="stroke:#A80036;stroke-width:1.0;" width="10" x="48" y="98.2969"/><rect fill="#FFFFFF" filter="url(#f1mcnjky9ekikp)" height="29.1328" style="stroke:#A80036;stroke-width:1.0;" width="10" x="607" y="119.4297"/><polygon fill="#A80036" points="595,115.4297,605,119.4297,595,123.4297,599,119.4297" style="stroke:#A80036;stroke-width:1.0;"/><line style="stroke:#A80036;stroke-width:1.0;" x1="58" x2="601" y1="119.4297" y2="119.4297"/><text fill="#000000" font-family="sans-serif" font-size="13" font-weight="bold" lengthAdjust="spacing" textLength="9" x="65" y="114.3638">1</text><text fill="#000000" font-family="sans-serif" font-size="13" lengthAdjust="spacing" textLength="517" x="78" y="114.3638">wants to know how many auxiliary power equipment are needed for the voyage</text><polygon fill="#A80036" points="64,144.5625,54,148.5625,64,152.5625,60,148.5625" style="stroke:#A80036;stroke-width:1.0;"/><line style="stroke:#A80036;stroke-width:1.0;stroke-dasharray:2.0,2.0;" x1="58" x2="611" y1="148.5625" y2="148.5625"/><text fill="#000000" font-family="sans-serif" font-size="13" font-weight="bold" lengthAdjust="spacing" textLength="9" x="70" y="143.4966">2</text><text fill="#000000" font-family="sans-serif" font-size="13" lengthAdjust="spacing" textLength="168" x="83" y="143.4966">shows the requested data</text><!--MD5=[37f5174af49b26f45b6b45376dd79fb8]
@startuml
actor "Ship captain" as Adm
participant "System" as System

autonumber

activate Adm

Adm -> System: wants to know how many auxiliary power equipment are needed for the voyage

activate System

System - -> Adm: shows the requested data

deactivate System

deactivate Adm
@enduml

PlantUML version 1.2022.1beta4(Unknown compile time)
(GPL source distribution)
Java Runtime: Java(TM) SE Runtime Environment
JVM: Java HotSpot(TM) 64-Bit Server VM
Default Encoding: UTF-8
Language: en
Country: US
--></g></svg>