<?xml version="1.0" encoding="UTF-8" standalone="no"?><svg xmlns="http://www.w3.org/2000/svg" xmlns:xlink="http://www.w3.org/1999/xlink" contentScriptType="application/ecmascript" contentStyleType="text/css" height="496px" preserveAspectRatio="none" style="width:1479px;height:496px;background:#FFFFFF;" version="1.1" viewBox="0 0 1479 496" width="1479px" zoomAndPan="magnify"><defs><filter height="300%" id="felf4bhm4r1ry" width="300%" x="-1" y="-1"><feGaussianBlur result="blurOut" stdDeviation="2.0"/><feColorMatrix in="blurOut" result="blurOut2" type="matrix" values="0 0 0 0 0 0 0 0 0 0 0 0 0 0 0 0 0 0 .4 0"/><feOffset dx="4.0" dy="4.0" in="blurOut2" result="blurOut3"/><feBlend in="SourceGraphic" in2="blurOut3" mode="normal"/></filter></defs><g><rect fill="#FFFFFF" filter="url(#felf4bhm4r1ry)" height="296.3281" style="stroke:#A80036;stroke-width:1.0;" width="10" x="49" y="98.2969"/><rect fill="#FFFFFF" filter="url(#felf4bhm4r1ry)" height="29.1328" style="stroke:#A80036;stroke-width:1.0;" width="10" x="804" y="119.4297"/><rect fill="#FFFFFF" filter="url(#felf4bhm4r1ry)" height="216.9297" style="stroke:#A80036;stroke-width:1.0;" width="10" x="804" y="177.6953"/><rect fill="#FFFFFF" filter="url(#felf4bhm4r1ry)" height="187.7969" style="stroke:#A80036;stroke-width:1.0;" width="10" x="949" y="206.8281"/><rect fill="#FFFFFF" filter="url(#felf4bhm4r1ry)" height="71.2656" style="stroke:#A80036;stroke-width:1.0;" width="10" x="1206" y="235.9609"/><rect fill="#FFFFFF" filter="url(#felf4bhm4r1ry)" height="29.1328" style="stroke:#A80036;stroke-width:1.0;" width="10" x="1404" y="307.2266"/><line style="stroke:#A80036;stroke-width:1.0;stroke-dasharray:5.0,5.0;" x1="54" x2="54" y1="88.2969" y2="412.625"/><line style="stroke:#A80036;stroke-width:1.0;stroke-dasharray:5.0,5.0;" x1="808.5" x2="808.5" y1="88.2969" y2="412.625"/><line style="stroke:#A80036;stroke-width:1.0;stroke-dasharray:5.0,5.0;" x1="953.5" x2="953.5" y1="88.2969" y2="412.625"/><line style="stroke:#A80036;stroke-width:1.0;stroke-dasharray:5.0,5.0;" x1="1210.5" x2="1210.5" y1="88.2969" y2="412.625"/><line style="stroke:#A80036;stroke-width:1.0;stroke-dasharray:5.0,5.0;" x1="1408.5" x2="1408.5" y1="88.2969" y2="412.625"/><text fill="#000000" font-family="sans-serif" font-size="14" lengthAdjust="spacing" textLength="92" x="5" y="84.9951">Ship Captain</text><ellipse cx="54" cy="15" fill="#FEFECE" filter="url(#felf4bhm4r1ry)" rx="8" ry="8" style="stroke:#A80036;stroke-width:2.0;"/><path d="M54,23 L54,50 M41,31 L67,31 M54,50 L41,65 M54,50 L67,65 " fill="none" filter="url(#felf4bhm4r1ry)" style="stroke:#A80036;stroke-width:2.0;"/><text fill="#000000" font-family="sans-serif" font-size="14" lengthAdjust="spacing" textLength="92" x="5" y="424.6201">Ship Captain</text><ellipse cx="54" cy="437.9219" fill="#FEFECE" filter="url(#felf4bhm4r1ry)" rx="8" ry="8" style="stroke:#A80036;stroke-width:2.0;"/><path d="M54,445.9219 L54,472.9219 M41,453.9219 L67,453.9219 M54,472.9219 L41,487.9219 M54,472.9219 L67,487.9219 " fill="none" filter="url(#felf4bhm4r1ry)" style="stroke:#A80036;stroke-width:2.0;"/><rect fill="#FEFECE" filter="url(#felf4bhm4r1ry)" height="30.2969" style="stroke:#A80036;stroke-width:1.5;" width="101" x="756.5" y="53"/><text fill="#000000" font-family="sans-serif" font-size="14" lengthAdjust="spacing" textLength="87" x="763.5" y="72.9951">:AuditTrailUI</text><rect fill="#FEFECE" filter="url(#felf4bhm4r1ry)" height="30.2969" style="stroke:#A80036;stroke-width:1.5;" width="101" x="756.5" y="411.625"/><text fill="#000000" font-family="sans-serif" font-size="14" lengthAdjust="spacing" textLength="87" x="763.5" y="431.6201">:AuditTrailUI</text><rect fill="#FEFECE" filter="url(#felf4bhm4r1ry)" height="30.2969" style="stroke:#A80036;stroke-width:1.5;" width="161" x="871.5" y="53"/><text fill="#000000" font-family="sans-serif" font-size="14" lengthAdjust="spacing" textLength="147" x="878.5" y="72.9951">:AuditTrailController</text><rect fill="#FEFECE" filter="url(#felf4bhm4r1ry)" height="30.2969" style="stroke:#A80036;stroke-width:1.5;" width="161" x="871.5" y="411.625"/><text fill="#000000" font-family="sans-serif" font-size="14" lengthAdjust="spacing" textLength="147" x="878.5" y="431.6201">:AuditTrailController</text><rect fill="#FEFECE" filter="url(#felf4bhm4r1ry)" height="30.2969" style="stroke:#A80036;stroke-width:1.5;" width="63" x="1177.5" y="53"/><text fill="#000000" font-family="sans-serif" font-size="14" lengthAdjust="spacing" textLength="49" x="1184.5" y="72.9951">:US304</text><rect fill="#FEFECE" filter="url(#felf4bhm4r1ry)" height="30.2969" style="stroke:#A80036;stroke-width:1.5;" width="63" x="1177.5" y="411.625"/><text fill="#000000" font-family="sans-serif" font-size="14" lengthAdjust="spacing" textLength="49" x="1184.5" y="431.6201">:US304</text><rect fill="#FEFECE" filter="url(#felf4bhm4r1ry)" height="30.2969" style="stroke:#A80036;stroke-width:1.5;" width="117" x="1348.5" y="53"/><text fill="#000000" font-family="sans-serif" font-size="14" lengthAdjust="spacing" textLength="103" x="1355.5" y="72.9951">:FileOperation</text><rect fill="#FEFECE" filter="url(#felf4bhm4r1ry)" height="30.2969" style="stroke:#A80036;stroke-width:1.5;" width="117" x="1348.5" y="411.625"/><text fill="#000000" font-family="sans-serif" font-size="14" lengthAdjust="spacing" textLength="103" x="1355.5" y="431.6201">:FileOperation</text><rect fill="#FFFFFF" filter="url(#felf4bhm4r1ry)" height="296.3281" style="stroke:#A80036;stroke-width:1.0;" width="10" x="49" y="98.2969"/><rect fill="#FFFFFF" filter="url(#felf4bhm4r1ry)" height="29.1328" style="stroke:#A80036;stroke-width:1.0;" width="10" x="804" y="119.4297"/><rect fill="#FFFFFF" filter="url(#felf4bhm4r1ry)" height="216.9297" style="stroke:#A80036;stroke-width:1.0;" width="10" x="804" y="177.6953"/><rect fill="#FFFFFF" filter="url(#felf4bhm4r1ry)" height="187.7969" style="stroke:#A80036;stroke-width:1.0;" width="10" x="949" y="206.8281"/><rect fill="#FFFFFF" filter="url(#felf4bhm4r1ry)" height="71.2656" style="stroke:#A80036;stroke-width:1.0;" width="10" x="1206" y="235.9609"/><rect fill="#FFFFFF" filter="url(#felf4bhm4r1ry)" height="29.1328" style="stroke:#A80036;stroke-width:1.0;" width="10" x="1404" y="307.2266"/><polygon fill="#A80036" points="792,115.4297,802,119.4297,792,123.4297,796,119.4297" style="stroke:#A80036;stroke-width:1.0;"/><line style="stroke:#A80036;stroke-width:1.0;" x1="59" x2="798" y1="119.4297" y2="119.4297"/><text fill="#000000" font-family="sans-serif" font-size="13" font-weight="bold" lengthAdjust="spacing" textLength="9" x="66" y="114.3638">1</text><text fill="#000000" font-family="sans-serif" font-size="13" lengthAdjust="spacing" textLength="713" x="79" y="114.3638">wish to  have access to audit trails for a given container and to a list of all operations performed on a container</text><polygon fill="#A80036" points="70,144.5625,60,148.5625,70,152.5625,66,148.5625" style="stroke:#A80036;stroke-width:1.0;"/><line style="stroke:#A80036;stroke-width:1.0;stroke-dasharray:2.0,2.0;" x1="64" x2="808" y1="148.5625" y2="148.5625"/><text fill="#000000" font-family="sans-serif" font-size="13" font-weight="bold" lengthAdjust="spacing" textLength="9" x="76" y="143.4966">2</text><text fill="#000000" font-family="sans-serif" font-size="13" lengthAdjust="spacing" textLength="171" x="89" y="143.4966">request the data to search</text><polygon fill="#A80036" points="792,173.6953,802,177.6953,792,181.6953,796,177.6953" style="stroke:#A80036;stroke-width:1.0;"/><line style="stroke:#A80036;stroke-width:1.0;" x1="59" x2="798" y1="177.6953" y2="177.6953"/><text fill="#000000" font-family="sans-serif" font-size="13" font-weight="bold" lengthAdjust="spacing" textLength="8" x="66" y="172.6294">3</text><text fill="#000000" font-family="sans-serif" font-size="13" lengthAdjust="spacing" textLength="399" x="78" y="172.6294">types the container identifier and the cargo manifest identifier</text><polygon fill="#A80036" points="937,202.8281,947,206.8281,937,210.8281,941,206.8281" style="stroke:#A80036;stroke-width:1.0;"/><line style="stroke:#A80036;stroke-width:1.0;" x1="814" x2="943" y1="206.8281" y2="206.8281"/><text fill="#000000" font-family="sans-serif" font-size="13" font-weight="bold" lengthAdjust="spacing" textLength="9" x="821" y="201.7622">4</text><text fill="#000000" font-family="sans-serif" font-size="13" lengthAdjust="spacing" textLength="82" x="834" y="201.7622">createUS304</text><polygon fill="#A80036" points="1194,231.9609,1204,235.9609,1194,239.9609,1198,235.9609" style="stroke:#A80036;stroke-width:1.0;"/><line style="stroke:#A80036;stroke-width:1.0;" x1="959" x2="1200" y1="235.9609" y2="235.9609"/><text fill="#000000" font-family="sans-serif" font-size="13" font-weight="bold" lengthAdjust="spacing" textLength="9" x="966" y="230.895">5</text><text fill="#000000" font-family="sans-serif" font-size="13" lengthAdjust="spacing" textLength="215" x="979" y="230.895">demo(container, cargo_manifest)</text><line style="stroke:#A80036;stroke-width:1.0;" x1="1216" x2="1258" y1="265.0938" y2="265.0938"/><line style="stroke:#A80036;stroke-width:1.0;" x1="1258" x2="1258" y1="265.0938" y2="278.0938"/><line style="stroke:#A80036;stroke-width:1.0;" x1="1217" x2="1258" y1="278.0938" y2="278.0938"/><polygon fill="#A80036" points="1227,274.0938,1217,278.0938,1227,282.0938,1223,278.0938" style="stroke:#A80036;stroke-width:1.0;"/><text fill="#000000" font-family="sans-serif" font-size="13" font-weight="bold" lengthAdjust="spacing" textLength="9" x="1223" y="260.0278">6</text><text fill="#000000" font-family="sans-serif" font-size="13" lengthAdjust="spacing" textLength="51" x="1236" y="260.0278">initialize</text><polygon fill="#A80036" points="1392,303.2266,1402,307.2266,1392,311.2266,1396,307.2266" style="stroke:#A80036;stroke-width:1.0;"/><line style="stroke:#A80036;stroke-width:1.0;" x1="1211" x2="1398" y1="307.2266" y2="307.2266"/><text fill="#000000" font-family="sans-serif" font-size="13" font-weight="bold" lengthAdjust="spacing" textLength="9" x="1218" y="302.1606">7</text><text fill="#000000" font-family="sans-serif" font-size="13" lengthAdjust="spacing" textLength="156" x="1231" y="302.1606">WriteToAFile(path, data)</text><polygon fill="#A80036" points="970,332.3594,960,336.3594,970,340.3594,966,336.3594" style="stroke:#A80036;stroke-width:1.0;"/><line style="stroke:#A80036;stroke-width:1.0;stroke-dasharray:2.0,2.0;" x1="964" x2="1408" y1="336.3594" y2="336.3594"/><text fill="#000000" font-family="sans-serif" font-size="13" font-weight="bold" lengthAdjust="spacing" textLength="9" x="976" y="331.2935">8</text><text fill="#000000" font-family="sans-serif" font-size="13" lengthAdjust="spacing" textLength="19" x="989" y="331.2935">file</text><polygon fill="#A80036" points="825,361.4922,815,365.4922,825,369.4922,821,365.4922" style="stroke:#A80036;stroke-width:1.0;"/><line style="stroke:#A80036;stroke-width:1.0;stroke-dasharray:2.0,2.0;" x1="819" x2="948" y1="365.4922" y2="365.4922"/><text fill="#000000" font-family="sans-serif" font-size="13" font-weight="bold" lengthAdjust="spacing" textLength="9" x="831" y="360.4263">9</text><text fill="#000000" font-family="sans-serif" font-size="13" lengthAdjust="spacing" textLength="19" x="844" y="360.4263">file</text><polygon fill="#A80036" points="65,390.625,55,394.625,65,398.625,61,394.625" style="stroke:#A80036;stroke-width:1.0;"/><line style="stroke:#A80036;stroke-width:1.0;stroke-dasharray:2.0,2.0;" x1="59" x2="808" y1="394.625" y2="394.625"/><text fill="#000000" font-family="sans-serif" font-size="13" font-weight="bold" lengthAdjust="spacing" textLength="19" x="71" y="389.5591">10</text><text fill="#000000" font-family="sans-serif" font-size="13" lengthAdjust="spacing" textLength="168" x="94" y="389.5591">shows the requested data</text><!--MD5=[8c0dcf98c2e0b0017959a9e917a40282]
@startuml
actor "Ship Captain" as Adm
participant ":AuditTrailUI" as System
participant ":AuditTrailController" as SSC
participant ":US304" as us
participant ":FileOperation" as f

autonumber

activate Adm

Adm -> System: wish to  have access to audit trails for a given container and to a list of all operations performed on a container

activate System

System - -> Adm: request the data to search

deactivate System

Adm -> System: types the container identifier and the cargo manifest identifier

activate System

System -> SSC: createUS304

activate SSC

SSC -> us: demo(container, cargo_manifest)

activate us

us -> us: initialize

us -> f: WriteToAFile(path, data)

deactivate us

activate f

f - -> SSC: file

deactivate f

SSC - -> System: file

System - -> Adm: shows the requested data

deactivate SSC

deactivate System

deactivate Adm
@enduml

PlantUML version 1.2021.17beta6(Unknown compile time)
(GPL source distribution)
Java Runtime: Java(TM) SE Runtime Environment
JVM: Java HotSpot(TM) 64-Bit Server VM
Default Encoding: UTF-8
Language: en
Country: US
--></g></svg>