<?xml version="1.0" encoding="UTF-8" standalone="no"?><svg xmlns="http://www.w3.org/2000/svg" xmlns:xlink="http://www.w3.org/1999/xlink" contentScriptType="application/ecmascript" contentStyleType="text/css" height="750px" preserveAspectRatio="none" style="width:968px;height:750px;" version="1.1" viewBox="0 0 968 750" width="968.75px" zoomAndPan="magnify"><defs><filter height="300%" id="f164c4belyq2eb" width="300%" x="-1" y="-1"><feGaussianBlur result="blurOut" stdDeviation="2.5"/><feColorMatrix in="blurOut" result="blurOut2" type="matrix" values="0 0 0 0 0 0 0 0 0 0 0 0 0 0 0 0 0 0 .4 0"/><feOffset dx="5.0" dy="5.0" in="blurOut2" result="blurOut3"/><feBlend in="SourceGraphic" in2="blurOut3" mode="normal"/></filter></defs><g><!--MD5=[0969aeefca68a500c86850d620dd2bd0]
class ClosenessPlaceController--><rect fill="#FEFECE" filter="url(#f164c4belyq2eb)" height="77.2949" id="ClosenessPlaceController" style="stroke:#A80036;stroke-width:1.875;" width="242.5" x="438.125" y="8.75"/><ellipse cx="465.875" cy="28.75" fill="#ADD1B2" rx="13.75" ry="13.75" style="stroke:#A80036;stroke-width:1.25;"/><path d="M468.375,24.375 Q468.6289,23.75 468.9219,23.4375 Q469.2148,23.125 469.5469,23.125 Q470.1328,23.125 470.5039,23.4766 Q470.875,23.8281 470.875,24.6484 L470.875,26.6016 Q470.875,27.4219 470.5234,27.7734 Q470.1719,28.125 469.625,28.125 Q469.1367,28.125 468.8242,27.9102 Q468.5117,27.6953 468.375,27.1289 Q468.3164,26.7383 468.1016,26.5234 Q467.7109,26.1133 467.0078,25.8789 Q466.3047,25.625 465.6016,25.625 Q464.7227,25.625 463.9805,25.9766 Q463.2578,26.3281 462.6914,27.1094 Q462.125,27.8906 462.125,28.9648 L462.125,30.1172 Q462.125,31.4063 463.1797,32.2656 Q464.2344,33.125 466.1094,33.125 Q467.2227,33.125 468.0039,32.8711 Q468.4531,32.7344 468.9609,32.2852 Q469.293,32.0313 469.4688,31.9531 Q469.6445,31.875 469.8594,31.875 Q470.2695,31.875 470.5625,32.207 Q470.875,32.5195 470.875,32.9688 Q470.875,33.3984 470.4453,33.9063 Q469.8203,34.6484 468.8242,35.0586 Q467.5156,35.625 465.9141,35.625 Q464.0391,35.625 462.5352,34.8828 Q461.3242,34.2969 460.4648,33.0273 Q459.625,31.7578 459.625,30.2539 L459.625,28.8867 Q459.625,27.3242 460.3672,25.957 Q461.1289,24.5898 462.4375,23.8672 Q463.7656,23.125 465.25,23.125 Q466.1484,23.125 466.9297,23.4375 Q467.7109,23.75 468.375,24.375 Z " fill="#000000"/><text fill="#000000" font-family="sans-serif" font-size="15" lengthAdjust="spacing" textLength="182.5" x="485.375" y="34.8877">ClosenessPlaceController</text><line style="stroke:#A80036;stroke-width:1.875;" x1="439.375" x2="679.375" y1="48.75" y2="48.75"/><line style="stroke:#A80036;stroke-width:1.875;" x1="439.375" x2="679.375" y1="58.75" y2="58.75"/><ellipse cx="451.875" cy="72.5" fill="#84BE84" rx="3.75" ry="3.75" style="stroke:#038048;stroke-width:1.25;"/><text fill="#000000" font-family="sans-serif" font-size="13.75" lengthAdjust="spacing" textLength="210" x="463.125" y="78.0237">closenessPlacesByContinent(int n)</text><!--MD5=[b7b072196a724e538165319251b4d539]
class MatrixGraph--><rect fill="#FEFECE" filter="url(#f164c4belyq2eb)" height="181.0645" id="MatrixGraph" style="stroke:#A80036;stroke-width:1.875;" width="248.75" x="531.25" y="161.25"/><ellipse cx="609.6875" cy="181.25" fill="#ADD1B2" rx="13.75" ry="13.75" style="stroke:#A80036;stroke-width:1.25;"/><path d="M612.1875,176.875 Q612.4414,176.25 612.7344,175.9375 Q613.0273,175.625 613.3594,175.625 Q613.9453,175.625 614.3164,175.9766 Q614.6875,176.3281 614.6875,177.1484 L614.6875,179.1016 Q614.6875,179.9219 614.3359,180.2734 Q613.9844,180.625 613.4375,180.625 Q612.9492,180.625 612.6367,180.4102 Q612.3242,180.1953 612.1875,179.6289 Q612.1289,179.2383 611.9141,179.0234 Q611.5234,178.6133 610.8203,178.3789 Q610.1172,178.125 609.4141,178.125 Q608.5352,178.125 607.793,178.4766 Q607.0703,178.8281 606.5039,179.6094 Q605.9375,180.3906 605.9375,181.4648 L605.9375,182.6172 Q605.9375,183.9063 606.9922,184.7656 Q608.0469,185.625 609.9219,185.625 Q611.0352,185.625 611.8164,185.3711 Q612.2656,185.2344 612.7734,184.7852 Q613.1055,184.5313 613.2813,184.4531 Q613.457,184.375 613.6719,184.375 Q614.082,184.375 614.375,184.707 Q614.6875,185.0195 614.6875,185.4688 Q614.6875,185.8984 614.2578,186.4063 Q613.6328,187.1484 612.6367,187.5586 Q611.3281,188.125 609.7266,188.125 Q607.8516,188.125 606.3477,187.3828 Q605.1367,186.7969 604.2773,185.5273 Q603.4375,184.2578 603.4375,182.7539 L603.4375,181.3867 Q603.4375,179.8242 604.1797,178.457 Q604.9414,177.0898 606.25,176.3672 Q607.5781,175.625 609.0625,175.625 Q609.9609,175.625 610.7422,175.9375 Q611.5234,176.25 612.1875,176.875 Z " fill="#000000"/><text fill="#000000" font-family="sans-serif" font-size="15" lengthAdjust="spacing" textLength="81.25" x="635.3125" y="187.3877">MatrixGraph</text><line style="stroke:#A80036;stroke-width:1.875;" x1="532.5" x2="778.75" y1="201.25" y2="201.25"/><rect fill="none" height="7.5" style="stroke:#C82930;stroke-width:1.25;" width="7.5" x="541.25" y="211.25"/><text fill="#000000" font-family="sans-serif" font-size="13.75" lengthAdjust="spacing" textLength="110" x="556.25" y="220.5237">GraphElement orig</text><rect fill="none" height="7.5" style="stroke:#C82930;stroke-width:1.25;" width="7.5" x="541.25" y="228.5449"/><text fill="#000000" font-family="sans-serif" font-size="13.75" lengthAdjust="spacing" textLength="113.75" x="556.25" y="237.8186">GraphElement dest</text><rect fill="none" height="7.5" style="stroke:#C82930;stroke-width:1.25;" width="7.5" x="541.25" y="245.8398"/><text fill="#000000" font-family="sans-serif" font-size="13.75" lengthAdjust="spacing" textLength="95" x="556.25" y="255.1135">double distance</text><rect fill="none" height="7.5" style="stroke:#C82930;stroke-width:1.25;" width="7.5" x="541.25" y="263.1348"/><text fill="#000000" font-family="sans-serif" font-size="13.75" lengthAdjust="spacing" textLength="125" x="556.25" y="272.4084">Edge&lt;V,E&gt; [][] matrix</text><line style="stroke:#A80036;stroke-width:1.875;" x1="532.5" x2="778.75" y1="280.4297" y2="280.4297"/><ellipse cx="545" cy="294.1797" fill="#84BE84" rx="3.75" ry="3.75" style="stroke:#038048;stroke-width:1.25;"/><text fill="#000000" font-family="sans-serif" font-size="13.75" lengthAdjust="spacing" textLength="111.25" x="556.25" y="299.7034">transitiveClosure()</text><ellipse cx="545" cy="311.4746" fill="#84BE84" rx="3.75" ry="3.75" style="stroke:#038048;stroke-width:1.25;"/><text fill="#000000" font-family="sans-serif" font-size="13.75" lengthAdjust="spacing" textLength="211.25" x="556.25" y="316.9983">shortestPath(Edge&lt;V, E&gt;[][] matrix)</text><ellipse cx="545" cy="328.7695" fill="#84BE84" rx="3.75" ry="3.75" style="stroke:#038048;stroke-width:1.25;"/><text fill="#000000" font-family="sans-serif" font-size="13.75" lengthAdjust="spacing" textLength="216.25" x="556.25" y="334.2932">addEdge(V orig, V dest, E distance)</text><!--MD5=[02e4b9b7573f1156f41e60aa5b4e25a4]
class Company--><rect fill="#FEFECE" filter="url(#f164c4belyq2eb)" height="94.5898" id="Company" style="stroke:#A80036;stroke-width:1.875;" width="190" x="208.125" y="204.375"/><ellipse cx="264.6875" cy="224.375" fill="#ADD1B2" rx="13.75" ry="13.75" style="stroke:#A80036;stroke-width:1.25;"/><path d="M267.1875,220 Q267.4414,219.375 267.7344,219.0625 Q268.0273,218.75 268.3594,218.75 Q268.9453,218.75 269.3164,219.1016 Q269.6875,219.4531 269.6875,220.2734 L269.6875,222.2266 Q269.6875,223.0469 269.3359,223.3984 Q268.9844,223.75 268.4375,223.75 Q267.9492,223.75 267.6367,223.5352 Q267.3242,223.3203 267.1875,222.7539 Q267.1289,222.3633 266.9141,222.1484 Q266.5234,221.7383 265.8203,221.5039 Q265.1172,221.25 264.4141,221.25 Q263.5352,221.25 262.793,221.6016 Q262.0703,221.9531 261.5039,222.7344 Q260.9375,223.5156 260.9375,224.5898 L260.9375,225.7422 Q260.9375,227.0313 261.9922,227.8906 Q263.0469,228.75 264.9219,228.75 Q266.0352,228.75 266.8164,228.4961 Q267.2656,228.3594 267.7734,227.9102 Q268.1055,227.6563 268.2813,227.5781 Q268.457,227.5 268.6719,227.5 Q269.082,227.5 269.375,227.832 Q269.6875,228.1445 269.6875,228.5938 Q269.6875,229.0234 269.2578,229.5313 Q268.6328,230.2734 267.6367,230.6836 Q266.3281,231.25 264.7266,231.25 Q262.8516,231.25 261.3477,230.5078 Q260.1367,229.9219 259.2773,228.6523 Q258.4375,227.3828 258.4375,225.8789 L258.4375,224.5117 Q258.4375,222.9492 259.1797,221.582 Q259.9414,220.2148 261.25,219.4922 Q262.5781,218.75 264.0625,218.75 Q264.9609,218.75 265.7422,219.0625 Q266.5234,219.375 267.1875,220 Z " fill="#000000"/><text fill="#000000" font-family="sans-serif" font-size="15" lengthAdjust="spacing" textLength="66.25" x="290.3125" y="230.5127">Company</text><line style="stroke:#A80036;stroke-width:1.875;" x1="209.375" x2="396.875" y1="244.375" y2="244.375"/><line style="stroke:#A80036;stroke-width:1.875;" x1="209.375" x2="396.875" y1="254.375" y2="254.375"/><ellipse cx="221.875" cy="268.125" fill="#84BE84" rx="3.75" ry="3.75" style="stroke:#038048;stroke-width:1.25;"/><text fill="#000000" font-family="sans-serif" font-size="13.75" lengthAdjust="spacing" textLength="157.5" x="233.125" y="273.6487">getClosenessPlaceStore()</text><ellipse cx="221.875" cy="285.4199" fill="#84BE84" rx="3.75" ry="3.75" style="stroke:#038048;stroke-width:1.25;"/><text fill="#000000" font-family="sans-serif" font-size="13.75" lengthAdjust="spacing" textLength="108.75" x="233.125" y="290.9436">getCountryStore()</text><!--MD5=[428a4da6b95ae931efca92fecadf4560]
class ClosenessPlacesStore--><rect fill="#FEFECE" filter="url(#f164c4belyq2eb)" height="94.5898" id="ClosenessPlacesStore" style="stroke:#A80036;stroke-width:1.875;" width="291.25" x="318.75" y="434.375"/><ellipse cx="379.0625" cy="454.375" fill="#ADD1B2" rx="13.75" ry="13.75" style="stroke:#A80036;stroke-width:1.25;"/><path d="M381.5625,450 Q381.8164,449.375 382.1094,449.0625 Q382.4023,448.75 382.7344,448.75 Q383.3203,448.75 383.6914,449.1016 Q384.0625,449.4531 384.0625,450.2734 L384.0625,452.2266 Q384.0625,453.0469 383.7109,453.3984 Q383.3594,453.75 382.8125,453.75 Q382.3242,453.75 382.0117,453.5352 Q381.6992,453.3203 381.5625,452.7539 Q381.5039,452.3633 381.2891,452.1484 Q380.8984,451.7383 380.1953,451.5039 Q379.4922,451.25 378.7891,451.25 Q377.9102,451.25 377.168,451.6016 Q376.4453,451.9531 375.8789,452.7344 Q375.3125,453.5156 375.3125,454.5898 L375.3125,455.7422 Q375.3125,457.0313 376.3672,457.8906 Q377.4219,458.75 379.2969,458.75 Q380.4102,458.75 381.1914,458.4961 Q381.6406,458.3594 382.1484,457.9102 Q382.4805,457.6563 382.6563,457.5781 Q382.832,457.5 383.0469,457.5 Q383.457,457.5 383.75,457.832 Q384.0625,458.1445 384.0625,458.5938 Q384.0625,459.0234 383.6328,459.5313 Q383.0078,460.2734 382.0117,460.6836 Q380.7031,461.25 379.1016,461.25 Q377.2266,461.25 375.7227,460.5078 Q374.5117,459.9219 373.6523,458.6523 Q372.8125,457.3828 372.8125,455.8789 L372.8125,454.5117 Q372.8125,452.9492 373.5547,451.582 Q374.3164,450.2148 375.625,449.4922 Q376.9531,448.75 378.4375,448.75 Q379.3359,448.75 380.1172,449.0625 Q380.8984,449.375 381.5625,450 Z " fill="#000000"/><text fill="#000000" font-family="sans-serif" font-size="15" lengthAdjust="spacing" textLength="160" x="404.6875" y="460.5127">ClosenessPlacesStore</text><line style="stroke:#A80036;stroke-width:1.875;" x1="320" x2="608.75" y1="474.375" y2="474.375"/><line style="stroke:#A80036;stroke-width:1.875;" x1="320" x2="608.75" y1="484.375" y2="484.375"/><ellipse cx="332.5" cy="498.125" fill="#84BE84" rx="3.75" ry="3.75" style="stroke:#038048;stroke-width:1.25;"/><text fill="#000000" font-family="sans-serif" font-size="13.75" lengthAdjust="spacing" textLength="165" x="343.75" y="503.6487">getClosenessPlacesStore()</text><ellipse cx="332.5" cy="515.4199" fill="#84BE84" rx="3.75" ry="3.75" style="stroke:#038048;stroke-width:1.25;"/><text fill="#000000" font-family="sans-serif" font-size="13.75" lengthAdjust="spacing" textLength="258.75" x="343.75" y="520.9436">addClosenessPlaces(ClosenessPlaces cp)</text><!--MD5=[1fa23e875f7ea39406cc4f0fd95e1dab]
class CountryStore--><rect fill="#FEFECE" filter="url(#f164c4belyq2eb)" height="94.5898" id="CountryStore" style="stroke:#A80036;stroke-width:1.875;" width="266.25" x="8.75" y="434.375"/><ellipse cx="92.1875" cy="454.375" fill="#ADD1B2" rx="13.75" ry="13.75" style="stroke:#A80036;stroke-width:1.25;"/><path d="M94.6875,450 Q94.9414,449.375 95.2344,449.0625 Q95.5273,448.75 95.8594,448.75 Q96.4453,448.75 96.8164,449.1016 Q97.1875,449.4531 97.1875,450.2734 L97.1875,452.2266 Q97.1875,453.0469 96.8359,453.3984 Q96.4844,453.75 95.9375,453.75 Q95.4492,453.75 95.1367,453.5352 Q94.8242,453.3203 94.6875,452.7539 Q94.6289,452.3633 94.4141,452.1484 Q94.0234,451.7383 93.3203,451.5039 Q92.6172,451.25 91.9141,451.25 Q91.0352,451.25 90.293,451.6016 Q89.5703,451.9531 89.0039,452.7344 Q88.4375,453.5156 88.4375,454.5898 L88.4375,455.7422 Q88.4375,457.0313 89.4922,457.8906 Q90.5469,458.75 92.4219,458.75 Q93.5352,458.75 94.3164,458.4961 Q94.7656,458.3594 95.2734,457.9102 Q95.6055,457.6563 95.7813,457.5781 Q95.957,457.5 96.1719,457.5 Q96.582,457.5 96.875,457.832 Q97.1875,458.1445 97.1875,458.5938 Q97.1875,459.0234 96.7578,459.5313 Q96.1328,460.2734 95.1367,460.6836 Q93.8281,461.25 92.2266,461.25 Q90.3516,461.25 88.8477,460.5078 Q87.6367,459.9219 86.7773,458.6523 Q85.9375,457.3828 85.9375,455.8789 L85.9375,454.5117 Q85.9375,452.9492 86.6797,451.582 Q87.4414,450.2148 88.75,449.4922 Q90.0781,448.75 91.5625,448.75 Q92.4609,448.75 93.2422,449.0625 Q94.0234,449.375 94.6875,450 Z " fill="#000000"/><text fill="#000000" font-family="sans-serif" font-size="15" lengthAdjust="spacing" textLength="88.75" x="117.8125" y="460.5127">CountryStore</text><line style="stroke:#A80036;stroke-width:1.875;" x1="10" x2="273.75" y1="474.375" y2="474.375"/><line style="stroke:#A80036;stroke-width:1.875;" x1="10" x2="273.75" y1="484.375" y2="484.375"/><ellipse cx="22.5" cy="498.125" fill="#84BE84" rx="3.75" ry="3.75" style="stroke:#038048;stroke-width:1.25;"/><text fill="#000000" font-family="sans-serif" font-size="13.75" lengthAdjust="spacing" textLength="108.75" x="33.75" y="503.6487">getCountryStore()</text><ellipse cx="22.5" cy="515.4199" fill="#84BE84" rx="3.75" ry="3.75" style="stroke:#038048;stroke-width:1.25;"/><text fill="#000000" font-family="sans-serif" font-size="13.75" lengthAdjust="spacing" textLength="233.75" x="33.75" y="520.9436">getContinentByCountry(String country)</text><!--MD5=[2e2f8c8f62c4eb3bc59a59727cfd81a5]
class Edge--><rect fill="#FEFECE" filter="url(#f164c4belyq2eb)" height="129.1797" id="Edge" style="stroke:#A80036;stroke-width:1.875;" width="165" x="743.125" y="417.5"/><ellipse cx="802.1875" cy="437.5" fill="#ADD1B2" rx="13.75" ry="13.75" style="stroke:#A80036;stroke-width:1.25;"/><path d="M804.6875,433.125 Q804.9414,432.5 805.2344,432.1875 Q805.5273,431.875 805.8594,431.875 Q806.4453,431.875 806.8164,432.2266 Q807.1875,432.5781 807.1875,433.3984 L807.1875,435.3516 Q807.1875,436.1719 806.8359,436.5234 Q806.4844,436.875 805.9375,436.875 Q805.4492,436.875 805.1367,436.6602 Q804.8242,436.4453 804.6875,435.8789 Q804.6289,435.4883 804.4141,435.2734 Q804.0234,434.8633 803.3203,434.6289 Q802.6172,434.375 801.9141,434.375 Q801.0352,434.375 800.293,434.7266 Q799.5703,435.0781 799.0039,435.8594 Q798.4375,436.6406 798.4375,437.7148 L798.4375,438.8672 Q798.4375,440.1563 799.4922,441.0156 Q800.5469,441.875 802.4219,441.875 Q803.5352,441.875 804.3164,441.6211 Q804.7656,441.4844 805.2734,441.0352 Q805.6055,440.7813 805.7813,440.7031 Q805.957,440.625 806.1719,440.625 Q806.582,440.625 806.875,440.957 Q807.1875,441.2695 807.1875,441.7188 Q807.1875,442.1484 806.7578,442.6563 Q806.1328,443.3984 805.1367,443.8086 Q803.8281,444.375 802.2266,444.375 Q800.3516,444.375 798.8477,443.6328 Q797.6367,443.0469 796.7773,441.7773 Q795.9375,440.5078 795.9375,439.0039 L795.9375,437.6367 Q795.9375,436.0742 796.6797,434.707 Q797.4414,433.3398 798.75,432.6172 Q800.0781,431.875 801.5625,431.875 Q802.4609,431.875 803.2422,432.1875 Q804.0234,432.5 804.6875,433.125 Z " fill="#000000"/><text fill="#000000" font-family="sans-serif" font-size="15" lengthAdjust="spacing" textLength="36.25" x="827.8125" y="443.6377">Edge</text><line style="stroke:#A80036;stroke-width:1.875;" x1="744.375" x2="906.875" y1="457.5" y2="457.5"/><line style="stroke:#A80036;stroke-width:1.875;" x1="744.375" x2="906.875" y1="467.5" y2="467.5"/><ellipse cx="756.875" cy="481.25" fill="#84BE84" rx="3.75" ry="3.75" style="stroke:#038048;stroke-width:1.25;"/><text fill="#000000" font-family="sans-serif" font-size="13.75" lengthAdjust="spacing" textLength="63.75" x="768.125" y="486.7737">getVOrig()</text><ellipse cx="756.875" cy="498.5449" fill="#84BE84" rx="3.75" ry="3.75" style="stroke:#038048;stroke-width:1.25;"/><text fill="#000000" font-family="sans-serif" font-size="13.75" lengthAdjust="spacing" textLength="66.25" x="768.125" y="504.0686">getVDest()</text><ellipse cx="756.875" cy="515.8398" fill="#84BE84" rx="3.75" ry="3.75" style="stroke:#038048;stroke-width:1.25;"/><text fill="#000000" font-family="sans-serif" font-size="13.75" lengthAdjust="spacing" textLength="81.25" x="768.125" y="521.3635">getDistance()</text><ellipse cx="756.875" cy="533.1348" fill="#84BE84" rx="3.75" ry="3.75" style="stroke:#038048;stroke-width:1.25;"/><text fill="#000000" font-family="sans-serif" font-size="13.75" lengthAdjust="spacing" textLength="132.5" x="768.125" y="538.6584">setDistance(distance)</text><!--MD5=[70475bdc0770c35ec8228dfcde042832]
class ClosenessPlaces--><rect fill="#FEFECE" filter="url(#f164c4belyq2eb)" height="111.8848" id="ClosenessPlaces" style="stroke:#A80036;stroke-width:1.875;" width="163.75" x="595" y="621.25"/><ellipse cx="613.75" cy="641.25" fill="#ADD1B2" rx="13.75" ry="13.75" style="stroke:#A80036;stroke-width:1.25;"/><path d="M616.25,636.875 Q616.5039,636.25 616.7969,635.9375 Q617.0898,635.625 617.4219,635.625 Q618.0078,635.625 618.3789,635.9766 Q618.75,636.3281 618.75,637.1484 L618.75,639.1016 Q618.75,639.9219 618.3984,640.2734 Q618.0469,640.625 617.5,640.625 Q617.0117,640.625 616.6992,640.4102 Q616.3867,640.1953 616.25,639.6289 Q616.1914,639.2383 615.9766,639.0234 Q615.5859,638.6133 614.8828,638.3789 Q614.1797,638.125 613.4766,638.125 Q612.5977,638.125 611.8555,638.4766 Q611.1328,638.8281 610.5664,639.6094 Q610,640.3906 610,641.4648 L610,642.6172 Q610,643.9063 611.0547,644.7656 Q612.1094,645.625 613.9844,645.625 Q615.0977,645.625 615.8789,645.3711 Q616.3281,645.2344 616.8359,644.7852 Q617.168,644.5313 617.3438,644.4531 Q617.5195,644.375 617.7344,644.375 Q618.1445,644.375 618.4375,644.707 Q618.75,645.0195 618.75,645.4688 Q618.75,645.8984 618.3203,646.4063 Q617.6953,647.1484 616.6992,647.5586 Q615.3906,648.125 613.7891,648.125 Q611.9141,648.125 610.4102,647.3828 Q609.1992,646.7969 608.3398,645.5273 Q607.5,644.2578 607.5,642.7539 L607.5,641.3867 Q607.5,639.8242 608.2422,638.457 Q609.0039,637.0898 610.3125,636.3672 Q611.6406,635.625 613.125,635.625 Q614.0234,635.625 614.8047,635.9375 Q615.5859,636.25 616.25,636.875 Z " fill="#000000"/><text fill="#000000" font-family="sans-serif" font-size="15" lengthAdjust="spacing" textLength="123.75" x="631.25" y="647.3877">ClosenessPlaces</text><line style="stroke:#A80036;stroke-width:1.875;" x1="596.25" x2="757.5" y1="661.25" y2="661.25"/><rect fill="none" height="7.5" style="stroke:#C82930;stroke-width:1.25;" width="7.5" x="605" y="671.25"/><text fill="#000000" font-family="sans-serif" font-size="13.75" lengthAdjust="spacing" textLength="71.25" x="620" y="680.5237">String place</text><rect fill="none" height="7.5" style="stroke:#C82930;stroke-width:1.25;" width="7.5" x="605" y="688.5449"/><text fill="#000000" font-family="sans-serif" font-size="13.75" lengthAdjust="spacing" textLength="85" x="620" y="697.8186">String country</text><rect fill="none" height="7.5" style="stroke:#C82930;stroke-width:1.25;" width="7.5" x="605" y="705.8398"/><text fill="#000000" font-family="sans-serif" font-size="13.75" lengthAdjust="spacing" textLength="95" x="620" y="715.1135">double distance</text><line style="stroke:#A80036;stroke-width:1.875;" x1="596.25" x2="757.5" y1="723.1348" y2="723.1348"/><!--MD5=[8391d92a1f50cf8af5e69f6dc833645b]
link ClosenessPlaceController to MatrixGraph--><path codeLine="4" d="M577.475,86.725 C586.7125,106.1 598.4125,130.625 609.9125,154.7625 " fill="none" id="ClosenessPlaceController-to-MatrixGraph" style="stroke:#A80036;stroke-width:1.25;stroke-dasharray:7.0,7.0;"/><polygon fill="#A80036" points="612.8375,160.8875,612.4984,148.5811,610.1428,155.2483,603.4756,152.8926,612.8375,160.8875" style="stroke:#A80036;stroke-width:1.25;"/><!--MD5=[b7382533ad5cb23cb5821e973e332f5a]
link ClosenessPlaceController to Company--><path codeLine="5" d="M511.175,86.725 C470.5,118.775 411.9125,164.9125 367.275,200.0875 " fill="none" id="ClosenessPlaceController-to-Company" style="stroke:#A80036;stroke-width:1.25;stroke-dasharray:7.0,7.0;"/><polygon fill="#A80036" points="361.9,204.3125,373.8357,201.2955,366.8151,200.4519,367.6587,193.4313,361.9,204.3125" style="stroke:#A80036;stroke-width:1.25;"/><!--MD5=[b7889d90a897f260009e76a6988f7237]
link Company to ClosenessPlacesStore--><path codeLine="6" d="M336.15,299.7125 C362.775,337.2875 400.2,390.0875 427.75,428.95 " fill="none" id="Company-to-ClosenessPlacesStore" style="stroke:#A80036;stroke-width:1.25;stroke-dasharray:7.0,7.0;"/><polygon fill="#A80036" points="431.4,434.1,428.9938,422.0264,427.7943,428.9949,420.8257,427.7954,431.4,434.1" style="stroke:#A80036;stroke-width:1.25;"/><!--MD5=[3e62267ed92cd658fcc6f008fe587857]
link Company to CountryStore--><path codeLine="7" d="M270.1,299.7125 C243.475,337.2875 206.05,390.0875 178.5,428.95 " fill="none" id="Company-to-CountryStore" style="stroke:#A80036;stroke-width:1.25;stroke-dasharray:7.0,7.0;"/><polygon fill="#A80036" points="174.85,434.1,185.4243,427.7954,178.4557,428.9949,177.2562,422.0264,174.85,434.1" style="stroke:#A80036;stroke-width:1.25;"/><!--MD5=[5f68c21c0178477830b7f113d1614105]
link ClosenessPlaceController to Edge--><path codeLine="8" d="M680.85,76.9875 C726.175,93.8125 773.4875,120.225 801.875,161.25 C852.7,234.7 849.0875,341.7375 839.35,411.2875 " fill="none" id="ClosenessPlaceController-to-Edge" style="stroke:#A80036;stroke-width:1.25;stroke-dasharray:7.0,7.0;"/><polygon fill="#A80036" points="838.45,417.475,845.0076,407.0558,839.3439,411.2893,835.1104,405.6255,838.45,417.475" style="stroke:#A80036;stroke-width:1.25;"/><!--MD5=[4da284cddca012885ce2593e29486f97]
link ClosenessPlaceController to ClosenessPlacesStore--><path codeLine="9" d="M539.525,86.2875 C529.025,107.7 516.8,135.3625 509.375,161.25 C483.125,252.8375 471.8875,363.775 467.3125,427.875 " fill="none" id="ClosenessPlaceController-to-ClosenessPlacesStore" style="stroke:#A80036;stroke-width:1.25;stroke-dasharray:7.0,7.0;"/><polygon fill="#A80036" points="466.8625,434.3,472.6225,423.4195,467.2913,428.0647,462.6461,422.7335,466.8625,434.3" style="stroke:#A80036;stroke-width:1.25;"/><!--MD5=[3b05f2b043b7bb83be19f46b0362e3f0]
link ClosenessPlaceController to ClosenessPlaces--><path codeLine="10" d="M680.825,68.5375 C740.925,84.225 810.15,112.075 855.625,161.25 C936.1875,248.375 913.7875,300.0375 930.625,417.5 C938.75,474.1375 960.475,497.425 930.625,546.25 C894.875,604.725 823.575,637.975 765.6375,656.175 " fill="none" id="ClosenessPlaceController-to-ClosenessPlaces" style="stroke:#A80036;stroke-width:1.25;stroke-dasharray:7.0,7.0;"/><polygon fill="#A80036" points="759.35,658.1125,771.5739,659.5752,765.3225,656.2707,768.627,650.0193,759.35,658.1125" style="stroke:#A80036;stroke-width:1.25;"/><!--MD5=[a4e06fd82b68f69d494bc0a034396659]
link ClosenessPlaceController to CountryStore--><path codeLine="11" d="M438.05,52.7875 C354.825,62.3375 248.65,89.1875 186.875,161.25 C122.975,235.7875 125.5,358.05 133.425,427.6875 " fill="none" id="ClosenessPlaceController-to-CountryStore" style="stroke:#A80036;stroke-width:1.25;stroke-dasharray:7.0,7.0;"/><polygon fill="#A80036" points="134.2125,434.2625,137.8618,422.5047,133.4812,428.0554,127.9305,423.6748,134.2125,434.2625" style="stroke:#A80036;stroke-width:1.25;"/><!--MD5=[88378fecc0214ccb54b388de34e73693]
link MatrixGraph to Edge--><path codeLine="12" d="M722.575,342.7125 C739.7875,365.75 758.0375,390.175 774.325,411.975 " fill="none" id="MatrixGraph-to-Edge" style="stroke:#A80036;stroke-width:1.25;stroke-dasharray:7.0,7.0;"/><polygon fill="#A80036" points="778.425,417.45,775.7025,405.4437,774.6865,412.4414,767.6888,411.4254,778.425,417.45" style="stroke:#A80036;stroke-width:1.25;"/><!--MD5=[e7704f3ad4d35706d9570f93a2104857]
link MatrixGraph to ClosenessPlacesStore--><path codeLine="13" d="M580.3125,342.7125 C555.6125,372.0875 529.025,403.7125 507.55,429.2625 " fill="none" id="MatrixGraph-to-ClosenessPlacesStore" style="stroke:#A80036;stroke-width:1.25;stroke-dasharray:7.0,7.0;"/><polygon fill="#A80036" points="503.325,434.2875,514.388,428.8864,507.3437,429.5008,506.7293,422.4565,503.325,434.2875" style="stroke:#A80036;stroke-width:1.25;"/><!--MD5=[77271dfb3a8b0acf8d8bfdeb8e8477fd]
link MatrixGraph to ClosenessPlaces--><path codeLine="14" d="M660.1375,342.8625 C664.2375,424.575 670.1875,543.0625 673.775,614.575 " fill="none" id="MatrixGraph-to-ClosenessPlaces" style="stroke:#A80036;stroke-width:1.25;stroke-dasharray:7.0,7.0;"/><polygon fill="#A80036" points="674.1,620.925,678.5139,609.4324,673.7781,614.6833,668.5272,609.9475,674.1,620.925" style="stroke:#A80036;stroke-width:1.25;"/><!--MD5=[eaf9d45604916f4e31e22c594d2769c2]
link ClosenessPlacesStore to ClosenessPlaces--><path codeLine="15" d="M515.275,529.3875 C544.0625,555.55 580.375,588.55 611.275,616.6375 " fill="none" id="ClosenessPlacesStore-to-ClosenessPlaces" style="stroke:#A80036;stroke-width:1.25;stroke-dasharray:7.0,7.0;"/><polygon fill="#A80036" points="616.1875,621.1,611.2395,609.827,611.5677,616.8905,604.5043,617.2187,616.1875,621.1" style="stroke:#A80036;stroke-width:1.25;"/><!--MD5=[c5bf93d7ba88067911a6643e0d4c0282]
link MatrixGraph to CountryStore--><path codeLine="16" d="M530.9375,308.3375 C445.8125,346.0375 334.0625,395.5125 252.1875,431.775 " fill="none" id="MatrixGraph-to-CountryStore" style="stroke:#A80036;stroke-width:1.25;stroke-dasharray:7.0,7.0;"/><polygon fill="#A80036" points="246.3375,434.3625,258.6485,434.4018,252.0569,431.8424,254.6163,425.2508,246.3375,434.3625" style="stroke:#A80036;stroke-width:1.25;"/><!--MD5=[3e2497acf1db417062db361c605b7b2c]
@startuml
'https://plantuml.com/sequence-diagram


ClosenessPlaceController ..> MatrixGraph
ClosenessPlaceController ..> Company
Company ..> ClosenessPlacesStore
Company ..> CountryStore
ClosenessPlaceController ..> Edge
ClosenessPlaceController ..> ClosenessPlacesStore
ClosenessPlaceController ..> ClosenessPlaces
ClosenessPlaceController ..> CountryStore
MatrixGraph ..> Edge
MatrixGraph ..> ClosenessPlacesStore
MatrixGraph ..> ClosenessPlaces
ClosenessPlacesStore ..> ClosenessPlaces
MatrixGraph ..> CountryStore


ClosenessPlaceController : +closenessPlacesByContinent(int n)

MatrixGraph : +transitiveClosure()
MatrixGraph : +shortestPath(Edge<V, E>[][] matrix)
MatrixGraph : +addEdge(V orig, V dest, E distance)
MatrixGraph : -GraphElement orig
MatrixGraph : -GraphElement dest
MatrixGraph : -double distance
MatrixGraph : -Edge<V,E> [][] matrix


Edge : +getVOrig()
Edge : +getVDest()
Edge : +getDistance()
Edge : +setDistance(distance)

CountryStore : +getCountryStore()
CountryStore : +getContinentByCountry(String country)

ClosenessPlacesStore : +getClosenessPlacesStore()
ClosenessPlacesStore : +addClosenessPlaces(ClosenessPlaces cp)

Company : +getClosenessPlaceStore()
Company : +getCountryStore()

ClosenessPlaces : -String place
ClosenessPlaces : -String country
ClosenessPlaces : -double distance

@enduml

@startuml


ClosenessPlaceController ..> MatrixGraph
ClosenessPlaceController ..> Company
Company ..> ClosenessPlacesStore
Company ..> CountryStore
ClosenessPlaceController ..> Edge
ClosenessPlaceController ..> ClosenessPlacesStore
ClosenessPlaceController ..> ClosenessPlaces
ClosenessPlaceController ..> CountryStore
MatrixGraph ..> Edge
MatrixGraph ..> ClosenessPlacesStore
MatrixGraph ..> ClosenessPlaces
ClosenessPlacesStore ..> ClosenessPlaces
MatrixGraph ..> CountryStore


ClosenessPlaceController : +closenessPlacesByContinent(int n)

MatrixGraph : +transitiveClosure()
MatrixGraph : +shortestPath(Edge<V, E>[][] matrix)
MatrixGraph : +addEdge(V orig, V dest, E distance)
MatrixGraph : -GraphElement orig
MatrixGraph : -GraphElement dest
MatrixGraph : -double distance
MatrixGraph : -Edge<V,E> [][] matrix


Edge : +getVOrig()
Edge : +getVDest()
Edge : +getDistance()
Edge : +setDistance(distance)

CountryStore : +getCountryStore()
CountryStore : +getContinentByCountry(String country)

ClosenessPlacesStore : +getClosenessPlacesStore()
ClosenessPlacesStore : +addClosenessPlaces(ClosenessPlaces cp)

Company : +getClosenessPlaceStore()
Company : +getCountryStore()

ClosenessPlaces : -String place
ClosenessPlaces : -String country
ClosenessPlaces : -double distance

@enduml

PlantUML version 1.2021.4(Sun Apr 04 09:49:39 BST 2021)
(GPL source distribution)
Java Runtime: OpenJDK Runtime Environment
JVM: Dynamic Code Evolution 64-Bit Server VM
Default Encoding: Cp1252
Language: pt
Country: PT
--></g></svg>