<?xml version="1.0" encoding="UTF-8" standalone="no"?><svg xmlns="http://www.w3.org/2000/svg" xmlns:xlink="http://www.w3.org/1999/xlink" contentScriptType="application/ecmascript" contentStyleType="text/css" height="496px" preserveAspectRatio="none" style="width:1427px;height:496px;background:#FFFFFF;" version="1.1" viewBox="0 0 1427 496" width="1427px" zoomAndPan="magnify"><defs><filter height="300%" id="f1pjbeq31rr0sh" width="300%" x="-1" y="-1"><feGaussianBlur result="blurOut" stdDeviation="2.0"/><feColorMatrix in="blurOut" result="blurOut2" type="matrix" values="0 0 0 0 0 0 0 0 0 0 0 0 0 0 0 0 0 0 .4 0"/><feOffset dx="4.0" dy="4.0" in="blurOut2" result="blurOut3"/><feBlend in="SourceGraphic" in2="blurOut3" mode="normal"/></filter></defs><g><rect fill="#FFFFFF" filter="url(#f1pjbeq31rr0sh)" height="296.3281" style="stroke:#A80036;stroke-width:1.0;" width="10" x="51" y="98.2969"/><rect fill="#FFFFFF" filter="url(#f1pjbeq31rr0sh)" height="29.1328" style="stroke:#A80036;stroke-width:1.0;" width="10" x="569" y="119.4297"/><rect fill="#FFFFFF" filter="url(#f1pjbeq31rr0sh)" height="216.9297" style="stroke:#A80036;stroke-width:1.0;" width="10" x="569" y="177.6953"/><rect fill="#FFFFFF" filter="url(#f1pjbeq31rr0sh)" height="187.7969" style="stroke:#A80036;stroke-width:1.0;" width="10" x="923" y="206.8281"/><rect fill="#FFFFFF" filter="url(#f1pjbeq31rr0sh)" height="71.2656" style="stroke:#A80036;stroke-width:1.0;" width="10" x="1154" y="235.9609"/><rect fill="#FFFFFF" filter="url(#f1pjbeq31rr0sh)" height="29.1328" style="stroke:#A80036;stroke-width:1.0;" width="10" x="1352" y="307.2266"/><line style="stroke:#A80036;stroke-width:1.0;stroke-dasharray:5.0,5.0;" x1="56" x2="56" y1="88.2969" y2="412.625"/><line style="stroke:#A80036;stroke-width:1.0;stroke-dasharray:5.0,5.0;" x1="574" x2="574" y1="88.2969" y2="412.625"/><line style="stroke:#A80036;stroke-width:1.0;stroke-dasharray:5.0,5.0;" x1="928" x2="928" y1="88.2969" y2="412.625"/><line style="stroke:#A80036;stroke-width:1.0;stroke-dasharray:5.0,5.0;" x1="1159" x2="1159" y1="88.2969" y2="412.625"/><line style="stroke:#A80036;stroke-width:1.0;stroke-dasharray:5.0,5.0;" x1="1356.5" x2="1356.5" y1="88.2969" y2="412.625"/><text fill="#000000" font-family="sans-serif" font-size="14" lengthAdjust="spacing" textLength="96" x="5" y="84.9951">Port Manager</text><ellipse cx="56" cy="15" fill="#FEFECE" filter="url(#f1pjbeq31rr0sh)" rx="8" ry="8" style="stroke:#A80036;stroke-width:2.0;"/><path d="M56,23 L56,50 M43,31 L69,31 M56,50 L43,65 M56,50 L69,65 " fill="none" filter="url(#f1pjbeq31rr0sh)" style="stroke:#A80036;stroke-width:2.0;"/><text fill="#000000" font-family="sans-serif" font-size="14" lengthAdjust="spacing" textLength="96" x="5" y="424.6201">Port Manager</text><ellipse cx="56" cy="437.9219" fill="#FEFECE" filter="url(#f1pjbeq31rr0sh)" rx="8" ry="8" style="stroke:#A80036;stroke-width:2.0;"/><path d="M56,445.9219 L56,472.9219 M43,453.9219 L69,453.9219 M56,472.9219 L43,487.9219 M56,472.9219 L69,487.9219 " fill="none" filter="url(#f1pjbeq31rr0sh)" style="stroke:#A80036;stroke-width:2.0;"/><rect fill="#FEFECE" filter="url(#f1pjbeq31rr0sh)" height="30.2969" style="stroke:#A80036;stroke-width:1.5;" width="310" x="417" y="53"/><text fill="#000000" font-family="sans-serif" font-size="14" lengthAdjust="spacing" textLength="296" x="424" y="72.9951">:DockingAndWarehouseOccupancyRateUI</text><rect fill="#FEFECE" filter="url(#f1pjbeq31rr0sh)" height="30.2969" style="stroke:#A80036;stroke-width:1.5;" width="310" x="417" y="411.625"/><text fill="#000000" font-family="sans-serif" font-size="14" lengthAdjust="spacing" textLength="296" x="424" y="431.6201">:DockingAndWarehouseOccupancyRateUI</text><rect fill="#FEFECE" filter="url(#f1pjbeq31rr0sh)" height="30.2969" style="stroke:#A80036;stroke-width:1.5;" width="370" x="741" y="53"/><text fill="#000000" font-family="sans-serif" font-size="14" lengthAdjust="spacing" textLength="356" x="748" y="72.9951">:DockingAndWarehouseOccupancyRateController</text><rect fill="#FEFECE" filter="url(#f1pjbeq31rr0sh)" height="30.2969" style="stroke:#A80036;stroke-width:1.5;" width="370" x="741" y="411.625"/><text fill="#000000" font-family="sans-serif" font-size="14" lengthAdjust="spacing" textLength="356" x="748" y="431.6201">:DockingAndWarehouseOccupancyRateController</text><rect fill="#FEFECE" filter="url(#f1pjbeq31rr0sh)" height="30.2969" style="stroke:#A80036;stroke-width:1.5;" width="64" x="1125" y="53"/><text fill="#000000" font-family="sans-serif" font-size="14" lengthAdjust="spacing" textLength="50" x="1132" y="72.9951">:US310</text><rect fill="#FEFECE" filter="url(#f1pjbeq31rr0sh)" height="30.2969" style="stroke:#A80036;stroke-width:1.5;" width="64" x="1125" y="411.625"/><text fill="#000000" font-family="sans-serif" font-size="14" lengthAdjust="spacing" textLength="50" x="1132" y="431.6201">:US310</text><rect fill="#FEFECE" filter="url(#f1pjbeq31rr0sh)" height="30.2969" style="stroke:#A80036;stroke-width:1.5;" width="117" x="1296.5" y="53"/><text fill="#000000" font-family="sans-serif" font-size="14" lengthAdjust="spacing" textLength="103" x="1303.5" y="72.9951">:FileOperation</text><rect fill="#FEFECE" filter="url(#f1pjbeq31rr0sh)" height="30.2969" style="stroke:#A80036;stroke-width:1.5;" width="117" x="1296.5" y="411.625"/><text fill="#000000" font-family="sans-serif" font-size="14" lengthAdjust="spacing" textLength="103" x="1303.5" y="431.6201">:FileOperation</text><rect fill="#FFFFFF" filter="url(#f1pjbeq31rr0sh)" height="296.3281" style="stroke:#A80036;stroke-width:1.0;" width="10" x="51" y="98.2969"/><rect fill="#FFFFFF" filter="url(#f1pjbeq31rr0sh)" height="29.1328" style="stroke:#A80036;stroke-width:1.0;" width="10" x="569" y="119.4297"/><rect fill="#FFFFFF" filter="url(#f1pjbeq31rr0sh)" height="216.9297" style="stroke:#A80036;stroke-width:1.0;" width="10" x="569" y="177.6953"/><rect fill="#FFFFFF" filter="url(#f1pjbeq31rr0sh)" height="187.7969" style="stroke:#A80036;stroke-width:1.0;" width="10" x="923" y="206.8281"/><rect fill="#FFFFFF" filter="url(#f1pjbeq31rr0sh)" height="71.2656" style="stroke:#A80036;stroke-width:1.0;" width="10" x="1154" y="235.9609"/><rect fill="#FFFFFF" filter="url(#f1pjbeq31rr0sh)" height="29.1328" style="stroke:#A80036;stroke-width:1.0;" width="10" x="1352" y="307.2266"/><polygon fill="#A80036" points="557,115.4297,567,119.4297,557,123.4297,561,119.4297" style="stroke:#A80036;stroke-width:1.0;"/><line style="stroke:#A80036;stroke-width:1.0;" x1="61" x2="563" y1="119.4297" y2="119.4297"/><text fill="#000000" font-family="sans-serif" font-size="13" font-weight="bold" lengthAdjust="spacing" textLength="9" x="68" y="114.3638">1</text><text fill="#000000" font-family="sans-serif" font-size="13" lengthAdjust="spacing" textLength="476" x="81" y="114.3638">wish to have a map of the occupation of the existing resources in the port</text><polygon fill="#A80036" points="72,144.5625,62,148.5625,72,152.5625,68,148.5625" style="stroke:#A80036;stroke-width:1.0;"/><line style="stroke:#A80036;stroke-width:1.0;stroke-dasharray:2.0,2.0;" x1="66" x2="573" y1="148.5625" y2="148.5625"/><text fill="#000000" font-family="sans-serif" font-size="13" font-weight="bold" lengthAdjust="spacing" textLength="9" x="78" y="143.4966">2</text><text fill="#000000" font-family="sans-serif" font-size="13" lengthAdjust="spacing" textLength="171" x="91" y="143.4966">request the data to search</text><polygon fill="#A80036" points="557,173.6953,567,177.6953,557,181.6953,561,177.6953" style="stroke:#A80036;stroke-width:1.0;"/><line style="stroke:#A80036;stroke-width:1.0;" x1="61" x2="563" y1="177.6953" y2="177.6953"/><text fill="#000000" font-family="sans-serif" font-size="13" font-weight="bold" lengthAdjust="spacing" textLength="8" x="68" y="172.6294">3</text><text fill="#000000" font-family="sans-serif" font-size="13" lengthAdjust="spacing" textLength="312" x="80" y="172.6294">types the port identifier, the month and the year</text><polygon fill="#A80036" points="911,202.8281,921,206.8281,911,210.8281,915,206.8281" style="stroke:#A80036;stroke-width:1.0;"/><line style="stroke:#A80036;stroke-width:1.0;" x1="579" x2="917" y1="206.8281" y2="206.8281"/><text fill="#000000" font-family="sans-serif" font-size="13" font-weight="bold" lengthAdjust="spacing" textLength="9" x="586" y="201.7622">4</text><text fill="#000000" font-family="sans-serif" font-size="13" lengthAdjust="spacing" textLength="82" x="599" y="201.7622">createUS310</text><polygon fill="#A80036" points="1142,231.9609,1152,235.9609,1142,239.9609,1146,235.9609" style="stroke:#A80036;stroke-width:1.0;"/><line style="stroke:#A80036;stroke-width:1.0;" x1="933" x2="1148" y1="235.9609" y2="235.9609"/><text fill="#000000" font-family="sans-serif" font-size="13" font-weight="bold" lengthAdjust="spacing" textLength="9" x="940" y="230.895">5</text><text fill="#000000" font-family="sans-serif" font-size="13" lengthAdjust="spacing" textLength="178" x="953" y="230.895">demo(port_id, month, year)</text><line style="stroke:#A80036;stroke-width:1.0;" x1="1164" x2="1206" y1="265.0938" y2="265.0938"/><line style="stroke:#A80036;stroke-width:1.0;" x1="1206" x2="1206" y1="265.0938" y2="278.0938"/><line style="stroke:#A80036;stroke-width:1.0;" x1="1165" x2="1206" y1="278.0938" y2="278.0938"/><polygon fill="#A80036" points="1175,274.0938,1165,278.0938,1175,282.0938,1171,278.0938" style="stroke:#A80036;stroke-width:1.0;"/><text fill="#000000" font-family="sans-serif" font-size="13" font-weight="bold" lengthAdjust="spacing" textLength="9" x="1171" y="260.0278">6</text><text fill="#000000" font-family="sans-serif" font-size="13" lengthAdjust="spacing" textLength="51" x="1184" y="260.0278">initialize</text><polygon fill="#A80036" points="1340,303.2266,1350,307.2266,1340,311.2266,1344,307.2266" style="stroke:#A80036;stroke-width:1.0;"/><line style="stroke:#A80036;stroke-width:1.0;" x1="1159" x2="1346" y1="307.2266" y2="307.2266"/><text fill="#000000" font-family="sans-serif" font-size="13" font-weight="bold" lengthAdjust="spacing" textLength="9" x="1166" y="302.1606">7</text><text fill="#000000" font-family="sans-serif" font-size="13" lengthAdjust="spacing" textLength="156" x="1179" y="302.1606">WriteToAFile(path, data)</text><polygon fill="#A80036" points="944,332.3594,934,336.3594,944,340.3594,940,336.3594" style="stroke:#A80036;stroke-width:1.0;"/><line style="stroke:#A80036;stroke-width:1.0;stroke-dasharray:2.0,2.0;" x1="938" x2="1356" y1="336.3594" y2="336.3594"/><text fill="#000000" font-family="sans-serif" font-size="13" font-weight="bold" lengthAdjust="spacing" textLength="9" x="950" y="331.2935">8</text><text fill="#000000" font-family="sans-serif" font-size="13" lengthAdjust="spacing" textLength="19" x="963" y="331.2935">file</text><polygon fill="#A80036" points="590,361.4922,580,365.4922,590,369.4922,586,365.4922" style="stroke:#A80036;stroke-width:1.0;"/><line style="stroke:#A80036;stroke-width:1.0;stroke-dasharray:2.0,2.0;" x1="584" x2="922" y1="365.4922" y2="365.4922"/><text fill="#000000" font-family="sans-serif" font-size="13" font-weight="bold" lengthAdjust="spacing" textLength="9" x="596" y="360.4263">9</text><text fill="#000000" font-family="sans-serif" font-size="13" lengthAdjust="spacing" textLength="19" x="609" y="360.4263">file</text><polygon fill="#A80036" points="67,390.625,57,394.625,67,398.625,63,394.625" style="stroke:#A80036;stroke-width:1.0;"/><line style="stroke:#A80036;stroke-width:1.0;stroke-dasharray:2.0,2.0;" x1="61" x2="573" y1="394.625" y2="394.625"/><text fill="#000000" font-family="sans-serif" font-size="13" font-weight="bold" lengthAdjust="spacing" textLength="19" x="73" y="389.5591">10</text><text fill="#000000" font-family="sans-serif" font-size="13" lengthAdjust="spacing" textLength="168" x="96" y="389.5591">shows the requested data</text><!--MD5=[22ec6c6f1d945194a85319a9370cc596]
@startuml
actor "Port Manager" as Adm
participant ":DockingAndWarehouseOccupancyRateUI" as System
participant ":DockingAndWarehouseOccupancyRateController" as SSC
participant ":US310" as us
participant ":FileOperation" as f

autonumber

activate Adm

Adm -> System: wish to have a map of the occupation of the existing resources in the port

activate System

System - -> Adm: request the data to search

deactivate System

Adm -> System: types the port identifier, the month and the year

activate System

System -> SSC: createUS310

activate SSC

SSC -> us: demo(port_id, month, year)

activate us

us -> us: initialize

us -> f: WriteToAFile(path, data)

deactivate us

activate f

f - -> SSC: file

deactivate f

SSC - -> System: file

System - -> Adm: shows the requested data

deactivate SSC

deactivate System

deactivate Adm
@enduml

PlantUML version 1.2021.17beta4(Unknown compile time)
(GPL source distribution)
Java Runtime: Java(TM) SE Runtime Environment
JVM: Java HotSpot(TM) 64-Bit Server VM
Default Encoding: UTF-8
Language: en
Country: US
--></g></svg>