<?xml version="1.0" encoding="UTF-8" standalone="no"?><svg xmlns="http://www.w3.org/2000/svg" xmlns:xlink="http://www.w3.org/1999/xlink" contentScriptType="application/ecmascript" contentStyleType="text/css" height="464px" preserveAspectRatio="none" style="width:667px;height:464px;" version="1.1" viewBox="0 0 667 464" width="667px" zoomAndPan="magnify"><defs><filter height="300%" id="f1w1s8sqrkeq12" width="300%" x="-1" y="-1"><feGaussianBlur result="blurOut" stdDeviation="2.0"/><feColorMatrix in="blurOut" result="blurOut2" type="matrix" values="0 0 0 0 0 0 0 0 0 0 0 0 0 0 0 0 0 0 .4 0"/><feOffset dx="4.0" dy="4.0" in="blurOut2" result="blurOut3"/><feBlend in="SourceGraphic" in2="blurOut3" mode="normal"/></filter></defs><g><!--MD5=[9b4d6350505f0ccf5a42f8153c75860f]
class ShortestPathController--><rect fill="#FEFECE" filter="url(#f1w1s8sqrkeq12)" height="61.8359" id="ShortestPathController" style="stroke:#A80036;stroke-width:1.5;" width="281" x="162" y="7"/><ellipse cx="235.75" cy="23" fill="#ADD1B2" rx="11" ry="11" style="stroke:#A80036;stroke-width:1.0;"/><path d="M237.75,19.5 Q237.9531,19 238.1875,18.75 Q238.4219,18.5 238.6875,18.5 Q239.1563,18.5 239.4531,18.7813 Q239.75,19.0625 239.75,19.7188 L239.75,21.2813 Q239.75,21.9375 239.4688,22.2188 Q239.1875,22.5 238.75,22.5 Q238.3594,22.5 238.1094,22.3281 Q237.8594,22.1563 237.75,21.7031 Q237.7031,21.3906 237.5313,21.2188 Q237.2188,20.8906 236.6563,20.7031 Q236.0938,20.5 235.5313,20.5 Q234.8281,20.5 234.2344,20.7813 Q233.6563,21.0625 233.2031,21.6875 Q232.75,22.3125 232.75,23.1719 L232.75,24.0938 Q232.75,25.125 233.5938,25.8125 Q234.4375,26.5 235.9375,26.5 Q236.8281,26.5 237.4531,26.2969 Q237.8125,26.1875 238.2188,25.8281 Q238.4844,25.625 238.625,25.5625 Q238.7656,25.5 238.9375,25.5 Q239.2656,25.5 239.5,25.7656 Q239.75,26.0156 239.75,26.375 Q239.75,26.7188 239.4063,27.125 Q238.9063,27.7188 238.1094,28.0469 Q237.0625,28.5 235.7813,28.5 Q234.2813,28.5 233.0781,27.9063 Q232.1094,27.4375 231.4219,26.4219 Q230.75,25.4063 230.75,24.2031 L230.75,23.1094 Q230.75,21.8594 231.3438,20.7656 Q231.9531,19.6719 233,19.0938 Q234.0625,18.5 235.25,18.5 Q235.9688,18.5 236.5938,18.75 Q237.2188,19 237.75,19.5 Z " fill="#000000"/><text fill="#000000" font-family="sans-serif" font-size="12" lengthAdjust="spacing" textLength="125" x="256.25" y="27.9102">ShortestPathController</text><line style="stroke:#A80036;stroke-width:1.5;" x1="163" x2="442" y1="39" y2="39"/><line style="stroke:#A80036;stroke-width:1.5;" x1="163" x2="442" y1="47" y2="47"/><ellipse cx="173" cy="58" fill="#84BE84" rx="3" ry="3" style="stroke:#038048;stroke-width:1.0;"/><text fill="#000000" font-family="sans-serif" font-size="11" lengthAdjust="spacing" textLength="255" x="182" y="62.4189">shortestPath(String departure, String arrival, int path)</text><!--MD5=[02e4b9b7573f1156f41e60aa5b4e25a4]
class Company--><rect fill="#FEFECE" filter="url(#f1w1s8sqrkeq12)" height="103.3438" id="Company" style="stroke:#A80036;stroke-width:1.5;" width="113" x="65" y="129"/><ellipse cx="92.6" cy="145" fill="#ADD1B2" rx="11" ry="11" style="stroke:#A80036;stroke-width:1.0;"/><path d="M94.6,141.5 Q94.8031,141 95.0375,140.75 Q95.2719,140.5 95.5375,140.5 Q96.0063,140.5 96.3031,140.7813 Q96.6,141.0625 96.6,141.7188 L96.6,143.2813 Q96.6,143.9375 96.3188,144.2188 Q96.0375,144.5 95.6,144.5 Q95.2094,144.5 94.9594,144.3281 Q94.7094,144.1563 94.6,143.7031 Q94.5531,143.3906 94.3813,143.2188 Q94.0688,142.8906 93.5063,142.7031 Q92.9438,142.5 92.3813,142.5 Q91.6781,142.5 91.0844,142.7813 Q90.5063,143.0625 90.0531,143.6875 Q89.6,144.3125 89.6,145.1719 L89.6,146.0938 Q89.6,147.125 90.4438,147.8125 Q91.2875,148.5 92.7875,148.5 Q93.6781,148.5 94.3031,148.2969 Q94.6625,148.1875 95.0688,147.8281 Q95.3344,147.625 95.475,147.5625 Q95.6156,147.5 95.7875,147.5 Q96.1156,147.5 96.35,147.7656 Q96.6,148.0156 96.6,148.375 Q96.6,148.7188 96.2563,149.125 Q95.7563,149.7188 94.9594,150.0469 Q93.9125,150.5 92.6313,150.5 Q91.1313,150.5 89.9281,149.9063 Q88.9594,149.4375 88.2719,148.4219 Q87.6,147.4063 87.6,146.2031 L87.6,145.1094 Q87.6,143.8594 88.1938,142.7656 Q88.8031,141.6719 89.85,141.0938 Q90.9125,140.5 92.1,140.5 Q92.8188,140.5 93.4438,140.75 Q94.0688,141 94.6,141.5 Z " fill="#000000"/><text fill="#000000" font-family="sans-serif" font-size="12" lengthAdjust="spacing" textLength="53" x="109.4" y="149.9102">Company</text><line style="stroke:#A80036;stroke-width:1.5;" x1="66" x2="177" y1="161" y2="161"/><line style="stroke:#A80036;stroke-width:1.5;" x1="66" x2="177" y1="169" y2="169"/><ellipse cx="76" cy="180" fill="#84BE84" rx="3" ry="3" style="stroke:#038048;stroke-width:1.0;"/><text fill="#000000" font-family="sans-serif" font-size="11" lengthAdjust="spacing" textLength="53" x="85" y="184.4189">Company()</text><ellipse cx="76" cy="193.8359" fill="#84BE84" rx="3" ry="3" style="stroke:#038048;stroke-width:1.0;"/><text fill="#000000" font-family="sans-serif" font-size="11" lengthAdjust="spacing" textLength="82" x="85" y="198.2549">getMatrixGraph()</text><ellipse cx="76" cy="207.6719" fill="#84BE84" rx="3" ry="3" style="stroke:#038048;stroke-width:1.0;"/><text fill="#000000" font-family="sans-serif" font-size="11" lengthAdjust="spacing" textLength="87" x="85" y="212.0908">getCountryStore()</text><ellipse cx="76" cy="221.5078" fill="#84BE84" rx="3" ry="3" style="stroke:#038048;stroke-width:1.0;"/><text fill="#000000" font-family="sans-serif" font-size="11" lengthAdjust="spacing" textLength="64" x="85" y="225.9268">getKdtPorts()</text><!--MD5=[b7b072196a724e538165319251b4d539]
class MatrixGraph--><rect fill="#FEFECE" filter="url(#f1w1s8sqrkeq12)" height="89.5078" id="MatrixGraph" style="stroke:#A80036;stroke-width:1.5;" width="97" x="7" y="326.5"/><ellipse cx="22" cy="342.5" fill="#ADD1B2" rx="11" ry="11" style="stroke:#A80036;stroke-width:1.0;"/><path d="M24,339 Q24.2031,338.5 24.4375,338.25 Q24.6719,338 24.9375,338 Q25.4063,338 25.7031,338.2813 Q26,338.5625 26,339.2188 L26,340.7813 Q26,341.4375 25.7188,341.7188 Q25.4375,342 25,342 Q24.6094,342 24.3594,341.8281 Q24.1094,341.6563 24,341.2031 Q23.9531,340.8906 23.7813,340.7188 Q23.4688,340.3906 22.9063,340.2031 Q22.3438,340 21.7813,340 Q21.0781,340 20.4844,340.2813 Q19.9063,340.5625 19.4531,341.1875 Q19,341.8125 19,342.6719 L19,343.5938 Q19,344.625 19.8438,345.3125 Q20.6875,346 22.1875,346 Q23.0781,346 23.7031,345.7969 Q24.0625,345.6875 24.4688,345.3281 Q24.7344,345.125 24.875,345.0625 Q25.0156,345 25.1875,345 Q25.5156,345 25.75,345.2656 Q26,345.5156 26,345.875 Q26,346.2188 25.6563,346.625 Q25.1563,347.2188 24.3594,347.5469 Q23.3125,348 22.0313,348 Q20.5313,348 19.3281,347.4063 Q18.3594,346.9375 17.6719,345.9219 Q17,344.9063 17,343.7031 L17,342.6094 Q17,341.3594 17.5938,340.2656 Q18.2031,339.1719 19.25,338.5938 Q20.3125,338 21.5,338 Q22.2188,338 22.8438,338.25 Q23.4688,338.5 24,339 Z " fill="#000000"/><text fill="#000000" font-family="sans-serif" font-size="12" lengthAdjust="spacing" textLength="65" x="36" y="347.4102">MatrixGraph</text><line style="stroke:#A80036;stroke-width:1.5;" x1="8" x2="103" y1="358.5" y2="358.5"/><line style="stroke:#A80036;stroke-width:1.5;" x1="8" x2="103" y1="366.5" y2="366.5"/><ellipse cx="18" cy="377.5" fill="#84BE84" rx="3" ry="3" style="stroke:#038048;stroke-width:1.0;"/><text fill="#000000" font-family="sans-serif" font-size="11" lengthAdjust="spacing" textLength="69" x="27" y="381.9189">numVertices()</text><ellipse cx="18" cy="391.3359" fill="#84BE84" rx="3" ry="3" style="stroke:#038048;stroke-width:1.0;"/><text fill="#000000" font-family="sans-serif" font-size="11" lengthAdjust="spacing" textLength="55" x="27" y="395.7549">vertex(int i)</text><ellipse cx="18" cy="405.1719" fill="#84BE84" rx="3" ry="3" style="stroke:#038048;stroke-width:1.0;"/><text fill="#000000" font-family="sans-serif" font-size="11" lengthAdjust="spacing" textLength="63" x="27" y="409.5908">adjVertices()</text><!--MD5=[8dda998cb40a03280ba2930af26ca62e]
class GraphElement--><rect fill="#FEFECE" filter="url(#f1w1s8sqrkeq12)" height="103.3438" id="GraphElement" style="stroke:#A80036;stroke-width:1.5;" width="115" x="356" y="129"/><ellipse cx="372.35" cy="145" fill="#ADD1B2" rx="11" ry="11" style="stroke:#A80036;stroke-width:1.0;"/><path d="M374.35,141.5 Q374.5531,141 374.7875,140.75 Q375.0219,140.5 375.2875,140.5 Q375.7563,140.5 376.0531,140.7813 Q376.35,141.0625 376.35,141.7188 L376.35,143.2813 Q376.35,143.9375 376.0688,144.2188 Q375.7875,144.5 375.35,144.5 Q374.9594,144.5 374.7094,144.3281 Q374.4594,144.1563 374.35,143.7031 Q374.3031,143.3906 374.1313,143.2188 Q373.8188,142.8906 373.2563,142.7031 Q372.6938,142.5 372.1313,142.5 Q371.4281,142.5 370.8344,142.7813 Q370.2563,143.0625 369.8031,143.6875 Q369.35,144.3125 369.35,145.1719 L369.35,146.0938 Q369.35,147.125 370.1938,147.8125 Q371.0375,148.5 372.5375,148.5 Q373.4281,148.5 374.0531,148.2969 Q374.4125,148.1875 374.8188,147.8281 Q375.0844,147.625 375.225,147.5625 Q375.3656,147.5 375.5375,147.5 Q375.8656,147.5 376.1,147.7656 Q376.35,148.0156 376.35,148.375 Q376.35,148.7188 376.0063,149.125 Q375.5063,149.7188 374.7094,150.0469 Q373.6625,150.5 372.3813,150.5 Q370.8813,150.5 369.6781,149.9063 Q368.7094,149.4375 368.0219,148.4219 Q367.35,147.4063 367.35,146.2031 L367.35,145.1094 Q367.35,143.8594 367.9438,142.7656 Q368.5531,141.6719 369.6,141.0938 Q370.6625,140.5 371.85,140.5 Q372.5688,140.5 373.1938,140.75 Q373.8188,141 374.35,141.5 Z " fill="#000000"/><text fill="#000000" font-family="sans-serif" font-size="12" lengthAdjust="spacing" textLength="80" x="386.65" y="149.9102">GraphElement</text><line style="stroke:#A80036;stroke-width:1.5;" x1="357" x2="470" y1="161" y2="161"/><rect fill="none" height="6" style="stroke:#C82930;stroke-width:1.0;" width="6" x="364" y="169"/><text fill="#000000" font-family="sans-serif" font-size="11" lengthAdjust="spacing" textLength="89" x="376" y="176.4189">designation: String</text><rect fill="none" height="6" style="stroke:#C82930;stroke-width:1.0;" width="6" x="364" y="182.8359"/><text fill="#000000" font-family="sans-serif" font-size="11" lengthAdjust="spacing" textLength="71" x="376" y="190.2549">country: String</text><rect fill="none" height="6" style="stroke:#C82930;stroke-width:1.0;" width="6" x="364" y="196.6719"/><text fill="#000000" font-family="sans-serif" font-size="11" lengthAdjust="spacing" textLength="61" x="376" y="204.0908">latitude: float</text><rect fill="none" height="6" style="stroke:#C82930;stroke-width:1.0;" width="6" x="364" y="210.5078"/><text fill="#000000" font-family="sans-serif" font-size="11" lengthAdjust="spacing" textLength="70" x="376" y="217.9268">longitude: float</text><line style="stroke:#A80036;stroke-width:1.5;" x1="357" x2="470" y1="224.3438" y2="224.3438"/><!--MD5=[a0bfe97ac0a38e6e74cc1c7c7b744b71]
class Port--><rect fill="#FEFECE" filter="url(#f1w1s8sqrkeq12)" height="117.1797" id="Port" style="stroke:#A80036;stroke-width:1.5;" width="107" x="281" y="313"/><ellipse cx="319.85" cy="329" fill="#ADD1B2" rx="11" ry="11" style="stroke:#A80036;stroke-width:1.0;"/><path d="M321.85,325.5 Q322.0531,325 322.2875,324.75 Q322.5219,324.5 322.7875,324.5 Q323.2563,324.5 323.5531,324.7813 Q323.85,325.0625 323.85,325.7188 L323.85,327.2813 Q323.85,327.9375 323.5688,328.2188 Q323.2875,328.5 322.85,328.5 Q322.4594,328.5 322.2094,328.3281 Q321.9594,328.1563 321.85,327.7031 Q321.8031,327.3906 321.6313,327.2188 Q321.3188,326.8906 320.7563,326.7031 Q320.1938,326.5 319.6313,326.5 Q318.9281,326.5 318.3344,326.7813 Q317.7563,327.0625 317.3031,327.6875 Q316.85,328.3125 316.85,329.1719 L316.85,330.0938 Q316.85,331.125 317.6938,331.8125 Q318.5375,332.5 320.0375,332.5 Q320.9281,332.5 321.5531,332.2969 Q321.9125,332.1875 322.3188,331.8281 Q322.5844,331.625 322.725,331.5625 Q322.8656,331.5 323.0375,331.5 Q323.3656,331.5 323.6,331.7656 Q323.85,332.0156 323.85,332.375 Q323.85,332.7188 323.5063,333.125 Q323.0063,333.7188 322.2094,334.0469 Q321.1625,334.5 319.8813,334.5 Q318.3813,334.5 317.1781,333.9063 Q316.2094,333.4375 315.5219,332.4219 Q314.85,331.4063 314.85,330.2031 L314.85,329.1094 Q314.85,327.8594 315.4438,326.7656 Q316.0531,325.6719 317.1,325.0938 Q318.1625,324.5 319.35,324.5 Q320.0688,324.5 320.6938,324.75 Q321.3188,325 321.85,325.5 Z " fill="#000000"/><text fill="#000000" font-family="sans-serif" font-size="12" lengthAdjust="spacing" textLength="22" x="339.15" y="333.9102">Port</text><line style="stroke:#A80036;stroke-width:1.5;" x1="282" x2="387" y1="345" y2="345"/><rect fill="none" height="6" style="stroke:#C82930;stroke-width:1.0;" width="6" x="289" y="353"/><text fill="#000000" font-family="sans-serif" font-size="11" lengthAdjust="spacing" textLength="41" x="301" y="360.4189">code: int</text><rect fill="none" height="6" style="stroke:#C82930;stroke-width:1.0;" width="6" x="289" y="366.8359"/><text fill="#000000" font-family="sans-serif" font-size="11" lengthAdjust="spacing" textLength="60" x="301" y="374.2549">name: String</text><rect fill="none" height="6" style="stroke:#C82930;stroke-width:1.0;" width="6" x="289" y="380.6719"/><text fill="#000000" font-family="sans-serif" font-size="11" lengthAdjust="spacing" textLength="81" x="301" y="388.0908">country: Country</text><rect fill="none" height="6" style="stroke:#C82930;stroke-width:1.0;" width="6" x="289" y="394.5078"/><text fill="#000000" font-family="sans-serif" font-size="11" lengthAdjust="spacing" textLength="61" x="301" y="401.9268">latitude: float</text><rect fill="none" height="6" style="stroke:#C82930;stroke-width:1.0;" width="6" x="289" y="408.3438"/><text fill="#000000" font-family="sans-serif" font-size="11" lengthAdjust="spacing" textLength="70" x="301" y="415.7627">longitude: float</text><line style="stroke:#A80036;stroke-width:1.5;" x1="282" x2="387" y1="422.1797" y2="422.1797"/><!--MD5=[f14c97f009274192f499f18aa48d69a9]
class KdtPort--><rect fill="#FEFECE" filter="url(#f1w1s8sqrkeq12)" height="61.8359" id="KdtPort" style="stroke:#A80036;stroke-width:1.5;" width="72" x="162.5" y="340.5"/><ellipse cx="177.5" cy="356.5" fill="#ADD1B2" rx="11" ry="11" style="stroke:#A80036;stroke-width:1.0;"/><path d="M179.5,353 Q179.7031,352.5 179.9375,352.25 Q180.1719,352 180.4375,352 Q180.9063,352 181.2031,352.2813 Q181.5,352.5625 181.5,353.2188 L181.5,354.7813 Q181.5,355.4375 181.2188,355.7188 Q180.9375,356 180.5,356 Q180.1094,356 179.8594,355.8281 Q179.6094,355.6563 179.5,355.2031 Q179.4531,354.8906 179.2813,354.7188 Q178.9688,354.3906 178.4063,354.2031 Q177.8438,354 177.2813,354 Q176.5781,354 175.9844,354.2813 Q175.4063,354.5625 174.9531,355.1875 Q174.5,355.8125 174.5,356.6719 L174.5,357.5938 Q174.5,358.625 175.3438,359.3125 Q176.1875,360 177.6875,360 Q178.5781,360 179.2031,359.7969 Q179.5625,359.6875 179.9688,359.3281 Q180.2344,359.125 180.375,359.0625 Q180.5156,359 180.6875,359 Q181.0156,359 181.25,359.2656 Q181.5,359.5156 181.5,359.875 Q181.5,360.2188 181.1563,360.625 Q180.6563,361.2188 179.8594,361.5469 Q178.8125,362 177.5313,362 Q176.0313,362 174.8281,361.4063 Q173.8594,360.9375 173.1719,359.9219 Q172.5,358.9063 172.5,357.7031 L172.5,356.6094 Q172.5,355.3594 173.0938,354.2656 Q173.7031,353.1719 174.75,352.5938 Q175.8125,352 177,352 Q177.7188,352 178.3438,352.25 Q178.9688,352.5 179.5,353 Z " fill="#000000"/><text fill="#000000" font-family="sans-serif" font-size="12" lengthAdjust="spacing" textLength="40" x="191.5" y="361.4102">KdtPort</text><line style="stroke:#A80036;stroke-width:1.5;" x1="163.5" x2="233.5" y1="372.5" y2="372.5"/><line style="stroke:#A80036;stroke-width:1.5;" x1="163.5" x2="233.5" y1="380.5" y2="380.5"/><ellipse cx="173.5" cy="391.5" fill="#84BE84" rx="3" ry="3" style="stroke:#038048;stroke-width:1.0;"/><text fill="#000000" font-family="sans-serif" font-size="11" lengthAdjust="spacing" textLength="44" x="182.5" y="395.9189">inOrder()</text><!--MD5=[1fa23e875f7ea39406cc4f0fd95e1dab]
class CountryStore--><rect fill="#FEFECE" filter="url(#f1w1s8sqrkeq12)" height="61.8359" id="CountryStore" style="stroke:#A80036;stroke-width:1.5;" width="103" x="506" y="149.5"/><ellipse cx="521" cy="165.5" fill="#ADD1B2" rx="11" ry="11" style="stroke:#A80036;stroke-width:1.0;"/><path d="M523,162 Q523.2031,161.5 523.4375,161.25 Q523.6719,161 523.9375,161 Q524.4063,161 524.7031,161.2813 Q525,161.5625 525,162.2188 L525,163.7813 Q525,164.4375 524.7188,164.7188 Q524.4375,165 524,165 Q523.6094,165 523.3594,164.8281 Q523.1094,164.6563 523,164.2031 Q522.9531,163.8906 522.7813,163.7188 Q522.4688,163.3906 521.9063,163.2031 Q521.3438,163 520.7813,163 Q520.0781,163 519.4844,163.2813 Q518.9063,163.5625 518.4531,164.1875 Q518,164.8125 518,165.6719 L518,166.5938 Q518,167.625 518.8438,168.3125 Q519.6875,169 521.1875,169 Q522.0781,169 522.7031,168.7969 Q523.0625,168.6875 523.4688,168.3281 Q523.7344,168.125 523.875,168.0625 Q524.0156,168 524.1875,168 Q524.5156,168 524.75,168.2656 Q525,168.5156 525,168.875 Q525,169.2188 524.6563,169.625 Q524.1563,170.2188 523.3594,170.5469 Q522.3125,171 521.0313,171 Q519.5313,171 518.3281,170.4063 Q517.3594,169.9375 516.6719,168.9219 Q516,167.9063 516,166.7031 L516,165.6094 Q516,164.3594 516.5938,163.2656 Q517.2031,162.1719 518.25,161.5938 Q519.3125,161 520.5,161 Q521.2188,161 521.8438,161.25 Q522.4688,161.5 523,162 Z " fill="#000000"/><text fill="#000000" font-family="sans-serif" font-size="12" lengthAdjust="spacing" textLength="71" x="535" y="170.4102">CountryStore</text><line style="stroke:#A80036;stroke-width:1.5;" x1="507" x2="608" y1="181.5" y2="181.5"/><line style="stroke:#A80036;stroke-width:1.5;" x1="507" x2="608" y1="189.5" y2="189.5"/><ellipse cx="517" cy="200.5" fill="#84BE84" rx="3" ry="3" style="stroke:#038048;stroke-width:1.0;"/><text fill="#000000" font-family="sans-serif" font-size="11" lengthAdjust="spacing" textLength="69" x="526" y="204.9189">getCountries()</text><!--MD5=[deb4e1f6eb1e3c1256fdb830f96abfbb]
class Country--><rect fill="#FEFECE" filter="url(#f1w1s8sqrkeq12)" height="158.6875" id="Country" style="stroke:#A80036;stroke-width:1.5;" width="122" x="528.5" y="292"/><ellipse cx="565.1" cy="308" fill="#ADD1B2" rx="11" ry="11" style="stroke:#A80036;stroke-width:1.0;"/><path d="M567.1,304.5 Q567.3031,304 567.5375,303.75 Q567.7719,303.5 568.0375,303.5 Q568.5063,303.5 568.8031,303.7813 Q569.1,304.0625 569.1,304.7188 L569.1,306.2813 Q569.1,306.9375 568.8188,307.2188 Q568.5375,307.5 568.1,307.5 Q567.7094,307.5 567.4594,307.3281 Q567.2094,307.1563 567.1,306.7031 Q567.0531,306.3906 566.8813,306.2188 Q566.5688,305.8906 566.0063,305.7031 Q565.4438,305.5 564.8813,305.5 Q564.1781,305.5 563.5844,305.7813 Q563.0063,306.0625 562.5531,306.6875 Q562.1,307.3125 562.1,308.1719 L562.1,309.0938 Q562.1,310.125 562.9438,310.8125 Q563.7875,311.5 565.2875,311.5 Q566.1781,311.5 566.8031,311.2969 Q567.1625,311.1875 567.5688,310.8281 Q567.8344,310.625 567.975,310.5625 Q568.1156,310.5 568.2875,310.5 Q568.6156,310.5 568.85,310.7656 Q569.1,311.0156 569.1,311.375 Q569.1,311.7188 568.7563,312.125 Q568.2563,312.7188 567.4594,313.0469 Q566.4125,313.5 565.1313,313.5 Q563.6313,313.5 562.4281,312.9063 Q561.4594,312.4375 560.7719,311.4219 Q560.1,310.4063 560.1,309.2031 L560.1,308.1094 Q560.1,306.8594 560.6938,305.7656 Q561.3031,304.6719 562.35,304.0938 Q563.4125,303.5 564.6,303.5 Q565.3188,303.5 565.9438,303.75 Q566.5688,304 567.1,304.5 Z " fill="#000000"/><text fill="#000000" font-family="sans-serif" font-size="12" lengthAdjust="spacing" textLength="42" x="583.9" y="312.9102">Country</text><line style="stroke:#A80036;stroke-width:1.5;" x1="529.5" x2="649.5" y1="324" y2="324"/><rect fill="none" height="6" style="stroke:#C82930;stroke-width:1.0;" width="6" x="536.5" y="332"/><text fill="#000000" font-family="sans-serif" font-size="11" lengthAdjust="spacing" textLength="78" x="548.5" y="339.4189">continent: String</text><rect fill="none" height="6" style="stroke:#C82930;stroke-width:1.0;" width="6" x="536.5" y="345.8359"/><text fill="#000000" font-family="sans-serif" font-size="11" lengthAdjust="spacing" textLength="60" x="548.5" y="353.2549">name: String</text><rect fill="none" height="6" style="stroke:#C82930;stroke-width:1.0;" width="6" x="536.5" y="359.6719"/><text fill="#000000" font-family="sans-serif" font-size="11" lengthAdjust="spacing" textLength="96" x="548.5" y="367.0908">alpha2_code: String</text><rect fill="none" height="6" style="stroke:#C82930;stroke-width:1.0;" width="6" x="536.5" y="373.5078"/><text fill="#000000" font-family="sans-serif" font-size="11" lengthAdjust="spacing" textLength="96" x="548.5" y="380.9268">alpha3_code: String</text><rect fill="none" height="6" style="stroke:#C82930;stroke-width:1.0;" width="6" x="536.5" y="387.3438"/><text fill="#000000" font-family="sans-serif" font-size="11" lengthAdjust="spacing" textLength="65" x="548.5" y="394.7627">capital: String</text><rect fill="none" height="6" style="stroke:#C82930;stroke-width:1.0;" width="6" x="536.5" y="401.1797"/><text fill="#000000" font-family="sans-serif" font-size="11" lengthAdjust="spacing" textLength="61" x="548.5" y="408.5986">latitude: float</text><rect fill="none" height="6" style="stroke:#C82930;stroke-width:1.0;" width="6" x="536.5" y="415.0156"/><text fill="#000000" font-family="sans-serif" font-size="11" lengthAdjust="spacing" textLength="70" x="548.5" y="422.4346">longitude: float</text><rect fill="none" height="6" style="stroke:#C82930;stroke-width:1.0;" width="6" x="536.5" y="428.8516"/><text fill="#000000" font-family="sans-serif" font-size="11" lengthAdjust="spacing" textLength="76" x="548.5" y="436.2705">population: float</text><line style="stroke:#A80036;stroke-width:1.5;" x1="529.5" x2="649.5" y1="442.6875" y2="442.6875"/><!--MD5=[4580d9fe07e36d54de3df101f6c0e966]
link ShortestPathController to Company--><path codeLine="1" d="M263.67,69.14 C240.01,87.51 209.25,111.38 182.41,132.22 " fill="none" id="ShortestPathController-to-Company" style="stroke:#A80036;stroke-width:1.0;stroke-dasharray:7.0,7.0;"/><polygon fill="#A80036" points="178.13,135.54,187.6923,133.1815,182.0798,132.4742,182.7871,126.8618,178.13,135.54" style="stroke:#A80036;stroke-width:1.0;"/><!--MD5=[bf23b3a1f72a307ddda9cf29e28098fd]
link ShortestPathController to MatrixGraph--><path codeLine="2" d="M161.7,56.51 C117.89,69.34 74.14,91.35 47.5,129 C7.71,185.23 22.26,268.69 37.8,321.3 " fill="none" id="ShortestPathController-to-MatrixGraph" style="stroke:#A80036;stroke-width:1.0;stroke-dasharray:7.0,7.0;"/><polygon fill="#A80036" points="39.31,326.3,40.5418,316.5285,37.8667,321.5128,32.8823,318.8377,39.31,326.3" style="stroke:#A80036;stroke-width:1.0;"/><!--MD5=[04b079e307ad2b693c1363dc4025e0ce]
link Company to MatrixGraph--><path codeLine="3" d="M103.81,232.15 C94.14,259.84 82.22,293.98 72.64,321.42 " fill="none" id="Company-to-MatrixGraph" style="stroke:#A80036;stroke-width:1.0;stroke-dasharray:7.0,7.0;"/><polygon fill="#A80036" points="70.88,326.47,77.6121,319.2812,72.5209,321.7469,70.0552,316.6557,70.88,326.47" style="stroke:#A80036;stroke-width:1.0;"/><!--MD5=[16bddf22ef3b2279d2a68b12f0cd730e]
link ShortestPathController to GraphElement--><path codeLine="4" d="M326.31,69.14 C339.1,85.33 355.27,105.8 370.2,124.7 " fill="none" id="ShortestPathController-to-GraphElement" style="stroke:#A80036;stroke-width:1.0;stroke-dasharray:7.0,7.0;"/><polygon fill="#A80036" points="373.57,128.96,371.1181,119.4212,370.4658,125.0404,364.8466,124.388,373.57,128.96" style="stroke:#A80036;stroke-width:1.0;"/><!--MD5=[7db9c5f87819cad577796033b4f1831d]
link ShortestPathController to Port--><path codeLine="5" d="M305.4,69 C310.58,122.7 321.54,236.28 328.44,307.68 " fill="none" id="ShortestPathController-to-Port" style="stroke:#A80036;stroke-width:1.0;stroke-dasharray:7.0,7.0;"/><polygon fill="#A80036" points="328.93,312.75,332.0385,303.4046,328.4452,307.7736,324.0762,304.1803,328.93,312.75" style="stroke:#A80036;stroke-width:1.0;"/><!--MD5=[fb5a382ef95903a93ea6ace4566a581a]
link ShortestPathController to KdtPort--><path codeLine="6" d="M293.09,69 C273.84,130.36 230.06,269.9 209.52,335.36 " fill="none" id="ShortestPathController-to-KdtPort" style="stroke:#A80036;stroke-width:1.0;stroke-dasharray:7.0,7.0;"/><polygon fill="#A80036" points="207.97,340.33,214.485,332.9439,209.4695,335.5601,206.8532,330.5447,207.97,340.33" style="stroke:#A80036;stroke-width:1.0;"/><!--MD5=[8e79af3a84f48c5454b6d68ca1bfd25c]
link ShortestPathController to CountryStore--><path codeLine="7" d="M372.08,69.03 C407.71,85.31 451.3,106.64 488.5,129 C497.25,134.26 506.27,140.33 514.8,146.41 " fill="none" id="ShortestPathController-to-CountryStore" style="stroke:#A80036;stroke-width:1.0;stroke-dasharray:7.0,7.0;"/><polygon fill="#A80036" points="518.94,149.39,513.9639,140.8907,514.8791,146.473,509.2967,147.3881,518.94,149.39" style="stroke:#A80036;stroke-width:1.0;"/><!--MD5=[b3508693fa16e1126a1fc609796f8a97]
link Company to KdtPort--><path codeLine="8" d="M142.13,232.15 C155.44,264.81 172.41,306.46 184.23,335.48 " fill="none" id="Company-to-KdtPort" style="stroke:#A80036;stroke-width:1.0;stroke-dasharray:7.0,7.0;"/><polygon fill="#A80036" points="186.23,340.39,186.5387,330.546,184.3435,335.7595,179.13,333.5644,186.23,340.39" style="stroke:#A80036;stroke-width:1.0;"/><!--MD5=[aad5858678b7d6bcd85a2e7fa2be9519]
link GraphElement to Port--><path codeLine="9" d="M392.33,232.15 C382.6,255.42 370.97,283.25 360.7,307.82 " fill="none" id="GraphElement-to-Port" style="stroke:#A80036;stroke-width:1.0;stroke-dasharray:7.0,7.0;"/><polygon fill="#A80036" points="358.66,312.69,365.8213,305.9286,360.5881,308.0767,358.44,302.8436,358.66,312.69" style="stroke:#A80036;stroke-width:1.0;"/><!--MD5=[ef7a6a6b639648c3b7617080c3e46688]
link ShortestPathController to Country--><path codeLine="10" d="M443.14,60.82 C519.7,75.88 603.45,98.67 626.5,129 C660.44,173.65 649.45,236.61 630.88,287.05 " fill="none" id="ShortestPathController-to-Country" style="stroke:#A80036;stroke-width:1.0;stroke-dasharray:7.0,7.0;"/><polygon fill="#A80036" points="629.06,291.89,635.9654,284.8675,630.8156,287.2084,628.4748,282.0585,629.06,291.89" style="stroke:#A80036;stroke-width:1.0;"/><!--MD5=[13256c403d692a9633e5350d253fb261]
link GraphElement to Country--><path codeLine="11" d="M460.66,232.15 C480.3,253.23 503.42,278.06 524.62,300.83 " fill="none" id="GraphElement-to-Country" style="stroke:#A80036;stroke-width:1.0;stroke-dasharray:7.0,7.0;"/><polygon fill="#A80036" points="528.28,304.75,525.0621,295.4417,524.8679,301.0952,519.2144,300.901,528.28,304.75" style="stroke:#A80036;stroke-width:1.0;"/><!--MD5=[2fef886c0670ee11aa88bdf8d0070a00]
@startuml
ShortestPathController ..>Company
ShortestPathController ..>MatrixGraph
Company ..>MatrixGraph
ShortestPathController ..>GraphElement
ShortestPathController ..>Port
ShortestPathController ..>KdtPort
ShortestPathController ..>CountryStore
Company ..>KdtPort
GraphElement ..>Port
ShortestPathController ..>Country
GraphElement ..>Country


ShortestPathController : +shortestPath(String departure, String arrival, int path)


Company : +Company()
Company : +getMatrixGraph()
Company : +getCountryStore()
Company : +getKdtPorts()

KdtPort : +inOrder()

CountryStore : +getCountries()

Port : -code: int
Port : -name: String
Port : -country: Country
Port : -latitude: float
Port : -longitude: float

MatrixGraph : +numVertices()
MatrixGraph : +vertex(int i)
MatrixGraph : +adjVertices()

GraphElement : -designation: String
GraphElement : -country: String
GraphElement : -latitude: float
GraphElement : -longitude: float

Country : -continent: String
Country : -name: String
Country : -alpha2_code: String
Country : -alpha3_code: String
Country : -capital: String
Country : -latitude: float
Country : -longitude: float
Country : -population: float
@enduml

PlantUML version 1.2021.5(Sun Apr 25 12:20:28 BST 2021)
(GPL source distribution)
Java Runtime: OpenJDK Runtime Environment
JVM: OpenJDK 64-Bit Server VM
Default Encoding: Cp1252
Language: pt
Country: PT
--></g></svg>