<?xml version="1.0" encoding="UTF-8" standalone="no"?><svg xmlns="http://www.w3.org/2000/svg" xmlns:xlink="http://www.w3.org/1999/xlink" contentScriptType="application/ecmascript" contentStyleType="text/css" height="564px" preserveAspectRatio="none" style="width:461px;height:564px;" version="1.1" viewBox="0 0 461 564" width="461px" zoomAndPan="magnify"><defs><filter height="300%" id="f1r2h204l27bg2" width="300%" x="-1" y="-1"><feGaussianBlur result="blurOut" stdDeviation="2.0"/><feColorMatrix in="blurOut" result="blurOut2" type="matrix" values="0 0 0 0 0 0 0 0 0 0 0 0 0 0 0 0 0 0 .4 0"/><feOffset dx="4.0" dy="4.0" in="blurOut2" result="blurOut3"/><feBlend in="SourceGraphic" in2="blurOut3" mode="normal"/></filter></defs><g><!--MD5=[6bdb984f9d485c61953e26cb39e9f51f]
class VesselSinkingController--><rect fill="#FEFECE" filter="url(#f1r2h204l27bg2)" height="61.8359" id="VesselSinkingController" style="stroke:#A80036;stroke-width:1.5;" width="312" x="12.5" y="7"/><ellipse cx="97.75" cy="23" fill="#ADD1B2" rx="11" ry="11" style="stroke:#A80036;stroke-width:1.0;"/><path d="M99.75,19.5 Q99.9531,19 100.1875,18.75 Q100.4219,18.5 100.6875,18.5 Q101.1563,18.5 101.4531,18.7813 Q101.75,19.0625 101.75,19.7188 L101.75,21.2813 Q101.75,21.9375 101.4688,22.2188 Q101.1875,22.5 100.75,22.5 Q100.3594,22.5 100.1094,22.3281 Q99.8594,22.1563 99.75,21.7031 Q99.7031,21.3906 99.5313,21.2188 Q99.2188,20.8906 98.6563,20.7031 Q98.0938,20.5 97.5313,20.5 Q96.8281,20.5 96.2344,20.7813 Q95.6563,21.0625 95.2031,21.6875 Q94.75,22.3125 94.75,23.1719 L94.75,24.0938 Q94.75,25.125 95.5938,25.8125 Q96.4375,26.5 97.9375,26.5 Q98.8281,26.5 99.4531,26.2969 Q99.8125,26.1875 100.2188,25.8281 Q100.4844,25.625 100.625,25.5625 Q100.7656,25.5 100.9375,25.5 Q101.2656,25.5 101.5,25.7656 Q101.75,26.0156 101.75,26.375 Q101.75,26.7188 101.4063,27.125 Q100.9063,27.7188 100.1094,28.0469 Q99.0625,28.5 97.7813,28.5 Q96.2813,28.5 95.0781,27.9063 Q94.1094,27.4375 93.4219,26.4219 Q92.75,25.4063 92.75,24.2031 L92.75,23.1094 Q92.75,21.8594 93.3438,20.7656 Q93.9531,19.6719 95,19.0938 Q96.0625,18.5 97.25,18.5 Q97.9688,18.5 98.5938,18.75 Q99.2188,19 99.75,19.5 Z " fill="#000000"/><text fill="#000000" font-family="sans-serif" font-size="12" lengthAdjust="spacing" textLength="133" x="118.25" y="27.9102">VesselSinkingController</text><line style="stroke:#A80036;stroke-width:1.5;" x1="13.5" x2="323.5" y1="39" y2="39"/><line style="stroke:#A80036;stroke-width:1.5;" x1="13.5" x2="323.5" y1="47" y2="47"/><ellipse cx="23.5" cy="58" fill="#84BE84" rx="3" ry="3" style="stroke:#038048;stroke-width:1.0;"/><text fill="#000000" font-family="sans-serif" font-size="11" lengthAdjust="spacing" textLength="286" x="32.5" y="62.4189">getVesselSank(String typeOfShip, int numberOfContainers)</text><!--MD5=[02e4b9b7573f1156f41e60aa5b4e25a4]
class Company--><rect fill="#FEFECE" filter="url(#f1r2h204l27bg2)" height="61.8359" id="Company" style="stroke:#A80036;stroke-width:1.5;" width="85" x="7" y="309"/><ellipse cx="22" cy="325" fill="#ADD1B2" rx="11" ry="11" style="stroke:#A80036;stroke-width:1.0;"/><path d="M24,321.5 Q24.2031,321 24.4375,320.75 Q24.6719,320.5 24.9375,320.5 Q25.4063,320.5 25.7031,320.7813 Q26,321.0625 26,321.7188 L26,323.2813 Q26,323.9375 25.7188,324.2188 Q25.4375,324.5 25,324.5 Q24.6094,324.5 24.3594,324.3281 Q24.1094,324.1563 24,323.7031 Q23.9531,323.3906 23.7813,323.2188 Q23.4688,322.8906 22.9063,322.7031 Q22.3438,322.5 21.7813,322.5 Q21.0781,322.5 20.4844,322.7813 Q19.9063,323.0625 19.4531,323.6875 Q19,324.3125 19,325.1719 L19,326.0938 Q19,327.125 19.8438,327.8125 Q20.6875,328.5 22.1875,328.5 Q23.0781,328.5 23.7031,328.2969 Q24.0625,328.1875 24.4688,327.8281 Q24.7344,327.625 24.875,327.5625 Q25.0156,327.5 25.1875,327.5 Q25.5156,327.5 25.75,327.7656 Q26,328.0156 26,328.375 Q26,328.7188 25.6563,329.125 Q25.1563,329.7188 24.3594,330.0469 Q23.3125,330.5 22.0313,330.5 Q20.5313,330.5 19.3281,329.9063 Q18.3594,329.4375 17.6719,328.4219 Q17,327.4063 17,326.2031 L17,325.1094 Q17,323.8594 17.5938,322.7656 Q18.2031,321.6719 19.25,321.0938 Q20.3125,320.5 21.5,320.5 Q22.2188,320.5 22.8438,320.75 Q23.4688,321 24,321.5 Z " fill="#000000"/><text fill="#000000" font-family="sans-serif" font-size="12" lengthAdjust="spacing" textLength="53" x="36" y="329.9102">Company</text><line style="stroke:#A80036;stroke-width:1.5;" x1="8" x2="91" y1="341" y2="341"/><line style="stroke:#A80036;stroke-width:1.5;" x1="8" x2="91" y1="349" y2="349"/><ellipse cx="18" cy="360" fill="#84BE84" rx="3" ry="3" style="stroke:#038048;stroke-width:1.0;"/><text fill="#000000" font-family="sans-serif" font-size="11" lengthAdjust="spacing" textLength="53" x="27" y="364.4189">Company()</text><!--MD5=[54aad14a3dc9eb13394f6263688d6dd1]
class VesselSinking--><rect fill="#FEFECE" filter="url(#f1r2h204l27bg2)" height="421.5703" id="VesselSinking" style="stroke:#A80036;stroke-width:1.5;" width="320" x="127.5" y="129"/><ellipse cx="243.75" cy="145" fill="#ADD1B2" rx="11" ry="11" style="stroke:#A80036;stroke-width:1.0;"/><path d="M245.75,141.5 Q245.9531,141 246.1875,140.75 Q246.4219,140.5 246.6875,140.5 Q247.1563,140.5 247.4531,140.7813 Q247.75,141.0625 247.75,141.7188 L247.75,143.2813 Q247.75,143.9375 247.4688,144.2188 Q247.1875,144.5 246.75,144.5 Q246.3594,144.5 246.1094,144.3281 Q245.8594,144.1563 245.75,143.7031 Q245.7031,143.3906 245.5313,143.2188 Q245.2188,142.8906 244.6563,142.7031 Q244.0938,142.5 243.5313,142.5 Q242.8281,142.5 242.2344,142.7813 Q241.6563,143.0625 241.2031,143.6875 Q240.75,144.3125 240.75,145.1719 L240.75,146.0938 Q240.75,147.125 241.5938,147.8125 Q242.4375,148.5 243.9375,148.5 Q244.8281,148.5 245.4531,148.2969 Q245.8125,148.1875 246.2188,147.8281 Q246.4844,147.625 246.625,147.5625 Q246.7656,147.5 246.9375,147.5 Q247.2656,147.5 247.5,147.7656 Q247.75,148.0156 247.75,148.375 Q247.75,148.7188 247.4063,149.125 Q246.9063,149.7188 246.1094,150.0469 Q245.0625,150.5 243.7813,150.5 Q242.2813,150.5 241.0781,149.9063 Q240.1094,149.4375 239.4219,148.4219 Q238.75,147.4063 238.75,146.2031 L238.75,145.1094 Q238.75,143.8594 239.3438,142.7656 Q239.9531,141.6719 241,141.0938 Q242.0625,140.5 243.25,140.5 Q243.9688,140.5 244.5938,140.75 Q245.2188,141 245.75,141.5 Z " fill="#000000"/><text fill="#000000" font-family="sans-serif" font-size="12" lengthAdjust="spacing" textLength="79" x="264.25" y="149.9102">VesselSinking</text><line style="stroke:#A80036;stroke-width:1.5;" x1="128.5" x2="446.5" y1="161" y2="161"/><rect fill="none" height="6" style="stroke:#C82930;stroke-width:1.0;" width="6" x="135.5" y="169"/><text fill="#000000" font-family="sans-serif" font-size="11" lengthAdjust="spacing" textLength="65" x="147.5" y="176.4189">vesselLenght</text><rect fill="none" height="6" style="stroke:#C82930;stroke-width:1.0;" width="6" x="135.5" y="182.8359"/><text fill="#000000" font-family="sans-serif" font-size="11" lengthAdjust="spacing" textLength="59" x="147.5" y="190.2549">vesselWidth</text><rect fill="none" height="6" style="stroke:#C82930;stroke-width:1.0;" width="6" x="135.5" y="196.6719"/><text fill="#000000" font-family="sans-serif" font-size="11" lengthAdjust="spacing" textLength="37" x="147.5" y="204.0908">tipMass</text><rect fill="none" height="6" style="stroke:#C82930;stroke-width:1.0;" width="6" x="135.5" y="210.5078"/><text fill="#000000" font-family="sans-serif" font-size="11" lengthAdjust="spacing" textLength="50" x="147.5" y="217.9268">bodyMass</text><rect fill="none" height="6" style="stroke:#C82930;stroke-width:1.0;" width="6" x="135.5" y="224.3438"/><text fill="#000000" font-family="sans-serif" font-size="11" lengthAdjust="spacing" textLength="55" x="147.5" y="231.7627">towerMass</text><rect fill="none" height="6" style="stroke:#C82930;stroke-width:1.0;" width="6" x="135.5" y="238.1797"/><text fill="#000000" font-family="sans-serif" font-size="11" lengthAdjust="spacing" textLength="73" x="147.5" y="245.5986">forceWOCargo</text><rect fill="none" height="6" style="stroke:#C82930;stroke-width:1.0;" width="6" x="135.5" y="252.0156"/><text fill="#000000" font-family="sans-serif" font-size="11" lengthAdjust="spacing" textLength="65" x="147.5" y="259.4346">forceWCargo</text><rect fill="none" height="6" style="stroke:#C82930;stroke-width:1.0;" width="6" x="135.5" y="265.8516"/><text fill="#000000" font-family="sans-serif" font-size="11" lengthAdjust="spacing" textLength="91" x="147.5" y="273.2705">pressureWOCargo</text><rect fill="none" height="6" style="stroke:#C82930;stroke-width:1.0;" width="6" x="135.5" y="279.6875"/><text fill="#000000" font-family="sans-serif" font-size="11" lengthAdjust="spacing" textLength="83" x="147.5" y="287.1064">pressureWCargo</text><rect fill="none" height="6" style="stroke:#C82930;stroke-width:1.0;" width="6" x="135.5" y="293.5234"/><text fill="#000000" font-family="sans-serif" font-size="11" lengthAdjust="spacing" textLength="81" x="147.5" y="300.9424">vesselBaseArea</text><rect fill="none" height="6" style="stroke:#C82930;stroke-width:1.0;" width="6" x="135.5" y="307.3594"/><text fill="#000000" font-family="sans-serif" font-size="11" lengthAdjust="spacing" textLength="90" x="147.5" y="314.7783">vesselPlacedMass</text><rect fill="none" height="6" style="stroke:#C82930;stroke-width:1.0;" width="6" x="135.5" y="321.1953"/><text fill="#000000" font-family="sans-serif" font-size="11" lengthAdjust="spacing" textLength="100" x="147.5" y="328.6143">numberOfContainers</text><rect fill="none" height="6" style="stroke:#C82930;stroke-width:1.0;" width="6" x="135.5" y="335.0313"/><text fill="#000000" font-family="sans-serif" font-size="11" lengthAdjust="spacing" textLength="143" x="147.5" y="342.4502">SEAWATER_DENSITY=1030d</text><rect fill="none" height="6" style="stroke:#C82930;stroke-width:1.0;" width="6" x="135.5" y="348.8672"/><text fill="#000000" font-family="sans-serif" font-size="11" lengthAdjust="spacing" textLength="53" x="147.5" y="356.2861">draft = 15d</text><rect fill="none" height="6" style="stroke:#C82930;stroke-width:1.0;" width="6" x="135.5" y="362.7031"/><text fill="#000000" font-family="sans-serif" font-size="11" lengthAdjust="spacing" textLength="107" x="147.5" y="370.1221">containerMass = 500d</text><rect fill="none" height="6" style="stroke:#C82930;stroke-width:1.0;" width="6" x="135.5" y="376.5391"/><text fill="#000000" font-family="sans-serif" font-size="11" lengthAdjust="spacing" textLength="154" x="147.5" y="383.958">GRAVITATIONAL_FORCE = 10d</text><rect fill="none" height="6" style="stroke:#C82930;stroke-width:1.0;" width="6" x="135.5" y="390.375"/><text fill="#000000" font-family="sans-serif" font-size="11" lengthAdjust="spacing" textLength="119" x="147.5" y="397.7939">vesselHeightBeforerSink</text><rect fill="none" height="6" style="stroke:#C82930;stroke-width:1.0;" width="6" x="135.5" y="404.2109"/><text fill="#000000" font-family="sans-serif" font-size="11" lengthAdjust="spacing" textLength="66" x="147.5" y="411.6299">vesselSinking</text><rect fill="none" height="6" style="stroke:#C82930;stroke-width:1.0;" width="6" x="135.5" y="418.0469"/><text fill="#000000" font-family="sans-serif" font-size="11" lengthAdjust="spacing" textLength="69" x="147.5" y="425.4658">centerOfMass</text><line style="stroke:#A80036;stroke-width:1.5;" x1="128.5" x2="446.5" y1="431.8828" y2="431.8828"/><ellipse cx="138.5" cy="442.8828" fill="#84BE84" rx="3" ry="3" style="stroke:#038048;stroke-width:1.0;"/><text fill="#000000" font-family="sans-serif" font-size="11" lengthAdjust="spacing" textLength="294" x="147.5" y="447.3018">VesselSinking(String typeOfVessel, int numberOfContainers)</text><ellipse cx="138.5" cy="456.7188" fill="#84BE84" rx="3" ry="3" style="stroke:#038048;stroke-width:1.0;"/><text fill="#000000" font-family="sans-serif" font-size="11" lengthAdjust="spacing" textLength="116" x="147.5" y="461.1377">getForceWithoutCargo()</text><ellipse cx="138.5" cy="470.5547" fill="#84BE84" rx="3" ry="3" style="stroke:#038048;stroke-width:1.0;"/><text fill="#000000" font-family="sans-serif" font-size="11" lengthAdjust="spacing" textLength="101" x="147.5" y="474.9736">getForceWithCargo()</text><ellipse cx="138.5" cy="484.3906" fill="#84BE84" rx="3" ry="3" style="stroke:#038048;stroke-width:1.0;"/><text fill="#000000" font-family="sans-serif" font-size="11" lengthAdjust="spacing" textLength="115" x="147.5" y="488.8096">getVesselPlacedMass()</text><ellipse cx="138.5" cy="498.2266" fill="#84BE84" rx="3" ry="3" style="stroke:#038048;stroke-width:1.0;"/><text fill="#000000" font-family="sans-serif" font-size="11" lengthAdjust="spacing" textLength="106" x="147.5" y="502.6455">getVesselBaseArea()</text><ellipse cx="138.5" cy="512.0625" fill="#84BE84" rx="3" ry="3" style="stroke:#038048;stroke-width:1.0;"/><text fill="#000000" font-family="sans-serif" font-size="11" lengthAdjust="spacing" textLength="114" x="147.5" y="516.4814">getPressureWOCargo()</text><ellipse cx="138.5" cy="525.8984" fill="#84BE84" rx="3" ry="3" style="stroke:#038048;stroke-width:1.0;"/><text fill="#000000" font-family="sans-serif" font-size="11" lengthAdjust="spacing" textLength="106" x="147.5" y="530.3174">getPressureWCargo()</text><ellipse cx="138.5" cy="539.7344" fill="#84BE84" rx="3" ry="3" style="stroke:#038048;stroke-width:1.0;"/><text fill="#000000" font-family="sans-serif" font-size="11" lengthAdjust="spacing" textLength="144" x="147.5" y="544.1533">getVesselHeightBeforerSink()</text><!--MD5=[43ca23c0eb71398d2fc069cad850ac75]
link VesselSinkingController to Company--><path codeLine="1" d="M145.31,69.31 C133.29,86.16 119.14,107.93 109.5,129 C82.66,187.64 65,261.06 56.17,303.73 " fill="none" id="VesselSinkingController-to-Company" style="stroke:#A80036;stroke-width:1.0;stroke-dasharray:7.0,7.0;"/><polygon fill="#A80036" points="55.13,308.78,60.8489,300.7616,56.1298,303.881,53.0104,299.1619,55.13,308.78" style="stroke:#A80036;stroke-width:1.0;"/><!--MD5=[93703a671c5462f9846a0f6feae7939a]
link VesselSinkingController to VesselSinking--><path codeLine="2" d="M180.46,69.14 C186.26,83.78 193.8,102.78 202.19,123.93 " fill="none" id="VesselSinkingController-to-VesselSinking" style="stroke:#A80036;stroke-width:1.0;stroke-dasharray:7.0,7.0;"/><polygon fill="#A80036" points="204.11,128.76,204.5179,118.9196,202.2703,124.1108,197.0791,121.8632,204.11,128.76" style="stroke:#A80036;stroke-width:1.0;"/><!--MD5=[3f180085153843cac0882542f017cf5b]
@startuml
VesselSinkingController ..>Company
VesselSinkingController ..>VesselSinking


VesselSinkingController : +getVesselSank(String typeOfShip, int numberOfContainers)


Company : +Company()
VesselSinking : - vesselLenght
VesselSinking : - vesselWidth
VesselSinking : - tipMass
VesselSinking : - bodyMass
VesselSinking : - towerMass
VesselSinking : - forceWOCargo
VesselSinking : - forceWCargo
VesselSinking : - pressureWOCargo
VesselSinking : - pressureWCargo
VesselSinking : - vesselBaseArea
VesselSinking : - vesselPlacedMass
VesselSinking : - numberOfContainers
VesselSinking : - SEAWATER_DENSITY=1030d
VesselSinking : - draft = 15d
VesselSinking : - containerMass = 500d
VesselSinking : - GRAVITATIONAL_FORCE = 10d
VesselSinking : - vesselHeightBeforerSink
VesselSinking : - vesselSinking
VesselSinking : - centerOfMass
VesselSinking : + VesselSinking(String typeOfVessel, int numberOfContainers)
VesselSinking : + getForceWithoutCargo()
VesselSinking : + getForceWithCargo()
VesselSinking : + getVesselPlacedMass()
VesselSinking : + getVesselBaseArea()
VesselSinking : + getPressureWOCargo()
VesselSinking : + getPressureWCargo()
VesselSinking : + getVesselHeightBeforerSink()
@enduml

PlantUML version 1.2021.5(Sun Apr 25 12:20:28 BST 2021)
(GPL source distribution)
Java Runtime: OpenJDK Runtime Environment
JVM: OpenJDK 64-Bit Server VM
Default Encoding: Cp1252
Language: pt
Country: PT
--></g></svg>