<?xml version="1.0" encoding="UTF-8" standalone="no"?><svg xmlns="http://www.w3.org/2000/svg" xmlns:xlink="http://www.w3.org/1999/xlink" contentScriptType="application/ecmascript" contentStyleType="text/css" height="438px" preserveAspectRatio="none" style="width:1378px;height:438px;background:#FFFFFF;" version="1.1" viewBox="0 0 1378 438" width="1378px" zoomAndPan="magnify"><defs><filter height="300%" id="fdqhengabgwu2" width="300%" x="-1" y="-1"><feGaussianBlur result="blurOut" stdDeviation="2.0"/><feColorMatrix in="blurOut" result="blurOut2" type="matrix" values="0 0 0 0 0 0 0 0 0 0 0 0 0 0 0 0 0 0 .4 0"/><feOffset dx="4.0" dy="4.0" in="blurOut2" result="blurOut3"/><feBlend in="SourceGraphic" in2="blurOut3" mode="normal"/></filter></defs><g><rect fill="#FFFFFF" filter="url(#fdqhengabgwu2)" height="238.0625" style="stroke:#A80036;stroke-width:1.0;" width="10" x="59" y="98.2969"/><rect fill="#FFFFFF" filter="url(#fdqhengabgwu2)" height="216.9297" style="stroke:#A80036;stroke-width:1.0;" width="10" x="648" y="119.4297"/><rect fill="#FFFFFF" filter="url(#fdqhengabgwu2)" height="187.7969" style="stroke:#A80036;stroke-width:1.0;" width="10" x="917" y="148.5625"/><rect fill="#FFFFFF" filter="url(#fdqhengabgwu2)" height="71.2656" style="stroke:#A80036;stroke-width:1.0;" width="10" x="1105" y="177.6953"/><rect fill="#FFFFFF" filter="url(#fdqhengabgwu2)" height="29.1328" style="stroke:#A80036;stroke-width:1.0;" width="10" x="1303" y="248.9609"/><line style="stroke:#A80036;stroke-width:1.0;stroke-dasharray:5.0,5.0;" x1="64" x2="64" y1="88.2969" y2="354.3594"/><line style="stroke:#A80036;stroke-width:1.0;stroke-dasharray:5.0,5.0;" x1="652.5" x2="652.5" y1="88.2969" y2="354.3594"/><line style="stroke:#A80036;stroke-width:1.0;stroke-dasharray:5.0,5.0;" x1="921.5" x2="921.5" y1="88.2969" y2="354.3594"/><line style="stroke:#A80036;stroke-width:1.0;stroke-dasharray:5.0,5.0;" x1="1109.5" x2="1109.5" y1="88.2969" y2="354.3594"/><line style="stroke:#A80036;stroke-width:1.0;stroke-dasharray:5.0,5.0;" x1="1307.5" x2="1307.5" y1="88.2969" y2="354.3594"/><text fill="#000000" font-family="sans-serif" font-size="14" lengthAdjust="spacing" textLength="112" x="5" y="84.9951">Traffic Manager</text><ellipse cx="64" cy="15" fill="#FEFECE" filter="url(#fdqhengabgwu2)" rx="8" ry="8" style="stroke:#A80036;stroke-width:2.0;"/><path d="M64,23 L64,50 M51,31 L77,31 M64,50 L51,65 M64,50 L77,65 " fill="none" filter="url(#fdqhengabgwu2)" style="stroke:#A80036;stroke-width:2.0;"/><text fill="#000000" font-family="sans-serif" font-size="14" lengthAdjust="spacing" textLength="112" x="5" y="366.3545">Traffic Manager</text><ellipse cx="64" cy="379.6563" fill="#FEFECE" filter="url(#fdqhengabgwu2)" rx="8" ry="8" style="stroke:#A80036;stroke-width:2.0;"/><path d="M64,387.6563 L64,414.6563 M51,395.6563 L77,395.6563 M64,414.6563 L51,429.6563 M64,414.6563 L77,429.6563 " fill="none" filter="url(#fdqhengabgwu2)" style="stroke:#A80036;stroke-width:2.0;"/><rect fill="#FEFECE" filter="url(#fdqhengabgwu2)" height="30.2969" style="stroke:#A80036;stroke-width:1.5;" width="225" x="538.5" y="53"/><text fill="#000000" font-family="sans-serif" font-size="14" lengthAdjust="spacing" textLength="211" x="545.5" y="72.9951">:ShipsAvailableNextMondayUI</text><rect fill="#FEFECE" filter="url(#fdqhengabgwu2)" height="30.2969" style="stroke:#A80036;stroke-width:1.5;" width="225" x="538.5" y="353.3594"/><text fill="#000000" font-family="sans-serif" font-size="14" lengthAdjust="spacing" textLength="211" x="545.5" y="373.3545">:ShipsAvailableNextMondayUI</text><rect fill="#FEFECE" filter="url(#fdqhengabgwu2)" height="30.2969" style="stroke:#A80036;stroke-width:1.5;" width="285" x="777.5" y="53"/><text fill="#000000" font-family="sans-serif" font-size="14" lengthAdjust="spacing" textLength="271" x="784.5" y="72.9951">:ShipsAvailableNextMondayController</text><rect fill="#FEFECE" filter="url(#fdqhengabgwu2)" height="30.2969" style="stroke:#A80036;stroke-width:1.5;" width="285" x="777.5" y="353.3594"/><text fill="#000000" font-family="sans-serif" font-size="14" lengthAdjust="spacing" textLength="271" x="784.5" y="373.3545">:ShipsAvailableNextMondayController</text><rect fill="#FEFECE" filter="url(#fdqhengabgwu2)" height="30.2969" style="stroke:#A80036;stroke-width:1.5;" width="63" x="1076.5" y="53"/><text fill="#000000" font-family="sans-serif" font-size="14" lengthAdjust="spacing" textLength="49" x="1083.5" y="72.9951">:US210</text><rect fill="#FEFECE" filter="url(#fdqhengabgwu2)" height="30.2969" style="stroke:#A80036;stroke-width:1.5;" width="63" x="1076.5" y="353.3594"/><text fill="#000000" font-family="sans-serif" font-size="14" lengthAdjust="spacing" textLength="49" x="1083.5" y="373.3545">:US210</text><rect fill="#FEFECE" filter="url(#fdqhengabgwu2)" height="30.2969" style="stroke:#A80036;stroke-width:1.5;" width="117" x="1247.5" y="53"/><text fill="#000000" font-family="sans-serif" font-size="14" lengthAdjust="spacing" textLength="103" x="1254.5" y="72.9951">:FileOperation</text><rect fill="#FEFECE" filter="url(#fdqhengabgwu2)" height="30.2969" style="stroke:#A80036;stroke-width:1.5;" width="117" x="1247.5" y="353.3594"/><text fill="#000000" font-family="sans-serif" font-size="14" lengthAdjust="spacing" textLength="103" x="1254.5" y="373.3545">:FileOperation</text><rect fill="#FFFFFF" filter="url(#fdqhengabgwu2)" height="238.0625" style="stroke:#A80036;stroke-width:1.0;" width="10" x="59" y="98.2969"/><rect fill="#FFFFFF" filter="url(#fdqhengabgwu2)" height="216.9297" style="stroke:#A80036;stroke-width:1.0;" width="10" x="648" y="119.4297"/><rect fill="#FFFFFF" filter="url(#fdqhengabgwu2)" height="187.7969" style="stroke:#A80036;stroke-width:1.0;" width="10" x="917" y="148.5625"/><rect fill="#FFFFFF" filter="url(#fdqhengabgwu2)" height="71.2656" style="stroke:#A80036;stroke-width:1.0;" width="10" x="1105" y="177.6953"/><rect fill="#FFFFFF" filter="url(#fdqhengabgwu2)" height="29.1328" style="stroke:#A80036;stroke-width:1.0;" width="10" x="1303" y="248.9609"/><polygon fill="#A80036" points="636,115.4297,646,119.4297,636,123.4297,640,119.4297" style="stroke:#A80036;stroke-width:1.0;"/><line style="stroke:#A80036;stroke-width:1.0;" x1="69" x2="642" y1="119.4297" y2="119.4297"/><text fill="#000000" font-family="sans-serif" font-size="13" font-weight="bold" lengthAdjust="spacing" textLength="9" x="76" y="114.3638">1</text><text fill="#000000" font-family="sans-serif" font-size="13" lengthAdjust="spacing" textLength="547" x="89" y="114.3638">request to know which ships will be available on Monday next week and their location</text><polygon fill="#A80036" points="905,144.5625,915,148.5625,905,152.5625,909,148.5625" style="stroke:#A80036;stroke-width:1.0;"/><line style="stroke:#A80036;stroke-width:1.0;" x1="658" x2="911" y1="148.5625" y2="148.5625"/><text fill="#000000" font-family="sans-serif" font-size="13" font-weight="bold" lengthAdjust="spacing" textLength="9" x="665" y="143.4966">2</text><text fill="#000000" font-family="sans-serif" font-size="13" lengthAdjust="spacing" textLength="82" x="678" y="143.4966">createUS210</text><polygon fill="#A80036" points="1093,173.6953,1103,177.6953,1093,181.6953,1097,177.6953" style="stroke:#A80036;stroke-width:1.0;"/><line style="stroke:#A80036;stroke-width:1.0;" x1="927" x2="1099" y1="177.6953" y2="177.6953"/><text fill="#000000" font-family="sans-serif" font-size="13" font-weight="bold" lengthAdjust="spacing" textLength="8" x="934" y="172.6294">3</text><text fill="#000000" font-family="sans-serif" font-size="13" lengthAdjust="spacing" textLength="47" x="946" y="172.6294">demo()</text><line style="stroke:#A80036;stroke-width:1.0;" x1="1115" x2="1157" y1="206.8281" y2="206.8281"/><line style="stroke:#A80036;stroke-width:1.0;" x1="1157" x2="1157" y1="206.8281" y2="219.8281"/><line style="stroke:#A80036;stroke-width:1.0;" x1="1116" x2="1157" y1="219.8281" y2="219.8281"/><polygon fill="#A80036" points="1126,215.8281,1116,219.8281,1126,223.8281,1122,219.8281" style="stroke:#A80036;stroke-width:1.0;"/><text fill="#000000" font-family="sans-serif" font-size="13" font-weight="bold" lengthAdjust="spacing" textLength="9" x="1122" y="201.7622">4</text><text fill="#000000" font-family="sans-serif" font-size="13" lengthAdjust="spacing" textLength="51" x="1135" y="201.7622">initialize</text><polygon fill="#A80036" points="1291,244.9609,1301,248.9609,1291,252.9609,1295,248.9609" style="stroke:#A80036;stroke-width:1.0;"/><line style="stroke:#A80036;stroke-width:1.0;" x1="1110" x2="1297" y1="248.9609" y2="248.9609"/><text fill="#000000" font-family="sans-serif" font-size="13" font-weight="bold" lengthAdjust="spacing" textLength="9" x="1117" y="243.895">5</text><text fill="#000000" font-family="sans-serif" font-size="13" lengthAdjust="spacing" textLength="156" x="1130" y="243.895">WriteToAFile(path, data)</text><polygon fill="#A80036" points="938,274.0938,928,278.0938,938,282.0938,934,278.0938" style="stroke:#A80036;stroke-width:1.0;"/><line style="stroke:#A80036;stroke-width:1.0;stroke-dasharray:2.0,2.0;" x1="932" x2="1307" y1="278.0938" y2="278.0938"/><text fill="#000000" font-family="sans-serif" font-size="13" font-weight="bold" lengthAdjust="spacing" textLength="9" x="944" y="273.0278">6</text><text fill="#000000" font-family="sans-serif" font-size="13" lengthAdjust="spacing" textLength="19" x="957" y="273.0278">file</text><polygon fill="#A80036" points="669,303.2266,659,307.2266,669,311.2266,665,307.2266" style="stroke:#A80036;stroke-width:1.0;"/><line style="stroke:#A80036;stroke-width:1.0;stroke-dasharray:2.0,2.0;" x1="663" x2="916" y1="307.2266" y2="307.2266"/><text fill="#000000" font-family="sans-serif" font-size="13" font-weight="bold" lengthAdjust="spacing" textLength="9" x="675" y="302.1606">7</text><text fill="#000000" font-family="sans-serif" font-size="13" lengthAdjust="spacing" textLength="19" x="688" y="302.1606">file</text><polygon fill="#A80036" points="75,332.3594,65,336.3594,75,340.3594,71,336.3594" style="stroke:#A80036;stroke-width:1.0;"/><line style="stroke:#A80036;stroke-width:1.0;stroke-dasharray:2.0,2.0;" x1="69" x2="652" y1="336.3594" y2="336.3594"/><text fill="#000000" font-family="sans-serif" font-size="13" font-weight="bold" lengthAdjust="spacing" textLength="9" x="81" y="331.2935">8</text><text fill="#000000" font-family="sans-serif" font-size="13" lengthAdjust="spacing" textLength="168" x="94" y="331.2935">shows the requested data</text><!--MD5=[1895b46aa5e0db6e18877274c5c35133]
@startuml
actor "Traffic Manager" as Adm
participant ":ShipsAvailableNextMondayUI" as System
participant ":ShipsAvailableNextMondayController" as SSC
participant ":US210" as us
participant ":FileOperation" as f

autonumber

activate Adm

Adm -> System: request to know which ships will be available on Monday next week and their location

activate System

System -> SSC: createUS210

activate SSC

SSC -> us: demo()

activate us

us -> us: initialize

us -> f: WriteToAFile(path, data)

deactivate us

activate f

f - -> SSC: file

deactivate f

SSC - -> System: file

System - -> Adm: shows the requested data

deactivate SSC

deactivate System

deactivate Adm
@enduml

PlantUML version 1.2021.16beta1(Unknown compile time)
(GPL source distribution)
Java Runtime: Java(TM) SE Runtime Environment
JVM: Java HotSpot(TM) 64-Bit Server VM
Default Encoding: UTF-8
Language: en
Country: US
--></g></svg>