<?xml version="1.0" encoding="UTF-8" standalone="no"?><svg xmlns="http://www.w3.org/2000/svg" xmlns:xlink="http://www.w3.org/1999/xlink" contentScriptType="application/ecmascript" contentStyleType="text/css" height="423px" preserveAspectRatio="none" style="width:455px;height:423px;" version="1.1" viewBox="0 0 455 423" width="455px" zoomAndPan="magnify"><defs><filter height="300%" id="fhd8sq1xxu7o8" width="300%" x="-1" y="-1"><feGaussianBlur result="blurOut" stdDeviation="2.0"/><feColorMatrix in="blurOut" result="blurOut2" type="matrix" values="0 0 0 0 0 0 0 0 0 0 0 0 0 0 0 0 0 0 .4 0"/><feOffset dx="4.0" dy="4.0" in="blurOut2" result="blurOut3"/><feBlend in="SourceGraphic" in2="blurOut3" mode="normal"/></filter></defs><g><!--MD5=[a7f69b09398c771a0c5db1e070644c57]
class CriticalPortsController--><rect fill="#FEFECE" filter="url(#fhd8sq1xxu7o8)" height="61.8359" id="CriticalPortsController" style="stroke:#A80036;stroke-width:1.5;" width="153" x="156" y="7"/><ellipse cx="171" cy="23" fill="#ADD1B2" rx="11" ry="11" style="stroke:#A80036;stroke-width:1.0;"/><path d="M173,19.5 Q173.2031,19 173.4375,18.75 Q173.6719,18.5 173.9375,18.5 Q174.4063,18.5 174.7031,18.7813 Q175,19.0625 175,19.7188 L175,21.2813 Q175,21.9375 174.7188,22.2188 Q174.4375,22.5 174,22.5 Q173.6094,22.5 173.3594,22.3281 Q173.1094,22.1563 173,21.7031 Q172.9531,21.3906 172.7813,21.2188 Q172.4688,20.8906 171.9063,20.7031 Q171.3438,20.5 170.7813,20.5 Q170.0781,20.5 169.4844,20.7813 Q168.9063,21.0625 168.4531,21.6875 Q168,22.3125 168,23.1719 L168,24.0938 Q168,25.125 168.8438,25.8125 Q169.6875,26.5 171.1875,26.5 Q172.0781,26.5 172.7031,26.2969 Q173.0625,26.1875 173.4688,25.8281 Q173.7344,25.625 173.875,25.5625 Q174.0156,25.5 174.1875,25.5 Q174.5156,25.5 174.75,25.7656 Q175,26.0156 175,26.375 Q175,26.7188 174.6563,27.125 Q174.1563,27.7188 173.3594,28.0469 Q172.3125,28.5 171.0313,28.5 Q169.5313,28.5 168.3281,27.9063 Q167.3594,27.4375 166.6719,26.4219 Q166,25.4063 166,24.2031 L166,23.1094 Q166,21.8594 166.5938,20.7656 Q167.2031,19.6719 168.25,19.0938 Q169.3125,18.5 170.5,18.5 Q171.2188,18.5 171.8438,18.75 Q172.4688,19 173,19.5 Z " fill="#000000"/><text fill="#000000" font-family="sans-serif" font-size="12" lengthAdjust="spacing" textLength="121" x="185" y="27.9102">CriticalPortsController</text><line style="stroke:#A80036;stroke-width:1.5;" x1="157" x2="308" y1="39" y2="39"/><line style="stroke:#A80036;stroke-width:1.5;" x1="157" x2="308" y1="47" y2="47"/><ellipse cx="167" cy="58" fill="#84BE84" rx="3" ry="3" style="stroke:#038048;stroke-width:1.0;"/><text fill="#000000" font-family="sans-serif" font-size="11" lengthAdjust="spacing" textLength="72" x="176" y="62.4189">centrality(int n)</text><!--MD5=[02e4b9b7573f1156f41e60aa5b4e25a4]
class Company--><rect fill="#FEFECE" filter="url(#fhd8sq1xxu7o8)" height="89.5078" id="Company" style="stroke:#A80036;stroke-width:1.5;" width="108" x="71.5" y="135.5"/><ellipse cx="96.85" cy="151.5" fill="#ADD1B2" rx="11" ry="11" style="stroke:#A80036;stroke-width:1.0;"/><path d="M98.85,148 Q99.0531,147.5 99.2875,147.25 Q99.5219,147 99.7875,147 Q100.2563,147 100.5531,147.2813 Q100.85,147.5625 100.85,148.2188 L100.85,149.7813 Q100.85,150.4375 100.5688,150.7188 Q100.2875,151 99.85,151 Q99.4594,151 99.2094,150.8281 Q98.9594,150.6563 98.85,150.2031 Q98.8031,149.8906 98.6313,149.7188 Q98.3188,149.3906 97.7563,149.2031 Q97.1938,149 96.6313,149 Q95.9281,149 95.3344,149.2813 Q94.7563,149.5625 94.3031,150.1875 Q93.85,150.8125 93.85,151.6719 L93.85,152.5938 Q93.85,153.625 94.6938,154.3125 Q95.5375,155 97.0375,155 Q97.9281,155 98.5531,154.7969 Q98.9125,154.6875 99.3188,154.3281 Q99.5844,154.125 99.725,154.0625 Q99.8656,154 100.0375,154 Q100.3656,154 100.6,154.2656 Q100.85,154.5156 100.85,154.875 Q100.85,155.2188 100.5063,155.625 Q100.0063,156.2188 99.2094,156.5469 Q98.1625,157 96.8813,157 Q95.3813,157 94.1781,156.4063 Q93.2094,155.9375 92.5219,154.9219 Q91.85,153.9063 91.85,152.7031 L91.85,151.6094 Q91.85,150.3594 92.4438,149.2656 Q93.0531,148.1719 94.1,147.5938 Q95.1625,147 96.35,147 Q97.0688,147 97.6938,147.25 Q98.3188,147.5 98.85,148 Z " fill="#000000"/><text fill="#000000" font-family="sans-serif" font-size="12" lengthAdjust="spacing" textLength="53" x="113.15" y="156.4102">Company</text><line style="stroke:#A80036;stroke-width:1.5;" x1="72.5" x2="178.5" y1="167.5" y2="167.5"/><line style="stroke:#A80036;stroke-width:1.5;" x1="72.5" x2="178.5" y1="175.5" y2="175.5"/><ellipse cx="82.5" cy="186.5" fill="#84BE84" rx="3" ry="3" style="stroke:#038048;stroke-width:1.0;"/><text fill="#000000" font-family="sans-serif" font-size="11" lengthAdjust="spacing" textLength="53" x="91.5" y="190.9189">Company()</text><ellipse cx="82.5" cy="200.3359" fill="#84BE84" rx="3" ry="3" style="stroke:#038048;stroke-width:1.0;"/><text fill="#000000" font-family="sans-serif" font-size="11" lengthAdjust="spacing" textLength="82" x="91.5" y="204.7549">getMatrixGraph()</text><ellipse cx="82.5" cy="214.1719" fill="#84BE84" rx="3" ry="3" style="stroke:#038048;stroke-width:1.0;"/><text fill="#000000" font-family="sans-serif" font-size="11" lengthAdjust="spacing" textLength="64" x="91.5" y="218.5908">getKdtPorts()</text><!--MD5=[b7b072196a724e538165319251b4d539]
class MatrixGraph--><rect fill="#FEFECE" filter="url(#fhd8sq1xxu7o8)" height="75.6719" id="MatrixGraph" style="stroke:#A80036;stroke-width:1.5;" width="97" x="7" y="312.5"/><ellipse cx="22" cy="328.5" fill="#ADD1B2" rx="11" ry="11" style="stroke:#A80036;stroke-width:1.0;"/><path d="M24,325 Q24.2031,324.5 24.4375,324.25 Q24.6719,324 24.9375,324 Q25.4063,324 25.7031,324.2813 Q26,324.5625 26,325.2188 L26,326.7813 Q26,327.4375 25.7188,327.7188 Q25.4375,328 25,328 Q24.6094,328 24.3594,327.8281 Q24.1094,327.6563 24,327.2031 Q23.9531,326.8906 23.7813,326.7188 Q23.4688,326.3906 22.9063,326.2031 Q22.3438,326 21.7813,326 Q21.0781,326 20.4844,326.2813 Q19.9063,326.5625 19.4531,327.1875 Q19,327.8125 19,328.6719 L19,329.5938 Q19,330.625 19.8438,331.3125 Q20.6875,332 22.1875,332 Q23.0781,332 23.7031,331.7969 Q24.0625,331.6875 24.4688,331.3281 Q24.7344,331.125 24.875,331.0625 Q25.0156,331 25.1875,331 Q25.5156,331 25.75,331.2656 Q26,331.5156 26,331.875 Q26,332.2188 25.6563,332.625 Q25.1563,333.2188 24.3594,333.5469 Q23.3125,334 22.0313,334 Q20.5313,334 19.3281,333.4063 Q18.3594,332.9375 17.6719,331.9219 Q17,330.9063 17,329.7031 L17,328.6094 Q17,327.3594 17.5938,326.2656 Q18.2031,325.1719 19.25,324.5938 Q20.3125,324 21.5,324 Q22.2188,324 22.8438,324.25 Q23.4688,324.5 24,325 Z " fill="#000000"/><text fill="#000000" font-family="sans-serif" font-size="12" lengthAdjust="spacing" textLength="65" x="36" y="333.4102">MatrixGraph</text><line style="stroke:#A80036;stroke-width:1.5;" x1="8" x2="103" y1="344.5" y2="344.5"/><line style="stroke:#A80036;stroke-width:1.5;" x1="8" x2="103" y1="352.5" y2="352.5"/><ellipse cx="18" cy="363.5" fill="#84BE84" rx="3" ry="3" style="stroke:#038048;stroke-width:1.0;"/><text fill="#000000" font-family="sans-serif" font-size="11" lengthAdjust="spacing" textLength="69" x="27" y="367.9189">numVertices()</text><ellipse cx="18" cy="377.3359" fill="#84BE84" rx="3" ry="3" style="stroke:#038048;stroke-width:1.0;"/><text fill="#000000" font-family="sans-serif" font-size="11" lengthAdjust="spacing" textLength="55" x="27" y="381.7549">vertex(int i)</text><!--MD5=[8dda998cb40a03280ba2930af26ca62e]
class GraphElement--><rect fill="#FEFECE" filter="url(#fhd8sq1xxu7o8)" height="103.3438" id="GraphElement" style="stroke:#A80036;stroke-width:1.5;" width="115" x="286" y="129"/><ellipse cx="302.35" cy="145" fill="#ADD1B2" rx="11" ry="11" style="stroke:#A80036;stroke-width:1.0;"/><path d="M304.35,141.5 Q304.5531,141 304.7875,140.75 Q305.0219,140.5 305.2875,140.5 Q305.7563,140.5 306.0531,140.7813 Q306.35,141.0625 306.35,141.7188 L306.35,143.2813 Q306.35,143.9375 306.0688,144.2188 Q305.7875,144.5 305.35,144.5 Q304.9594,144.5 304.7094,144.3281 Q304.4594,144.1563 304.35,143.7031 Q304.3031,143.3906 304.1313,143.2188 Q303.8188,142.8906 303.2563,142.7031 Q302.6938,142.5 302.1313,142.5 Q301.4281,142.5 300.8344,142.7813 Q300.2563,143.0625 299.8031,143.6875 Q299.35,144.3125 299.35,145.1719 L299.35,146.0938 Q299.35,147.125 300.1938,147.8125 Q301.0375,148.5 302.5375,148.5 Q303.4281,148.5 304.0531,148.2969 Q304.4125,148.1875 304.8188,147.8281 Q305.0844,147.625 305.225,147.5625 Q305.3656,147.5 305.5375,147.5 Q305.8656,147.5 306.1,147.7656 Q306.35,148.0156 306.35,148.375 Q306.35,148.7188 306.0063,149.125 Q305.5063,149.7188 304.7094,150.0469 Q303.6625,150.5 302.3813,150.5 Q300.8813,150.5 299.6781,149.9063 Q298.7094,149.4375 298.0219,148.4219 Q297.35,147.4063 297.35,146.2031 L297.35,145.1094 Q297.35,143.8594 297.9438,142.7656 Q298.5531,141.6719 299.6,141.0938 Q300.6625,140.5 301.85,140.5 Q302.5688,140.5 303.1938,140.75 Q303.8188,141 304.35,141.5 Z " fill="#000000"/><text fill="#000000" font-family="sans-serif" font-size="12" lengthAdjust="spacing" textLength="80" x="316.65" y="149.9102">GraphElement</text><line style="stroke:#A80036;stroke-width:1.5;" x1="287" x2="400" y1="161" y2="161"/><rect fill="none" height="6" style="stroke:#C82930;stroke-width:1.0;" width="6" x="294" y="169"/><text fill="#000000" font-family="sans-serif" font-size="11" lengthAdjust="spacing" textLength="89" x="306" y="176.4189">designation: String</text><rect fill="none" height="6" style="stroke:#C82930;stroke-width:1.0;" width="6" x="294" y="182.8359"/><text fill="#000000" font-family="sans-serif" font-size="11" lengthAdjust="spacing" textLength="71" x="306" y="190.2549">country: String</text><rect fill="none" height="6" style="stroke:#C82930;stroke-width:1.0;" width="6" x="294" y="196.6719"/><text fill="#000000" font-family="sans-serif" font-size="11" lengthAdjust="spacing" textLength="61" x="306" y="204.0908">latitude: float</text><rect fill="none" height="6" style="stroke:#C82930;stroke-width:1.0;" width="6" x="294" y="210.5078"/><text fill="#000000" font-family="sans-serif" font-size="11" lengthAdjust="spacing" textLength="70" x="306" y="217.9268">longitude: float</text><line style="stroke:#A80036;stroke-width:1.5;" x1="287" x2="400" y1="224.3438" y2="224.3438"/><!--MD5=[a0bfe97ac0a38e6e74cc1c7c7b744b71]
class Port--><rect fill="#FEFECE" filter="url(#fhd8sq1xxu7o8)" height="117.1797" id="Port" style="stroke:#A80036;stroke-width:1.5;" width="107" x="307" y="292"/><ellipse cx="345.85" cy="308" fill="#ADD1B2" rx="11" ry="11" style="stroke:#A80036;stroke-width:1.0;"/><path d="M347.85,304.5 Q348.0531,304 348.2875,303.75 Q348.5219,303.5 348.7875,303.5 Q349.2563,303.5 349.5531,303.7813 Q349.85,304.0625 349.85,304.7188 L349.85,306.2813 Q349.85,306.9375 349.5688,307.2188 Q349.2875,307.5 348.85,307.5 Q348.4594,307.5 348.2094,307.3281 Q347.9594,307.1563 347.85,306.7031 Q347.8031,306.3906 347.6313,306.2188 Q347.3188,305.8906 346.7563,305.7031 Q346.1938,305.5 345.6313,305.5 Q344.9281,305.5 344.3344,305.7813 Q343.7563,306.0625 343.3031,306.6875 Q342.85,307.3125 342.85,308.1719 L342.85,309.0938 Q342.85,310.125 343.6938,310.8125 Q344.5375,311.5 346.0375,311.5 Q346.9281,311.5 347.5531,311.2969 Q347.9125,311.1875 348.3188,310.8281 Q348.5844,310.625 348.725,310.5625 Q348.8656,310.5 349.0375,310.5 Q349.3656,310.5 349.6,310.7656 Q349.85,311.0156 349.85,311.375 Q349.85,311.7188 349.5063,312.125 Q349.0063,312.7188 348.2094,313.0469 Q347.1625,313.5 345.8813,313.5 Q344.3813,313.5 343.1781,312.9063 Q342.2094,312.4375 341.5219,311.4219 Q340.85,310.4063 340.85,309.2031 L340.85,308.1094 Q340.85,306.8594 341.4438,305.7656 Q342.0531,304.6719 343.1,304.0938 Q344.1625,303.5 345.35,303.5 Q346.0688,303.5 346.6938,303.75 Q347.3188,304 347.85,304.5 Z " fill="#000000"/><text fill="#000000" font-family="sans-serif" font-size="12" lengthAdjust="spacing" textLength="22" x="365.15" y="312.9102">Port</text><line style="stroke:#A80036;stroke-width:1.5;" x1="308" x2="413" y1="324" y2="324"/><rect fill="none" height="6" style="stroke:#C82930;stroke-width:1.0;" width="6" x="315" y="332"/><text fill="#000000" font-family="sans-serif" font-size="11" lengthAdjust="spacing" textLength="41" x="327" y="339.4189">code: int</text><rect fill="none" height="6" style="stroke:#C82930;stroke-width:1.0;" width="6" x="315" y="345.8359"/><text fill="#000000" font-family="sans-serif" font-size="11" lengthAdjust="spacing" textLength="60" x="327" y="353.2549">name: String</text><rect fill="none" height="6" style="stroke:#C82930;stroke-width:1.0;" width="6" x="315" y="359.6719"/><text fill="#000000" font-family="sans-serif" font-size="11" lengthAdjust="spacing" textLength="81" x="327" y="367.0908">country: Country</text><rect fill="none" height="6" style="stroke:#C82930;stroke-width:1.0;" width="6" x="315" y="373.5078"/><text fill="#000000" font-family="sans-serif" font-size="11" lengthAdjust="spacing" textLength="61" x="327" y="380.9268">latitude: float</text><rect fill="none" height="6" style="stroke:#C82930;stroke-width:1.0;" width="6" x="315" y="387.3438"/><text fill="#000000" font-family="sans-serif" font-size="11" lengthAdjust="spacing" textLength="70" x="327" y="394.7627">longitude: float</text><line style="stroke:#A80036;stroke-width:1.5;" x1="308" x2="413" y1="401.1797" y2="401.1797"/><!--MD5=[f14c97f009274192f499f18aa48d69a9]
class KdtPort--><rect fill="#FEFECE" filter="url(#fhd8sq1xxu7o8)" height="61.8359" id="KdtPort" style="stroke:#A80036;stroke-width:1.5;" width="72" x="179.5" y="319.5"/><ellipse cx="194.5" cy="335.5" fill="#ADD1B2" rx="11" ry="11" style="stroke:#A80036;stroke-width:1.0;"/><path d="M196.5,332 Q196.7031,331.5 196.9375,331.25 Q197.1719,331 197.4375,331 Q197.9063,331 198.2031,331.2813 Q198.5,331.5625 198.5,332.2188 L198.5,333.7813 Q198.5,334.4375 198.2188,334.7188 Q197.9375,335 197.5,335 Q197.1094,335 196.8594,334.8281 Q196.6094,334.6563 196.5,334.2031 Q196.4531,333.8906 196.2813,333.7188 Q195.9688,333.3906 195.4063,333.2031 Q194.8438,333 194.2813,333 Q193.5781,333 192.9844,333.2813 Q192.4063,333.5625 191.9531,334.1875 Q191.5,334.8125 191.5,335.6719 L191.5,336.5938 Q191.5,337.625 192.3438,338.3125 Q193.1875,339 194.6875,339 Q195.5781,339 196.2031,338.7969 Q196.5625,338.6875 196.9688,338.3281 Q197.2344,338.125 197.375,338.0625 Q197.5156,338 197.6875,338 Q198.0156,338 198.25,338.2656 Q198.5,338.5156 198.5,338.875 Q198.5,339.2188 198.1563,339.625 Q197.6563,340.2188 196.8594,340.5469 Q195.8125,341 194.5313,341 Q193.0313,341 191.8281,340.4063 Q190.8594,339.9375 190.1719,338.9219 Q189.5,337.9063 189.5,336.7031 L189.5,335.6094 Q189.5,334.3594 190.0938,333.2656 Q190.7031,332.1719 191.75,331.5938 Q192.8125,331 194,331 Q194.7188,331 195.3438,331.25 Q195.9688,331.5 196.5,332 Z " fill="#000000"/><text fill="#000000" font-family="sans-serif" font-size="12" lengthAdjust="spacing" textLength="40" x="208.5" y="340.4102">KdtPort</text><line style="stroke:#A80036;stroke-width:1.5;" x1="180.5" x2="250.5" y1="351.5" y2="351.5"/><line style="stroke:#A80036;stroke-width:1.5;" x1="180.5" x2="250.5" y1="359.5" y2="359.5"/><ellipse cx="190.5" cy="370.5" fill="#84BE84" rx="3" ry="3" style="stroke:#038048;stroke-width:1.0;"/><text fill="#000000" font-family="sans-serif" font-size="11" lengthAdjust="spacing" textLength="44" x="199.5" y="374.9189">inOrder()</text><!--MD5=[46bd88d00a99dcc2001e4f3796c3a8db]
link CriticalPortsController to Company--><path codeLine="1" d="M209.55,69.14 C195.79,87.21 177.97,110.6 162.29,131.19 " fill="none" id="CriticalPortsController-to-Company" style="stroke:#A80036;stroke-width:1.0;stroke-dasharray:7.0,7.0;"/><polygon fill="#A80036" points="159.19,135.27,167.82,130.5241,162.2151,131.2889,161.4502,125.684,159.19,135.27" style="stroke:#A80036;stroke-width:1.0;"/><!--MD5=[68bbbf2dcd0e088dacaf59b7c1ae48e8]
link CriticalPortsController to MatrixGraph--><path codeLine="2" d="M155.94,57.15 C118.15,70.38 75.95,92.58 53.5,129 C20.06,183.24 30.95,260.15 42.66,307.33 " fill="none" id="CriticalPortsController-to-MatrixGraph" style="stroke:#A80036;stroke-width:1.0;stroke-dasharray:7.0,7.0;"/><polygon fill="#A80036" points="43.94,312.37,45.6041,302.6627,42.7105,307.5235,37.8497,304.6299,43.94,312.37" style="stroke:#A80036;stroke-width:1.0;"/><!--MD5=[04b079e307ad2b693c1363dc4025e0ce]
link Company to MatrixGraph--><path codeLine="3" d="M107.11,225.64 C96.55,250.98 83.37,282.61 72.97,307.57 " fill="none" id="Company-to-MatrixGraph" style="stroke:#A80036;stroke-width:1.0;stroke-dasharray:7.0,7.0;"/><polygon fill="#A80036" points="70.93,312.47,78.0913,305.7086,72.8581,307.8567,70.71,302.6236,70.93,312.47" style="stroke:#A80036;stroke-width:1.0;"/><!--MD5=[606ab6205ba5f16ead8784c2e238efba]
link CriticalPortsController to GraphElement--><path codeLine="4" d="M256.31,69.14 C269.1,85.33 285.27,105.8 300.2,124.7 " fill="none" id="CriticalPortsController-to-GraphElement" style="stroke:#A80036;stroke-width:1.0;stroke-dasharray:7.0,7.0;"/><polygon fill="#A80036" points="303.57,128.96,301.1181,119.4212,300.4658,125.0404,294.8466,124.388,303.57,128.96" style="stroke:#A80036;stroke-width:1.0;"/><!--MD5=[8e0f4e6a5ab32005299bab68bb76749e]
link CriticalPortsController to Port--><path codeLine="5" d="M309.1,55.43 C349.05,68.3 394.49,90.71 418.5,129 C448.75,177.24 426.69,240.9 401.55,287.41 " fill="none" id="CriticalPortsController-to-Port" style="stroke:#A80036;stroke-width:1.0;stroke-dasharray:7.0,7.0;"/><polygon fill="#A80036" points="399.11,291.85,406.9394,285.8751,401.5103,287.4638,399.9215,282.0346,399.11,291.85" style="stroke:#A80036;stroke-width:1.0;"/><!--MD5=[8fdd83d64ef4d6d5529fa92372093e4c]
link CriticalPortsController to KdtPort--><path codeLine="6" d="M230.85,69.05 C227.69,126.79 220.79,252.91 217.42,314.4 " fill="none" id="CriticalPortsController-to-KdtPort" style="stroke:#A80036;stroke-width:1.0;stroke-dasharray:7.0,7.0;"/><polygon fill="#A80036" points="217.15,319.43,221.632,310.6601,217.421,314.4374,213.6437,310.2264,217.15,319.43" style="stroke:#A80036;stroke-width:1.0;"/><!--MD5=[b3508693fa16e1126a1fc609796f8a97]
link Company to KdtPort--><path codeLine="7" d="M149.15,225.64 C164.05,253.46 183.03,288.88 196.86,314.71 " fill="none" id="Company-to-KdtPort" style="stroke:#A80036;stroke-width:1.0;stroke-dasharray:7.0,7.0;"/><polygon fill="#A80036" points="199.38,319.42,198.6445,309.5986,197.0138,315.0154,191.597,313.3846,199.38,319.42" style="stroke:#A80036;stroke-width:1.0;"/><!--MD5=[aad5858678b7d6bcd85a2e7fa2be9519]
link GraphElement to Port--><path codeLine="8" d="M348.65,232.36 C350.38,249.49 352.33,268.8 354.15,286.73 " fill="none" id="GraphElement-to-Port" style="stroke:#A80036;stroke-width:1.0;stroke-dasharray:7.0,7.0;"/><polygon fill="#A80036" points="354.66,291.75,357.7393,282.3949,354.1597,286.7751,349.7794,283.1955,354.66,291.75" style="stroke:#A80036;stroke-width:1.0;"/><!--MD5=[66802d5c7e4d5161cafe127e771708e6]
@startuml
CriticalPortsController ..>Company
CriticalPortsController ..>MatrixGraph
Company ..>MatrixGraph
CriticalPortsController ..>GraphElement
CriticalPortsController ..>Port
CriticalPortsController ..>KdtPort
Company ..>KdtPort
GraphElement ..>Port


CriticalPortsController : +centrality(int n)


Company : +Company()
Company : +getMatrixGraph()
Company : +getKdtPorts()

KdtPort : +inOrder()

Port : -code: int
Port : -name: String
Port : -country: Country
Port : -latitude: float
Port : -longitude: float

MatrixGraph : +numVertices()
MatrixGraph : +vertex(int i)

GraphElement : -designation: String
GraphElement : -country: String
GraphElement : -latitude: float
GraphElement : -longitude: float
@enduml

PlantUML version 1.2021.5(Sun Apr 25 12:20:28 BST 2021)
(GPL source distribution)
Java Runtime: OpenJDK Runtime Environment
JVM: OpenJDK 64-Bit Server VM
Default Encoding: Cp1252
Language: pt
Country: PT
--></g></svg>