<?xml version="1.0" encoding="UTF-8" standalone="no"?><svg xmlns="http://www.w3.org/2000/svg" xmlns:xlink="http://www.w3.org/1999/xlink" contentScriptType="application/ecmascript" contentStyleType="text/css" height="320px" preserveAspectRatio="none" style="width:177px;height:320px;" version="1.1" viewBox="0 0 177 320" width="177px" zoomAndPan="magnify"><defs><filter height="300%" id="f4sgtmpllxvxq" width="300%" x="-1" y="-1"><feGaussianBlur result="blurOut" stdDeviation="1.0"/><feColorMatrix in="blurOut" result="blurOut2" type="matrix" values="0 0 0 0 0 0 0 0 0 0 0 0 0 0 0 0 0 0 .4 0"/><feOffset dx="2.0" dy="2.0" in="blurOut2" result="blurOut3"/><feBlend in="SourceGraphic" in2="blurOut3" mode="normal"/></filter></defs><g><!--MD5=[fe91e073d1e5d534f99e82bf976ef3f0]
class ShortestDistanceGreatestLocationCircuitController--><rect fill="#FEFECE" filter="url(#f4sgtmpllxvxq)" height="37.8359" id="ShortestDistanceGreatestLocationCircuitController" style="stroke:#A80036;stroke-width:0.75;" width="155" x="15" y="3.5"/><ellipse cx="22.5" cy="11.5" fill="#ADD1B2" rx="5.5" ry="5.5" style="stroke:#A80036;stroke-width:0.5;"/><path d="M23.5,9.75 Q23.6016,9.5 23.7188,9.375 Q23.8359,9.25 23.9688,9.25 Q24.2031,9.25 24.3516,9.3906 Q24.5,9.5313 24.5,9.8594 L24.5,10.6406 Q24.5,10.9688 24.3594,11.1094 Q24.2188,11.25 24,11.25 Q23.8047,11.25 23.6797,11.1641 Q23.5547,11.0781 23.5,10.8516 Q23.4766,10.6953 23.3906,10.6094 Q23.2344,10.4453 22.9531,10.3516 Q22.6719,10.25 22.3906,10.25 Q22.0391,10.25 21.7422,10.3906 Q21.4531,10.5313 21.2266,10.8438 Q21,11.1563 21,11.5859 L21,12.0469 Q21,12.5625 21.4219,12.9063 Q21.8438,13.25 22.5938,13.25 Q23.0391,13.25 23.3516,13.1484 Q23.5313,13.0938 23.7344,12.9141 Q23.8672,12.8125 23.9375,12.7813 Q24.0078,12.75 24.0938,12.75 Q24.2578,12.75 24.375,12.8828 Q24.5,13.0078 24.5,13.1875 Q24.5,13.3594 24.3281,13.5625 Q24.0781,13.8594 23.6797,14.0234 Q23.1563,14.25 22.5156,14.25 Q21.7656,14.25 21.1641,13.9531 Q20.6797,13.7188 20.3359,13.2109 Q20,12.7031 20,12.1016 L20,11.5547 Q20,10.9297 20.2969,10.3828 Q20.6016,9.8359 21.125,9.5469 Q21.6563,9.25 22.25,9.25 Q22.6094,9.25 22.9219,9.375 Q23.2344,9.5 23.5,9.75 Z " fill="#000000"/><text fill="#000000" font-family="sans-serif" font-size="6" lengthAdjust="spacing" textLength="139" x="29.5" y="13.9551">ShortestDistanceGreatestLocationCircuitController</text><line style="stroke:#A80036;stroke-width:0.75;" x1="15.5" x2="169.5" y1="19.5" y2="19.5"/><line style="stroke:#A80036;stroke-width:0.75;" x1="15.5" x2="169.5" y1="23.5" y2="23.5"/><ellipse cx="20.5" cy="29" fill="#84BE84" rx="1.5" ry="1.5" style="stroke:#038048;stroke-width:0.5;"/><text fill="#000000" font-family="sans-serif" font-size="5.5" lengthAdjust="spacing" textLength="87" x="25" y="31.2095">getCircuit(String sourceDesignation)</text><ellipse cx="20.5" cy="35.918" fill="#84BE84" rx="1.5" ry="1.5" style="stroke:#038048;stroke-width:0.5;"/><text fill="#000000" font-family="sans-serif" font-size="5.5" lengthAdjust="spacing" textLength="94" x="25" y="38.1274">calculateCircuit(GraphElement element)</text><!--MD5=[02e4b9b7573f1156f41e60aa5b4e25a4]
class Company--><rect fill="#FEFECE" filter="url(#f4sgtmpllxvxq)" height="37.8359" id="Company" style="stroke:#A80036;stroke-width:0.75;" width="54" x="12" y="71.5"/><ellipse cx="24.675" cy="79.5" fill="#ADD1B2" rx="5.5" ry="5.5" style="stroke:#A80036;stroke-width:0.5;"/><path d="M25.675,77.75 Q25.7766,77.5 25.8938,77.375 Q26.0109,77.25 26.1438,77.25 Q26.3781,77.25 26.5266,77.3906 Q26.675,77.5313 26.675,77.8594 L26.675,78.6406 Q26.675,78.9688 26.5344,79.1094 Q26.3938,79.25 26.175,79.25 Q25.9797,79.25 25.8547,79.1641 Q25.7297,79.0781 25.675,78.8516 Q25.6516,78.6953 25.5656,78.6094 Q25.4094,78.4453 25.1281,78.3516 Q24.8469,78.25 24.5656,78.25 Q24.2141,78.25 23.9172,78.3906 Q23.6281,78.5313 23.4016,78.8438 Q23.175,79.1563 23.175,79.5859 L23.175,80.0469 Q23.175,80.5625 23.5969,80.9063 Q24.0188,81.25 24.7688,81.25 Q25.2141,81.25 25.5266,81.1484 Q25.7063,81.0938 25.9094,80.9141 Q26.0422,80.8125 26.1125,80.7813 Q26.1828,80.75 26.2688,80.75 Q26.4328,80.75 26.55,80.8828 Q26.675,81.0078 26.675,81.1875 Q26.675,81.3594 26.5031,81.5625 Q26.2531,81.8594 25.8547,82.0234 Q25.3313,82.25 24.6906,82.25 Q23.9406,82.25 23.3391,81.9531 Q22.8547,81.7188 22.5109,81.2109 Q22.175,80.7031 22.175,80.1016 L22.175,79.5547 Q22.175,78.9297 22.4719,78.3828 Q22.7766,77.8359 23.3,77.5469 Q23.8313,77.25 24.425,77.25 Q24.7844,77.25 25.0969,77.375 Q25.4094,77.5 25.675,77.75 Z " fill="#000000"/><text fill="#000000" font-family="sans-serif" font-size="6" lengthAdjust="spacing" textLength="26.5" x="32.825" y="81.9551">Company</text><line style="stroke:#A80036;stroke-width:0.75;" x1="12.5" x2="65.5" y1="87.5" y2="87.5"/><line style="stroke:#A80036;stroke-width:0.75;" x1="12.5" x2="65.5" y1="91.5" y2="91.5"/><ellipse cx="17.5" cy="97" fill="#84BE84" rx="1.5" ry="1.5" style="stroke:#038048;stroke-width:0.5;"/><text fill="#000000" font-family="sans-serif" font-size="5.5" lengthAdjust="spacing" textLength="26.5" x="22" y="99.2095">Company()</text><ellipse cx="17.5" cy="103.918" fill="#84BE84" rx="1.5" ry="1.5" style="stroke:#038048;stroke-width:0.5;"/><text fill="#000000" font-family="sans-serif" font-size="5.5" lengthAdjust="spacing" textLength="41" x="22" y="106.1274">getMatrixGraph()</text><!--MD5=[b7b072196a724e538165319251b4d539]
class MatrixGraph--><rect fill="#FEFECE" filter="url(#f4sgtmpllxvxq)" height="37.8359" id="MatrixGraph" style="stroke:#A80036;stroke-width:0.75;" width="98" x="3.5" y="139.5"/><ellipse cx="34.125" cy="147.5" fill="#ADD1B2" rx="5.5" ry="5.5" style="stroke:#A80036;stroke-width:0.5;"/><path d="M35.125,145.75 Q35.2266,145.5 35.3438,145.375 Q35.4609,145.25 35.5938,145.25 Q35.8281,145.25 35.9766,145.3906 Q36.125,145.5313 36.125,145.8594 L36.125,146.6406 Q36.125,146.9688 35.9844,147.1094 Q35.8438,147.25 35.625,147.25 Q35.4297,147.25 35.3047,147.1641 Q35.1797,147.0781 35.125,146.8516 Q35.1016,146.6953 35.0156,146.6094 Q34.8594,146.4453 34.5781,146.3516 Q34.2969,146.25 34.0156,146.25 Q33.6641,146.25 33.3672,146.3906 Q33.0781,146.5313 32.8516,146.8438 Q32.625,147.1563 32.625,147.5859 L32.625,148.0469 Q32.625,148.5625 33.0469,148.9063 Q33.4688,149.25 34.2188,149.25 Q34.6641,149.25 34.9766,149.1484 Q35.1563,149.0938 35.3594,148.9141 Q35.4922,148.8125 35.5625,148.7813 Q35.6328,148.75 35.7188,148.75 Q35.8828,148.75 36,148.8828 Q36.125,149.0078 36.125,149.1875 Q36.125,149.3594 35.9531,149.5625 Q35.7031,149.8594 35.3047,150.0234 Q34.7813,150.25 34.1406,150.25 Q33.3906,150.25 32.7891,149.9531 Q32.3047,149.7188 31.9609,149.2109 Q31.625,148.7031 31.625,148.1016 L31.625,147.5547 Q31.625,146.9297 31.9219,146.3828 Q32.2266,145.8359 32.75,145.5469 Q33.2813,145.25 33.875,145.25 Q34.2344,145.25 34.5469,145.375 Q34.8594,145.5 35.125,145.75 Z " fill="#000000"/><text fill="#000000" font-family="sans-serif" font-size="6" lengthAdjust="spacing" textLength="32.5" x="44.375" y="149.9551">MatrixGraph</text><line style="stroke:#A80036;stroke-width:0.75;" x1="4" x2="101" y1="155.5" y2="155.5"/><line style="stroke:#A80036;stroke-width:0.75;" x1="4" x2="101" y1="159.5" y2="159.5"/><ellipse cx="9" cy="165" fill="#84BE84" rx="1.5" ry="1.5" style="stroke:#038048;stroke-width:0.5;"/><text fill="#000000" font-family="sans-serif" font-size="5.5" lengthAdjust="spacing" textLength="23.5" x="13.5" y="167.2095">vertices()</text><ellipse cx="9" cy="171.918" fill="#84BE84" rx="1.5" ry="1.5" style="stroke:#038048;stroke-width:0.5;"/><text fill="#000000" font-family="sans-serif" font-size="5.5" lengthAdjust="spacing" textLength="85" x="13.5" y="174.1274">adjVertices(GraphElement element)</text><!--MD5=[2e2f8c8f62c4eb3bc59a59727cfd81a5]
class Edge--><rect fill="#FEFECE" filter="url(#f4sgtmpllxvxq)" height="24" id="Edge" style="stroke:#A80036;stroke-width:0.75;" width="30.5" x="54.25" y="207.5"/><ellipse cx="61.75" cy="215.5" fill="#ADD1B2" rx="5.5" ry="5.5" style="stroke:#A80036;stroke-width:0.5;"/><path d="M62.75,213.75 Q62.8516,213.5 62.9688,213.375 Q63.0859,213.25 63.2188,213.25 Q63.4531,213.25 63.6016,213.3906 Q63.75,213.5313 63.75,213.8594 L63.75,214.6406 Q63.75,214.9688 63.6094,215.1094 Q63.4688,215.25 63.25,215.25 Q63.0547,215.25 62.9297,215.1641 Q62.8047,215.0781 62.75,214.8516 Q62.7266,214.6953 62.6406,214.6094 Q62.4844,214.4453 62.2031,214.3516 Q61.9219,214.25 61.6406,214.25 Q61.2891,214.25 60.9922,214.3906 Q60.7031,214.5313 60.4766,214.8438 Q60.25,215.1563 60.25,215.5859 L60.25,216.0469 Q60.25,216.5625 60.6719,216.9063 Q61.0938,217.25 61.8438,217.25 Q62.2891,217.25 62.6016,217.1484 Q62.7813,217.0938 62.9844,216.9141 Q63.1172,216.8125 63.1875,216.7813 Q63.2578,216.75 63.3438,216.75 Q63.5078,216.75 63.625,216.8828 Q63.75,217.0078 63.75,217.1875 Q63.75,217.3594 63.5781,217.5625 Q63.3281,217.8594 62.9297,218.0234 Q62.4063,218.25 61.7656,218.25 Q61.0156,218.25 60.4141,217.9531 Q59.9297,217.7188 59.5859,217.2109 Q59.25,216.7031 59.25,216.1016 L59.25,215.5547 Q59.25,214.9297 59.5469,214.3828 Q59.8516,213.8359 60.375,213.5469 Q60.9063,213.25 61.5,213.25 Q61.8594,213.25 62.1719,213.375 Q62.4844,213.5 62.75,213.75 Z " fill="#000000"/><text fill="#000000" font-family="sans-serif" font-size="6" lengthAdjust="spacing" textLength="14.5" x="68.75" y="217.9551">Edge</text><line style="stroke:#A80036;stroke-width:0.75;" x1="54.75" x2="84.25" y1="223.5" y2="223.5"/><line style="stroke:#A80036;stroke-width:0.75;" x1="54.75" x2="84.25" y1="227.5" y2="227.5"/><!--MD5=[8dda998cb40a03280ba2930af26ca62e]
class GraphElement--><rect fill="#FEFECE" filter="url(#f4sgtmpllxvxq)" height="51.6719" id="GraphElement" style="stroke:#A80036;stroke-width:0.75;" width="57.5" x="61.75" y="261.5"/><ellipse cx="69.925" cy="269.5" fill="#ADD1B2" rx="5.5" ry="5.5" style="stroke:#A80036;stroke-width:0.5;"/><path d="M70.925,267.75 Q71.0266,267.5 71.1438,267.375 Q71.2609,267.25 71.3938,267.25 Q71.6281,267.25 71.7766,267.3906 Q71.925,267.5313 71.925,267.8594 L71.925,268.6406 Q71.925,268.9688 71.7844,269.1094 Q71.6438,269.25 71.425,269.25 Q71.2297,269.25 71.1047,269.1641 Q70.9797,269.0781 70.925,268.8516 Q70.9016,268.6953 70.8156,268.6094 Q70.6594,268.4453 70.3781,268.3516 Q70.0969,268.25 69.8156,268.25 Q69.4641,268.25 69.1672,268.3906 Q68.8781,268.5313 68.6516,268.8438 Q68.425,269.1563 68.425,269.5859 L68.425,270.0469 Q68.425,270.5625 68.8469,270.9063 Q69.2688,271.25 70.0188,271.25 Q70.4641,271.25 70.7766,271.1484 Q70.9563,271.0938 71.1594,270.9141 Q71.2922,270.8125 71.3625,270.7813 Q71.4328,270.75 71.5188,270.75 Q71.6828,270.75 71.8,270.8828 Q71.925,271.0078 71.925,271.1875 Q71.925,271.3594 71.7531,271.5625 Q71.5031,271.8594 71.1047,272.0234 Q70.5813,272.25 69.9406,272.25 Q69.1906,272.25 68.5891,271.9531 Q68.1047,271.7188 67.7609,271.2109 Q67.425,270.7031 67.425,270.1016 L67.425,269.5547 Q67.425,268.9297 67.7219,268.3828 Q68.0266,267.8359 68.55,267.5469 Q69.0813,267.25 69.675,267.25 Q70.0344,267.25 70.3469,267.375 Q70.6594,267.5 70.925,267.75 Z " fill="#000000"/><text fill="#000000" font-family="sans-serif" font-size="6" lengthAdjust="spacing" textLength="40" x="77.075" y="271.9551">GraphElement</text><line style="stroke:#A80036;stroke-width:0.75;" x1="62.25" x2="118.75" y1="277.5" y2="277.5"/><rect fill="none" height="3" style="stroke:#C82930;stroke-width:0.5;" width="3" x="65.75" y="281.5"/><text fill="#000000" font-family="sans-serif" font-size="5.5" lengthAdjust="spacing" textLength="44.5" x="71.75" y="285.2095">designation: String</text><rect fill="none" height="3" style="stroke:#C82930;stroke-width:0.5;" width="3" x="65.75" y="288.418"/><text fill="#000000" font-family="sans-serif" font-size="5.5" lengthAdjust="spacing" textLength="35.5" x="71.75" y="292.1274">country: String</text><rect fill="none" height="3" style="stroke:#C82930;stroke-width:0.5;" width="3" x="65.75" y="295.3359"/><text fill="#000000" font-family="sans-serif" font-size="5.5" lengthAdjust="spacing" textLength="30.5" x="71.75" y="299.0454">latitude: float</text><rect fill="none" height="3" style="stroke:#C82930;stroke-width:0.5;" width="3" x="65.75" y="302.2539"/><text fill="#000000" font-family="sans-serif" font-size="5.5" lengthAdjust="spacing" textLength="35" x="71.75" y="305.9634">longitude: float</text><line style="stroke:#A80036;stroke-width:0.75;" x1="62.25" x2="118.75" y1="309.1719" y2="309.1719"/><!--MD5=[bc3db2fd7aa005768d784f0e59d9f324]
link ShortestDistanceGreatestLocationCircuitController to Company--><path codeLine="1" d="M77.595,41.665 C70.7,50.305 62.485,60.59 55.405,69.45 " fill="none" id="ShortestDistanceGreatestLocationCircuitController-to-Company" style="stroke:#A80036;stroke-width:0.5;stroke-dasharray:7.0,7.0;"/><polygon fill="#A80036" points="53.825,71.435,58.2009,69.1763,55.3893,69.4849,55.0808,66.6734,53.825,71.435" style="stroke:#A80036;stroke-width:0.5;"/><!--MD5=[813f43efcb2efabcfe0f290bc9f1fa4f]
link ShortestDistanceGreatestLocationCircuitController to MatrixGraph--><path codeLine="2" d="M89.86,41.53 C87.05,59.26 81.975,86.605 74.5,109.5 C71.46,118.82 67.16,128.74 63.17,137.165 " fill="none" id="ShortestDistanceGreatestLocationCircuitController-to-MatrixGraph" style="stroke:#A80036;stroke-width:0.5;stroke-dasharray:7.0,7.0;"/><polygon fill="#A80036" points="62.055,139.5,65.7997,136.302,63.1329,137.2443,62.1906,134.5774,62.055,139.5" style="stroke:#A80036;stroke-width:0.5;"/><!--MD5=[04b079e307ad2b693c1363dc4025e0ce]
link Company to MatrixGraph--><path codeLine="3" d="M42.76,109.665 C44.455,118.085 46.47,128.075 48.225,136.78 " fill="none" id="Company-to-MatrixGraph" style="stroke:#A80036;stroke-width:0.5;stroke-dasharray:7.0,7.0;"/><polygon fill="#A80036" points="48.76,139.435,49.8333,134.6289,48.267,136.9841,45.9118,135.4178,48.76,139.435" style="stroke:#A80036;stroke-width:0.5;"/><!--MD5=[88378fecc0214ccb54b388de34e73693]
link MatrixGraph to Edge--><path codeLine="4" d="M57.785,177.655 C60.275,186.445 63.2,196.765 65.5,204.89 " fill="none" id="MatrixGraph-to-Edge" style="stroke:#A80036;stroke-width:0.5;stroke-dasharray:7.0,7.0;"/><polygon fill="#A80036" points="66.195,207.34,66.8952,202.4656,65.5148,204.9343,63.0461,203.5539,66.195,207.34" style="stroke:#A80036;stroke-width:0.5;"/><!--MD5=[3781f1a0796df00f0691d90c52775592]
link ShortestDistanceGreatestLocationCircuitController to GraphElement--><path codeLine="5" d="M97.02,41.52 C103.54,70.485 114.355,128.295 110,177.5 C107.53,205.405 101.575,236.855 96.89,258.82 " fill="none" id="ShortestDistanceGreatestLocationCircuitController-to-GraphElement" style="stroke:#A80036;stroke-width:0.5;stroke-dasharray:7.0,7.0;"/><polygon fill="#A80036" points="96.355,261.315,99.2614,257.3397,96.8837,258.8715,95.3519,256.4938,96.355,261.315" style="stroke:#A80036;stroke-width:0.5;"/><!--MD5=[aa28705aa12875d1c0ba144a3ed06eee]
link Edge to GraphElement--><path codeLine="6" d="M73.16,231.625 C75.54,239.2 78.76,249.425 81.775,259.01 " fill="none" id="Edge-to-GraphElement" style="stroke:#A80036;stroke-width:0.5;stroke-dasharray:7.0,7.0;"/><polygon fill="#A80036" points="82.535,261.43,83.0934,256.5373,81.7852,259.0451,79.2775,257.7369,82.535,261.43" style="stroke:#A80036;stroke-width:0.5;"/><!--MD5=[651f2783c05371db113df8fd74fb2057]
@startuml
ShortestDistanceGreatestLocationCircuitController ..>Company
ShortestDistanceGreatestLocationCircuitController ..>MatrixGraph
Company ..>MatrixGraph
MatrixGraph ..>Edge
ShortestDistanceGreatestLocationCircuitController ..>GraphElement
Edge ..>GraphElement


ShortestDistanceGreatestLocationCircuitController : +getCircuit(String sourceDesignation)
ShortestDistanceGreatestLocationCircuitController : +calculateCircuit(GraphElement element)


Company : +Company()
Company : +getMatrixGraph()

MatrixGraph : +vertices()
MatrixGraph : +adjVertices(GraphElement element)


GraphElement : -designation: String
GraphElement : -country: String
GraphElement : -latitude: float
GraphElement : -longitude: float
@enduml

PlantUML version 1.2021.5(Sun Apr 25 12:20:28 BST 2021)
(GPL source distribution)
Java Runtime: OpenJDK Runtime Environment
JVM: OpenJDK 64-Bit Server VM
Default Encoding: Cp1252
Language: pt
Country: PT
--></g></svg>