<?xml version="1.0" encoding="UTF-8" standalone="no"?><svg xmlns="http://www.w3.org/2000/svg" xmlns:xlink="http://www.w3.org/1999/xlink" contentScriptType="application/ecmascript" contentStyleType="text/css" height="321px" preserveAspectRatio="none" style="width:1021px;height:321px;" version="1.1" viewBox="0 0 1021 321" width="1021.8px" zoomAndPan="magnify"><defs><filter height="300%" id="f1wo7lwdpla2z8" width="300%" x="-1" y="-1"><feGaussianBlur result="blurOut" stdDeviation="1.2"/><feColorMatrix in="blurOut" result="blurOut2" type="matrix" values="0 0 0 0 0 0 0 0 0 0 0 0 0 0 0 0 0 0 .4 0"/><feOffset dx="2.4" dy="2.4" in="blurOut2" result="blurOut3"/><feBlend in="SourceGraphic" in2="blurOut3" mode="normal"/></filter></defs><g><!--MD5=[02e4b9b7573f1156f41e60aa5b4e25a4]
class Company--><rect codeLine="36" fill="#FEFECE" filter="url(#f1wo7lwdpla2z8)" height="24" id="Company" style="stroke:#A80036;stroke-width:0.8999999999999999;" width="51" x="4.2" y="58.5"/><ellipse cx="13.2" cy="68.1" fill="#ADD1B2" rx="6.6" ry="6.6" style="stroke:#A80036;stroke-width:0.6;"/><path d="M14.4,66 Q14.5219,65.7 14.6625,65.55 Q14.8031,65.4 14.9625,65.4 Q15.2437,65.4 15.4219,65.5688 Q15.6,65.7375 15.6,66.1313 L15.6,67.0688 Q15.6,67.4625 15.4312,67.6313 Q15.2625,67.8 15,67.8 Q14.7656,67.8 14.6156,67.6969 Q14.4656,67.5938 14.4,67.3219 Q14.3719,67.1344 14.2687,67.0313 Q14.0812,66.8344 13.7438,66.7219 Q13.4063,66.6 13.0688,66.6 Q12.6469,66.6 12.2906,66.7688 Q11.9438,66.9375 11.6719,67.3125 Q11.4,67.6875 11.4,68.2031 L11.4,68.7563 Q11.4,69.375 11.9063,69.7875 Q12.4125,70.2 13.3125,70.2 Q13.8469,70.2 14.2219,70.0781 Q14.4375,70.0125 14.6812,69.7969 Q14.8406,69.675 14.925,69.6375 Q15.0094,69.6 15.1125,69.6 Q15.3094,69.6 15.45,69.7594 Q15.6,69.9094 15.6,70.125 Q15.6,70.3313 15.3937,70.575 Q15.0938,70.9312 14.6156,71.1281 Q13.9875,71.4 13.2188,71.4 Q12.3188,71.4 11.5969,71.0438 Q11.0156,70.7625 10.6031,70.1531 Q10.2,69.5438 10.2,68.8219 L10.2,68.1656 Q10.2,67.4156 10.5563,66.7594 Q10.9219,66.1031 11.55,65.7563 Q12.1875,65.4 12.9,65.4 Q13.3312,65.4 13.7062,65.55 Q14.0812,65.7 14.4,66 Z " fill="#000000"/><text fill="#000000" font-family="sans-serif" font-size="7.2" lengthAdjust="spacing" textLength="31.8" x="21.6" y="71.0461">Company</text><line style="stroke:#A80036;stroke-width:0.8999999999999999;" x1="4.8" x2="54.6" y1="77.7" y2="77.7"/><!--MD5=[0dc7f2ddb409b58bcf52b12238c25399]
class Ship--><rect codeLine="40" fill="#FEFECE" filter="url(#f1wo7lwdpla2z8)" height="115.3172" id="Ship" style="stroke:#A80036;stroke-width:0.8999999999999999;" width="60" x="129.6" y="12.9"/><ellipse cx="150.21" cy="22.5" fill="#ADD1B2" rx="6.6" ry="6.6" style="stroke:#A80036;stroke-width:0.6;"/><path d="M151.41,20.4 Q151.5319,20.1 151.6725,19.95 Q151.8131,19.8 151.9725,19.8 Q152.2538,19.8 152.4319,19.9688 Q152.61,20.1375 152.61,20.5313 L152.61,21.4688 Q152.61,21.8625 152.4413,22.0313 Q152.2725,22.2 152.01,22.2 Q151.7756,22.2 151.6256,22.0969 Q151.4756,21.9938 151.41,21.7219 Q151.3819,21.5344 151.2788,21.4313 Q151.0913,21.2344 150.7538,21.1219 Q150.4163,21 150.0787,21 Q149.6569,21 149.3006,21.1688 Q148.9537,21.3375 148.6819,21.7125 Q148.41,22.0875 148.41,22.6031 L148.41,23.1563 Q148.41,23.775 148.9163,24.1875 Q149.4225,24.6 150.3225,24.6 Q150.8569,24.6 151.2319,24.4781 Q151.4475,24.4125 151.6913,24.1969 Q151.8506,24.075 151.935,24.0375 Q152.0194,24 152.1225,24 Q152.3194,24 152.46,24.1594 Q152.61,24.3094 152.61,24.525 Q152.61,24.7313 152.4038,24.975 Q152.1038,25.3313 151.6256,25.5281 Q150.9975,25.8 150.2288,25.8 Q149.3287,25.8 148.6069,25.4437 Q148.0256,25.1625 147.6131,24.5531 Q147.21,23.9437 147.21,23.2219 L147.21,22.5656 Q147.21,21.8156 147.5663,21.1594 Q147.9319,20.5031 148.56,20.1563 Q149.1975,19.8 149.91,19.8 Q150.3413,19.8 150.7163,19.95 Q151.0913,20.1 151.41,20.4 Z " fill="#000000"/><text fill="#000000" font-family="sans-serif" font-size="7.2" lengthAdjust="spacing" textLength="15" x="161.19" y="25.4461">Ship</text><line style="stroke:#A80036;stroke-width:0.8999999999999999;" x1="130.2" x2="189" y1="32.1" y2="32.1"/><text fill="#000000" font-family="sans-serif" font-size="6.6" lengthAdjust="spacing" textLength="16.8" x="133.2" y="41.3514">-mmsi</text><text fill="#000000" font-family="sans-serif" font-size="6.6" lengthAdjust="spacing" textLength="30.6" x="133.2" y="49.6529">-shipName</text><text fill="#000000" font-family="sans-serif" font-size="6.6" lengthAdjust="spacing" textLength="12" x="133.2" y="57.9545">-imo</text><text fill="#000000" font-family="sans-serif" font-size="6.6" lengthAdjust="spacing" textLength="52.8" x="133.2" y="66.2561">-num_energy_gen</text><text fill="#000000" font-family="sans-serif" font-size="6.6" lengthAdjust="spacing" textLength="42.6" x="133.2" y="74.5576">-gen_pow_out</text><text fill="#000000" font-family="sans-serif" font-size="6.6" lengthAdjust="spacing" textLength="24.6" x="133.2" y="82.8592">-callSign</text><text fill="#000000" font-family="sans-serif" font-size="6.6" lengthAdjust="spacing" textLength="36" x="133.2" y="91.1607">-vesselType</text><text fill="#000000" font-family="sans-serif" font-size="6.6" lengthAdjust="spacing" textLength="19.8" x="133.2" y="99.4623">-length</text><text fill="#000000" font-family="sans-serif" font-size="6.6" lengthAdjust="spacing" textLength="18.6" x="133.2" y="107.7639">-width</text><text fill="#000000" font-family="sans-serif" font-size="6.6" lengthAdjust="spacing" textLength="27" x="133.2" y="116.0654">-capacity</text><text fill="#000000" font-family="sans-serif" font-size="6.6" lengthAdjust="spacing" textLength="16.2" x="133.2" y="124.367">-draft</text><!--MD5=[ea664677451a07ae043a86695eaa4448]
class ShipDynData--><rect codeLine="54" fill="#FEFECE" filter="url(#f1wo7lwdpla2z8)" height="98.7141" id="ShipDynData" style="stroke:#A80036;stroke-width:0.8999999999999999;" width="62.4" x="274.5" y="4.2"/><ellipse cx="283.5" cy="13.8" fill="#ADD1B2" rx="6.6" ry="6.6" style="stroke:#A80036;stroke-width:0.6;"/><path d="M284.7,11.7 Q284.8219,11.4 284.9625,11.25 Q285.1031,11.1 285.2625,11.1 Q285.5438,11.1 285.7219,11.2687 Q285.9,11.4375 285.9,11.8312 L285.9,12.7687 Q285.9,13.1625 285.7313,13.3312 Q285.5625,13.5 285.3,13.5 Q285.0656,13.5 284.9156,13.3969 Q284.7656,13.2938 284.7,13.0219 Q284.6719,12.8344 284.5687,12.7313 Q284.3812,12.5344 284.0438,12.4219 Q283.7063,12.3 283.3688,12.3 Q282.9469,12.3 282.5906,12.4688 Q282.2438,12.6375 281.9719,13.0125 Q281.7,13.3875 281.7,13.9031 L281.7,14.4562 Q281.7,15.075 282.2063,15.4875 Q282.7125,15.9 283.6125,15.9 Q284.1469,15.9 284.5219,15.7781 Q284.7375,15.7125 284.9813,15.4969 Q285.1406,15.375 285.225,15.3375 Q285.3094,15.3 285.4125,15.3 Q285.6094,15.3 285.75,15.4594 Q285.9,15.6094 285.9,15.825 Q285.9,16.0313 285.6937,16.275 Q285.3938,16.6312 284.9156,16.8281 Q284.2875,17.1 283.5188,17.1 Q282.6188,17.1 281.8969,16.7438 Q281.3156,16.4625 280.9031,15.8531 Q280.5,15.2437 280.5,14.5219 L280.5,13.8656 Q280.5,13.1156 280.8563,12.4594 Q281.2219,11.8031 281.85,11.4562 Q282.4875,11.1 283.2,11.1 Q283.6312,11.1 284.0062,11.25 Q284.3812,11.4 284.7,11.7 Z " fill="#000000"/><text fill="#000000" font-family="sans-serif" font-size="7.2" lengthAdjust="spacing" textLength="43.2" x="291.9" y="16.7461">ShipDynData</text><line style="stroke:#A80036;stroke-width:0.8999999999999999;" x1="275.1" x2="336.3" y1="23.4" y2="23.4"/><text fill="#000000" font-family="sans-serif" font-size="6.6" lengthAdjust="spacing" textLength="43.2" x="278.1" y="32.6514">-baseDateTime</text><text fill="#000000" font-family="sans-serif" font-size="6.6" lengthAdjust="spacing" textLength="22.8" x="278.1" y="40.9529">-latitude</text><text fill="#000000" font-family="sans-serif" font-size="6.6" lengthAdjust="spacing" textLength="28.2" x="278.1" y="49.2545">-longitude</text><text fill="#000000" font-family="sans-serif" font-size="6.6" lengthAdjust="spacing" textLength="13.2" x="278.1" y="57.5561">-sog</text><text fill="#000000" font-family="sans-serif" font-size="6.6" lengthAdjust="spacing" textLength="13.2" x="278.1" y="65.8576">-cog</text><text fill="#000000" font-family="sans-serif" font-size="6.6" lengthAdjust="spacing" textLength="25.2" x="278.1" y="74.1592">-heading</text><text fill="#000000" font-family="sans-serif" font-size="6.6" lengthAdjust="spacing" textLength="24.6" x="278.1" y="82.4607">-position</text><text fill="#000000" font-family="sans-serif" font-size="6.6" lengthAdjust="spacing" textLength="19.2" x="278.1" y="90.7623">-cargo</text><text fill="#000000" font-family="sans-serif" font-size="6.6" lengthAdjust="spacing" textLength="35.4" x="278.1" y="99.0639">-transceiver</text><!--MD5=[e9a58730c562b34349daa605d1ed6662]
class Container--><rect codeLine="66" fill="#FEFECE" filter="url(#f1wo7lwdpla2z8)" height="107.0156" id="Container" style="stroke:#A80036;stroke-width:0.8999999999999999;" width="72.6" x="269.4" y="124.5"/><ellipse cx="287.85" cy="134.1" fill="#ADD1B2" rx="6.6" ry="6.6" style="stroke:#A80036;stroke-width:0.6;"/><path d="M289.05,132 Q289.1719,131.7 289.3125,131.55 Q289.4531,131.4 289.6125,131.4 Q289.8938,131.4 290.0719,131.5688 Q290.25,131.7375 290.25,132.1313 L290.25,133.0688 Q290.25,133.4625 290.0813,133.6313 Q289.9125,133.8 289.65,133.8 Q289.4156,133.8 289.2656,133.6969 Q289.1156,133.5938 289.05,133.3219 Q289.0219,133.1344 288.9188,133.0313 Q288.7313,132.8344 288.3938,132.7219 Q288.0563,132.6 287.7188,132.6 Q287.2969,132.6 286.9406,132.7687 Q286.5938,132.9375 286.3219,133.3125 Q286.05,133.6875 286.05,134.2031 L286.05,134.7563 Q286.05,135.375 286.5563,135.7875 Q287.0625,136.2 287.9625,136.2 Q288.4969,136.2 288.8719,136.0781 Q289.0875,136.0125 289.3313,135.7969 Q289.4906,135.675 289.575,135.6375 Q289.6594,135.6 289.7625,135.6 Q289.9594,135.6 290.1,135.7594 Q290.25,135.9094 290.25,136.125 Q290.25,136.3312 290.0438,136.575 Q289.7438,136.9313 289.2656,137.1281 Q288.6375,137.4 287.8688,137.4 Q286.9688,137.4 286.2469,137.0438 Q285.6656,136.7625 285.2531,136.1531 Q284.85,135.5438 284.85,134.8219 L284.85,134.1656 Q284.85,133.4156 285.2063,132.7594 Q285.5719,132.1031 286.2,131.7563 Q286.8375,131.4 287.55,131.4 Q287.9813,131.4 288.3563,131.55 Q288.7313,131.7 289.05,132 Z " fill="#000000"/><text fill="#000000" font-family="sans-serif" font-size="7.2" lengthAdjust="spacing" textLength="32.4" x="298.35" y="137.0461">Container</text><line style="stroke:#A80036;stroke-width:0.8999999999999999;" x1="270" x2="341.4" y1="143.7" y2="143.7"/><text fill="#000000" font-family="sans-serif" font-size="6.6" lengthAdjust="spacing" textLength="7.2" x="273" y="152.9514">-id</text><text fill="#000000" font-family="sans-serif" font-size="6.6" lengthAdjust="spacing" textLength="34.8" x="273" y="161.2529">-check_digit</text><text fill="#000000" font-family="sans-serif" font-size="6.6" lengthAdjust="spacing" textLength="10.8" x="273" y="169.5545">-iso</text><text fill="#000000" font-family="sans-serif" font-size="6.6" lengthAdjust="spacing" textLength="22.2" x="273" y="177.8561">-weight</text><text fill="#000000" font-family="sans-serif" font-size="6.6" lengthAdjust="spacing" textLength="37.8" x="273" y="186.1576">-max_weight</text><text fill="#000000" font-family="sans-serif" font-size="6.6" lengthAdjust="spacing" textLength="51" x="273" y="194.4592">-max_weight_incl</text><text fill="#000000" font-family="sans-serif" font-size="6.6" lengthAdjust="spacing" textLength="38.4" x="273" y="202.7607">-max_volume</text><text fill="#000000" font-family="sans-serif" font-size="6.6" lengthAdjust="spacing" textLength="36.6" x="273" y="211.0623">-refrigerated</text><text fill="#000000" font-family="sans-serif" font-size="6.6" lengthAdjust="spacing" textLength="31.2" x="273" y="219.3639">-certificate</text><text fill="#000000" font-family="sans-serif" font-size="6.6" lengthAdjust="spacing" textLength="65.4" x="273" y="227.6654">-repair_recomendation</text><!--MD5=[fc19b5d0a60532f034c46cb5e9d817c2]
class Cargo_Manifest_Load--><rect codeLine="79" fill="#FEFECE" filter="url(#f1wo7lwdpla2z8)" height="57.2063" id="Cargo_Manifest_Load" style="stroke:#A80036;stroke-width:0.8999999999999999;" width="92.4" x="433.8" y="149.4"/><ellipse cx="442.8" cy="159" fill="#ADD1B2" rx="6.6" ry="6.6" style="stroke:#A80036;stroke-width:0.6;"/><path d="M444,156.9 Q444.1219,156.6 444.2625,156.45 Q444.4031,156.3 444.5625,156.3 Q444.8438,156.3 445.0219,156.4688 Q445.2,156.6375 445.2,157.0313 L445.2,157.9688 Q445.2,158.3625 445.0313,158.5313 Q444.8625,158.7 444.6,158.7 Q444.3656,158.7 444.2156,158.5969 Q444.0656,158.4938 444,158.2219 Q443.9719,158.0344 443.8688,157.9313 Q443.6813,157.7344 443.3438,157.6219 Q443.0062,157.5 442.6688,157.5 Q442.2469,157.5 441.8906,157.6688 Q441.5438,157.8375 441.2719,158.2125 Q441,158.5875 441,159.1031 L441,159.6563 Q441,160.275 441.5062,160.6875 Q442.0125,161.1 442.9125,161.1 Q443.4469,161.1 443.8219,160.9781 Q444.0375,160.9125 444.2813,160.6969 Q444.4406,160.575 444.525,160.5375 Q444.6094,160.5 444.7125,160.5 Q444.9094,160.5 445.05,160.6594 Q445.2,160.8094 445.2,161.025 Q445.2,161.2313 444.9938,161.475 Q444.6937,161.8312 444.2156,162.0281 Q443.5875,162.3 442.8187,162.3 Q441.9188,162.3 441.1969,161.9438 Q440.6156,161.6625 440.2031,161.0531 Q439.8,160.4438 439.8,159.7219 L439.8,159.0656 Q439.8,158.3156 440.1563,157.6594 Q440.5219,157.0031 441.15,156.6563 Q441.7875,156.3 442.5,156.3 Q442.9313,156.3 443.3063,156.45 Q443.6813,156.6 444,156.9 Z " fill="#000000"/><text fill="#000000" font-family="sans-serif" font-size="7.2" lengthAdjust="spacing" textLength="73.2" x="451.2" y="161.9461">Cargo_Manifest_Load</text><line style="stroke:#A80036;stroke-width:0.8999999999999999;" x1="434.4" x2="525.6" y1="168.6" y2="168.6"/><text fill="#000000" font-family="sans-serif" font-size="6.6" lengthAdjust="spacing" textLength="37.8" x="437.4" y="177.8514">-container_id</text><text fill="#000000" font-family="sans-serif" font-size="6.6" lengthAdjust="spacing" textLength="55.2" x="437.4" y="186.1529">-container_position</text><text fill="#000000" font-family="sans-serif" font-size="6.6" lengthAdjust="spacing" textLength="73.2" x="437.4" y="194.4545">-container_gross_weight</text><text fill="#000000" font-family="sans-serif" font-size="6.6" lengthAdjust="spacing" textLength="20.4" x="437.4" y="202.7561">-status</text><!--MD5=[71d25d4183794b35111f81a14f98c8a4]
class Cargo_Manifest_Unload--><rect codeLine="12" fill="#FEFECE" filter="url(#f1wo7lwdpla2z8)" height="24" id="Cargo_Manifest_Unload" style="stroke:#A80036;stroke-width:0.8999999999999999;" width="99.6" x="760.8" y="165.9"/><ellipse cx="769.8" cy="175.5" fill="#ADD1B2" rx="6.6" ry="6.6" style="stroke:#A80036;stroke-width:0.6;"/><path d="M771,173.4 Q771.1219,173.1 771.2625,172.95 Q771.4031,172.8 771.5625,172.8 Q771.8438,172.8 772.0219,172.9688 Q772.2,173.1375 772.2,173.5313 L772.2,174.4688 Q772.2,174.8625 772.0313,175.0313 Q771.8625,175.2 771.6,175.2 Q771.3656,175.2 771.2156,175.0969 Q771.0656,174.9938 771,174.7219 Q770.9719,174.5344 770.8688,174.4313 Q770.6813,174.2344 770.3438,174.1219 Q770.0063,174 769.6687,174 Q769.2469,174 768.8906,174.1688 Q768.5437,174.3375 768.2719,174.7125 Q768,175.0875 768,175.6031 L768,176.1563 Q768,176.775 768.5063,177.1875 Q769.0125,177.6 769.9125,177.6 Q770.4469,177.6 770.8219,177.4781 Q771.0375,177.4125 771.2813,177.1969 Q771.4406,177.075 771.525,177.0375 Q771.6094,177 771.7125,177 Q771.9094,177 772.05,177.1594 Q772.2,177.3094 772.2,177.525 Q772.2,177.7313 771.9938,177.975 Q771.6938,178.3312 771.2156,178.5281 Q770.5875,178.8 769.8188,178.8 Q768.9187,178.8 768.1969,178.4438 Q767.6156,178.1625 767.2031,177.5531 Q766.8,176.9438 766.8,176.2219 L766.8,175.5656 Q766.8,174.8156 767.1563,174.1594 Q767.5219,173.5031 768.15,173.1563 Q768.7875,172.8 769.5,172.8 Q769.9313,172.8 770.3063,172.95 Q770.6813,173.1 771,173.4 Z " fill="#000000"/><text fill="#000000" font-family="sans-serif" font-size="7.2" lengthAdjust="spacing" textLength="80.4" x="778.2" y="178.4461">Cargo_Manifest_Unload</text><line style="stroke:#A80036;stroke-width:0.8999999999999999;" x1="761.4" x2="859.8" y1="185.1" y2="185.1"/><!--MD5=[cbfc57bef1c415c3126d20e2f7e364c7]
class Stage--><rect codeLine="109" fill="#FEFECE" filter="url(#f1wo7lwdpla2z8)" height="40.6031" id="Stage" style="stroke:#A80036;stroke-width:0.8999999999999999;" width="54" x="959.4" y="157.5"/><ellipse cx="975.42" cy="167.1" fill="#ADD1B2" rx="6.6" ry="6.6" style="stroke:#A80036;stroke-width:0.6;"/><path d="M976.62,165 Q976.7419,164.7 976.8825,164.55 Q977.0231,164.4 977.1825,164.4 Q977.4638,164.4 977.6419,164.5688 Q977.82,164.7375 977.82,165.1313 L977.82,166.0688 Q977.82,166.4625 977.6513,166.6313 Q977.4825,166.8 977.22,166.8 Q976.9856,166.8 976.8356,166.6969 Q976.6856,166.5938 976.62,166.3219 Q976.5919,166.1344 976.4888,166.0313 Q976.3013,165.8344 975.9638,165.7219 Q975.6263,165.6 975.2887,165.6 Q974.8669,165.6 974.5106,165.7687 Q974.1637,165.9375 973.8919,166.3125 Q973.62,166.6875 973.62,167.2031 L973.62,167.7563 Q973.62,168.375 974.1263,168.7875 Q974.6325,169.2 975.5325,169.2 Q976.0669,169.2 976.4419,169.0781 Q976.6575,169.0125 976.9013,168.7969 Q977.0606,168.675 977.145,168.6375 Q977.2294,168.6 977.3325,168.6 Q977.5294,168.6 977.67,168.7594 Q977.82,168.9094 977.82,169.125 Q977.82,169.3312 977.6138,169.575 Q977.3138,169.9313 976.8356,170.1281 Q976.2075,170.4 975.4388,170.4 Q974.5387,170.4 973.8169,170.0438 Q973.2356,169.7625 972.8231,169.1531 Q972.42,168.5438 972.42,167.8219 L972.42,167.1656 Q972.42,166.4156 972.7763,165.7594 Q973.1419,165.1031 973.77,164.7563 Q974.4075,164.4 975.12,164.4 Q975.5513,164.4 975.9263,164.55 Q976.3013,164.7 976.62,165 Z " fill="#000000"/><text fill="#000000" font-family="sans-serif" font-size="7.2" lengthAdjust="spacing" textLength="19.2" x="985.38" y="170.0461">Stage</text><line style="stroke:#A80036;stroke-width:0.8999999999999999;" x1="960" x2="1012.8" y1="176.7" y2="176.7"/><text fill="#000000" font-family="sans-serif" font-size="6.6" lengthAdjust="spacing" textLength="46.8" x="963" y="185.9514">-departure_date</text><text fill="#000000" font-family="sans-serif" font-size="6.6" lengthAdjust="spacing" textLength="36.6" x="963" y="194.2529">-arrival_date</text><!--MD5=[4f1f3706c1a355a8488e154afcaed5df]
class Location--><rect codeLine="86" fill="#FEFECE" filter="url(#f1wo7lwdpla2z8)" height="48.9047" id="Location" style="stroke:#A80036;stroke-width:0.8999999999999999;" width="47.4" x="786.9" y="263.7"/><ellipse cx="795.9" cy="273.3" fill="#ADD1B2" rx="6.6" ry="6.6" style="stroke:#A80036;stroke-width:0.6;"/><path d="M797.1,271.2 Q797.2219,270.9 797.3625,270.75 Q797.5031,270.6 797.6625,270.6 Q797.9438,270.6 798.1219,270.7688 Q798.3,270.9375 798.3,271.3313 L798.3,272.2688 Q798.3,272.6625 798.1313,272.8313 Q797.9625,273 797.7,273 Q797.4656,273 797.3156,272.8969 Q797.1656,272.7938 797.1,272.5219 Q797.0719,272.3344 796.9688,272.2313 Q796.7813,272.0344 796.4438,271.9219 Q796.1062,271.8 795.7688,271.8 Q795.3469,271.8 794.9906,271.9688 Q794.6438,272.1375 794.3719,272.5125 Q794.1,272.8875 794.1,273.4031 L794.1,273.9563 Q794.1,274.575 794.6062,274.9875 Q795.1125,275.4 796.0125,275.4 Q796.5469,275.4 796.9219,275.2781 Q797.1375,275.2125 797.3813,274.9969 Q797.5406,274.875 797.625,274.8375 Q797.7094,274.8 797.8125,274.8 Q798.0094,274.8 798.15,274.9594 Q798.3,275.1094 798.3,275.325 Q798.3,275.5313 798.0938,275.775 Q797.7937,276.1312 797.3156,276.3281 Q796.6875,276.6 795.9187,276.6 Q795.0188,276.6 794.2969,276.2438 Q793.7156,275.9625 793.3031,275.3531 Q792.9,274.7438 792.9,274.0219 L792.9,273.3656 Q792.9,272.6156 793.2563,271.9594 Q793.6219,271.3031 794.25,270.9563 Q794.8875,270.6 795.6,270.6 Q796.0313,270.6 796.4063,270.75 Q796.7813,270.9 797.1,271.2 Z " fill="#000000"/><text fill="#000000" font-family="sans-serif" font-size="7.2" lengthAdjust="spacing" textLength="28.2" x="804.3" y="276.2461">Location</text><line style="stroke:#A80036;stroke-width:0.8999999999999999;" x1="787.5" x2="833.7" y1="282.9" y2="282.9"/><text fill="#000000" font-family="sans-serif" font-size="6.6" lengthAdjust="spacing" textLength="22.8" x="790.5" y="292.1514">-latitude</text><text fill="#000000" font-family="sans-serif" font-size="6.6" lengthAdjust="spacing" textLength="28.2" x="790.5" y="300.4529">-longitude</text><text fill="#000000" font-family="sans-serif" font-size="6.6" lengthAdjust="spacing" textLength="18" x="790.5" y="308.7545">-name</text><!--MD5=[deb4e1f6eb1e3c1256fdb830f96abfbb]
class Country--><rect codeLine="92" fill="#FEFECE" filter="url(#f1wo7lwdpla2z8)" height="40.6031" id="Country" style="stroke:#A80036;stroke-width:0.8999999999999999;" width="44.4" x="964.2" y="267.9"/><ellipse cx="973.2" cy="277.5" fill="#ADD1B2" rx="6.6" ry="6.6" style="stroke:#A80036;stroke-width:0.6;"/><path d="M974.4,275.4 Q974.5219,275.1 974.6625,274.95 Q974.8031,274.8 974.9625,274.8 Q975.2438,274.8 975.4219,274.9688 Q975.6,275.1375 975.6,275.5313 L975.6,276.4688 Q975.6,276.8625 975.4313,277.0313 Q975.2625,277.2 975,277.2 Q974.7656,277.2 974.6156,277.0969 Q974.4656,276.9938 974.4,276.7219 Q974.3719,276.5344 974.2688,276.4313 Q974.0813,276.2344 973.7438,276.1219 Q973.4063,276 973.0687,276 Q972.6469,276 972.2906,276.1688 Q971.9437,276.3375 971.6719,276.7125 Q971.4,277.0875 971.4,277.6031 L971.4,278.1563 Q971.4,278.775 971.9063,279.1875 Q972.4125,279.6 973.3125,279.6 Q973.8469,279.6 974.2219,279.4781 Q974.4375,279.4125 974.6813,279.1969 Q974.8406,279.075 974.925,279.0375 Q975.0094,279 975.1125,279 Q975.3094,279 975.45,279.1594 Q975.6,279.3094 975.6,279.525 Q975.6,279.7313 975.3938,279.975 Q975.0938,280.3313 974.6156,280.5281 Q973.9875,280.8 973.2188,280.8 Q972.3187,280.8 971.5969,280.4437 Q971.0156,280.1625 970.6031,279.5531 Q970.2,278.9437 970.2,278.2219 L970.2,277.5656 Q970.2,276.8156 970.5563,276.1594 Q970.9219,275.5031 971.55,275.1563 Q972.1875,274.8 972.9,274.8 Q973.3313,274.8 973.7063,274.95 Q974.0813,275.1 974.4,275.4 Z " fill="#000000"/><text fill="#000000" font-family="sans-serif" font-size="7.2" lengthAdjust="spacing" textLength="25.2" x="981.6" y="280.4461">Country</text><line style="stroke:#A80036;stroke-width:0.8999999999999999;" x1="964.8" x2="1008" y1="287.1" y2="287.1"/><text fill="#000000" font-family="sans-serif" font-size="6.6" lengthAdjust="spacing" textLength="18" x="967.8" y="296.3514">-name</text><text fill="#000000" font-family="sans-serif" font-size="6.6" lengthAdjust="spacing" textLength="28.8" x="967.8" y="304.6529">-continent</text><!--MD5=[f2ba7f6ab60af8dd0d3e354f91729b14]
class Truck--><rect codeLine="97" fill="#FEFECE" filter="url(#f1wo7lwdpla2z8)" height="24" id="Truck" style="stroke:#A80036;stroke-width:0.8999999999999999;" width="37.2" x="141" y="165.9"/><ellipse cx="150" cy="175.5" fill="#ADD1B2" rx="6.6" ry="6.6" style="stroke:#A80036;stroke-width:0.6;"/><path d="M151.2,173.4 Q151.3219,173.1 151.4625,172.95 Q151.6031,172.8 151.7625,172.8 Q152.0438,172.8 152.2219,172.9688 Q152.4,173.1375 152.4,173.5313 L152.4,174.4688 Q152.4,174.8625 152.2313,175.0313 Q152.0625,175.2 151.8,175.2 Q151.5656,175.2 151.4156,175.0969 Q151.2656,174.9938 151.2,174.7219 Q151.1719,174.5344 151.0688,174.4313 Q150.8813,174.2344 150.5438,174.1219 Q150.2062,174 149.8688,174 Q149.4469,174 149.0906,174.1688 Q148.7438,174.3375 148.4719,174.7125 Q148.2,175.0875 148.2,175.6031 L148.2,176.1563 Q148.2,176.775 148.7062,177.1875 Q149.2125,177.6 150.1125,177.6 Q150.6469,177.6 151.0219,177.4781 Q151.2375,177.4125 151.4813,177.1969 Q151.6406,177.075 151.725,177.0375 Q151.8094,177 151.9125,177 Q152.1094,177 152.25,177.1594 Q152.4,177.3094 152.4,177.525 Q152.4,177.7313 152.1938,177.975 Q151.8937,178.3312 151.4156,178.5281 Q150.7875,178.8 150.0187,178.8 Q149.1188,178.8 148.3969,178.4438 Q147.8156,178.1625 147.4031,177.5531 Q147,176.9438 147,176.2219 L147,175.5656 Q147,174.8156 147.3563,174.1594 Q147.7219,173.5031 148.35,173.1563 Q148.9875,172.8 149.7,172.8 Q150.1313,172.8 150.5063,172.95 Q150.8813,173.1 151.2,173.4 Z " fill="#000000"/><text fill="#000000" font-family="sans-serif" font-size="7.2" lengthAdjust="spacing" textLength="18" x="158.4" y="178.4461">Truck</text><line style="stroke:#A80036;stroke-width:0.8999999999999999;" x1="141.6" x2="177.6" y1="185.1" y2="185.1"/><!--MD5=[a0bfe97ac0a38e6e74cc1c7c7b744b71]
class Port--><rect codeLine="101" fill="#FEFECE" filter="url(#f1wo7lwdpla2z8)" height="24" id="Port" style="stroke:#A80036;stroke-width:0.8999999999999999;" width="32.4" x="624" y="194.1"/><ellipse cx="633" cy="203.7" fill="#ADD1B2" rx="6.6" ry="6.6" style="stroke:#A80036;stroke-width:0.6;"/><path d="M634.2,201.6 Q634.3219,201.3 634.4625,201.15 Q634.6031,201 634.7625,201 Q635.0437,201 635.2219,201.1688 Q635.4,201.3375 635.4,201.7313 L635.4,202.6688 Q635.4,203.0625 635.2312,203.2313 Q635.0625,203.4 634.8,203.4 Q634.5656,203.4 634.4156,203.2969 Q634.2656,203.1938 634.2,202.9219 Q634.1719,202.7344 634.0688,202.6313 Q633.8813,202.4344 633.5437,202.3219 Q633.2063,202.2 632.8688,202.2 Q632.4469,202.2 632.0906,202.3688 Q631.7438,202.5375 631.4719,202.9125 Q631.2,203.2875 631.2,203.8031 L631.2,204.3563 Q631.2,204.975 631.7063,205.3875 Q632.2125,205.8 633.1125,205.8 Q633.6469,205.8 634.0219,205.6781 Q634.2375,205.6125 634.4812,205.3969 Q634.6406,205.275 634.725,205.2375 Q634.8094,205.2 634.9125,205.2 Q635.1094,205.2 635.25,205.3594 Q635.4,205.5094 635.4,205.725 Q635.4,205.9313 635.1938,206.175 Q634.8938,206.5313 634.4156,206.7281 Q633.7875,207 633.0188,207 Q632.1188,207 631.3969,206.6437 Q630.8156,206.3625 630.4031,205.7531 Q630,205.1437 630,204.4219 L630,203.7656 Q630,203.0156 630.3562,202.3594 Q630.7219,201.7031 631.35,201.3563 Q631.9875,201 632.7,201 Q633.1313,201 633.5063,201.15 Q633.8813,201.3 634.2,201.6 Z " fill="#000000"/><text fill="#000000" font-family="sans-serif" font-size="7.2" lengthAdjust="spacing" textLength="13.2" x="641.4" y="206.6461">Port</text><line style="stroke:#A80036;stroke-width:0.8999999999999999;" x1="624.6" x2="655.8" y1="213.3" y2="213.3"/><!--MD5=[c5149b4909ffd2688ff51a939867f774]
class Warehouse--><rect codeLine="105" fill="#FEFECE" filter="url(#f1wo7lwdpla2z8)" height="24" id="Warehouse" style="stroke:#A80036;stroke-width:0.8999999999999999;" width="57.6" x="611.4" y="276.3"/><ellipse cx="620.4" cy="285.9" fill="#ADD1B2" rx="6.6" ry="6.6" style="stroke:#A80036;stroke-width:0.6;"/><path d="M621.6,283.8 Q621.7219,283.5 621.8625,283.35 Q622.0031,283.2 622.1625,283.2 Q622.4438,283.2 622.6219,283.3688 Q622.8,283.5375 622.8,283.9313 L622.8,284.8688 Q622.8,285.2625 622.6313,285.4313 Q622.4625,285.6 622.2,285.6 Q621.9656,285.6 621.8156,285.4969 Q621.6656,285.3938 621.6,285.1219 Q621.5719,284.9344 621.4688,284.8313 Q621.2813,284.6344 620.9438,284.5219 Q620.6062,284.4 620.2688,284.4 Q619.8469,284.4 619.4906,284.5687 Q619.1438,284.7375 618.8719,285.1125 Q618.6,285.4875 618.6,286.0031 L618.6,286.5563 Q618.6,287.175 619.1062,287.5875 Q619.6125,288 620.5125,288 Q621.0469,288 621.4219,287.8781 Q621.6375,287.8125 621.8813,287.5969 Q622.0406,287.475 622.125,287.4375 Q622.2094,287.4 622.3125,287.4 Q622.5094,287.4 622.65,287.5594 Q622.8,287.7094 622.8,287.925 Q622.8,288.1312 622.5938,288.375 Q622.2937,288.7313 621.8156,288.9281 Q621.1875,289.2 620.4187,289.2 Q619.5188,289.2 618.7969,288.8438 Q618.2156,288.5625 617.8031,287.9531 Q617.4,287.3438 617.4,286.6219 L617.4,285.9656 Q617.4,285.2156 617.7563,284.5594 Q618.1219,283.9031 618.75,283.5563 Q619.3875,283.2 620.1,283.2 Q620.5313,283.2 620.9063,283.35 Q621.2813,283.5 621.6,283.8 Z " fill="#000000"/><text fill="#000000" font-family="sans-serif" font-size="7.2" lengthAdjust="spacing" textLength="38.4" x="628.8" y="288.8461">Warehouse</text><line style="stroke:#A80036;stroke-width:0.8999999999999999;" x1="612" x2="668.4" y1="295.5" y2="295.5"/><!--MD5=[37a14a5de6d6fd738aee271300f4b5c8]
link Company to Ship--><path codeLine="21" d="M55.266,70.5 C76.542,70.5 107.142,70.5 129.594,70.5 " fill="none" id="Company-Ship" style="stroke:#A80036;stroke-width:0.6;"/><polygon fill="#000000" points="79.2,65.2055,73.7729,63.4421,73.7729,66.9688,79.2,65.2055" style="stroke:#000000;stroke-width:0.6;"/><text fill="#000000" font-family="sans-serif" font-size="7.8" lengthAdjust="spacing" textLength="29.4" x="81.6" y="68.3971">contains</text><text fill="#000000" font-family="sans-serif" font-size="7.8" lengthAdjust="spacing" textLength="4.2" x="60.0211" y="79.4402">1</text><text fill="#000000" font-family="sans-serif" font-size="7.8" lengthAdjust="spacing" textLength="3" x="121.7696" y="79.3392">*</text><!--MD5=[38c9884540ca05eda8cb10986cdb6299]
link Ship to ShipDynData--><path codeLine="22" d="M189.696,67.08 C214.356,64.224 249.402,60.156 274.392,57.258 " fill="none" id="Ship-ShipDynData" style="stroke:#A80036;stroke-width:0.6;"/><polygon fill="#000000" points="224.68,54.6599,219.086,53.5334,219.4922,57.0367,224.68,54.6599" style="stroke:#000000;stroke-width:0.6;"/><text fill="#000000" font-family="sans-serif" font-size="7.8" lengthAdjust="spacing" textLength="12.6" x="227.1" y="58.1971">has</text><text fill="#000000" font-family="sans-serif" font-size="7.8" lengthAdjust="spacing" textLength="4.2" x="194.4248" y="75.3866">1</text><text fill="#000000" font-family="sans-serif" font-size="7.8" lengthAdjust="spacing" textLength="3" x="266.7784" y="66.5654">*</text><!--MD5=[ba54223a31981c52d18c1dd571f5520c]
link Ship to Container--><path codeLine="23" d="M189.696,92.364 C212.7,109.416 244.746,133.164 269.232,151.314 " fill="none" id="Ship-Container" style="stroke:#A80036;stroke-width:0.6;"/><polygon fill="#000000" points="213.0102,105.3918,209.7001,100.7436,207.6001,103.5769,213.0102,105.3918" style="stroke:#000000;stroke-width:0.6;"/><text fill="#000000" font-family="sans-serif" font-size="7.8" lengthAdjust="spacing" textLength="34.8" x="216" y="106.7971">transports</text><text fill="#000000" font-family="sans-serif" font-size="7.8" lengthAdjust="spacing" textLength="3" x="194.3367" y="104.3842">*</text><text fill="#000000" font-family="sans-serif" font-size="7.8" lengthAdjust="spacing" textLength="3" x="261.6047" y="156.7556">*</text><!--MD5=[062871d5623378d71d4c490cb56733bb]
link Truck to Container--><path codeLine="24" d="M178.26,177.9 C200.94,177.9 240.39,177.9 269.286,177.9 " fill="none" id="Truck-Container" style="stroke:#A80036;stroke-width:0.6;"/><polygon fill="#000000" points="213.6,172.6055,208.1729,170.8421,208.1729,174.3688,213.6,172.6055" style="stroke:#000000;stroke-width:0.6;"/><text fill="#000000" font-family="sans-serif" font-size="7.8" lengthAdjust="spacing" textLength="34.8" x="216" y="175.7971">transports</text><text fill="#000000" font-family="sans-serif" font-size="7.8" lengthAdjust="spacing" textLength="4.2" x="183.0608" y="187.1315">1</text><text fill="#000000" font-family="sans-serif" font-size="7.8" lengthAdjust="spacing" textLength="4.2" x="260.3921" y="186.5818">1</text><!--MD5=[fbebd1c7bb3fa4422c8bbc86cf7f62ab]
link Container to Cargo_Manifest_Load--><path codeLine="25" d="M342.168,177.9 C368.706,177.9 405.06,177.9 433.686,177.9 " fill="none" id="Container-Cargo_Manifest_Load" style="stroke:#A80036;stroke-width:0.6;"/><polygon fill="#000000" points="366,172.6055,360.5729,170.8421,360.5729,174.3688,366,172.6055" style="stroke:#000000;stroke-width:0.6;"/><text fill="#000000" font-family="sans-serif" font-size="7.8" lengthAdjust="spacing" textLength="46.8" x="368.4" y="175.7971">associated to</text><text fill="#000000" font-family="sans-serif" font-size="7.8" lengthAdjust="spacing" textLength="3" x="346.7954" y="186.5818">*</text><text fill="#000000" font-family="sans-serif" font-size="7.8" lengthAdjust="spacing" textLength="3" x="425.9793" y="186.4698">*</text><!--MD5=[e818b2cd922cee032a068261ddf04c99]
link Cargo_Manifest_Load to Port--><path codeLine="26" d="M526.374,186.018 C559.218,191.844 601.488,199.338 623.946,203.322 " fill="none" id="Cargo_Manifest_Load-Port" style="stroke:#A80036;stroke-width:0.6;"/><polygon fill="#000000" points="550.1539,185.1293,545.1182,182.4454,544.5023,185.9179,550.1539,185.1293" style="stroke:#000000;stroke-width:0.6;"/><text fill="#000000" font-family="sans-serif" font-size="7.8" lengthAdjust="spacing" textLength="40.2" x="552.6" y="187.7971">assigned to</text><text fill="#000000" font-family="sans-serif" font-size="7.8" lengthAdjust="spacing" textLength="3" x="530.937" y="195.3465">*</text><text fill="#000000" font-family="sans-serif" font-size="7.8" lengthAdjust="spacing" textLength="4.2" x="615.0428" y="211.9642">1</text><!--MD5=[932ec0d0fc3614b6e23ac9dcb9bfedbf]
link Location to Country--><path codeLine="27" d="M834.384,288.3 C868.338,288.3 931.122,288.3 964.17,288.3 " fill="none" id="Location-Country" style="stroke:#A80036;stroke-width:0.6;"/><polygon fill="#000000" points="897.9,283.0055,892.4729,281.2421,892.4729,284.7688,897.9,283.0055" style="stroke:#000000;stroke-width:0.6;"/><text fill="#000000" font-family="sans-serif" font-size="7.8" lengthAdjust="spacing" textLength="27" x="900.3" y="286.1971">belongs</text><text fill="#000000" font-family="sans-serif" font-size="7.8" lengthAdjust="spacing" textLength="3" x="839.0457" y="297.3287">*</text><text fill="#000000" font-family="sans-serif" font-size="7.8" lengthAdjust="spacing" textLength="4.2" x="955.18" y="297.3822">1</text><!--MD5=[b49887fe1cbc0313d458884062cfed56]
link Port to Stage--><path codeLine="28" d="M656.598,208.062 C692.82,212.208 784.572,220.71 860.4,210.9 C895.23,206.394 934.176,195.126 959.286,187.008 " fill="none" id="Port-Stage" style="stroke:#A80036;stroke-width:0.6;"/><polygon fill="#000000" points="788.6928,205.3973,783.1564,204.0148,783.4012,207.533,788.6928,205.3973" style="stroke:#000000;stroke-width:0.6;"/><text fill="#000000" font-family="sans-serif" font-size="7.8" lengthAdjust="spacing" textLength="46.8" x="791.1" y="208.7971">associated to</text><text fill="#000000" font-family="sans-serif" font-size="7.8" lengthAdjust="spacing" textLength="4.2" x="661.1069" y="217.833">1</text><text fill="#000000" font-family="sans-serif" font-size="7.8" lengthAdjust="spacing" textLength="3" x="951.5468" y="197.4424">*</text><!--MD5=[ce44012935880cf4daab8b02e062088d]
link Cargo_Manifest_Load to Stage--><path codeLine="29" d="M526.47,172.056 C597.834,163.656 739.8,149.748 860.4,155.1 C896.508,156.702 906.078,154.65 941.4,162.3 C947.31,163.578 953.514,165.426 959.346,167.4 " fill="none" id="Cargo_Manifest_Load-Stage" style="stroke:#A80036;stroke-width:0.6;"/><polygon fill="#000000" points="701.6998,150.3732,696.2541,148.6683,696.2921,152.1948,701.6998,150.3732" style="stroke:#000000;stroke-width:0.6;"/><text fill="#000000" font-family="sans-serif" font-size="7.8" lengthAdjust="spacing" textLength="29.4" x="704.1" y="153.5971">contains</text><text fill="#000000" font-family="sans-serif" font-size="7.8" lengthAdjust="spacing" textLength="4.2" x="530.9475" y="180.057">1</text><text fill="#000000" font-family="sans-serif" font-size="7.8" lengthAdjust="spacing" textLength="3" x="951.6167" y="174.5868">*</text><!--MD5=[1fd0b561f6bafdb9b64c7fa4f5401ae2]
link Cargo_Manifest_Unload to Stage--><path codeLine="30" d="M860.532,177.9 C892.602,177.9 933.156,177.9 959.286,177.9 " fill="none" id="Cargo_Manifest_Unload-Stage" style="stroke:#A80036;stroke-width:0.6;"/><polygon fill="#000000" points="884.4,172.6055,878.9729,170.8421,878.9729,174.3688,884.4,172.6055" style="stroke:#000000;stroke-width:0.6;"/><text fill="#000000" font-family="sans-serif" font-size="7.8" lengthAdjust="spacing" textLength="54" x="886.8" y="175.7971">associated with</text><text fill="#000000" font-family="sans-serif" font-size="7.8" lengthAdjust="spacing" textLength="4.2" x="865.1661" y="186.434">1</text><text fill="#000000" font-family="sans-serif" font-size="7.8" lengthAdjust="spacing" textLength="4.2" x="950.43" y="186.7946">1</text><!--MD5=[d295b92b748af9a316e9c70caef25ba6]
link Port to Cargo_Manifest_Unload--><path codeLine="31" d="M656.412,203.496 C679.896,199.584 725.31,192.018 760.692,186.12 " fill="none" id="Port-Cargo_Manifest_Unload" style="stroke:#A80036;stroke-width:0.6;"/><polygon fill="#000000" points="692.9592,184.1124,687.3161,183.265,687.8958,186.7438,692.9592,184.1124" style="stroke:#000000;stroke-width:0.6;"/><text fill="#000000" font-family="sans-serif" font-size="7.8" lengthAdjust="spacing" textLength="46.8" x="695.4" y="187.7971">associated to</text><text fill="#000000" font-family="sans-serif" font-size="7.8" lengthAdjust="spacing" textLength="4.2" x="661.1045" y="200.1228">1</text><text fill="#000000" font-family="sans-serif" font-size="7.8" lengthAdjust="spacing" textLength="3" x="752.9528" y="195.4271">*</text><!--MD5=[8d70ee99540c41b6b173287b4c5b2064]
link Port to Location--><path codeLine="32" d="M656.55,217.896 C665.262,224.118 676.428,231.612 687,237.3 C715.758,252.768 750.228,266.694 775.35,276.072 " fill="none" id="Port-to-Location" style="stroke:#A80036;stroke-width:0.6;"/><polygon fill="none" points="776.88,272.154,786.696,280.23,773.988,280.044,776.88,272.154" style="stroke:#A80036;stroke-width:0.6;"/><!--MD5=[3712d9ea8d08b24d161cea20cbbd053b]
link Warehouse to Location--><path codeLine="33" d="M669.12,288.3 C698.142,288.3 743.334,288.3 774.678,288.3 " fill="none" id="Warehouse-to-Location" style="stroke:#A80036;stroke-width:0.6;"/><polygon fill="none" points="774.768,284.1,786.768,288.3,774.768,292.5,774.768,284.1" style="stroke:#A80036;stroke-width:0.6;"/><!--MD5=[abb896089bfb0ac39d3d4010ca07921d]
@startuml
'https://plantuml.com/class-diagram

hide methods
left to right direction
skinparam classAttributeIconSize 0

class Company
class Ship
class ShipDynData
class Container
class Cargo_Manifest_Load
class Cargo_Manifest_Unload
class Stage
class Location
class Country
class Truck
class Port
class Warehouse
class Stage

Company "1" - - "*" Ship: contains >
Ship "1" - - "*" ShipDynData: has >
Ship "*" - - "*" Container: transports >
Truck "1" - - "1" Container: transports >
Container "*" - - "*" Cargo_Manifest_Load: associated to >
Cargo_Manifest_Load "*" - - "1" Port: assigned to >
Location "*" - - "1" Country: belongs >
Port "1" - - "*" Stage: associated to >
Cargo_Manifest_Load "1" - - "*" Stage: contains >
Cargo_Manifest_Unload "1" - - "1" Stage: associated with >
Port "1" - - "*" Cargo_Manifest_Unload: associated to >
Port - -|> Location
Warehouse - -|> Location


class Company {

}

class Ship{
 - mmsi
 - shipName
 - imo
 - num_energy_gen
 - gen_pow_out
 - callSign
 - vesselType
 - length
 - width
 - capacity
 - draft
}

class ShipDynData{
 - baseDateTime
 - latitude
 -longitude
 -sog
 -cog
 -heading
 -position
 -cargo
 -transceiver
}

class Container{
-id
-check_digit
-iso
-weight
-max_weight
-max_weight_incl
-max_volume
-refrigerated
-certificate
-repair_recomendation
}

class Cargo_Manifest_Load{
-container_id
-container_position
-container_gross_weight
-status
}

class Location{
-latitude
-longitude
-name
}

class Country{
-name
-continent
}

class Truck{

}

class Port{

}

class Warehouse{

}

class Stage{
-departure_date
-arrival_date
}

@enduml

@startuml

hide methods
left to right direction
skinparam classAttributeIconSize 0

class Company
class Ship
class ShipDynData
class Container
class Cargo_Manifest_Load
class Cargo_Manifest_Unload
class Stage
class Location
class Country
class Truck
class Port
class Warehouse
class Stage

Company "1" - - "*" Ship: contains >
Ship "1" - - "*" ShipDynData: has >
Ship "*" - - "*" Container: transports >
Truck "1" - - "1" Container: transports >
Container "*" - - "*" Cargo_Manifest_Load: associated to >
Cargo_Manifest_Load "*" - - "1" Port: assigned to >
Location "*" - - "1" Country: belongs >
Port "1" - - "*" Stage: associated to >
Cargo_Manifest_Load "1" - - "*" Stage: contains >
Cargo_Manifest_Unload "1" - - "1" Stage: associated with >
Port "1" - - "*" Cargo_Manifest_Unload: associated to >
Port - -|> Location
Warehouse - -|> Location


class Company {

}

class Ship{
 - mmsi
 - shipName
 - imo
 - num_energy_gen
 - gen_pow_out
 - callSign
 - vesselType
 - length
 - width
 - capacity
 - draft
}

class ShipDynData{
 - baseDateTime
 - latitude
 -longitude
 -sog
 -cog
 -heading
 -position
 -cargo
 -transceiver
}

class Container{
-id
-check_digit
-iso
-weight
-max_weight
-max_weight_incl
-max_volume
-refrigerated
-certificate
-repair_recomendation
}

class Cargo_Manifest_Load{
-container_id
-container_position
-container_gross_weight
-status
}

class Location{
-latitude
-longitude
-name
}

class Country{
-name
-continent
}

class Truck{

}

class Port{

}

class Warehouse{

}

class Stage{
-departure_date
-arrival_date
}

@enduml

PlantUML version 1.2021.5(Sun Apr 25 12:20:28 BST 2021)
(GPL source distribution)
Java Runtime: OpenJDK Runtime Environment
JVM: OpenJDK 64-Bit Server VM
Default Encoding: Cp1252
Language: pt
Country: PT
--></g></svg>