<?xml version="1.0" encoding="UTF-8" standalone="no"?><svg xmlns="http://www.w3.org/2000/svg" xmlns:xlink="http://www.w3.org/1999/xlink" contentScriptType="application/ecmascript" contentStyleType="text/css" height="438px" preserveAspectRatio="none" style="width:1240px;height:438px;background:#FFFFFF;" version="1.1" viewBox="0 0 1240 438" width="1240px" zoomAndPan="magnify"><defs><filter height="300%" id="fo57vxs1u09yr" width="300%" x="-1" y="-1"><feGaussianBlur result="blurOut" stdDeviation="2.0"/><feColorMatrix in="blurOut" result="blurOut2" type="matrix" values="0 0 0 0 0 0 0 0 0 0 0 0 0 0 0 0 0 0 .4 0"/><feOffset dx="4.0" dy="4.0" in="blurOut2" result="blurOut3"/><feBlend in="SourceGraphic" in2="blurOut3" mode="normal"/></filter></defs><g><rect fill="#FFFFFF" filter="url(#fo57vxs1u09yr)" height="238.0625" style="stroke:#A80036;stroke-width:1.0;" width="10" x="49" y="98.2969"/><rect fill="#FFFFFF" filter="url(#fo57vxs1u09yr)" height="216.9297" style="stroke:#A80036;stroke-width:1.0;" width="10" x="542" y="119.4297"/><rect fill="#FFFFFF" filter="url(#fo57vxs1u09yr)" height="187.7969" style="stroke:#A80036;stroke-width:1.0;" width="10" x="791" y="148.5625"/><rect fill="#FFFFFF" filter="url(#fo57vxs1u09yr)" height="71.2656" style="stroke:#A80036;stroke-width:1.0;" width="10" x="969" y="177.6953"/><rect fill="#FFFFFF" filter="url(#fo57vxs1u09yr)" height="29.1328" style="stroke:#A80036;stroke-width:1.0;" width="10" x="1165" y="248.9609"/><line style="stroke:#A80036;stroke-width:1.0;stroke-dasharray:5.0,5.0;" x1="54" x2="54" y1="88.2969" y2="354.3594"/><line style="stroke:#A80036;stroke-width:1.0;stroke-dasharray:5.0,5.0;" x1="546.5" x2="546.5" y1="88.2969" y2="354.3594"/><line style="stroke:#A80036;stroke-width:1.0;stroke-dasharray:5.0,5.0;" x1="795.5" x2="795.5" y1="88.2969" y2="354.3594"/><line style="stroke:#A80036;stroke-width:1.0;stroke-dasharray:5.0,5.0;" x1="973.5" x2="973.5" y1="88.2969" y2="354.3594"/><line style="stroke:#A80036;stroke-width:1.0;stroke-dasharray:5.0,5.0;" x1="1169.5" x2="1169.5" y1="88.2969" y2="354.3594"/><text fill="#000000" font-family="sans-serif" font-size="14" lengthAdjust="spacing" textLength="92" x="5" y="84.9951">Ship Captain</text><ellipse cx="54" cy="15" fill="#FEFECE" filter="url(#fo57vxs1u09yr)" rx="8" ry="8" style="stroke:#A80036;stroke-width:2.0;"/><path d="M54,23 L54,50 M41,31 L67,31 M54,50 L41,65 M54,50 L67,65 " fill="none" filter="url(#fo57vxs1u09yr)" style="stroke:#A80036;stroke-width:2.0;"/><text fill="#000000" font-family="sans-serif" font-size="14" lengthAdjust="spacing" textLength="92" x="5" y="366.3545">Ship Captain</text><ellipse cx="54" cy="379.6563" fill="#FEFECE" filter="url(#fo57vxs1u09yr)" rx="8" ry="8" style="stroke:#A80036;stroke-width:2.0;"/><path d="M54,387.6563 L54,414.6563 M41,395.6563 L67,395.6563 M54,414.6563 L41,429.6563 M54,414.6563 L67,429.6563 " fill="none" filter="url(#fo57vxs1u09yr)" style="stroke:#A80036;stroke-width:2.0;"/><rect fill="#FEFECE" filter="url(#fo57vxs1u09yr)" height="30.2969" style="stroke:#A80036;stroke-width:1.5;" width="205" x="442.5" y="53"/><text fill="#000000" font-family="sans-serif" font-size="14" lengthAdjust="spacing" textLength="191" x="449.5" y="72.9951">:ListOfContainersLoadedUI</text><rect fill="#FEFECE" filter="url(#fo57vxs1u09yr)" height="30.2969" style="stroke:#A80036;stroke-width:1.5;" width="205" x="442.5" y="353.3594"/><text fill="#000000" font-family="sans-serif" font-size="14" lengthAdjust="spacing" textLength="191" x="449.5" y="373.3545">:ListOfContainersLoadedUI</text><rect fill="#FEFECE" filter="url(#fo57vxs1u09yr)" height="30.2969" style="stroke:#A80036;stroke-width:1.5;" width="265" x="661.5" y="53"/><text fill="#000000" font-family="sans-serif" font-size="14" lengthAdjust="spacing" textLength="251" x="668.5" y="72.9951">:ListOfContainersLoadedController</text><rect fill="#FEFECE" filter="url(#fo57vxs1u09yr)" height="30.2969" style="stroke:#A80036;stroke-width:1.5;" width="265" x="661.5" y="353.3594"/><text fill="#000000" font-family="sans-serif" font-size="14" lengthAdjust="spacing" textLength="251" x="668.5" y="373.3545">:ListOfContainersLoadedController</text><rect fill="#FEFECE" filter="url(#fo57vxs1u09yr)" height="30.2969" style="stroke:#A80036;stroke-width:1.5;" width="63" x="940.5" y="53"/><text fill="#000000" font-family="sans-serif" font-size="14" lengthAdjust="spacing" textLength="49" x="947.5" y="72.9951">:US206</text><rect fill="#FEFECE" filter="url(#fo57vxs1u09yr)" height="30.2969" style="stroke:#A80036;stroke-width:1.5;" width="63" x="940.5" y="353.3594"/><text fill="#000000" font-family="sans-serif" font-size="14" lengthAdjust="spacing" textLength="49" x="947.5" y="373.3545">:US206</text><rect fill="#FEFECE" filter="url(#fo57vxs1u09yr)" height="30.2969" style="stroke:#A80036;stroke-width:1.5;" width="117" x="1109.5" y="53"/><text fill="#000000" font-family="sans-serif" font-size="14" lengthAdjust="spacing" textLength="103" x="1116.5" y="72.9951">:FileOperation</text><rect fill="#FEFECE" filter="url(#fo57vxs1u09yr)" height="30.2969" style="stroke:#A80036;stroke-width:1.5;" width="117" x="1109.5" y="353.3594"/><text fill="#000000" font-family="sans-serif" font-size="14" lengthAdjust="spacing" textLength="103" x="1116.5" y="373.3545">:FileOperation</text><rect fill="#FFFFFF" filter="url(#fo57vxs1u09yr)" height="238.0625" style="stroke:#A80036;stroke-width:1.0;" width="10" x="49" y="98.2969"/><rect fill="#FFFFFF" filter="url(#fo57vxs1u09yr)" height="216.9297" style="stroke:#A80036;stroke-width:1.0;" width="10" x="542" y="119.4297"/><rect fill="#FFFFFF" filter="url(#fo57vxs1u09yr)" height="187.7969" style="stroke:#A80036;stroke-width:1.0;" width="10" x="791" y="148.5625"/><rect fill="#FFFFFF" filter="url(#fo57vxs1u09yr)" height="71.2656" style="stroke:#A80036;stroke-width:1.0;" width="10" x="969" y="177.6953"/><rect fill="#FFFFFF" filter="url(#fo57vxs1u09yr)" height="29.1328" style="stroke:#A80036;stroke-width:1.0;" width="10" x="1165" y="248.9609"/><polygon fill="#A80036" points="530,115.4297,540,119.4297,530,123.4297,534,119.4297" style="stroke:#A80036;stroke-width:1.0;"/><line style="stroke:#A80036;stroke-width:1.0;" x1="59" x2="536" y1="119.4297" y2="119.4297"/><text fill="#000000" font-family="sans-serif" font-size="13" font-weight="bold" lengthAdjust="spacing" textLength="9" x="66" y="114.3638">1</text><text fill="#000000" font-family="sans-serif" font-size="13" lengthAdjust="spacing" textLength="451" x="79" y="114.3638">request to know the the list of containers to be loaded in the next port</text><polygon fill="#A80036" points="779,144.5625,789,148.5625,779,152.5625,783,148.5625" style="stroke:#A80036;stroke-width:1.0;"/><line style="stroke:#A80036;stroke-width:1.0;" x1="552" x2="785" y1="148.5625" y2="148.5625"/><text fill="#000000" font-family="sans-serif" font-size="13" font-weight="bold" lengthAdjust="spacing" textLength="9" x="559" y="143.4966">2</text><text fill="#000000" font-family="sans-serif" font-size="13" lengthAdjust="spacing" textLength="82" x="572" y="143.4966">createUS206</text><polygon fill="#A80036" points="957,173.6953,967,177.6953,957,181.6953,961,177.6953" style="stroke:#A80036;stroke-width:1.0;"/><line style="stroke:#A80036;stroke-width:1.0;" x1="801" x2="963" y1="177.6953" y2="177.6953"/><text fill="#000000" font-family="sans-serif" font-size="13" font-weight="bold" lengthAdjust="spacing" textLength="8" x="808" y="172.6294">3</text><text fill="#000000" font-family="sans-serif" font-size="13" lengthAdjust="spacing" textLength="58" x="820" y="172.6294">demo(id)</text><line style="stroke:#A80036;stroke-width:1.0;" x1="979" x2="1021" y1="206.8281" y2="206.8281"/><line style="stroke:#A80036;stroke-width:1.0;" x1="1021" x2="1021" y1="206.8281" y2="219.8281"/><line style="stroke:#A80036;stroke-width:1.0;" x1="980" x2="1021" y1="219.8281" y2="219.8281"/><polygon fill="#A80036" points="990,215.8281,980,219.8281,990,223.8281,986,219.8281" style="stroke:#A80036;stroke-width:1.0;"/><text fill="#000000" font-family="sans-serif" font-size="13" font-weight="bold" lengthAdjust="spacing" textLength="9" x="986" y="201.7622">4</text><text fill="#000000" font-family="sans-serif" font-size="13" lengthAdjust="spacing" textLength="51" x="999" y="201.7622">initialize</text><polygon fill="#A80036" points="1153,244.9609,1163,248.9609,1153,252.9609,1157,248.9609" style="stroke:#A80036;stroke-width:1.0;"/><line style="stroke:#A80036;stroke-width:1.0;" x1="974" x2="1159" y1="248.9609" y2="248.9609"/><text fill="#000000" font-family="sans-serif" font-size="13" font-weight="bold" lengthAdjust="spacing" textLength="9" x="981" y="243.895">5</text><text fill="#000000" font-family="sans-serif" font-size="13" lengthAdjust="spacing" textLength="154" x="994" y="243.895">writeToAFile(path, data)</text><polygon fill="#A80036" points="812,274.0938,802,278.0938,812,282.0938,808,278.0938" style="stroke:#A80036;stroke-width:1.0;"/><line style="stroke:#A80036;stroke-width:1.0;stroke-dasharray:2.0,2.0;" x1="806" x2="1169" y1="278.0938" y2="278.0938"/><text fill="#000000" font-family="sans-serif" font-size="13" font-weight="bold" lengthAdjust="spacing" textLength="9" x="818" y="273.0278">6</text><text fill="#000000" font-family="sans-serif" font-size="13" lengthAdjust="spacing" textLength="19" x="831" y="273.0278">file</text><polygon fill="#A80036" points="563,303.2266,553,307.2266,563,311.2266,559,307.2266" style="stroke:#A80036;stroke-width:1.0;"/><line style="stroke:#A80036;stroke-width:1.0;stroke-dasharray:2.0,2.0;" x1="557" x2="790" y1="307.2266" y2="307.2266"/><text fill="#000000" font-family="sans-serif" font-size="13" font-weight="bold" lengthAdjust="spacing" textLength="9" x="569" y="302.1606">7</text><text fill="#000000" font-family="sans-serif" font-size="13" lengthAdjust="spacing" textLength="19" x="582" y="302.1606">file</text><polygon fill="#A80036" points="65,332.3594,55,336.3594,65,340.3594,61,336.3594" style="stroke:#A80036;stroke-width:1.0;"/><line style="stroke:#A80036;stroke-width:1.0;stroke-dasharray:2.0,2.0;" x1="59" x2="546" y1="336.3594" y2="336.3594"/><text fill="#000000" font-family="sans-serif" font-size="13" font-weight="bold" lengthAdjust="spacing" textLength="9" x="71" y="331.2935">8</text><text fill="#000000" font-family="sans-serif" font-size="13" lengthAdjust="spacing" textLength="183" x="84" y="331.2935">shows the containers details</text><!--MD5=[aba3138ffb850f5ee61f2cad57c45c68]
@startuml
actor "Ship Captain" as Adm
participant ":ListOfContainersLoadedUI" as System
participant ":ListOfContainersLoadedController" as SSC
participant ":US206" as us
participant ":FileOperation" as f

autonumber

activate Adm

Adm -> System: request to know the the list of containers to be loaded in the next port

activate System

System -> SSC: createUS206

activate SSC

SSC -> us: demo(id)

activate us

us -> us: initialize

us -> f: writeToAFile(path, data)

deactivate us

activate f

f - -> SSC: file

deactivate f

SSC - -> System: file

System - -> Adm: shows the containers details

deactivate SSC

deactivate System

deactivate Adm
@enduml

PlantUML version 1.2021.16beta1(Unknown compile time)
(GPL source distribution)
Java Runtime: Java(TM) SE Runtime Environment
JVM: Java HotSpot(TM) 64-Bit Server VM
Default Encoding: UTF-8
Language: en
Country: US
--></g></svg>