<?xml version="1.0" encoding="UTF-8" standalone="no"?><svg xmlns="http://www.w3.org/2000/svg" xmlns:xlink="http://www.w3.org/1999/xlink" contentScriptType="application/ecmascript" contentStyleType="text/css" height="511.25px" preserveAspectRatio="none" style="width:602px;height:511px;" version="1.1" viewBox="0 0 602 511" width="602.5px" zoomAndPan="magnify"><defs><filter height="300%" id="fyache0dkqxqp" width="300%" x="-1" y="-1"><feGaussianBlur result="blurOut" stdDeviation="2.5"/><feColorMatrix in="blurOut" result="blurOut2" type="matrix" values="0 0 0 0 0 0 0 0 0 0 0 0 0 0 0 0 0 0 .4 0"/><feOffset dx="5.0" dy="5.0" in="blurOut2" result="blurOut3"/><feBlend in="SourceGraphic" in2="blurOut3" mode="normal"/></filter></defs><g><!--MD5=[383d23540938cd47f9f611c3e9fe029e]
class US413Controller--><rect fill="#FEFECE" filter="url(#fyache0dkqxqp)" height="77.2949" id="US413Controller" style="stroke:#A80036;stroke-width:1.875;" width="155" x="265.625" y="8.75"/><ellipse cx="284.375" cy="28.75" fill="#ADD1B2" rx="13.75" ry="13.75" style="stroke:#A80036;stroke-width:1.25;"/><path d="M286.875,24.375 Q287.1289,23.75 287.4219,23.4375 Q287.7148,23.125 288.0469,23.125 Q288.6328,23.125 289.0039,23.4766 Q289.375,23.8281 289.375,24.6484 L289.375,26.6016 Q289.375,27.4219 289.0234,27.7734 Q288.6719,28.125 288.125,28.125 Q287.6367,28.125 287.3242,27.9102 Q287.0117,27.6953 286.875,27.1289 Q286.8164,26.7383 286.6016,26.5234 Q286.2109,26.1133 285.5078,25.8789 Q284.8047,25.625 284.1016,25.625 Q283.2227,25.625 282.4805,25.9766 Q281.7578,26.3281 281.1914,27.1094 Q280.625,27.8906 280.625,28.9648 L280.625,30.1172 Q280.625,31.4063 281.6797,32.2656 Q282.7344,33.125 284.6094,33.125 Q285.7227,33.125 286.5039,32.8711 Q286.9531,32.7344 287.4609,32.2852 Q287.793,32.0313 287.9688,31.9531 Q288.1445,31.875 288.3594,31.875 Q288.7695,31.875 289.0625,32.207 Q289.375,32.5195 289.375,32.9688 Q289.375,33.3984 288.9453,33.9063 Q288.3203,34.6484 287.3242,35.0586 Q286.0156,35.625 284.4141,35.625 Q282.5391,35.625 281.0352,34.8828 Q279.8242,34.2969 278.9648,33.0273 Q278.125,31.7578 278.125,30.2539 L278.125,28.8867 Q278.125,27.3242 278.8672,25.957 Q279.6289,24.5898 280.9375,23.8672 Q282.2656,23.125 283.75,23.125 Q284.6484,23.125 285.4297,23.4375 Q286.2109,23.75 286.875,24.375 Z " fill="#000000"/><text fill="#000000" font-family="sans-serif" font-size="15" lengthAdjust="spacing" textLength="115" x="301.875" y="34.8877">US413Controller</text><line style="stroke:#A80036;stroke-width:1.875;" x1="266.875" x2="419.375" y1="48.75" y2="48.75"/><line style="stroke:#A80036;stroke-width:1.875;" x1="266.875" x2="419.375" y1="58.75" y2="58.75"/><ellipse cx="279.375" cy="72.5" fill="#84BE84" rx="3.75" ry="3.75" style="stroke:#038048;stroke-width:1.25;"/><text fill="#000000" font-family="sans-serif" font-size="13.75" lengthAdjust="spacing" textLength="108.75" x="290.625" y="78.0237">energyToSupply()</text><!--MD5=[02e4b9b7573f1156f41e60aa5b4e25a4]
class Company--><rect fill="#FEFECE" filter="url(#fyache0dkqxqp)" height="77.2949" id="Company" style="stroke:#A80036;stroke-width:1.875;" width="151.25" x="8.75" y="213.125"/><ellipse cx="47.75" cy="233.125" fill="#ADD1B2" rx="13.75" ry="13.75" style="stroke:#A80036;stroke-width:1.25;"/><path d="M50.25,228.75 Q50.5039,228.125 50.7969,227.8125 Q51.0898,227.5 51.4219,227.5 Q52.0078,227.5 52.3789,227.8516 Q52.75,228.2031 52.75,229.0234 L52.75,230.9766 Q52.75,231.7969 52.3984,232.1484 Q52.0469,232.5 51.5,232.5 Q51.0117,232.5 50.6992,232.2852 Q50.3867,232.0703 50.25,231.5039 Q50.1914,231.1133 49.9766,230.8984 Q49.5859,230.4883 48.8828,230.2539 Q48.1797,230 47.4766,230 Q46.5977,230 45.8555,230.3516 Q45.1328,230.7031 44.5664,231.4844 Q44,232.2656 44,233.3398 L44,234.4922 Q44,235.7813 45.0547,236.6406 Q46.1094,237.5 47.9844,237.5 Q49.0977,237.5 49.8789,237.2461 Q50.3281,237.1094 50.8359,236.6602 Q51.168,236.4063 51.3438,236.3281 Q51.5195,236.25 51.7344,236.25 Q52.1445,236.25 52.4375,236.582 Q52.75,236.8945 52.75,237.3438 Q52.75,237.7734 52.3203,238.2813 Q51.6953,239.0234 50.6992,239.4336 Q49.3906,240 47.7891,240 Q45.9141,240 44.4102,239.2578 Q43.1992,238.6719 42.3398,237.4023 Q41.5,236.1328 41.5,234.6289 L41.5,233.2617 Q41.5,231.6992 42.2422,230.332 Q43.0039,228.9648 44.3125,228.2422 Q45.6406,227.5 47.125,227.5 Q48.0234,227.5 48.8047,227.8125 Q49.5859,228.125 50.25,228.75 Z " fill="#000000"/><text fill="#000000" font-family="sans-serif" font-size="15" lengthAdjust="spacing" textLength="66.25" x="69.75" y="239.2627">Company</text><line style="stroke:#A80036;stroke-width:1.875;" x1="10" x2="158.75" y1="253.125" y2="253.125"/><line style="stroke:#A80036;stroke-width:1.875;" x1="10" x2="158.75" y1="263.125" y2="263.125"/><ellipse cx="22.5" cy="276.875" fill="#84BE84" rx="3.75" ry="3.75" style="stroke:#038048;stroke-width:1.25;"/><text fill="#000000" font-family="sans-serif" font-size="13.75" lengthAdjust="spacing" textLength="118.75" x="33.75" y="282.3987">getContainerStore()</text><!--MD5=[f65e5490e62f3ccd15c37e1f85ddff5b]
class Energy--><rect fill="#FEFECE" filter="url(#fyache0dkqxqp)" height="129.1797" id="Energy" style="stroke:#A80036;stroke-width:1.875;" width="141.25" x="203.75" y="187.5"/><ellipse cx="246.6875" cy="207.5" fill="#ADD1B2" rx="13.75" ry="13.75" style="stroke:#A80036;stroke-width:1.25;"/><path d="M249.1875,203.125 Q249.4414,202.5 249.7344,202.1875 Q250.0273,201.875 250.3594,201.875 Q250.9453,201.875 251.3164,202.2266 Q251.6875,202.5781 251.6875,203.3984 L251.6875,205.3516 Q251.6875,206.1719 251.3359,206.5234 Q250.9844,206.875 250.4375,206.875 Q249.9492,206.875 249.6367,206.6602 Q249.3242,206.4453 249.1875,205.8789 Q249.1289,205.4883 248.9141,205.2734 Q248.5234,204.8633 247.8203,204.6289 Q247.1172,204.375 246.4141,204.375 Q245.5352,204.375 244.793,204.7266 Q244.0703,205.0781 243.5039,205.8594 Q242.9375,206.6406 242.9375,207.7148 L242.9375,208.8672 Q242.9375,210.1563 243.9922,211.0156 Q245.0469,211.875 246.9219,211.875 Q248.0352,211.875 248.8164,211.6211 Q249.2656,211.4844 249.7734,211.0352 Q250.1055,210.7813 250.2813,210.7031 Q250.457,210.625 250.6719,210.625 Q251.082,210.625 251.375,210.957 Q251.6875,211.2695 251.6875,211.7188 Q251.6875,212.1484 251.2578,212.6563 Q250.6328,213.3984 249.6367,213.8086 Q248.3281,214.375 246.7266,214.375 Q244.8516,214.375 243.3477,213.6328 Q242.1367,213.0469 241.2773,211.7773 Q240.4375,210.5078 240.4375,209.0039 L240.4375,207.6367 Q240.4375,206.0742 241.1797,204.707 Q241.9414,203.3398 243.25,202.6172 Q244.5781,201.875 246.0625,201.875 Q246.9609,201.875 247.7422,202.1875 Q248.5234,202.5 249.1875,203.125 Z " fill="#000000"/><text fill="#000000" font-family="sans-serif" font-size="15" lengthAdjust="spacing" textLength="47.5" x="269.5625" y="213.6377">Energy</text><line style="stroke:#A80036;stroke-width:1.875;" x1="205" x2="343.75" y1="227.5" y2="227.5"/><rect fill="none" height="7.5" style="stroke:#C82930;stroke-width:1.25;" width="7.5" x="213.75" y="237.5"/><text fill="#000000" font-family="sans-serif" font-size="13.75" lengthAdjust="spacing" textLength="56.25" x="228.75" y="246.7737">heatFlow</text><rect fill="none" height="7.5" style="stroke:#C82930;stroke-width:1.25;" width="7.5" x="213.75" y="254.7949"/><text fill="#000000" font-family="sans-serif" font-size="13.75" lengthAdjust="spacing" textLength="42.5" x="228.75" y="264.0686">energy</text><rect fill="none" height="7.5" style="stroke:#C82930;stroke-width:1.25;" width="7.5" x="213.75" y="272.0898"/><text fill="#000000" font-family="sans-serif" font-size="13.75" lengthAdjust="spacing" textLength="67.5" x="228.75" y="281.3635">totalEnergy</text><line style="stroke:#A80036;stroke-width:1.875;" x1="205" x2="343.75" y1="289.3848" y2="289.3848"/><ellipse cx="217.5" cy="303.1348" fill="#84BE84" rx="3.75" ry="3.75" style="stroke:#038048;stroke-width:1.25;"/><text fill="#000000" font-family="sans-serif" font-size="13.75" lengthAdjust="spacing" textLength="108.75" x="228.75" y="308.6584">energyToSupply()</text><!--MD5=[421f7538b11410e8370fa0324235b51e]
class ContainerStore--><rect fill="#FEFECE" filter="url(#fyache0dkqxqp)" height="77.2949" id="ContainerStore" style="stroke:#A80036;stroke-width:1.875;" width="143.75" x="176.25" y="417.5"/><ellipse cx="195" cy="437.5" fill="#ADD1B2" rx="13.75" ry="13.75" style="stroke:#A80036;stroke-width:1.25;"/><path d="M197.5,433.125 Q197.7539,432.5 198.0469,432.1875 Q198.3398,431.875 198.6719,431.875 Q199.2578,431.875 199.6289,432.2266 Q200,432.5781 200,433.3984 L200,435.3516 Q200,436.1719 199.6484,436.5234 Q199.2969,436.875 198.75,436.875 Q198.2617,436.875 197.9492,436.6602 Q197.6367,436.4453 197.5,435.8789 Q197.4414,435.4883 197.2266,435.2734 Q196.8359,434.8633 196.1328,434.6289 Q195.4297,434.375 194.7266,434.375 Q193.8477,434.375 193.1055,434.7266 Q192.3828,435.0781 191.8164,435.8594 Q191.25,436.6406 191.25,437.7148 L191.25,438.8672 Q191.25,440.1563 192.3047,441.0156 Q193.3594,441.875 195.2344,441.875 Q196.3477,441.875 197.1289,441.6211 Q197.5781,441.4844 198.0859,441.0352 Q198.418,440.7813 198.5938,440.7031 Q198.7695,440.625 198.9844,440.625 Q199.3945,440.625 199.6875,440.957 Q200,441.2695 200,441.7188 Q200,442.1484 199.5703,442.6563 Q198.9453,443.3984 197.9492,443.8086 Q196.6406,444.375 195.0391,444.375 Q193.1641,444.375 191.6602,443.6328 Q190.4492,443.0469 189.5898,441.7773 Q188.75,440.5078 188.75,439.0039 L188.75,437.6367 Q188.75,436.0742 189.4922,434.707 Q190.2539,433.3398 191.5625,432.6172 Q192.8906,431.875 194.375,431.875 Q195.2734,431.875 196.0547,432.1875 Q196.8359,432.5 197.5,433.125 Z " fill="#000000"/><text fill="#000000" font-family="sans-serif" font-size="15" lengthAdjust="spacing" textLength="103.75" x="212.5" y="443.6377">ContainerStore</text><line style="stroke:#A80036;stroke-width:1.875;" x1="177.5" x2="318.75" y1="457.5" y2="457.5"/><line style="stroke:#A80036;stroke-width:1.875;" x1="177.5" x2="318.75" y1="467.5" y2="467.5"/><ellipse cx="190" cy="481.25" fill="#84BE84" rx="3.75" ry="3.75" style="stroke:#038048;stroke-width:1.25;"/><text fill="#000000" font-family="sans-serif" font-size="13.75" lengthAdjust="spacing" textLength="107.5" x="201.25" y="486.7737">getContainerList()</text><!--MD5=[e9a58730c562b34349daa605d1ed6662]
class Container--><rect fill="#FEFECE" filter="url(#fyache0dkqxqp)" height="181.0645" id="Container" style="stroke:#A80036;stroke-width:1.875;" width="107.5" x="478.125" y="161.25"/><ellipse cx="496.875" cy="181.25" fill="#ADD1B2" rx="13.75" ry="13.75" style="stroke:#A80036;stroke-width:1.25;"/><path d="M499.375,176.875 Q499.6289,176.25 499.9219,175.9375 Q500.2148,175.625 500.5469,175.625 Q501.1328,175.625 501.5039,175.9766 Q501.875,176.3281 501.875,177.1484 L501.875,179.1016 Q501.875,179.9219 501.5234,180.2734 Q501.1719,180.625 500.625,180.625 Q500.1367,180.625 499.8242,180.4102 Q499.5117,180.1953 499.375,179.6289 Q499.3164,179.2383 499.1016,179.0234 Q498.7109,178.6133 498.0078,178.3789 Q497.3047,178.125 496.6016,178.125 Q495.7227,178.125 494.9805,178.4766 Q494.2578,178.8281 493.6914,179.6094 Q493.125,180.3906 493.125,181.4648 L493.125,182.6172 Q493.125,183.9063 494.1797,184.7656 Q495.2344,185.625 497.1094,185.625 Q498.2227,185.625 499.0039,185.3711 Q499.4531,185.2344 499.9609,184.7852 Q500.293,184.5313 500.4688,184.4531 Q500.6445,184.375 500.8594,184.375 Q501.2695,184.375 501.5625,184.707 Q501.875,185.0195 501.875,185.4688 Q501.875,185.8984 501.4453,186.4063 Q500.8203,187.1484 499.8242,187.5586 Q498.5156,188.125 496.9141,188.125 Q495.0391,188.125 493.5352,187.3828 Q492.3242,186.7969 491.4648,185.5273 Q490.625,184.2578 490.625,182.7539 L490.625,181.3867 Q490.625,179.8242 491.3672,178.457 Q492.1289,177.0898 493.4375,176.3672 Q494.7656,175.625 496.25,175.625 Q497.1484,175.625 497.9297,175.9375 Q498.7109,176.25 499.375,176.875 Z " fill="#000000"/><text fill="#000000" font-family="sans-serif" font-size="15" lengthAdjust="spacing" textLength="67.5" x="514.375" y="187.3877">Container</text><line style="stroke:#A80036;stroke-width:1.875;" x1="479.375" x2="584.375" y1="201.25" y2="201.25"/><line style="stroke:#A80036;stroke-width:1.875;" x1="479.375" x2="584.375" y1="211.25" y2="211.25"/><ellipse cx="491.875" cy="225" fill="#84BE84" rx="3.75" ry="3.75" style="stroke:#038048;stroke-width:1.25;"/><text fill="#000000" font-family="sans-serif" font-size="13.75" lengthAdjust="spacing" textLength="58.75" x="503.125" y="230.5237">getArea()</text><ellipse cx="491.875" cy="242.2949" fill="#84BE84" rx="3.75" ry="3.75" style="stroke:#038048;stroke-width:1.25;"/><text fill="#000000" font-family="sans-serif" font-size="13.75" lengthAdjust="spacing" textLength="43.75" x="503.125" y="247.8186">getL1()</text><ellipse cx="491.875" cy="259.5898" fill="#84BE84" rx="3.75" ry="3.75" style="stroke:#038048;stroke-width:1.25;"/><text fill="#000000" font-family="sans-serif" font-size="13.75" lengthAdjust="spacing" textLength="43.75" x="503.125" y="265.1135">getL2()</text><ellipse cx="491.875" cy="276.8848" fill="#84BE84" rx="3.75" ry="3.75" style="stroke:#038048;stroke-width:1.25;"/><text fill="#000000" font-family="sans-serif" font-size="13.75" lengthAdjust="spacing" textLength="43.75" x="503.125" y="282.4084">getL3()</text><ellipse cx="491.875" cy="294.1797" fill="#84BE84" rx="3.75" ry="3.75" style="stroke:#038048;stroke-width:1.25;"/><text fill="#000000" font-family="sans-serif" font-size="13.75" lengthAdjust="spacing" textLength="45" x="503.125" y="299.7034">getK1()</text><ellipse cx="491.875" cy="311.4746" fill="#84BE84" rx="3.75" ry="3.75" style="stroke:#038048;stroke-width:1.25;"/><text fill="#000000" font-family="sans-serif" font-size="13.75" lengthAdjust="spacing" textLength="45" x="503.125" y="316.9983">getK2()</text><ellipse cx="491.875" cy="328.7695" fill="#84BE84" rx="3.75" ry="3.75" style="stroke:#038048;stroke-width:1.25;"/><text fill="#000000" font-family="sans-serif" font-size="13.75" lengthAdjust="spacing" textLength="45" x="503.125" y="334.2932">getK3()</text><!--MD5=[4fcb267166490d72d97527ac115d8929]
link US413Controller to Company--><path codeLine="1" d="M285.45,86.275 C254.0875,107.3375 215.0375,134.675 181.875,161.25 C163.525,175.95 144.2625,193.1875 127.75,208.575 " fill="none" id="US413Controller-to-Company" style="stroke:#A80036;stroke-width:1.25;stroke-dasharray:7.0,7.0;"/><polygon fill="#A80036" points="123.1625,212.8625,134.7979,208.8401,127.731,208.5974,127.9737,201.5305,123.1625,212.8625" style="stroke:#A80036;stroke-width:1.25;"/><!--MD5=[e777f43e53df95181d52b3cb6ff27ec0]
link US413Controller to Energy--><path codeLine="2" d="M330.1875,86.725 C321.15,113.275 308.8125,149.5125 298.0375,181.1625 " fill="none" id="US413Controller-to-Energy" style="stroke:#A80036;stroke-width:1.25;stroke-dasharray:7.0,7.0;"/><polygon fill="#A80036" points="295.9,187.425,304.2582,178.386,297.9138,181.5083,294.7915,175.1639,295.9,187.425" style="stroke:#A80036;stroke-width:1.25;"/><!--MD5=[f6b2872a4d4a673805bb3edda81ad415]
link US413Controller to ContainerStore--><path codeLine="3" d="M357,86.275 C375.9875,143.9625 403.775,256.725 366.875,342.5 C354.9875,370.15 332.5875,394.1875 310.4125,412.8625 " fill="none" id="US413Controller-to-ContainerStore" style="stroke:#A80036;stroke-width:1.25;stroke-dasharray:7.0,7.0;"/><polygon fill="#A80036" points="305.4,417.0125,317.258,413.7035,310.2189,413.0325,310.89,405.9933,305.4,417.0125" style="stroke:#A80036;stroke-width:1.25;"/><!--MD5=[7892273c6b9d630aa6aa3de2a30caab4]
link US413Controller to Container--><path codeLine="4" d="M378.625,86.725 C405.3,115.2375 442.4,154.9375 473.425,188.1125 " fill="none" id="US413Controller-to-Container" style="stroke:#A80036;stroke-width:1.25;stroke-dasharray:7.0,7.0;"/><polygon fill="#A80036" points="477.9625,192.9625,473.9401,181.3271,473.6974,188.394,466.6305,188.1513,477.9625,192.9625" style="stroke:#A80036;stroke-width:1.25;"/><!--MD5=[4546f9ecd2c2e8ec56683289b93f5556]
link Company to ContainerStore--><path codeLine="5" d="M115.175,291.1 C143.075,325.5 184.1625,376.1375 213.2625,412.0125 " fill="none" id="Company-to-ContainerStore" style="stroke:#A80036;stroke-width:1.25;stroke-dasharray:7.0,7.0;"/><polygon fill="#A80036" points="217.4625,417.2,214.2489,405.3158,213.5213,412.3493,206.4878,411.6217,217.4625,417.2" style="stroke:#A80036;stroke-width:1.25;"/><!--MD5=[1e42c7095ac1203379fee9f6880e41f7]
@startuml
US413Controller ..> Company
US413Controller ..> Energy
US413Controller ..> ContainerStore
US413Controller ..> Container
Company ..> ContainerStore

US413Controller : +energyToSupply()

Energy : -heatFlow
Energy : -energy
Energy : -totalEnergy
Energy : +energyToSupply()

Company : +getContainerStore()

Container : +getArea()
Container : +getL1()
Container : +getL2()
Container : +getL3()
Container : +getK1()
Container : +getK2()
Container : +getK3()

ContainerStore : +getContainerList()


@enduml

PlantUML version 1.2021.4(Sun Apr 04 09:49:39 BST 2021)
(GPL source distribution)
Java Runtime: OpenJDK Runtime Environment
JVM: Dynamic Code Evolution 64-Bit Server VM
Default Encoding: Cp1252
Language: pt
Country: PT
--></g></svg>