<?xml version="1.0" encoding="UTF-8" standalone="no"?><svg xmlns="http://www.w3.org/2000/svg" xmlns:xlink="http://www.w3.org/1999/xlink" contentScriptType="application/ecmascript" contentStyleType="text/css" height="348px" preserveAspectRatio="none" style="width:689px;height:348px;background:#FFFFFF;" version="1.1" viewBox="0 0 689 348" width="689px" zoomAndPan="magnify"><defs><filter height="300%" id="f12wbv0hww6f7a" width="300%" x="-1" y="-1"><feGaussianBlur result="blurOut" stdDeviation="2.0"/><feColorMatrix in="blurOut" result="blurOut2" type="matrix" values="0 0 0 0 0 0 0 0 0 0 0 0 0 0 0 0 0 0 .4 0"/><feOffset dx="4.0" dy="4.0" in="blurOut2" result="blurOut3"/><feBlend in="SourceGraphic" in2="blurOut3" mode="normal"/></filter></defs><g><!--MD5=[a829e7be41dc86e6e747211483f57ac7]
class NearestPortController--><rect fill="#FEFECE" filter="url(#f12wbv0hww6f7a)" height="60.8047" id="NearestPortController" style="stroke:#A80036;stroke-width:1.5;" width="161" x="285.5" y="7"/><ellipse cx="300.5" cy="23" fill="#ADD1B2" rx="11" ry="11" style="stroke:#A80036;stroke-width:1.0;"/><path d="M302.8438,18.6719 C301.9063,18.2344 301.3125,18.0938 300.4375,18.0938 C297.8125,18.0938 295.8125,20.1719 295.8125,22.8906 L295.8125,24.0156 C295.8125,26.5938 297.9219,28.4844 300.8125,28.4844 C302.0313,28.4844 303.1875,28.1875 303.9375,27.6406 C304.5156,27.2344 304.8438,26.7813 304.8438,26.3906 C304.8438,25.9375 304.4531,25.5469 303.9844,25.5469 C303.7656,25.5469 303.5625,25.625 303.375,25.8125 C302.9219,26.2969 302.9219,26.2969 302.7344,26.3906 C302.3125,26.6563 301.625,26.7813 300.8594,26.7813 C298.8125,26.7813 297.5156,25.6875 297.5156,23.9844 L297.5156,22.8906 C297.5156,21.1094 298.7656,19.7969 300.5,19.7969 C301.0781,19.7969 301.6875,19.9531 302.1563,20.2031 C302.6406,20.4844 302.8125,20.7031 302.9063,21.1094 C302.9688,21.5156 303,21.6406 303.1406,21.7656 C303.2813,21.9063 303.5156,22.0156 303.7344,22.0156 C304,22.0156 304.2656,21.875 304.4375,21.6563 C304.5469,21.5 304.5781,21.3125 304.5781,20.8906 L304.5781,19.4688 C304.5781,19.0313 304.5625,18.9063 304.4688,18.75 C304.3125,18.4844 304.0313,18.3438 303.7344,18.3438 C303.4375,18.3438 303.2344,18.4375 303.0156,18.75 L302.8438,18.6719 Z " fill="#000000"/><text fill="#000000" font-family="sans-serif" font-size="12" lengthAdjust="spacing" textLength="129" x="314.5" y="27.1543">NearestPortController</text><line style="stroke:#A80036;stroke-width:1.5;" x1="286.5" x2="445.5" y1="39" y2="39"/><line style="stroke:#A80036;stroke-width:1.5;" x1="286.5" x2="445.5" y1="47" y2="47"/><ellipse cx="296.5" cy="58" fill="#84BE84" rx="3" ry="3" style="stroke:#038048;stroke-width:1.0;"/><text fill="#000000" font-family="sans-serif" font-size="11" lengthAdjust="spacing" textLength="114" x="305.5" y="61.2104">importFromCSV(file)</text><!--MD5=[8a61326b4f5c9e6ed3a15cb6e1c143c5]
class BSTShip--><rect fill="#FEFECE" filter="url(#f12wbv0hww6f7a)" height="73.6094" id="BSTShip" style="stroke:#A80036;stroke-width:1.5;" width="200" x="7" y="134"/><ellipse cx="78.25" cy="150" fill="#ADD1B2" rx="11" ry="11" style="stroke:#A80036;stroke-width:1.0;"/><path d="M80.5938,145.6719 C79.6563,145.2344 79.0625,145.0938 78.1875,145.0938 C75.5625,145.0938 73.5625,147.1719 73.5625,149.8906 L73.5625,151.0156 C73.5625,153.5938 75.6719,155.4844 78.5625,155.4844 C79.7813,155.4844 80.9375,155.1875 81.6875,154.6406 C82.2656,154.2344 82.5938,153.7813 82.5938,153.3906 C82.5938,152.9375 82.2031,152.5469 81.7344,152.5469 C81.5156,152.5469 81.3125,152.625 81.125,152.8125 C80.6719,153.2969 80.6719,153.2969 80.4844,153.3906 C80.0625,153.6563 79.375,153.7813 78.6094,153.7813 C76.5625,153.7813 75.2656,152.6875 75.2656,150.9844 L75.2656,149.8906 C75.2656,148.1094 76.5156,146.7969 78.25,146.7969 C78.8281,146.7969 79.4375,146.9531 79.9063,147.2031 C80.3906,147.4844 80.5625,147.7031 80.6563,148.1094 C80.7188,148.5156 80.75,148.6406 80.8906,148.7656 C81.0313,148.9063 81.2656,149.0156 81.4844,149.0156 C81.75,149.0156 82.0156,148.875 82.1875,148.6563 C82.2969,148.5 82.3281,148.3125 82.3281,147.8906 L82.3281,146.4688 C82.3281,146.0313 82.3125,145.9063 82.2188,145.75 C82.0625,145.4844 81.7813,145.3438 81.4844,145.3438 C81.1875,145.3438 80.9844,145.4375 80.7656,145.75 L80.5938,145.6719 Z " fill="#000000"/><text fill="#000000" font-family="sans-serif" font-size="12" lengthAdjust="spacing" textLength="49" x="98.75" y="154.1543">BSTShip</text><line style="stroke:#A80036;stroke-width:1.5;" x1="8" x2="206" y1="166" y2="166"/><line style="stroke:#A80036;stroke-width:1.5;" x1="8" x2="206" y1="174" y2="174"/><ellipse cx="18" cy="185" fill="#84BE84" rx="3" ry="3" style="stroke:#038048;stroke-width:1.0;"/><text fill="#000000" font-family="sans-serif" font-size="11" lengthAdjust="spacing" textLength="174" x="27" y="188.2104">searchShipByCallSign(callsign)</text><ellipse cx="18" cy="197.8047" fill="#84BE84" rx="3" ry="3" style="stroke:#038048;stroke-width:1.0;"/><text fill="#000000" font-family="sans-serif" font-size="11" lengthAdjust="spacing" textLength="54" x="27" y="201.0151">inrOrder()</text><!--MD5=[02e4b9b7573f1156f41e60aa5b4e25a4]
class Company--><rect fill="#FEFECE" filter="url(#f12wbv0hww6f7a)" height="86.4141" id="Company" style="stroke:#A80036;stroke-width:1.5;" width="129" x="242.5" y="128"/><ellipse cx="275.95" cy="144" fill="#ADD1B2" rx="11" ry="11" style="stroke:#A80036;stroke-width:1.0;"/><path d="M278.2938,139.6719 C277.3563,139.2344 276.7625,139.0938 275.8875,139.0938 C273.2625,139.0938 271.2625,141.1719 271.2625,143.8906 L271.2625,145.0156 C271.2625,147.5938 273.3719,149.4844 276.2625,149.4844 C277.4813,149.4844 278.6375,149.1875 279.3875,148.6406 C279.9656,148.2344 280.2938,147.7813 280.2938,147.3906 C280.2938,146.9375 279.9031,146.5469 279.4344,146.5469 C279.2156,146.5469 279.0125,146.625 278.825,146.8125 C278.3719,147.2969 278.3719,147.2969 278.1844,147.3906 C277.7625,147.6563 277.075,147.7813 276.3094,147.7813 C274.2625,147.7813 272.9656,146.6875 272.9656,144.9844 L272.9656,143.8906 C272.9656,142.1094 274.2156,140.7969 275.95,140.7969 C276.5281,140.7969 277.1375,140.9531 277.6063,141.2031 C278.0906,141.4844 278.2625,141.7031 278.3563,142.1094 C278.4188,142.5156 278.45,142.6406 278.5906,142.7656 C278.7313,142.9063 278.9656,143.0156 279.1844,143.0156 C279.45,143.0156 279.7156,142.875 279.8875,142.6563 C279.9969,142.5 280.0281,142.3125 280.0281,141.8906 L280.0281,140.4688 C280.0281,140.0313 280.0125,139.9063 279.9188,139.75 C279.7625,139.4844 279.4813,139.3438 279.1844,139.3438 C278.8875,139.3438 278.6844,139.4375 278.4656,139.75 L278.2938,139.6719 Z " fill="#000000"/><text fill="#000000" font-family="sans-serif" font-size="12" lengthAdjust="spacing" textLength="56" x="294.05" y="148.1543">Company</text><line style="stroke:#A80036;stroke-width:1.5;" x1="243.5" x2="370.5" y1="160" y2="160"/><rect fill="none" height="6" style="stroke:#C82930;stroke-width:1.0;" width="6" x="250.5" y="168"/><text fill="#000000" font-family="sans-serif" font-size="11" lengthAdjust="spacing" textLength="103" x="262.5" y="174.2104">bstShips: BSTShip</text><line style="stroke:#A80036;stroke-width:1.5;" x1="243.5" x2="370.5" y1="180.8047" y2="180.8047"/><ellipse cx="253.5" cy="191.8047" fill="#84BE84" rx="3" ry="3" style="stroke:#038048;stroke-width:1.0;"/><text fill="#000000" font-family="sans-serif" font-size="11" lengthAdjust="spacing" textLength="62" x="262.5" y="195.0151">Company()</text><ellipse cx="253.5" cy="204.6094" fill="#84BE84" rx="3" ry="3" style="stroke:#038048;stroke-width:1.0;"/><text fill="#000000" font-family="sans-serif" font-size="11" lengthAdjust="spacing" textLength="72" x="262.5" y="207.8198">getKdtPorts()</text><!--MD5=[f14c97f009274192f499f18aa48d69a9]
class KdtPort--><rect fill="#FEFECE" filter="url(#f12wbv0hww6f7a)" height="60.8047" id="KdtPort" style="stroke:#A80036;stroke-width:1.5;" width="203" x="264.5" y="274"/><ellipse cx="340.25" cy="290" fill="#ADD1B2" rx="11" ry="11" style="stroke:#A80036;stroke-width:1.0;"/><path d="M342.5938,285.6719 C341.6563,285.2344 341.0625,285.0938 340.1875,285.0938 C337.5625,285.0938 335.5625,287.1719 335.5625,289.8906 L335.5625,291.0156 C335.5625,293.5938 337.6719,295.4844 340.5625,295.4844 C341.7813,295.4844 342.9375,295.1875 343.6875,294.6406 C344.2656,294.2344 344.5938,293.7813 344.5938,293.3906 C344.5938,292.9375 344.2031,292.5469 343.7344,292.5469 C343.5156,292.5469 343.3125,292.625 343.125,292.8125 C342.6719,293.2969 342.6719,293.2969 342.4844,293.3906 C342.0625,293.6563 341.375,293.7813 340.6094,293.7813 C338.5625,293.7813 337.2656,292.6875 337.2656,290.9844 L337.2656,289.8906 C337.2656,288.1094 338.5156,286.7969 340.25,286.7969 C340.8281,286.7969 341.4375,286.9531 341.9063,287.2031 C342.3906,287.4844 342.5625,287.7031 342.6563,288.1094 C342.7188,288.5156 342.75,288.6406 342.8906,288.7656 C343.0313,288.9063 343.2656,289.0156 343.4844,289.0156 C343.75,289.0156 344.0156,288.875 344.1875,288.6563 C344.2969,288.5 344.3281,288.3125 344.3281,287.8906 L344.3281,286.4688 C344.3281,286.0313 344.3125,285.9063 344.2188,285.75 C344.0625,285.4844 343.7813,285.3438 343.4844,285.3438 C343.1875,285.3438 342.9844,285.4375 342.7656,285.75 L342.5938,285.6719 Z " fill="#000000"/><text fill="#000000" font-family="sans-serif" font-size="12" lengthAdjust="spacing" textLength="43" x="360.75" y="294.1543">KdtPort</text><line style="stroke:#A80036;stroke-width:1.5;" x1="265.5" x2="466.5" y1="306" y2="306"/><line style="stroke:#A80036;stroke-width:1.5;" x1="265.5" x2="466.5" y1="314" y2="314"/><ellipse cx="275.5" cy="325" fill="#84BE84" rx="3" ry="3" style="stroke:#038048;stroke-width:1.0;"/><text fill="#000000" font-family="sans-serif" font-size="11" lengthAdjust="spacing" textLength="177" x="284.5" y="328.2104">findNearestNeighbour(lat, long)</text><!--MD5=[6eb59be4434226c647eea04029feac64]
class BstDynData--><rect fill="#FEFECE" filter="url(#f12wbv0hww6f7a)" height="60.8047" id="BstDynData" style="stroke:#A80036;stroke-width:1.5;" width="197" x="478.5" y="140.5"/><ellipse cx="538.25" cy="156.5" fill="#ADD1B2" rx="11" ry="11" style="stroke:#A80036;stroke-width:1.0;"/><path d="M540.5938,152.1719 C539.6563,151.7344 539.0625,151.5938 538.1875,151.5938 C535.5625,151.5938 533.5625,153.6719 533.5625,156.3906 L533.5625,157.5156 C533.5625,160.0938 535.6719,161.9844 538.5625,161.9844 C539.7813,161.9844 540.9375,161.6875 541.6875,161.1406 C542.2656,160.7344 542.5938,160.2813 542.5938,159.8906 C542.5938,159.4375 542.2031,159.0469 541.7344,159.0469 C541.5156,159.0469 541.3125,159.125 541.125,159.3125 C540.6719,159.7969 540.6719,159.7969 540.4844,159.8906 C540.0625,160.1563 539.375,160.2813 538.6094,160.2813 C536.5625,160.2813 535.2656,159.1875 535.2656,157.4844 L535.2656,156.3906 C535.2656,154.6094 536.5156,153.2969 538.25,153.2969 C538.8281,153.2969 539.4375,153.4531 539.9063,153.7031 C540.3906,153.9844 540.5625,154.2031 540.6563,154.6094 C540.7188,155.0156 540.75,155.1406 540.8906,155.2656 C541.0313,155.4063 541.2656,155.5156 541.4844,155.5156 C541.75,155.5156 542.0156,155.375 542.1875,155.1563 C542.2969,155 542.3281,154.8125 542.3281,154.3906 L542.3281,152.9688 C542.3281,152.5313 542.3125,152.4063 542.2188,152.25 C542.0625,151.9844 541.7813,151.8438 541.4844,151.8438 C541.1875,151.8438 540.9844,151.9375 540.7656,152.25 L540.5938,152.1719 Z " fill="#000000"/><text fill="#000000" font-family="sans-serif" font-size="12" lengthAdjust="spacing" textLength="69" x="558.75" y="160.6543">BstDynData</text><line style="stroke:#A80036;stroke-width:1.5;" x1="479.5" x2="674.5" y1="172.5" y2="172.5"/><line style="stroke:#A80036;stroke-width:1.5;" x1="479.5" x2="674.5" y1="180.5" y2="180.5"/><ellipse cx="489.5" cy="191.5" fill="#84BE84" rx="3" ry="3" style="stroke:#038048;stroke-width:1.0;"/><text fill="#000000" font-family="sans-serif" font-size="11" lengthAdjust="spacing" textLength="171" x="498.5" y="194.7104">searchSpecificDate(newDate)</text><!--MD5=[4fe279c4b1173b12890f444334a811ba]
link NearestPortController to BSTShip--><path codeLine="1" d="M307.875,68.011 C271.043,86.712 223.007,111.101 183.145,131.339 " fill="none" id="NearestPortController-to-BSTShip" style="stroke:#A80036;stroke-width:1.0;stroke-dasharray:7.0,7.0;"/><polygon fill="#A80036" points="178.326,133.786,188.1618,133.2797,182.7846,131.5231,184.5412,126.1459,178.326,133.786" style="stroke:#A80036;stroke-width:1.0;"/><!--MD5=[566720dd2db3cefb2eb9228416363f84]
link NearestPortController to Company--><path codeLine="2" d="M352.759,68.011 C345.462,84.276 336.233,104.844 327.979,123.242 " fill="none" id="NearestPortController-to-Company" style="stroke:#A80036;stroke-width:1.0;stroke-dasharray:7.0,7.0;"/><polygon fill="#A80036" points="325.903,127.869,333.2374,121.2958,327.9502,123.3073,325.9387,118.0202,325.903,127.869" style="stroke:#A80036;stroke-width:1.0;"/><!--MD5=[1c0f13f962c91d4c68f2087364d9b461]
link NearestPortController to KdtPort--><path codeLine="3" d="M375.688,68.376 C380.764,85.602 386.444,107.786 389,128 C393.795,165.92 393.795,176.08 389,214 C386.684,232.319 381.801,252.2561 377.128,268.6541 " fill="none" id="NearestPortController-to-KdtPort" style="stroke:#A80036;stroke-width:1.0;stroke-dasharray:7.0,7.0;"/><polygon fill="#A80036" points="375.688,273.6237,382.0352,266.0929,377.0799,268.8213,374.3515,263.866,375.688,273.6237" style="stroke:#A80036;stroke-width:1.0;"/><!--MD5=[bb521048ecc442854357bb64a685e587]
link NearestPortController to BstDynData--><path codeLine="4" d="M413.353,68.011 C446.493,88.665 490.766,116.257 524.906,137.534 " fill="none" id="NearestPortController-to-BstDynData" style="stroke:#A80036;stroke-width:1.0;stroke-dasharray:7.0,7.0;"/><polygon fill="#A80036" points="529.441,140.36,523.9174,132.2059,525.1972,137.716,519.6871,138.9959,529.441,140.36" style="stroke:#A80036;stroke-width:1.0;"/><!--MD5=[b3508693fa16e1126a1fc609796f8a97]
link Company to KdtPort--><path codeLine="14" d="M325.993,214.331 C333.937,232.038 343.051,252.3502 350.571,269.1119 " fill="none" id="Company-to-KdtPort" style="stroke:#A80036;stroke-width:1.0;stroke-dasharray:7.0,7.0;"/><polygon fill="#A80036" points="352.648,273.7402,352.6139,263.8914,350.6015,269.1782,345.3147,267.1658,352.648,273.7402" style="stroke:#A80036;stroke-width:1.0;"/><!--MD5=[09274264976fdbe4e31d7ccfe68f2f22]
@startuml
NearestPortController ..>BSTShip
NearestPortController ..>Company
NearestPortController ..>KdtPort
NearestPortController ..>BstDynData


NearestPortController : +importFromCSV(file)


Company : -bstShips: BSTShip
Company : +Company()
Company : +getKdtPorts()

Company ..>KdtPort

KdtPort : +findNearestNeighbour(lat, long)

BSTShip : +searchShipByCallSign(callsign)
BSTShip : +inrOrder()

BstDynData : +searchSpecificDate(newDate)
@enduml

PlantUML version 1.2021.16beta1(Unknown compile time)
(GPL source distribution)
Java Runtime: Java(TM) SE Runtime Environment
JVM: Java HotSpot(TM) 64-Bit Server VM
Default Encoding: UTF-8
Language: en
Country: US
--></g></svg>