<?xml version="1.0" encoding="UTF-8" standalone="no"?><svg xmlns="http://www.w3.org/2000/svg" xmlns:xlink="http://www.w3.org/1999/xlink" contentScriptType="application/ecmascript" contentStyleType="text/css" height="309px" preserveAspectRatio="none" style="width:391px;height:309px;background:#FFFFFF;" version="1.1" viewBox="0 0 391 309" width="391px" zoomAndPan="magnify"><defs><filter height="300%" id="f1hkvilaws48lk" width="300%" x="-1" y="-1"><feGaussianBlur result="blurOut" stdDeviation="2.0"/><feColorMatrix in="blurOut" result="blurOut2" type="matrix" values="0 0 0 0 0 0 0 0 0 0 0 0 0 0 0 0 0 0 .4 0"/><feOffset dx="4.0" dy="4.0" in="blurOut2" result="blurOut3"/><feBlend in="SourceGraphic" in2="blurOut3" mode="normal"/></filter></defs><g><rect fill="#FFFFFF" filter="url(#f1hkvilaws48lk)" height="117.5313" style="stroke:#A80036;stroke-width:1.0;" width="10" x="59" y="98.2969"/><rect fill="#FFFFFF" filter="url(#f1hkvilaws48lk)" height="29.1328" style="stroke:#A80036;stroke-width:1.0;" width="10" x="340" y="119.4297"/><rect fill="#FFFFFF" filter="url(#f1hkvilaws48lk)" height="38.1328" style="stroke:#A80036;stroke-width:1.0;" width="10" x="340" y="177.6953"/><line style="stroke:#A80036;stroke-width:1.0;stroke-dasharray:5.0,5.0;" x1="64" x2="64" y1="88.2969" y2="224.8281"/><line style="stroke:#A80036;stroke-width:1.0;stroke-dasharray:5.0,5.0;" x1="345" x2="345" y1="88.2969" y2="224.8281"/><text fill="#000000" font-family="sans-serif" font-size="14" lengthAdjust="spacing" textLength="112" x="5" y="84.9951">Traffic Manager</text><ellipse cx="64" cy="15" fill="#FEFECE" filter="url(#f1hkvilaws48lk)" rx="8" ry="8" style="stroke:#A80036;stroke-width:2.0;"/><path d="M64,23 L64,50 M51,31 L77,31 M64,50 L51,65 M64,50 L77,65 " fill="none" filter="url(#f1hkvilaws48lk)" style="stroke:#A80036;stroke-width:2.0;"/><text fill="#000000" font-family="sans-serif" font-size="14" lengthAdjust="spacing" textLength="112" x="5" y="236.8232">Traffic Manager</text><ellipse cx="64" cy="250.125" fill="#FEFECE" filter="url(#f1hkvilaws48lk)" rx="8" ry="8" style="stroke:#A80036;stroke-width:2.0;"/><path d="M64,258.125 L64,285.125 M51,266.125 L77,266.125 M64,285.125 L51,300.125 M64,285.125 L77,300.125 " fill="none" filter="url(#f1hkvilaws48lk)" style="stroke:#A80036;stroke-width:2.0;"/><rect fill="#FEFECE" filter="url(#f1hkvilaws48lk)" height="30.2969" style="stroke:#A80036;stroke-width:1.5;" width="68" x="309" y="53"/><text fill="#000000" font-family="sans-serif" font-size="14" lengthAdjust="spacing" textLength="54" x="316" y="72.9951">System</text><rect fill="#FEFECE" filter="url(#f1hkvilaws48lk)" height="30.2969" style="stroke:#A80036;stroke-width:1.5;" width="68" x="309" y="223.8281"/><text fill="#000000" font-family="sans-serif" font-size="14" lengthAdjust="spacing" textLength="54" x="316" y="243.8232">System</text><rect fill="#FFFFFF" filter="url(#f1hkvilaws48lk)" height="117.5313" style="stroke:#A80036;stroke-width:1.0;" width="10" x="59" y="98.2969"/><rect fill="#FFFFFF" filter="url(#f1hkvilaws48lk)" height="29.1328" style="stroke:#A80036;stroke-width:1.0;" width="10" x="340" y="119.4297"/><rect fill="#FFFFFF" filter="url(#f1hkvilaws48lk)" height="38.1328" style="stroke:#A80036;stroke-width:1.0;" width="10" x="340" y="177.6953"/><polygon fill="#A80036" points="328,115.4297,338,119.4297,328,123.4297,332,119.4297" style="stroke:#A80036;stroke-width:1.0;"/><line style="stroke:#A80036;stroke-width:1.0;" x1="69" x2="334" y1="119.4297" y2="119.4297"/><text fill="#000000" font-family="sans-serif" font-size="13" font-weight="bold" lengthAdjust="spacing" textLength="9" x="76" y="114.3638">1</text><text fill="#000000" font-family="sans-serif" font-size="13" lengthAdjust="spacing" textLength="178" x="89" y="114.3638">asks to find the closest port</text><polygon fill="#A80036" points="80,144.5625,70,148.5625,80,152.5625,76,148.5625" style="stroke:#A80036;stroke-width:1.0;"/><line style="stroke:#A80036;stroke-width:1.0;stroke-dasharray:2.0,2.0;" x1="74" x2="344" y1="148.5625" y2="148.5625"/><text fill="#000000" font-family="sans-serif" font-size="13" font-weight="bold" lengthAdjust="spacing" textLength="9" x="86" y="143.4966">2</text><text fill="#000000" font-family="sans-serif" font-size="13" lengthAdjust="spacing" textLength="234" x="99" y="143.4966">asks for his call sign and a date time</text><polygon fill="#A80036" points="328,173.6953,338,177.6953,328,181.6953,332,177.6953" style="stroke:#A80036;stroke-width:1.0;"/><line style="stroke:#A80036;stroke-width:1.0;" x1="69" x2="334" y1="177.6953" y2="177.6953"/><text fill="#000000" font-family="sans-serif" font-size="13" font-weight="bold" lengthAdjust="spacing" textLength="8" x="76" y="172.6294">3</text><text fill="#000000" font-family="sans-serif" font-size="13" lengthAdjust="spacing" textLength="159" x="88" y="172.6294">types the path of the file</text><polygon fill="#A80036" points="80,202.8281,70,206.8281,80,210.8281,76,206.8281" style="stroke:#A80036;stroke-width:1.0;"/><line style="stroke:#A80036;stroke-width:1.0;stroke-dasharray:2.0,2.0;" x1="74" x2="339" y1="206.8281" y2="206.8281"/><text fill="#000000" font-family="sans-serif" font-size="13" font-weight="bold" lengthAdjust="spacing" textLength="9" x="86" y="201.7622">4</text><text fill="#000000" font-family="sans-serif" font-size="13" lengthAdjust="spacing" textLength="145" x="99" y="201.7622">shows the closest port</text><!--MD5=[9064fbcb42893cd6239e7e63b34bd8ab]
@startuml
'https://plantuml.com/sequence-diagram

autonumber

actor "Traffic Manager" as PM
participant "System" as S
activate PM

PM -> S: asks to find the closest port
activate S
S - -> PM: asks for his call sign and a date time
deactivate S
PM -> S: types the path of the file
activate S
PM <- - S: shows the closest port
@enduml

@startuml

autonumber

actor "Traffic Manager" as PM
participant "System" as S
activate PM

PM -> S: asks to find the closest port
activate S
S - -> PM: asks for his call sign and a date time
deactivate S
PM -> S: types the path of the file
activate S
PM <- - S: shows the closest port
@enduml

PlantUML version 1.2021.16beta1(Unknown compile time)
(GPL source distribution)
Java Runtime: Java(TM) SE Runtime Environment
JVM: Java HotSpot(TM) 64-Bit Server VM
Default Encoding: UTF-8
Language: en
Country: US
--></g></svg>