<?xml version="1.0" encoding="UTF-8" standalone="no"?><svg xmlns="http://www.w3.org/2000/svg" xmlns:xlink="http://www.w3.org/1999/xlink" contentScriptType="application/ecmascript" contentStyleType="text/css" height="496px" preserveAspectRatio="none" style="width:1326px;height:496px;background:#FFFFFF;" version="1.1" viewBox="0 0 1326 496" width="1326px" zoomAndPan="magnify"><defs><filter height="300%" id="f1cuebz1nbwubq" width="300%" x="-1" y="-1"><feGaussianBlur result="blurOut" stdDeviation="2.0"/><feColorMatrix in="blurOut" result="blurOut2" type="matrix" values="0 0 0 0 0 0 0 0 0 0 0 0 0 0 0 0 0 0 .4 0"/><feOffset dx="4.0" dy="4.0" in="blurOut2" result="blurOut3"/><feBlend in="SourceGraphic" in2="blurOut3" mode="normal"/></filter></defs><g><rect fill="#FFFFFF" filter="url(#f1cuebz1nbwubq)" height="296.3281" style="stroke:#A80036;stroke-width:1.0;" width="10" x="49" y="98.2969"/><rect fill="#FFFFFF" filter="url(#f1cuebz1nbwubq)" height="29.1328" style="stroke:#A80036;stroke-width:1.0;" width="10" x="497" y="119.4297"/><rect fill="#FFFFFF" filter="url(#f1cuebz1nbwubq)" height="216.9297" style="stroke:#A80036;stroke-width:1.0;" width="10" x="497" y="177.6953"/><rect fill="#FFFFFF" filter="url(#f1cuebz1nbwubq)" height="187.7969" style="stroke:#A80036;stroke-width:1.0;" width="10" x="832" y="206.8281"/><rect fill="#FFFFFF" filter="url(#f1cuebz1nbwubq)" height="71.2656" style="stroke:#A80036;stroke-width:1.0;" width="10" x="1053" y="235.9609"/><rect fill="#FFFFFF" filter="url(#f1cuebz1nbwubq)" height="29.1328" style="stroke:#A80036;stroke-width:1.0;" width="10" x="1251" y="307.2266"/><line style="stroke:#A80036;stroke-width:1.0;stroke-dasharray:5.0,5.0;" x1="54" x2="54" y1="88.2969" y2="412.625"/><line style="stroke:#A80036;stroke-width:1.0;stroke-dasharray:5.0,5.0;" x1="501.5" x2="501.5" y1="88.2969" y2="412.625"/><line style="stroke:#A80036;stroke-width:1.0;stroke-dasharray:5.0,5.0;" x1="836.5" x2="836.5" y1="88.2969" y2="412.625"/><line style="stroke:#A80036;stroke-width:1.0;stroke-dasharray:5.0,5.0;" x1="1057.5" x2="1057.5" y1="88.2969" y2="412.625"/><line style="stroke:#A80036;stroke-width:1.0;stroke-dasharray:5.0,5.0;" x1="1255.5" x2="1255.5" y1="88.2969" y2="412.625"/><text fill="#000000" font-family="sans-serif" font-size="14" lengthAdjust="spacing" textLength="92" x="5" y="84.9951">Ship Captain</text><ellipse cx="54" cy="15" fill="#FEFECE" filter="url(#f1cuebz1nbwubq)" rx="8" ry="8" style="stroke:#A80036;stroke-width:2.0;"/><path d="M54,23 L54,50 M41,31 L67,31 M54,50 L41,65 M54,50 L67,65 " fill="none" filter="url(#f1cuebz1nbwubq)" style="stroke:#A80036;stroke-width:2.0;"/><text fill="#000000" font-family="sans-serif" font-size="14" lengthAdjust="spacing" textLength="92" x="5" y="424.6201">Ship Captain</text><ellipse cx="54" cy="437.9219" fill="#FEFECE" filter="url(#f1cuebz1nbwubq)" rx="8" ry="8" style="stroke:#A80036;stroke-width:2.0;"/><path d="M54,445.9219 L54,472.9219 M41,453.9219 L67,453.9219 M54,472.9219 L41,487.9219 M54,472.9219 L67,487.9219 " fill="none" filter="url(#f1cuebz1nbwubq)" style="stroke:#A80036;stroke-width:2.0;"/><rect fill="#FEFECE" filter="url(#f1cuebz1nbwubq)" height="30.2969" style="stroke:#A80036;stroke-width:1.5;" width="291" x="354.5" y="53"/><text fill="#000000" font-family="sans-serif" font-size="14" lengthAdjust="spacing" textLength="277" x="361.5" y="72.9951">:NumberCargoManifestAvgContainerUI</text><rect fill="#FEFECE" filter="url(#f1cuebz1nbwubq)" height="30.2969" style="stroke:#A80036;stroke-width:1.5;" width="291" x="354.5" y="411.625"/><text fill="#000000" font-family="sans-serif" font-size="14" lengthAdjust="spacing" textLength="277" x="361.5" y="431.6201">:NumberCargoManifestAvgContainerUI</text><rect fill="#FEFECE" filter="url(#f1cuebz1nbwubq)" height="30.2969" style="stroke:#A80036;stroke-width:1.5;" width="351" x="659.5" y="53"/><text fill="#000000" font-family="sans-serif" font-size="14" lengthAdjust="spacing" textLength="337" x="666.5" y="72.9951">:NumberCargoManifestAvgContainerController</text><rect fill="#FEFECE" filter="url(#f1cuebz1nbwubq)" height="30.2969" style="stroke:#A80036;stroke-width:1.5;" width="351" x="659.5" y="411.625"/><text fill="#000000" font-family="sans-serif" font-size="14" lengthAdjust="spacing" textLength="337" x="666.5" y="431.6201">:NumberCargoManifestAvgContainerController</text><rect fill="#FEFECE" filter="url(#f1cuebz1nbwubq)" height="30.2969" style="stroke:#A80036;stroke-width:1.5;" width="63" x="1024.5" y="53"/><text fill="#000000" font-family="sans-serif" font-size="14" lengthAdjust="spacing" textLength="49" x="1031.5" y="72.9951">:US207</text><rect fill="#FEFECE" filter="url(#f1cuebz1nbwubq)" height="30.2969" style="stroke:#A80036;stroke-width:1.5;" width="63" x="1024.5" y="411.625"/><text fill="#000000" font-family="sans-serif" font-size="14" lengthAdjust="spacing" textLength="49" x="1031.5" y="431.6201">:US207</text><rect fill="#FEFECE" filter="url(#f1cuebz1nbwubq)" height="30.2969" style="stroke:#A80036;stroke-width:1.5;" width="117" x="1195.5" y="53"/><text fill="#000000" font-family="sans-serif" font-size="14" lengthAdjust="spacing" textLength="103" x="1202.5" y="72.9951">:FileOperation</text><rect fill="#FEFECE" filter="url(#f1cuebz1nbwubq)" height="30.2969" style="stroke:#A80036;stroke-width:1.5;" width="117" x="1195.5" y="411.625"/><text fill="#000000" font-family="sans-serif" font-size="14" lengthAdjust="spacing" textLength="103" x="1202.5" y="431.6201">:FileOperation</text><rect fill="#FFFFFF" filter="url(#f1cuebz1nbwubq)" height="296.3281" style="stroke:#A80036;stroke-width:1.0;" width="10" x="49" y="98.2969"/><rect fill="#FFFFFF" filter="url(#f1cuebz1nbwubq)" height="29.1328" style="stroke:#A80036;stroke-width:1.0;" width="10" x="497" y="119.4297"/><rect fill="#FFFFFF" filter="url(#f1cuebz1nbwubq)" height="216.9297" style="stroke:#A80036;stroke-width:1.0;" width="10" x="497" y="177.6953"/><rect fill="#FFFFFF" filter="url(#f1cuebz1nbwubq)" height="187.7969" style="stroke:#A80036;stroke-width:1.0;" width="10" x="832" y="206.8281"/><rect fill="#FFFFFF" filter="url(#f1cuebz1nbwubq)" height="71.2656" style="stroke:#A80036;stroke-width:1.0;" width="10" x="1053" y="235.9609"/><rect fill="#FFFFFF" filter="url(#f1cuebz1nbwubq)" height="29.1328" style="stroke:#A80036;stroke-width:1.0;" width="10" x="1251" y="307.2266"/><polygon fill="#A80036" points="485,115.4297,495,119.4297,485,123.4297,489,119.4297" style="stroke:#A80036;stroke-width:1.0;"/><line style="stroke:#A80036;stroke-width:1.0;" x1="59" x2="491" y1="119.4297" y2="119.4297"/><text fill="#000000" font-family="sans-serif" font-size="13" font-weight="bold" lengthAdjust="spacing" textLength="9" x="66" y="114.3638">1</text><text fill="#000000" font-family="sans-serif" font-size="13" lengthAdjust="spacing" textLength="406" x="79" y="114.3638">request to know how many cargo manifests I have transported</text><polygon fill="#A80036" points="70,144.5625,60,148.5625,70,152.5625,66,148.5625" style="stroke:#A80036;stroke-width:1.0;"/><line style="stroke:#A80036;stroke-width:1.0;stroke-dasharray:2.0,2.0;" x1="64" x2="501" y1="148.5625" y2="148.5625"/><text fill="#000000" font-family="sans-serif" font-size="13" font-weight="bold" lengthAdjust="spacing" textLength="9" x="76" y="143.4966">2</text><text fill="#000000" font-family="sans-serif" font-size="13" lengthAdjust="spacing" textLength="109" x="89" y="143.4966">asks for the year</text><polygon fill="#A80036" points="485,173.6953,495,177.6953,485,181.6953,489,177.6953" style="stroke:#A80036;stroke-width:1.0;"/><line style="stroke:#A80036;stroke-width:1.0;" x1="59" x2="491" y1="177.6953" y2="177.6953"/><text fill="#000000" font-family="sans-serif" font-size="13" font-weight="bold" lengthAdjust="spacing" textLength="8" x="66" y="172.6294">3</text><text fill="#000000" font-family="sans-serif" font-size="13" lengthAdjust="spacing" textLength="163" x="78" y="172.6294">types the data requested</text><polygon fill="#A80036" points="820,202.8281,830,206.8281,820,210.8281,824,206.8281" style="stroke:#A80036;stroke-width:1.0;"/><line style="stroke:#A80036;stroke-width:1.0;" x1="507" x2="826" y1="206.8281" y2="206.8281"/><text fill="#000000" font-family="sans-serif" font-size="13" font-weight="bold" lengthAdjust="spacing" textLength="9" x="514" y="201.7622">4</text><text fill="#000000" font-family="sans-serif" font-size="13" lengthAdjust="spacing" textLength="82" x="527" y="201.7622">createUS207</text><polygon fill="#A80036" points="1041,231.9609,1051,235.9609,1041,239.9609,1045,235.9609" style="stroke:#A80036;stroke-width:1.0;"/><line style="stroke:#A80036;stroke-width:1.0;" x1="842" x2="1047" y1="235.9609" y2="235.9609"/><text fill="#000000" font-family="sans-serif" font-size="13" font-weight="bold" lengthAdjust="spacing" textLength="9" x="849" y="230.895">5</text><text fill="#000000" font-family="sans-serif" font-size="13" lengthAdjust="spacing" textLength="120" x="862" y="230.895">demo(mmsi, year)</text><line style="stroke:#A80036;stroke-width:1.0;" x1="1063" x2="1105" y1="265.0938" y2="265.0938"/><line style="stroke:#A80036;stroke-width:1.0;" x1="1105" x2="1105" y1="265.0938" y2="278.0938"/><line style="stroke:#A80036;stroke-width:1.0;" x1="1064" x2="1105" y1="278.0938" y2="278.0938"/><polygon fill="#A80036" points="1074,274.0938,1064,278.0938,1074,282.0938,1070,278.0938" style="stroke:#A80036;stroke-width:1.0;"/><text fill="#000000" font-family="sans-serif" font-size="13" font-weight="bold" lengthAdjust="spacing" textLength="9" x="1070" y="260.0278">6</text><text fill="#000000" font-family="sans-serif" font-size="13" lengthAdjust="spacing" textLength="51" x="1083" y="260.0278">initialize</text><polygon fill="#A80036" points="1239,303.2266,1249,307.2266,1239,311.2266,1243,307.2266" style="stroke:#A80036;stroke-width:1.0;"/><line style="stroke:#A80036;stroke-width:1.0;" x1="1058" x2="1245" y1="307.2266" y2="307.2266"/><text fill="#000000" font-family="sans-serif" font-size="13" font-weight="bold" lengthAdjust="spacing" textLength="9" x="1065" y="302.1606">7</text><text fill="#000000" font-family="sans-serif" font-size="13" lengthAdjust="spacing" textLength="156" x="1078" y="302.1606">WriteToAFile(path, data)</text><polygon fill="#A80036" points="853,332.3594,843,336.3594,853,340.3594,849,336.3594" style="stroke:#A80036;stroke-width:1.0;"/><line style="stroke:#A80036;stroke-width:1.0;stroke-dasharray:2.0,2.0;" x1="847" x2="1255" y1="336.3594" y2="336.3594"/><text fill="#000000" font-family="sans-serif" font-size="13" font-weight="bold" lengthAdjust="spacing" textLength="9" x="859" y="331.2935">8</text><text fill="#000000" font-family="sans-serif" font-size="13" lengthAdjust="spacing" textLength="19" x="872" y="331.2935">file</text><polygon fill="#A80036" points="518,361.4922,508,365.4922,518,369.4922,514,365.4922" style="stroke:#A80036;stroke-width:1.0;"/><line style="stroke:#A80036;stroke-width:1.0;stroke-dasharray:2.0,2.0;" x1="512" x2="831" y1="365.4922" y2="365.4922"/><text fill="#000000" font-family="sans-serif" font-size="13" font-weight="bold" lengthAdjust="spacing" textLength="9" x="524" y="360.4263">9</text><text fill="#000000" font-family="sans-serif" font-size="13" lengthAdjust="spacing" textLength="19" x="537" y="360.4263">file</text><polygon fill="#A80036" points="65,390.625,55,394.625,65,398.625,61,394.625" style="stroke:#A80036;stroke-width:1.0;"/><line style="stroke:#A80036;stroke-width:1.0;stroke-dasharray:2.0,2.0;" x1="59" x2="501" y1="394.625" y2="394.625"/><text fill="#000000" font-family="sans-serif" font-size="13" font-weight="bold" lengthAdjust="spacing" textLength="19" x="71" y="389.5591">10</text><text fill="#000000" font-family="sans-serif" font-size="13" lengthAdjust="spacing" textLength="168" x="94" y="389.5591">shows the requested data</text><!--MD5=[6fc621523aad19631c4b07b1afa4716c]
@startuml
actor "Ship Captain" as Adm
participant ":NumberCargoManifestAvgContainerUI" as System
participant ":NumberCargoManifestAvgContainerController" as SSC
participant ":US207" as us
participant ":FileOperation" as f

autonumber

activate Adm

Adm -> System: request to know how many cargo manifests I have transported

activate System

System - -> Adm: asks for the year

deactivate System

Adm -> System: types the data requested

activate System

System -> SSC: createUS207

activate SSC

SSC -> us: demo(mmsi, year)

activate us

us -> us: initialize

us -> f: WriteToAFile(path, data)

deactivate us

activate f

f - -> SSC: file

deactivate f

SSC - -> System: file

System - -> Adm: shows the requested data

deactivate SSC

deactivate System

deactivate Adm
@enduml

PlantUML version 1.2021.16beta1(Unknown compile time)
(GPL source distribution)
Java Runtime: Java(TM) SE Runtime Environment
JVM: Java HotSpot(TM) 64-Bit Server VM
Default Encoding: UTF-8
Language: en
Country: US
--></g></svg>