<?xml version="1.0" encoding="UTF-8" standalone="no"?><svg xmlns="http://www.w3.org/2000/svg" xmlns:xlink="http://www.w3.org/1999/xlink" contentScriptType="application/ecmascript" contentStyleType="text/css" height="496px" preserveAspectRatio="none" style="width:1280px;height:496px;background:#FFFFFF;" version="1.1" viewBox="0 0 1280 496" width="1280px" zoomAndPan="magnify"><defs><filter height="300%" id="f1irud9djyn9pm" width="300%" x="-1" y="-1"><feGaussianBlur result="blurOut" stdDeviation="2.0"/><feColorMatrix in="blurOut" result="blurOut2" type="matrix" values="0 0 0 0 0 0 0 0 0 0 0 0 0 0 0 0 0 0 .4 0"/><feOffset dx="4.0" dy="4.0" in="blurOut2" result="blurOut3"/><feBlend in="SourceGraphic" in2="blurOut3" mode="normal"/></filter></defs><g><rect fill="#FFFFFF" filter="url(#f1irud9djyn9pm)" height="296.3281" style="stroke:#A80036;stroke-width:1.0;" width="10" x="51" y="98.2969"/><rect fill="#FFFFFF" filter="url(#f1irud9djyn9pm)" height="29.1328" style="stroke:#A80036;stroke-width:1.0;" width="10" x="527" y="119.4297"/><rect fill="#FFFFFF" filter="url(#f1irud9djyn9pm)" height="216.9297" style="stroke:#A80036;stroke-width:1.0;" width="10" x="527" y="177.6953"/><rect fill="#FFFFFF" filter="url(#f1irud9djyn9pm)" height="187.7969" style="stroke:#A80036;stroke-width:1.0;" width="10" x="811" y="206.8281"/><rect fill="#FFFFFF" filter="url(#f1irud9djyn9pm)" height="71.2656" style="stroke:#A80036;stroke-width:1.0;" width="10" x="1007" y="235.9609"/><rect fill="#FFFFFF" filter="url(#f1irud9djyn9pm)" height="29.1328" style="stroke:#A80036;stroke-width:1.0;" width="10" x="1205" y="307.2266"/><line style="stroke:#A80036;stroke-width:1.0;stroke-dasharray:5.0,5.0;" x1="56" x2="56" y1="88.2969" y2="412.625"/><line style="stroke:#A80036;stroke-width:1.0;stroke-dasharray:5.0,5.0;" x1="532" x2="532" y1="88.2969" y2="412.625"/><line style="stroke:#A80036;stroke-width:1.0;stroke-dasharray:5.0,5.0;" x1="816" x2="816" y1="88.2969" y2="412.625"/><line style="stroke:#A80036;stroke-width:1.0;stroke-dasharray:5.0,5.0;" x1="1012" x2="1012" y1="88.2969" y2="412.625"/><line style="stroke:#A80036;stroke-width:1.0;stroke-dasharray:5.0,5.0;" x1="1209.5" x2="1209.5" y1="88.2969" y2="412.625"/><text fill="#000000" font-family="sans-serif" font-size="14" lengthAdjust="spacing" textLength="96" x="5" y="84.9951">Port Manager</text><ellipse cx="56" cy="15" fill="#FEFECE" filter="url(#f1irud9djyn9pm)" rx="8" ry="8" style="stroke:#A80036;stroke-width:2.0;"/><path d="M56,23 L56,50 M43,31 L69,31 M56,50 L43,65 M56,50 L69,65 " fill="none" filter="url(#f1irud9djyn9pm)" style="stroke:#A80036;stroke-width:2.0;"/><text fill="#000000" font-family="sans-serif" font-size="14" lengthAdjust="spacing" textLength="96" x="5" y="424.6201">Port Manager</text><ellipse cx="56" cy="437.9219" fill="#FEFECE" filter="url(#f1irud9djyn9pm)" rx="8" ry="8" style="stroke:#A80036;stroke-width:2.0;"/><path d="M56,445.9219 L56,472.9219 M43,453.9219 L69,453.9219 M56,472.9219 L43,487.9219 M56,472.9219 L69,487.9219 " fill="none" filter="url(#f1irud9djyn9pm)" style="stroke:#A80036;stroke-width:2.0;"/><rect fill="#FEFECE" filter="url(#f1irud9djyn9pm)" height="30.2969" style="stroke:#A80036;stroke-width:1.5;" width="240" x="410" y="53"/><text fill="#000000" font-family="sans-serif" font-size="14" lengthAdjust="spacing" textLength="226" x="417" y="72.9951">:OccupancyOfEachWarehouseUI</text><rect fill="#FEFECE" filter="url(#f1irud9djyn9pm)" height="30.2969" style="stroke:#A80036;stroke-width:1.5;" width="240" x="410" y="411.625"/><text fill="#000000" font-family="sans-serif" font-size="14" lengthAdjust="spacing" textLength="226" x="417" y="431.6201">:OccupancyOfEachWarehouseUI</text><rect fill="#FEFECE" filter="url(#f1irud9djyn9pm)" height="30.2969" style="stroke:#A80036;stroke-width:1.5;" width="300" x="664" y="53"/><text fill="#000000" font-family="sans-serif" font-size="14" lengthAdjust="spacing" textLength="286" x="671" y="72.9951">:OccupancyOfEachWarehouseController</text><rect fill="#FEFECE" filter="url(#f1irud9djyn9pm)" height="30.2969" style="stroke:#A80036;stroke-width:1.5;" width="300" x="664" y="411.625"/><text fill="#000000" font-family="sans-serif" font-size="14" lengthAdjust="spacing" textLength="286" x="671" y="431.6201">:OccupancyOfEachWarehouseController</text><rect fill="#FEFECE" filter="url(#f1irud9djyn9pm)" height="30.2969" style="stroke:#A80036;stroke-width:1.5;" width="64" x="978" y="53"/><text fill="#000000" font-family="sans-serif" font-size="14" lengthAdjust="spacing" textLength="50" x="985" y="72.9951">:US306</text><rect fill="#FEFECE" filter="url(#f1irud9djyn9pm)" height="30.2969" style="stroke:#A80036;stroke-width:1.5;" width="64" x="978" y="411.625"/><text fill="#000000" font-family="sans-serif" font-size="14" lengthAdjust="spacing" textLength="50" x="985" y="431.6201">:US306</text><rect fill="#FEFECE" filter="url(#f1irud9djyn9pm)" height="30.2969" style="stroke:#A80036;stroke-width:1.5;" width="117" x="1149.5" y="53"/><text fill="#000000" font-family="sans-serif" font-size="14" lengthAdjust="spacing" textLength="103" x="1156.5" y="72.9951">:FileOperation</text><rect fill="#FEFECE" filter="url(#f1irud9djyn9pm)" height="30.2969" style="stroke:#A80036;stroke-width:1.5;" width="117" x="1149.5" y="411.625"/><text fill="#000000" font-family="sans-serif" font-size="14" lengthAdjust="spacing" textLength="103" x="1156.5" y="431.6201">:FileOperation</text><rect fill="#FFFFFF" filter="url(#f1irud9djyn9pm)" height="296.3281" style="stroke:#A80036;stroke-width:1.0;" width="10" x="51" y="98.2969"/><rect fill="#FFFFFF" filter="url(#f1irud9djyn9pm)" height="29.1328" style="stroke:#A80036;stroke-width:1.0;" width="10" x="527" y="119.4297"/><rect fill="#FFFFFF" filter="url(#f1irud9djyn9pm)" height="216.9297" style="stroke:#A80036;stroke-width:1.0;" width="10" x="527" y="177.6953"/><rect fill="#FFFFFF" filter="url(#f1irud9djyn9pm)" height="187.7969" style="stroke:#A80036;stroke-width:1.0;" width="10" x="811" y="206.8281"/><rect fill="#FFFFFF" filter="url(#f1irud9djyn9pm)" height="71.2656" style="stroke:#A80036;stroke-width:1.0;" width="10" x="1007" y="235.9609"/><rect fill="#FFFFFF" filter="url(#f1irud9djyn9pm)" height="29.1328" style="stroke:#A80036;stroke-width:1.0;" width="10" x="1205" y="307.2266"/><polygon fill="#A80036" points="515,115.4297,525,119.4297,515,123.4297,519,119.4297" style="stroke:#A80036;stroke-width:1.0;"/><line style="stroke:#A80036;stroke-width:1.0;" x1="61" x2="521" y1="119.4297" y2="119.4297"/><text fill="#000000" font-family="sans-serif" font-size="13" font-weight="bold" lengthAdjust="spacing" textLength="9" x="68" y="114.3638">1</text><text fill="#000000" font-family="sans-serif" font-size="13" lengthAdjust="spacing" textLength="434" x="81" y="114.3638">wish to know the occupancy rate and an estimate of the containers</text><polygon fill="#A80036" points="72,144.5625,62,148.5625,72,152.5625,68,148.5625" style="stroke:#A80036;stroke-width:1.0;"/><line style="stroke:#A80036;stroke-width:1.0;stroke-dasharray:2.0,2.0;" x1="66" x2="531" y1="148.5625" y2="148.5625"/><text fill="#000000" font-family="sans-serif" font-size="13" font-weight="bold" lengthAdjust="spacing" textLength="9" x="78" y="143.4966">2</text><text fill="#000000" font-family="sans-serif" font-size="13" lengthAdjust="spacing" textLength="171" x="91" y="143.4966">request the data to search</text><polygon fill="#A80036" points="515,173.6953,525,177.6953,515,181.6953,519,177.6953" style="stroke:#A80036;stroke-width:1.0;"/><line style="stroke:#A80036;stroke-width:1.0;" x1="61" x2="521" y1="177.6953" y2="177.6953"/><text fill="#000000" font-family="sans-serif" font-size="13" font-weight="bold" lengthAdjust="spacing" textLength="8" x="68" y="172.6294">3</text><text fill="#000000" font-family="sans-serif" font-size="13" lengthAdjust="spacing" textLength="151" x="80" y="172.6294">types the port identifier</text><polygon fill="#A80036" points="799,202.8281,809,206.8281,799,210.8281,803,206.8281" style="stroke:#A80036;stroke-width:1.0;"/><line style="stroke:#A80036;stroke-width:1.0;" x1="537" x2="805" y1="206.8281" y2="206.8281"/><text fill="#000000" font-family="sans-serif" font-size="13" font-weight="bold" lengthAdjust="spacing" textLength="9" x="544" y="201.7622">4</text><text fill="#000000" font-family="sans-serif" font-size="13" lengthAdjust="spacing" textLength="82" x="557" y="201.7622">createUS306</text><polygon fill="#A80036" points="995,231.9609,1005,235.9609,995,239.9609,999,235.9609" style="stroke:#A80036;stroke-width:1.0;"/><line style="stroke:#A80036;stroke-width:1.0;" x1="821" x2="1001" y1="235.9609" y2="235.9609"/><text fill="#000000" font-family="sans-serif" font-size="13" font-weight="bold" lengthAdjust="spacing" textLength="9" x="828" y="230.895">5</text><text fill="#000000" font-family="sans-serif" font-size="13" lengthAdjust="spacing" textLength="91" x="841" y="230.895">demo(port_id)</text><line style="stroke:#A80036;stroke-width:1.0;" x1="1017" x2="1059" y1="265.0938" y2="265.0938"/><line style="stroke:#A80036;stroke-width:1.0;" x1="1059" x2="1059" y1="265.0938" y2="278.0938"/><line style="stroke:#A80036;stroke-width:1.0;" x1="1018" x2="1059" y1="278.0938" y2="278.0938"/><polygon fill="#A80036" points="1028,274.0938,1018,278.0938,1028,282.0938,1024,278.0938" style="stroke:#A80036;stroke-width:1.0;"/><text fill="#000000" font-family="sans-serif" font-size="13" font-weight="bold" lengthAdjust="spacing" textLength="9" x="1024" y="260.0278">6</text><text fill="#000000" font-family="sans-serif" font-size="13" lengthAdjust="spacing" textLength="51" x="1037" y="260.0278">initialize</text><polygon fill="#A80036" points="1193,303.2266,1203,307.2266,1193,311.2266,1197,307.2266" style="stroke:#A80036;stroke-width:1.0;"/><line style="stroke:#A80036;stroke-width:1.0;" x1="1012" x2="1199" y1="307.2266" y2="307.2266"/><text fill="#000000" font-family="sans-serif" font-size="13" font-weight="bold" lengthAdjust="spacing" textLength="9" x="1019" y="302.1606">7</text><text fill="#000000" font-family="sans-serif" font-size="13" lengthAdjust="spacing" textLength="156" x="1032" y="302.1606">WriteToAFile(path, data)</text><polygon fill="#A80036" points="832,332.3594,822,336.3594,832,340.3594,828,336.3594" style="stroke:#A80036;stroke-width:1.0;"/><line style="stroke:#A80036;stroke-width:1.0;stroke-dasharray:2.0,2.0;" x1="826" x2="1209" y1="336.3594" y2="336.3594"/><text fill="#000000" font-family="sans-serif" font-size="13" font-weight="bold" lengthAdjust="spacing" textLength="9" x="838" y="331.2935">8</text><text fill="#000000" font-family="sans-serif" font-size="13" lengthAdjust="spacing" textLength="19" x="851" y="331.2935">file</text><polygon fill="#A80036" points="548,361.4922,538,365.4922,548,369.4922,544,365.4922" style="stroke:#A80036;stroke-width:1.0;"/><line style="stroke:#A80036;stroke-width:1.0;stroke-dasharray:2.0,2.0;" x1="542" x2="810" y1="365.4922" y2="365.4922"/><text fill="#000000" font-family="sans-serif" font-size="13" font-weight="bold" lengthAdjust="spacing" textLength="9" x="554" y="360.4263">9</text><text fill="#000000" font-family="sans-serif" font-size="13" lengthAdjust="spacing" textLength="19" x="567" y="360.4263">file</text><polygon fill="#A80036" points="67,390.625,57,394.625,67,398.625,63,394.625" style="stroke:#A80036;stroke-width:1.0;"/><line style="stroke:#A80036;stroke-width:1.0;stroke-dasharray:2.0,2.0;" x1="61" x2="531" y1="394.625" y2="394.625"/><text fill="#000000" font-family="sans-serif" font-size="13" font-weight="bold" lengthAdjust="spacing" textLength="19" x="73" y="389.5591">10</text><text fill="#000000" font-family="sans-serif" font-size="13" lengthAdjust="spacing" textLength="168" x="96" y="389.5591">shows the requested data</text><!--MD5=[c3ad5bfb3b5491554d2edc0c04bd7bbb]
@startuml
actor "Port Manager" as Adm
participant ":OccupancyOfEachWarehouseUI" as System
participant ":OccupancyOfEachWarehouseController" as SSC
participant ":US306" as us
participant ":FileOperation" as f

autonumber

activate Adm

Adm -> System: wish to know the occupancy rate and an estimate of the containers

activate System

System - -> Adm: request the data to search

deactivate System

Adm -> System: types the port identifier

activate System

System -> SSC: createUS306

activate SSC

SSC -> us: demo(port_id)

activate us

us -> us: initialize

us -> f: WriteToAFile(path, data)

deactivate us

activate f

f - -> SSC: file

deactivate f

SSC - -> System: file

System - -> Adm: shows the requested data

deactivate SSC

deactivate System

deactivate Adm
@enduml

PlantUML version 1.2021.17beta4(Unknown compile time)
(GPL source distribution)
Java Runtime: Java(TM) SE Runtime Environment
JVM: Java HotSpot(TM) 64-Bit Server VM
Default Encoding: UTF-8
Language: en
Country: US
--></g></svg>