<?xml version="1.0" encoding="UTF-8" standalone="no"?><svg xmlns="http://www.w3.org/2000/svg" xmlns:xlink="http://www.w3.org/1999/xlink" contentScriptType="application/ecmascript" contentStyleType="text/css" height="496px" preserveAspectRatio="none" style="width:1259px;height:496px;background:#FFFFFF;" version="1.1" viewBox="0 0 1259 496" width="1259px" zoomAndPan="magnify"><defs><filter height="300%" id="fjyxscqvs9kp7" width="300%" x="-1" y="-1"><feGaussianBlur result="blurOut" stdDeviation="2.0"/><feColorMatrix in="blurOut" result="blurOut2" type="matrix" values="0 0 0 0 0 0 0 0 0 0 0 0 0 0 0 0 0 0 .4 0"/><feOffset dx="4.0" dy="4.0" in="blurOut2" result="blurOut3"/><feBlend in="SourceGraphic" in2="blurOut3" mode="normal"/></filter></defs><g><rect fill="#FFFFFF" filter="url(#fjyxscqvs9kp7)" height="296.3281" style="stroke:#A80036;stroke-width:1.0;" width="10" x="54" y="98.2969"/><rect fill="#FFFFFF" filter="url(#fjyxscqvs9kp7)" height="29.1328" style="stroke:#A80036;stroke-width:1.0;" width="10" x="630" y="119.4297"/><rect fill="#FFFFFF" filter="url(#fjyxscqvs9kp7)" height="216.9297" style="stroke:#A80036;stroke-width:1.0;" width="10" x="630" y="177.6953"/><rect fill="#FFFFFF" filter="url(#fjyxscqvs9kp7)" height="187.7969" style="stroke:#A80036;stroke-width:1.0;" width="10" x="855" y="206.8281"/><rect fill="#FFFFFF" filter="url(#fjyxscqvs9kp7)" height="71.2656" style="stroke:#A80036;stroke-width:1.0;" width="10" x="1023" y="235.9609"/><rect fill="#FFFFFF" filter="url(#fjyxscqvs9kp7)" height="29.1328" style="stroke:#A80036;stroke-width:1.0;" width="10" x="1184" y="307.2266"/><line style="stroke:#A80036;stroke-width:1.0;stroke-dasharray:5.0,5.0;" x1="59" x2="59" y1="88.2969" y2="412.625"/><line style="stroke:#A80036;stroke-width:1.0;stroke-dasharray:5.0,5.0;" x1="634.5" x2="634.5" y1="88.2969" y2="412.625"/><line style="stroke:#A80036;stroke-width:1.0;stroke-dasharray:5.0,5.0;" x1="859.5" x2="859.5" y1="88.2969" y2="412.625"/><line style="stroke:#A80036;stroke-width:1.0;stroke-dasharray:5.0,5.0;" x1="1027.5" x2="1027.5" y1="88.2969" y2="412.625"/><line style="stroke:#A80036;stroke-width:1.0;stroke-dasharray:5.0,5.0;" x1="1188.5" x2="1188.5" y1="88.2969" y2="412.625"/><text fill="#000000" font-family="sans-serif" font-size="14" lengthAdjust="spacing" textLength="102" x="5" y="84.9951">Fleet Manager</text><ellipse cx="59" cy="15" fill="#FEFECE" filter="url(#fjyxscqvs9kp7)" rx="8" ry="8" style="stroke:#A80036;stroke-width:2.0;"/><path d="M59,23 L59,50 M46,31 L72,31 M59,50 L46,65 M59,50 L72,65 " fill="none" filter="url(#fjyxscqvs9kp7)" style="stroke:#A80036;stroke-width:2.0;"/><text fill="#000000" font-family="sans-serif" font-size="14" lengthAdjust="spacing" textLength="102" x="5" y="424.6201">Fleet Manager</text><ellipse cx="59" cy="437.9219" fill="#FEFECE" filter="url(#fjyxscqvs9kp7)" rx="8" ry="8" style="stroke:#A80036;stroke-width:2.0;"/><path d="M59,445.9219 L59,472.9219 M46,453.9219 L72,453.9219 M59,472.9219 L46,487.9219 M59,472.9219 L72,487.9219 " fill="none" filter="url(#fjyxscqvs9kp7)" style="stroke:#A80036;stroke-width:2.0;"/><rect fill="#FEFECE" filter="url(#fjyxscqvs9kp7)" height="30.2969" style="stroke:#A80036;stroke-width:1.5;" width="181" x="542.5" y="53"/><text fill="#000000" font-family="sans-serif" font-size="14" lengthAdjust="spacing" textLength="167" x="549.5" y="72.9951">:OccupancyThresholdUI</text><rect fill="#FEFECE" filter="url(#fjyxscqvs9kp7)" height="30.2969" style="stroke:#A80036;stroke-width:1.5;" width="181" x="542.5" y="411.625"/><text fill="#000000" font-family="sans-serif" font-size="14" lengthAdjust="spacing" textLength="167" x="549.5" y="431.6201">:OccupancyThresholdUI</text><rect fill="#FEFECE" filter="url(#fjyxscqvs9kp7)" height="30.2969" style="stroke:#A80036;stroke-width:1.5;" width="241" x="737.5" y="53"/><text fill="#000000" font-family="sans-serif" font-size="14" lengthAdjust="spacing" textLength="227" x="744.5" y="72.9951">:OccupancyThresholdController</text><rect fill="#FEFECE" filter="url(#fjyxscqvs9kp7)" height="30.2969" style="stroke:#A80036;stroke-width:1.5;" width="241" x="737.5" y="411.625"/><text fill="#000000" font-family="sans-serif" font-size="14" lengthAdjust="spacing" textLength="227" x="744.5" y="431.6201">:OccupancyThresholdController</text><rect fill="#FEFECE" filter="url(#fjyxscqvs9kp7)" height="30.2969" style="stroke:#A80036;stroke-width:1.5;" width="63" x="994.5" y="53"/><text fill="#000000" font-family="sans-serif" font-size="14" lengthAdjust="spacing" textLength="49" x="1001.5" y="72.9951">:US406</text><rect fill="#FEFECE" filter="url(#fjyxscqvs9kp7)" height="30.2969" style="stroke:#A80036;stroke-width:1.5;" width="63" x="994.5" y="411.625"/><text fill="#000000" font-family="sans-serif" font-size="14" lengthAdjust="spacing" textLength="49" x="1001.5" y="431.6201">:US406</text><rect fill="#FEFECE" filter="url(#fjyxscqvs9kp7)" height="30.2969" style="stroke:#A80036;stroke-width:1.5;" width="117" x="1128.5" y="53"/><text fill="#000000" font-family="sans-serif" font-size="14" lengthAdjust="spacing" textLength="103" x="1135.5" y="72.9951">:FileOperation</text><rect fill="#FEFECE" filter="url(#fjyxscqvs9kp7)" height="30.2969" style="stroke:#A80036;stroke-width:1.5;" width="117" x="1128.5" y="411.625"/><text fill="#000000" font-family="sans-serif" font-size="14" lengthAdjust="spacing" textLength="103" x="1135.5" y="431.6201">:FileOperation</text><rect fill="#FFFFFF" filter="url(#fjyxscqvs9kp7)" height="296.3281" style="stroke:#A80036;stroke-width:1.0;" width="10" x="54" y="98.2969"/><rect fill="#FFFFFF" filter="url(#fjyxscqvs9kp7)" height="29.1328" style="stroke:#A80036;stroke-width:1.0;" width="10" x="630" y="119.4297"/><rect fill="#FFFFFF" filter="url(#fjyxscqvs9kp7)" height="216.9297" style="stroke:#A80036;stroke-width:1.0;" width="10" x="630" y="177.6953"/><rect fill="#FFFFFF" filter="url(#fjyxscqvs9kp7)" height="187.7969" style="stroke:#A80036;stroke-width:1.0;" width="10" x="855" y="206.8281"/><rect fill="#FFFFFF" filter="url(#fjyxscqvs9kp7)" height="71.2656" style="stroke:#A80036;stroke-width:1.0;" width="10" x="1023" y="235.9609"/><rect fill="#FFFFFF" filter="url(#fjyxscqvs9kp7)" height="29.1328" style="stroke:#A80036;stroke-width:1.0;" width="10" x="1184" y="307.2266"/><polygon fill="#A80036" points="618,115.4297,628,119.4297,618,123.4297,622,119.4297" style="stroke:#A80036;stroke-width:1.0;"/><line style="stroke:#A80036;stroke-width:1.0;" x1="64" x2="624" y1="119.4297" y2="119.4297"/><text fill="#000000" font-family="sans-serif" font-size="13" font-weight="bold" lengthAdjust="spacing" textLength="9" x="71" y="114.3638">1</text><text fill="#000000" font-family="sans-serif" font-size="13" lengthAdjust="spacing" textLength="534" x="84" y="114.3638">want to know which ship voyages had an occupancy rate below a certain threshold</text><polygon fill="#A80036" points="75,144.5625,65,148.5625,75,152.5625,71,148.5625" style="stroke:#A80036;stroke-width:1.0;"/><line style="stroke:#A80036;stroke-width:1.0;stroke-dasharray:2.0,2.0;" x1="69" x2="634" y1="148.5625" y2="148.5625"/><text fill="#000000" font-family="sans-serif" font-size="13" font-weight="bold" lengthAdjust="spacing" textLength="9" x="81" y="143.4966">2</text><text fill="#000000" font-family="sans-serif" font-size="13" lengthAdjust="spacing" textLength="296" x="94" y="143.4966">asks for the ship mmsi and the time threshold</text><polygon fill="#A80036" points="618,173.6953,628,177.6953,618,181.6953,622,177.6953" style="stroke:#A80036;stroke-width:1.0;"/><line style="stroke:#A80036;stroke-width:1.0;" x1="64" x2="624" y1="177.6953" y2="177.6953"/><text fill="#000000" font-family="sans-serif" font-size="13" font-weight="bold" lengthAdjust="spacing" textLength="8" x="71" y="172.6294">3</text><text fill="#000000" font-family="sans-serif" font-size="13" lengthAdjust="spacing" textLength="138" x="83" y="172.6294">types requested data</text><polygon fill="#A80036" points="843,202.8281,853,206.8281,843,210.8281,847,206.8281" style="stroke:#A80036;stroke-width:1.0;"/><line style="stroke:#A80036;stroke-width:1.0;" x1="640" x2="849" y1="206.8281" y2="206.8281"/><text fill="#000000" font-family="sans-serif" font-size="13" font-weight="bold" lengthAdjust="spacing" textLength="9" x="647" y="201.7622">4</text><text fill="#000000" font-family="sans-serif" font-size="13" lengthAdjust="spacing" textLength="82" x="660" y="201.7622">createUS406</text><polygon fill="#A80036" points="1011,231.9609,1021,235.9609,1011,239.9609,1015,235.9609" style="stroke:#A80036;stroke-width:1.0;"/><line style="stroke:#A80036;stroke-width:1.0;" x1="865" x2="1017" y1="235.9609" y2="235.9609"/><text fill="#000000" font-family="sans-serif" font-size="13" font-weight="bold" lengthAdjust="spacing" textLength="9" x="872" y="230.895">5</text><text fill="#000000" font-family="sans-serif" font-size="13" lengthAdjust="spacing" textLength="126" x="885" y="230.895">demo(mmsi, limite)</text><line style="stroke:#A80036;stroke-width:1.0;" x1="1033" x2="1075" y1="265.0938" y2="265.0938"/><line style="stroke:#A80036;stroke-width:1.0;" x1="1075" x2="1075" y1="265.0938" y2="278.0938"/><line style="stroke:#A80036;stroke-width:1.0;" x1="1034" x2="1075" y1="278.0938" y2="278.0938"/><polygon fill="#A80036" points="1044,274.0938,1034,278.0938,1044,282.0938,1040,278.0938" style="stroke:#A80036;stroke-width:1.0;"/><text fill="#000000" font-family="sans-serif" font-size="13" font-weight="bold" lengthAdjust="spacing" textLength="9" x="1040" y="260.0278">6</text><text fill="#000000" font-family="sans-serif" font-size="13" lengthAdjust="spacing" textLength="51" x="1053" y="260.0278">initialize</text><polygon fill="#A80036" points="1172,303.2266,1182,307.2266,1172,311.2266,1176,307.2266" style="stroke:#A80036;stroke-width:1.0;"/><line style="stroke:#A80036;stroke-width:1.0;" x1="1028" x2="1178" y1="307.2266" y2="307.2266"/><text fill="#000000" font-family="sans-serif" font-size="13" font-weight="bold" lengthAdjust="spacing" textLength="9" x="1035" y="302.1606">7</text><text fill="#000000" font-family="sans-serif" font-size="13" lengthAdjust="spacing" textLength="119" x="1048" y="302.1606">WriteToAFile(data)</text><polygon fill="#A80036" points="876,332.3594,866,336.3594,876,340.3594,872,336.3594" style="stroke:#A80036;stroke-width:1.0;"/><line style="stroke:#A80036;stroke-width:1.0;stroke-dasharray:2.0,2.0;" x1="870" x2="1188" y1="336.3594" y2="336.3594"/><text fill="#000000" font-family="sans-serif" font-size="13" font-weight="bold" lengthAdjust="spacing" textLength="9" x="882" y="331.2935">8</text><text fill="#000000" font-family="sans-serif" font-size="13" lengthAdjust="spacing" textLength="19" x="895" y="331.2935">file</text><polygon fill="#A80036" points="651,361.4922,641,365.4922,651,369.4922,647,365.4922" style="stroke:#A80036;stroke-width:1.0;"/><line style="stroke:#A80036;stroke-width:1.0;stroke-dasharray:2.0,2.0;" x1="645" x2="854" y1="365.4922" y2="365.4922"/><text fill="#000000" font-family="sans-serif" font-size="13" font-weight="bold" lengthAdjust="spacing" textLength="9" x="657" y="360.4263">9</text><text fill="#000000" font-family="sans-serif" font-size="13" lengthAdjust="spacing" textLength="19" x="670" y="360.4263">file</text><polygon fill="#A80036" points="70,390.625,60,394.625,70,398.625,66,394.625" style="stroke:#A80036;stroke-width:1.0;"/><line style="stroke:#A80036;stroke-width:1.0;stroke-dasharray:2.0,2.0;" x1="64" x2="634" y1="394.625" y2="394.625"/><text fill="#000000" font-family="sans-serif" font-size="13" font-weight="bold" lengthAdjust="spacing" textLength="19" x="76" y="389.5591">10</text><text fill="#000000" font-family="sans-serif" font-size="13" lengthAdjust="spacing" textLength="168" x="99" y="389.5591">shows the requested data</text><!--MD5=[137c60611bcb6cca2061a7b2fecb086f]
@startuml
actor "Fleet Manager" as Adm
participant ":OccupancyThresholdUI" as System
participant ":OccupancyThresholdController" as SSC
participant ":US406" as us
participant ":FileOperation" as f

autonumber

activate Adm

Adm -> System: want to know which ship voyages had an occupancy rate below a certain threshold

activate System

System - -> Adm: asks for the ship mmsi and the time threshold

deactivate System

Adm -> System: types requested data

activate System

System -> SSC: createUS406

activate SSC

SSC -> us: demo(mmsi, limite)

activate us

us -> us: initialize

us -> f: WriteToAFile(data)

deactivate us

activate f

f - -> SSC: file

deactivate f

SSC - -> System: file

System - -> Adm: shows the requested data

deactivate SSC

deactivate System

deactivate Adm
@enduml

PlantUML version 1.2021.17beta10(Unknown compile time)
(GPL source distribution)
Java Runtime: Java(TM) SE Runtime Environment
JVM: Java HotSpot(TM) 64-Bit Server VM
Default Encoding: UTF-8
Language: en
Country: US
--></g></svg>