<?xml version="1.0" encoding="UTF-8" standalone="no"?><svg xmlns="http://www.w3.org/2000/svg" xmlns:xlink="http://www.w3.org/1999/xlink" contentScriptType="application/ecmascript" contentStyleType="text/css" height="438px" preserveAspectRatio="none" style="width:1637px;height:438px;background:#FFFFFF;" version="1.1" viewBox="0 0 1637 438" width="1637px" zoomAndPan="magnify"><defs><filter height="300%" id="f1rzpffdlyuzw8" width="300%" x="-1" y="-1"><feGaussianBlur result="blurOut" stdDeviation="2.0"/><feColorMatrix in="blurOut" result="blurOut2" type="matrix" values="0 0 0 0 0 0 0 0 0 0 0 0 0 0 0 0 0 0 .4 0"/><feOffset dx="4.0" dy="4.0" in="blurOut2" result="blurOut3"/><feBlend in="SourceGraphic" in2="blurOut3" mode="normal"/></filter></defs><g><rect fill="#FFFFFF" filter="url(#f1rzpffdlyuzw8)" height="238.0625" style="stroke:#A80036;stroke-width:1.0;" width="10" x="51" y="98.2969"/><rect fill="#FFFFFF" filter="url(#f1rzpffdlyuzw8)" height="216.9297" style="stroke:#A80036;stroke-width:1.0;" width="10" x="990" y="119.4297"/><rect fill="#FFFFFF" filter="url(#f1rzpffdlyuzw8)" height="187.7969" style="stroke:#A80036;stroke-width:1.0;" width="10" x="1188" y="148.5625"/><rect fill="#FFFFFF" filter="url(#f1rzpffdlyuzw8)" height="71.2656" style="stroke:#A80036;stroke-width:1.0;" width="10" x="1341" y="177.6953"/><rect fill="#FFFFFF" filter="url(#f1rzpffdlyuzw8)" height="29.1328" style="stroke:#A80036;stroke-width:1.0;" width="10" x="1562" y="248.9609"/><line style="stroke:#A80036;stroke-width:1.0;stroke-dasharray:5.0,5.0;" x1="56" x2="56" y1="88.2969" y2="354.3594"/><line style="stroke:#A80036;stroke-width:1.0;stroke-dasharray:5.0,5.0;" x1="995" x2="995" y1="88.2969" y2="354.3594"/><line style="stroke:#A80036;stroke-width:1.0;stroke-dasharray:5.0,5.0;" x1="1193" x2="1193" y1="88.2969" y2="354.3594"/><line style="stroke:#A80036;stroke-width:1.0;stroke-dasharray:5.0,5.0;" x1="1346" x2="1346" y1="88.2969" y2="354.3594"/><line style="stroke:#A80036;stroke-width:1.0;stroke-dasharray:5.0,5.0;" x1="1566.5" x2="1566.5" y1="88.2969" y2="354.3594"/><text fill="#000000" font-family="sans-serif" font-size="14" lengthAdjust="spacing" textLength="96" x="5" y="84.9951">Port Manager</text><ellipse cx="56" cy="15" fill="#FEFECE" filter="url(#f1rzpffdlyuzw8)" rx="8" ry="8" style="stroke:#A80036;stroke-width:2.0;"/><path d="M56,23 L56,50 M43,31 L69,31 M56,50 L43,65 M56,50 L69,65 " fill="none" filter="url(#f1rzpffdlyuzw8)" style="stroke:#A80036;stroke-width:2.0;"/><text fill="#000000" font-family="sans-serif" font-size="14" lengthAdjust="spacing" textLength="96" x="5" y="366.3545">Port Manager</text><ellipse cx="56" cy="379.6563" fill="#FEFECE" filter="url(#f1rzpffdlyuzw8)" rx="8" ry="8" style="stroke:#A80036;stroke-width:2.0;"/><path d="M56,387.6563 L56,414.6563 M43,395.6563 L69,395.6563 M56,414.6563 L43,429.6563 M56,414.6563 L69,429.6563 " fill="none" filter="url(#f1rzpffdlyuzw8)" style="stroke:#A80036;stroke-width:2.0;"/><rect fill="#FEFECE" filter="url(#f1rzpffdlyuzw8)" height="30.2969" style="stroke:#A80036;stroke-width:1.5;" width="154" x="916" y="53"/><text fill="#000000" font-family="sans-serif" font-size="14" lengthAdjust="spacing" textLength="140" x="923" y="72.9951">:WarningCapacityUI</text><rect fill="#FEFECE" filter="url(#f1rzpffdlyuzw8)" height="30.2969" style="stroke:#A80036;stroke-width:1.5;" width="154" x="916" y="353.3594"/><text fill="#000000" font-family="sans-serif" font-size="14" lengthAdjust="spacing" textLength="140" x="923" y="373.3545">:WarningCapacityUI</text><rect fill="#FEFECE" filter="url(#f1rzpffdlyuzw8)" height="30.2969" style="stroke:#A80036;stroke-width:1.5;" width="214" x="1084" y="53"/><text fill="#000000" font-family="sans-serif" font-size="14" lengthAdjust="spacing" textLength="200" x="1091" y="72.9951">:WarningCapacityController</text><rect fill="#FEFECE" filter="url(#f1rzpffdlyuzw8)" height="30.2969" style="stroke:#A80036;stroke-width:1.5;" width="214" x="1084" y="353.3594"/><text fill="#000000" font-family="sans-serif" font-size="14" lengthAdjust="spacing" textLength="200" x="1091" y="373.3545">:WarningCapacityController</text><rect fill="#FEFECE" filter="url(#f1rzpffdlyuzw8)" height="30.2969" style="stroke:#A80036;stroke-width:1.5;" width="64" x="1312" y="53"/><text fill="#000000" font-family="sans-serif" font-size="14" lengthAdjust="spacing" textLength="50" x="1319" y="72.9951">:US307</text><rect fill="#FEFECE" filter="url(#f1rzpffdlyuzw8)" height="30.2969" style="stroke:#A80036;stroke-width:1.5;" width="64" x="1312" y="353.3594"/><text fill="#000000" font-family="sans-serif" font-size="14" lengthAdjust="spacing" textLength="50" x="1319" y="373.3545">:US307</text><rect fill="#FEFECE" filter="url(#f1rzpffdlyuzw8)" height="30.2969" style="stroke:#A80036;stroke-width:1.5;" width="117" x="1506.5" y="53"/><text fill="#000000" font-family="sans-serif" font-size="14" lengthAdjust="spacing" textLength="103" x="1513.5" y="72.9951">:FileOperation</text><rect fill="#FEFECE" filter="url(#f1rzpffdlyuzw8)" height="30.2969" style="stroke:#A80036;stroke-width:1.5;" width="117" x="1506.5" y="353.3594"/><text fill="#000000" font-family="sans-serif" font-size="14" lengthAdjust="spacing" textLength="103" x="1513.5" y="373.3545">:FileOperation</text><rect fill="#FFFFFF" filter="url(#f1rzpffdlyuzw8)" height="238.0625" style="stroke:#A80036;stroke-width:1.0;" width="10" x="51" y="98.2969"/><rect fill="#FFFFFF" filter="url(#f1rzpffdlyuzw8)" height="216.9297" style="stroke:#A80036;stroke-width:1.0;" width="10" x="990" y="119.4297"/><rect fill="#FFFFFF" filter="url(#f1rzpffdlyuzw8)" height="187.7969" style="stroke:#A80036;stroke-width:1.0;" width="10" x="1188" y="148.5625"/><rect fill="#FFFFFF" filter="url(#f1rzpffdlyuzw8)" height="71.2656" style="stroke:#A80036;stroke-width:1.0;" width="10" x="1341" y="177.6953"/><rect fill="#FFFFFF" filter="url(#f1rzpffdlyuzw8)" height="29.1328" style="stroke:#A80036;stroke-width:1.0;" width="10" x="1562" y="248.9609"/><polygon fill="#A80036" points="978,115.4297,988,119.4297,978,123.4297,982,119.4297" style="stroke:#A80036;stroke-width:1.0;"/><line style="stroke:#A80036;stroke-width:1.0;" x1="61" x2="984" y1="119.4297" y2="119.4297"/><text fill="#000000" font-family="sans-serif" font-size="13" font-weight="bold" lengthAdjust="spacing" textLength="9" x="68" y="114.3638">1</text><text fill="#000000" font-family="sans-serif" font-size="13" lengthAdjust="spacing" textLength="897" x="81" y="114.3638">Port manager issues a cargo manifest destined for a warehouse whose available capacity is insufficient to accommodate the new manifest</text><polygon fill="#A80036" points="1176,144.5625,1186,148.5625,1176,152.5625,1180,148.5625" style="stroke:#A80036;stroke-width:1.0;"/><line style="stroke:#A80036;stroke-width:1.0;" x1="1000" x2="1182" y1="148.5625" y2="148.5625"/><text fill="#000000" font-family="sans-serif" font-size="13" font-weight="bold" lengthAdjust="spacing" textLength="9" x="1007" y="143.4966">2</text><text fill="#000000" font-family="sans-serif" font-size="13" lengthAdjust="spacing" textLength="82" x="1020" y="143.4966">createUS307</text><polygon fill="#A80036" points="1329,173.6953,1339,177.6953,1329,181.6953,1333,177.6953" style="stroke:#A80036;stroke-width:1.0;"/><line style="stroke:#A80036;stroke-width:1.0;" x1="1198" x2="1335" y1="177.6953" y2="177.6953"/><text fill="#000000" font-family="sans-serif" font-size="13" font-weight="bold" lengthAdjust="spacing" textLength="8" x="1205" y="172.6294">3</text><text fill="#000000" font-family="sans-serif" font-size="13" lengthAdjust="spacing" textLength="92" x="1217" y="172.6294">demo(INSERT)</text><line style="stroke:#A80036;stroke-width:1.0;" x1="1351" x2="1393" y1="206.8281" y2="206.8281"/><line style="stroke:#A80036;stroke-width:1.0;" x1="1393" x2="1393" y1="206.8281" y2="219.8281"/><line style="stroke:#A80036;stroke-width:1.0;" x1="1352" x2="1393" y1="219.8281" y2="219.8281"/><polygon fill="#A80036" points="1362,215.8281,1352,219.8281,1362,223.8281,1358,219.8281" style="stroke:#A80036;stroke-width:1.0;"/><text fill="#000000" font-family="sans-serif" font-size="13" font-weight="bold" lengthAdjust="spacing" textLength="9" x="1358" y="201.7622">4</text><text fill="#000000" font-family="sans-serif" font-size="13" lengthAdjust="spacing" textLength="51" x="1371" y="201.7622">initialize</text><polygon fill="#A80036" points="1550,244.9609,1560,248.9609,1550,252.9609,1554,248.9609" style="stroke:#A80036;stroke-width:1.0;"/><line style="stroke:#A80036;stroke-width:1.0;" x1="1346" x2="1556" y1="248.9609" y2="248.9609"/><text fill="#000000" font-family="sans-serif" font-size="13" font-weight="bold" lengthAdjust="spacing" textLength="9" x="1353" y="243.895">5</text><text fill="#000000" font-family="sans-serif" font-size="13" lengthAdjust="spacing" textLength="179" x="1366" y="243.895">WriteToAFile(e.getMessage)</text><polygon fill="#A80036" points="1209,274.0938,1199,278.0938,1209,282.0938,1205,278.0938" style="stroke:#A80036;stroke-width:1.0;"/><line style="stroke:#A80036;stroke-width:1.0;stroke-dasharray:2.0,2.0;" x1="1203" x2="1566" y1="278.0938" y2="278.0938"/><text fill="#000000" font-family="sans-serif" font-size="13" font-weight="bold" lengthAdjust="spacing" textLength="9" x="1215" y="273.0278">6</text><text fill="#000000" font-family="sans-serif" font-size="13" lengthAdjust="spacing" textLength="19" x="1228" y="273.0278">file</text><polygon fill="#A80036" points="1011,303.2266,1001,307.2266,1011,311.2266,1007,307.2266" style="stroke:#A80036;stroke-width:1.0;"/><line style="stroke:#A80036;stroke-width:1.0;stroke-dasharray:2.0,2.0;" x1="1005" x2="1187" y1="307.2266" y2="307.2266"/><text fill="#000000" font-family="sans-serif" font-size="13" font-weight="bold" lengthAdjust="spacing" textLength="9" x="1017" y="302.1606">7</text><text fill="#000000" font-family="sans-serif" font-size="13" lengthAdjust="spacing" textLength="19" x="1030" y="302.1606">file</text><polygon fill="#A80036" points="67,332.3594,57,336.3594,67,340.3594,63,336.3594" style="stroke:#A80036;stroke-width:1.0;"/><line style="stroke:#A80036;stroke-width:1.0;stroke-dasharray:2.0,2.0;" x1="61" x2="994" y1="336.3594" y2="336.3594"/><text fill="#000000" font-family="sans-serif" font-size="13" font-weight="bold" lengthAdjust="spacing" textLength="9" x="73" y="331.2935">8</text><text fill="#000000" font-family="sans-serif" font-size="13" lengthAdjust="spacing" textLength="168" x="86" y="331.2935">shows the requested data</text><!--MD5=[8e5220c183f414f2c8856bc22e0612fe]
@startuml
actor "Port Manager" as Adm
participant ":WarningCapacityUI" as System
participant ":WarningCapacityController" as SSC
participant ":US307" as us
participant ":FileOperation" as f

autonumber

activate Adm

Adm -> System: Port manager issues a cargo manifest destined for a warehouse whose available capacity is insufficient to accommodate the new manifest

activate System

System -> SSC: createUS307

activate SSC

SSC -> us: demo(INSERT)

activate us

us -> us: initialize

us -> f: WriteToAFile(e.getMessage)

deactivate us

activate f

f - -> SSC: file

deactivate f

SSC - -> System: file

System - -> Adm: shows the requested data

deactivate SSC

deactivate System

deactivate Adm
@enduml

PlantUML version 1.2021.17beta7(Unknown compile time)
(GPL source distribution)
Java Runtime: Java(TM) SE Runtime Environment
JVM: Java HotSpot(TM) 64-Bit Server VM
Default Encoding: UTF-8
Language: en
Country: US
--></g></svg>