<?xml version="1.0" encoding="UTF-8" standalone="no"?><svg xmlns="http://www.w3.org/2000/svg" xmlns:xlink="http://www.w3.org/1999/xlink" contentScriptType="application/ecmascript" contentStyleType="text/css" height="496px" preserveAspectRatio="none" style="width:1355px;height:496px;background:#FFFFFF;" version="1.1" viewBox="0 0 1355 496" width="1355px" zoomAndPan="magnify"><defs><filter height="300%" id="f1x3rejirh8zx" width="300%" x="-1" y="-1"><feGaussianBlur result="blurOut" stdDeviation="2.0"/><feColorMatrix in="blurOut" result="blurOut2" type="matrix" values="0 0 0 0 0 0 0 0 0 0 0 0 0 0 0 0 0 0 .4 0"/><feOffset dx="4.0" dy="4.0" in="blurOut2" result="blurOut3"/><feBlend in="SourceGraphic" in2="blurOut3" mode="normal"/></filter></defs><g><rect fill="#FFFFFF" filter="url(#f1x3rejirh8zx)" height="296.3281" style="stroke:#A80036;stroke-width:1.0;" width="10" x="54" y="98.2969"/><rect fill="#FFFFFF" filter="url(#f1x3rejirh8zx)" height="29.1328" style="stroke:#A80036;stroke-width:1.0;" width="10" x="691" y="119.4297"/><rect fill="#FFFFFF" filter="url(#f1x3rejirh8zx)" height="216.9297" style="stroke:#A80036;stroke-width:1.0;" width="10" x="691" y="177.6953"/><rect fill="#FFFFFF" filter="url(#f1x3rejirh8zx)" height="187.7969" style="stroke:#A80036;stroke-width:1.0;" width="10" x="904" y="206.8281"/><rect fill="#FFFFFF" filter="url(#f1x3rejirh8zx)" height="71.2656" style="stroke:#A80036;stroke-width:1.0;" width="10" x="1119" y="235.9609"/><rect fill="#FFFFFF" filter="url(#f1x3rejirh8zx)" height="29.1328" style="stroke:#A80036;stroke-width:1.0;" width="10" x="1280" y="307.2266"/><line style="stroke:#A80036;stroke-width:1.0;stroke-dasharray:5.0,5.0;" x1="59" x2="59" y1="88.2969" y2="412.625"/><line style="stroke:#A80036;stroke-width:1.0;stroke-dasharray:5.0,5.0;" x1="695.5" x2="695.5" y1="88.2969" y2="412.625"/><line style="stroke:#A80036;stroke-width:1.0;stroke-dasharray:5.0,5.0;" x1="908.5" x2="908.5" y1="88.2969" y2="412.625"/><line style="stroke:#A80036;stroke-width:1.0;stroke-dasharray:5.0,5.0;" x1="1123.5" x2="1123.5" y1="88.2969" y2="412.625"/><line style="stroke:#A80036;stroke-width:1.0;stroke-dasharray:5.0,5.0;" x1="1284.5" x2="1284.5" y1="88.2969" y2="412.625"/><text fill="#000000" font-family="sans-serif" font-size="14" lengthAdjust="spacing" textLength="102" x="5" y="84.9951">Fleet Manager</text><ellipse cx="59" cy="15" fill="#FEFECE" filter="url(#f1x3rejirh8zx)" rx="8" ry="8" style="stroke:#A80036;stroke-width:2.0;"/><path d="M59,23 L59,50 M46,31 L72,31 M59,50 L46,65 M59,50 L72,65 " fill="none" filter="url(#f1x3rejirh8zx)" style="stroke:#A80036;stroke-width:2.0;"/><text fill="#000000" font-family="sans-serif" font-size="14" lengthAdjust="spacing" textLength="102" x="5" y="424.6201">Fleet Manager</text><ellipse cx="59" cy="437.9219" fill="#FEFECE" filter="url(#f1x3rejirh8zx)" rx="8" ry="8" style="stroke:#A80036;stroke-width:2.0;"/><path d="M59,445.9219 L59,472.9219 M46,453.9219 L72,453.9219 M59,472.9219 L46,487.9219 M59,472.9219 L72,487.9219 " fill="none" filter="url(#f1x3rejirh8zx)" style="stroke:#A80036;stroke-width:2.0;"/><rect fill="#FEFECE" filter="url(#f1x3rejirh8zx)" height="30.2969" style="stroke:#A80036;stroke-width:1.5;" width="169" x="609.5" y="53"/><text fill="#000000" font-family="sans-serif" font-size="14" lengthAdjust="spacing" textLength="155" x="616.5" y="72.9951">:AverageOccupancyUI</text><rect fill="#FEFECE" filter="url(#f1x3rejirh8zx)" height="30.2969" style="stroke:#A80036;stroke-width:1.5;" width="169" x="609.5" y="411.625"/><text fill="#000000" font-family="sans-serif" font-size="14" lengthAdjust="spacing" textLength="155" x="616.5" y="431.6201">:AverageOccupancyUI</text><rect fill="#FEFECE" filter="url(#f1x3rejirh8zx)" height="30.2969" style="stroke:#A80036;stroke-width:1.5;" width="229" x="792.5" y="53"/><text fill="#000000" font-family="sans-serif" font-size="14" lengthAdjust="spacing" textLength="215" x="799.5" y="72.9951">:AverageOccupancyController</text><rect fill="#FEFECE" filter="url(#f1x3rejirh8zx)" height="30.2969" style="stroke:#A80036;stroke-width:1.5;" width="229" x="792.5" y="411.625"/><text fill="#000000" font-family="sans-serif" font-size="14" lengthAdjust="spacing" textLength="215" x="799.5" y="431.6201">:AverageOccupancyController</text><rect fill="#FEFECE" filter="url(#f1x3rejirh8zx)" height="30.2969" style="stroke:#A80036;stroke-width:1.5;" width="63" x="1090.5" y="53"/><text fill="#000000" font-family="sans-serif" font-size="14" lengthAdjust="spacing" textLength="49" x="1097.5" y="72.9951">:US405</text><rect fill="#FEFECE" filter="url(#f1x3rejirh8zx)" height="30.2969" style="stroke:#A80036;stroke-width:1.5;" width="63" x="1090.5" y="411.625"/><text fill="#000000" font-family="sans-serif" font-size="14" lengthAdjust="spacing" textLength="49" x="1097.5" y="431.6201">:US405</text><rect fill="#FEFECE" filter="url(#f1x3rejirh8zx)" height="30.2969" style="stroke:#A80036;stroke-width:1.5;" width="117" x="1224.5" y="53"/><text fill="#000000" font-family="sans-serif" font-size="14" lengthAdjust="spacing" textLength="103" x="1231.5" y="72.9951">:FileOperation</text><rect fill="#FEFECE" filter="url(#f1x3rejirh8zx)" height="30.2969" style="stroke:#A80036;stroke-width:1.5;" width="117" x="1224.5" y="411.625"/><text fill="#000000" font-family="sans-serif" font-size="14" lengthAdjust="spacing" textLength="103" x="1231.5" y="431.6201">:FileOperation</text><rect fill="#FFFFFF" filter="url(#f1x3rejirh8zx)" height="296.3281" style="stroke:#A80036;stroke-width:1.0;" width="10" x="54" y="98.2969"/><rect fill="#FFFFFF" filter="url(#f1x3rejirh8zx)" height="29.1328" style="stroke:#A80036;stroke-width:1.0;" width="10" x="691" y="119.4297"/><rect fill="#FFFFFF" filter="url(#f1x3rejirh8zx)" height="216.9297" style="stroke:#A80036;stroke-width:1.0;" width="10" x="691" y="177.6953"/><rect fill="#FFFFFF" filter="url(#f1x3rejirh8zx)" height="187.7969" style="stroke:#A80036;stroke-width:1.0;" width="10" x="904" y="206.8281"/><rect fill="#FFFFFF" filter="url(#f1x3rejirh8zx)" height="71.2656" style="stroke:#A80036;stroke-width:1.0;" width="10" x="1119" y="235.9609"/><rect fill="#FFFFFF" filter="url(#f1x3rejirh8zx)" height="29.1328" style="stroke:#A80036;stroke-width:1.0;" width="10" x="1280" y="307.2266"/><polygon fill="#A80036" points="679,115.4297,689,119.4297,679,123.4297,683,119.4297" style="stroke:#A80036;stroke-width:1.0;"/><line style="stroke:#A80036;stroke-width:1.0;" x1="64" x2="685" y1="119.4297" y2="119.4297"/><text fill="#000000" font-family="sans-serif" font-size="13" font-weight="bold" lengthAdjust="spacing" textLength="9" x="71" y="114.3638">1</text><text fill="#000000" font-family="sans-serif" font-size="13" lengthAdjust="spacing" textLength="595" x="84" y="114.3638">want to know the average occupancy rate per manifest of a given ship during a given period</text><polygon fill="#A80036" points="75,144.5625,65,148.5625,75,152.5625,71,148.5625" style="stroke:#A80036;stroke-width:1.0;"/><line style="stroke:#A80036;stroke-width:1.0;stroke-dasharray:2.0,2.0;" x1="69" x2="695" y1="148.5625" y2="148.5625"/><text fill="#000000" font-family="sans-serif" font-size="13" font-weight="bold" lengthAdjust="spacing" textLength="9" x="81" y="143.4966">2</text><text fill="#000000" font-family="sans-serif" font-size="13" lengthAdjust="spacing" textLength="276" x="94" y="143.4966">asks for the ship mmsi and the time period</text><polygon fill="#A80036" points="679,173.6953,689,177.6953,679,181.6953,683,177.6953" style="stroke:#A80036;stroke-width:1.0;"/><line style="stroke:#A80036;stroke-width:1.0;" x1="64" x2="685" y1="177.6953" y2="177.6953"/><text fill="#000000" font-family="sans-serif" font-size="13" font-weight="bold" lengthAdjust="spacing" textLength="8" x="71" y="172.6294">3</text><text fill="#000000" font-family="sans-serif" font-size="13" lengthAdjust="spacing" textLength="138" x="83" y="172.6294">types requested data</text><polygon fill="#A80036" points="892,202.8281,902,206.8281,892,210.8281,896,206.8281" style="stroke:#A80036;stroke-width:1.0;"/><line style="stroke:#A80036;stroke-width:1.0;" x1="701" x2="898" y1="206.8281" y2="206.8281"/><text fill="#000000" font-family="sans-serif" font-size="13" font-weight="bold" lengthAdjust="spacing" textLength="9" x="708" y="201.7622">4</text><text fill="#000000" font-family="sans-serif" font-size="13" lengthAdjust="spacing" textLength="82" x="721" y="201.7622">createUS405</text><polygon fill="#A80036" points="1107,231.9609,1117,235.9609,1107,239.9609,1111,235.9609" style="stroke:#A80036;stroke-width:1.0;"/><line style="stroke:#A80036;stroke-width:1.0;" x1="914" x2="1113" y1="235.9609" y2="235.9609"/><text fill="#000000" font-family="sans-serif" font-size="13" font-weight="bold" lengthAdjust="spacing" textLength="9" x="921" y="230.895">5</text><text fill="#000000" font-family="sans-serif" font-size="13" lengthAdjust="spacing" textLength="173" x="934" y="230.895">demo(mmsi, date1, date2)</text><line style="stroke:#A80036;stroke-width:1.0;" x1="1129" x2="1171" y1="265.0938" y2="265.0938"/><line style="stroke:#A80036;stroke-width:1.0;" x1="1171" x2="1171" y1="265.0938" y2="278.0938"/><line style="stroke:#A80036;stroke-width:1.0;" x1="1130" x2="1171" y1="278.0938" y2="278.0938"/><polygon fill="#A80036" points="1140,274.0938,1130,278.0938,1140,282.0938,1136,278.0938" style="stroke:#A80036;stroke-width:1.0;"/><text fill="#000000" font-family="sans-serif" font-size="13" font-weight="bold" lengthAdjust="spacing" textLength="9" x="1136" y="260.0278">6</text><text fill="#000000" font-family="sans-serif" font-size="13" lengthAdjust="spacing" textLength="51" x="1149" y="260.0278">initialize</text><polygon fill="#A80036" points="1268,303.2266,1278,307.2266,1268,311.2266,1272,307.2266" style="stroke:#A80036;stroke-width:1.0;"/><line style="stroke:#A80036;stroke-width:1.0;" x1="1124" x2="1274" y1="307.2266" y2="307.2266"/><text fill="#000000" font-family="sans-serif" font-size="13" font-weight="bold" lengthAdjust="spacing" textLength="9" x="1131" y="302.1606">7</text><text fill="#000000" font-family="sans-serif" font-size="13" lengthAdjust="spacing" textLength="119" x="1144" y="302.1606">WriteToAFile(data)</text><polygon fill="#A80036" points="925,332.3594,915,336.3594,925,340.3594,921,336.3594" style="stroke:#A80036;stroke-width:1.0;"/><line style="stroke:#A80036;stroke-width:1.0;stroke-dasharray:2.0,2.0;" x1="919" x2="1284" y1="336.3594" y2="336.3594"/><text fill="#000000" font-family="sans-serif" font-size="13" font-weight="bold" lengthAdjust="spacing" textLength="9" x="931" y="331.2935">8</text><text fill="#000000" font-family="sans-serif" font-size="13" lengthAdjust="spacing" textLength="19" x="944" y="331.2935">file</text><polygon fill="#A80036" points="712,361.4922,702,365.4922,712,369.4922,708,365.4922" style="stroke:#A80036;stroke-width:1.0;"/><line style="stroke:#A80036;stroke-width:1.0;stroke-dasharray:2.0,2.0;" x1="706" x2="903" y1="365.4922" y2="365.4922"/><text fill="#000000" font-family="sans-serif" font-size="13" font-weight="bold" lengthAdjust="spacing" textLength="9" x="718" y="360.4263">9</text><text fill="#000000" font-family="sans-serif" font-size="13" lengthAdjust="spacing" textLength="19" x="731" y="360.4263">file</text><polygon fill="#A80036" points="70,390.625,60,394.625,70,398.625,66,394.625" style="stroke:#A80036;stroke-width:1.0;"/><line style="stroke:#A80036;stroke-width:1.0;stroke-dasharray:2.0,2.0;" x1="64" x2="695" y1="394.625" y2="394.625"/><text fill="#000000" font-family="sans-serif" font-size="13" font-weight="bold" lengthAdjust="spacing" textLength="19" x="76" y="389.5591">10</text><text fill="#000000" font-family="sans-serif" font-size="13" lengthAdjust="spacing" textLength="168" x="99" y="389.5591">shows the requested data</text><!--MD5=[80ffc18dbd551ffbda243952a885bb9c]
@startuml
actor "Fleet Manager" as Adm
participant ":AverageOccupancyUI" as System
participant ":AverageOccupancyController" as SSC
participant ":US405" as us
participant ":FileOperation" as f

autonumber

activate Adm

Adm -> System: want to know the average occupancy rate per manifest of a given ship during a given period

activate System

System - -> Adm: asks for the ship mmsi and the time period

deactivate System

Adm -> System: types requested data

activate System

System -> SSC: createUS405

activate SSC

SSC -> us: demo(mmsi, date1, date2)

activate us

us -> us: initialize

us -> f: WriteToAFile(data)

deactivate us

activate f

f - -> SSC: file

deactivate f

SSC - -> System: file

System - -> Adm: shows the requested data

deactivate SSC

deactivate System

deactivate Adm
@enduml

PlantUML version 1.2021.17beta10(Unknown compile time)
(GPL source distribution)
Java Runtime: Java(TM) SE Runtime Environment
JVM: Java HotSpot(TM) 64-Bit Server VM
Default Encoding: UTF-8
Language: en
Country: US
--></g></svg>