<?xml version="1.0" encoding="UTF-8" standalone="no"?><svg xmlns="http://www.w3.org/2000/svg" xmlns:xlink="http://www.w3.org/1999/xlink" contentScriptType="application/ecmascript" contentStyleType="text/css" height="438px" preserveAspectRatio="none" style="width:1289px;height:438px;background:#FFFFFF;" version="1.1" viewBox="0 0 1289 438" width="1289px" zoomAndPan="magnify"><defs><filter height="300%" id="f10ikjly3kuikm" width="300%" x="-1" y="-1"><feGaussianBlur result="blurOut" stdDeviation="2.0"/><feColorMatrix in="blurOut" result="blurOut2" type="matrix" values="0 0 0 0 0 0 0 0 0 0 0 0 0 0 0 0 0 0 .4 0"/><feOffset dx="4.0" dy="4.0" in="blurOut2" result="blurOut3"/><feBlend in="SourceGraphic" in2="blurOut3" mode="normal"/></filter></defs><g><rect fill="#FFFFFF" filter="url(#f10ikjly3kuikm)" height="238.0625" style="stroke:#A80036;stroke-width:1.0;" width="10" x="49" y="98.2969"/><rect fill="#FFFFFF" filter="url(#f10ikjly3kuikm)" height="216.9297" style="stroke:#A80036;stroke-width:1.0;" width="10" x="560" y="119.4297"/><rect fill="#FFFFFF" filter="url(#f10ikjly3kuikm)" height="187.7969" style="stroke:#A80036;stroke-width:1.0;" width="10" x="828" y="148.5625"/><rect fill="#FFFFFF" filter="url(#f10ikjly3kuikm)" height="71.2656" style="stroke:#A80036;stroke-width:1.0;" width="10" x="1015.5" y="177.6953"/><rect fill="#FFFFFF" filter="url(#f10ikjly3kuikm)" height="29.1328" style="stroke:#A80036;stroke-width:1.0;" width="10" x="1213.5" y="248.9609"/><line style="stroke:#A80036;stroke-width:1.0;stroke-dasharray:5.0,5.0;" x1="54" x2="54" y1="88.2969" y2="354.3594"/><line style="stroke:#A80036;stroke-width:1.0;stroke-dasharray:5.0,5.0;" x1="565" x2="565" y1="88.2969" y2="354.3594"/><line style="stroke:#A80036;stroke-width:1.0;stroke-dasharray:5.0,5.0;" x1="833" x2="833" y1="88.2969" y2="354.3594"/><line style="stroke:#A80036;stroke-width:1.0;stroke-dasharray:5.0,5.0;" x1="1020" x2="1020" y1="88.2969" y2="354.3594"/><line style="stroke:#A80036;stroke-width:1.0;stroke-dasharray:5.0,5.0;" x1="1218" x2="1218" y1="88.2969" y2="354.3594"/><text fill="#000000" font-family="sans-serif" font-size="14" lengthAdjust="spacing" textLength="92" x="5" y="84.9951">Ship Captain</text><ellipse cx="54" cy="15" fill="#FEFECE" filter="url(#f10ikjly3kuikm)" rx="8" ry="8" style="stroke:#A80036;stroke-width:2.0;"/><path d="M54,23 L54,50 M41,31 L67,31 M54,50 L41,65 M54,50 L67,65 " fill="none" filter="url(#f10ikjly3kuikm)" style="stroke:#A80036;stroke-width:2.0;"/><text fill="#000000" font-family="sans-serif" font-size="14" lengthAdjust="spacing" textLength="92" x="5" y="366.3545">Ship Captain</text><ellipse cx="54" cy="379.6563" fill="#FEFECE" filter="url(#f10ikjly3kuikm)" rx="8" ry="8" style="stroke:#A80036;stroke-width:2.0;"/><path d="M54,387.6563 L54,414.6563 M41,395.6563 L67,395.6563 M54,414.6563 L41,429.6563 M54,414.6563 L67,429.6563 " fill="none" filter="url(#f10ikjly3kuikm)" style="stroke:#A80036;stroke-width:2.0;"/><rect fill="#FEFECE" filter="url(#f10ikjly3kuikm)" height="30.2969" style="stroke:#A80036;stroke-width:1.5;" width="224" x="451" y="53"/><text fill="#000000" font-family="sans-serif" font-size="14" lengthAdjust="spacing" textLength="210" x="458" y="72.9951">:ListOfContainersOffloadedUI</text><rect fill="#FEFECE" filter="url(#f10ikjly3kuikm)" height="30.2969" style="stroke:#A80036;stroke-width:1.5;" width="224" x="451" y="353.3594"/><text fill="#000000" font-family="sans-serif" font-size="14" lengthAdjust="spacing" textLength="210" x="458" y="373.3545">:ListOfContainersOffloadedUI</text><rect fill="#FEFECE" filter="url(#f10ikjly3kuikm)" height="30.2969" style="stroke:#A80036;stroke-width:1.5;" width="284" x="689" y="53"/><text fill="#000000" font-family="sans-serif" font-size="14" lengthAdjust="spacing" textLength="270" x="696" y="72.9951">:ListOfContainersOffloadedController</text><rect fill="#FEFECE" filter="url(#f10ikjly3kuikm)" height="30.2969" style="stroke:#A80036;stroke-width:1.5;" width="284" x="689" y="353.3594"/><text fill="#000000" font-family="sans-serif" font-size="14" lengthAdjust="spacing" textLength="270" x="696" y="373.3545">:ListOfContainersOffloadedController</text><rect fill="#FEFECE" filter="url(#f10ikjly3kuikm)" height="30.2969" style="stroke:#A80036;stroke-width:1.5;" width="63" x="987" y="53"/><text fill="#000000" font-family="sans-serif" font-size="14" lengthAdjust="spacing" textLength="49" x="994" y="72.9951">:US205</text><rect fill="#FEFECE" filter="url(#f10ikjly3kuikm)" height="30.2969" style="stroke:#A80036;stroke-width:1.5;" width="63" x="987" y="353.3594"/><text fill="#000000" font-family="sans-serif" font-size="14" lengthAdjust="spacing" textLength="49" x="994" y="373.3545">:US205</text><rect fill="#FEFECE" filter="url(#f10ikjly3kuikm)" height="30.2969" style="stroke:#A80036;stroke-width:1.5;" width="117" x="1158" y="53"/><text fill="#000000" font-family="sans-serif" font-size="14" lengthAdjust="spacing" textLength="103" x="1165" y="72.9951">:FileOperation</text><rect fill="#FEFECE" filter="url(#f10ikjly3kuikm)" height="30.2969" style="stroke:#A80036;stroke-width:1.5;" width="117" x="1158" y="353.3594"/><text fill="#000000" font-family="sans-serif" font-size="14" lengthAdjust="spacing" textLength="103" x="1165" y="373.3545">:FileOperation</text><rect fill="#FFFFFF" filter="url(#f10ikjly3kuikm)" height="238.0625" style="stroke:#A80036;stroke-width:1.0;" width="10" x="49" y="98.2969"/><rect fill="#FFFFFF" filter="url(#f10ikjly3kuikm)" height="216.9297" style="stroke:#A80036;stroke-width:1.0;" width="10" x="560" y="119.4297"/><rect fill="#FFFFFF" filter="url(#f10ikjly3kuikm)" height="187.7969" style="stroke:#A80036;stroke-width:1.0;" width="10" x="828" y="148.5625"/><rect fill="#FFFFFF" filter="url(#f10ikjly3kuikm)" height="71.2656" style="stroke:#A80036;stroke-width:1.0;" width="10" x="1015.5" y="177.6953"/><rect fill="#FFFFFF" filter="url(#f10ikjly3kuikm)" height="29.1328" style="stroke:#A80036;stroke-width:1.0;" width="10" x="1213.5" y="248.9609"/><polygon fill="#A80036" points="548,115.4297,558,119.4297,548,123.4297,552,119.4297" style="stroke:#A80036;stroke-width:1.0;"/><line style="stroke:#A80036;stroke-width:1.0;" x1="59" x2="554" y1="119.4297" y2="119.4297"/><text fill="#000000" font-family="sans-serif" font-size="13" font-weight="bold" lengthAdjust="spacing" textLength="9" x="66" y="114.3638">1</text><text fill="#000000" font-family="sans-serif" font-size="13" lengthAdjust="spacing" textLength="469" x="79" y="114.3638">request to know the the list of containers to be offloaded in the next port</text><polygon fill="#A80036" points="816,144.5625,826,148.5625,816,152.5625,820,148.5625" style="stroke:#A80036;stroke-width:1.0;"/><line style="stroke:#A80036;stroke-width:1.0;" x1="570" x2="822" y1="148.5625" y2="148.5625"/><text fill="#000000" font-family="sans-serif" font-size="13" font-weight="bold" lengthAdjust="spacing" textLength="9" x="577" y="143.4966">2</text><text fill="#000000" font-family="sans-serif" font-size="13" lengthAdjust="spacing" textLength="82" x="590" y="143.4966">createUS205</text><polygon fill="#A80036" points="1003.5,173.6953,1013.5,177.6953,1003.5,181.6953,1007.5,177.6953" style="stroke:#A80036;stroke-width:1.0;"/><line style="stroke:#A80036;stroke-width:1.0;" x1="838" x2="1009.5" y1="177.6953" y2="177.6953"/><text fill="#000000" font-family="sans-serif" font-size="13" font-weight="bold" lengthAdjust="spacing" textLength="8" x="845" y="172.6294">3</text><text fill="#000000" font-family="sans-serif" font-size="13" lengthAdjust="spacing" textLength="58" x="857" y="172.6294">demo(id)</text><line style="stroke:#A80036;stroke-width:1.0;" x1="1025.5" x2="1067.5" y1="206.8281" y2="206.8281"/><line style="stroke:#A80036;stroke-width:1.0;" x1="1067.5" x2="1067.5" y1="206.8281" y2="219.8281"/><line style="stroke:#A80036;stroke-width:1.0;" x1="1026.5" x2="1067.5" y1="219.8281" y2="219.8281"/><polygon fill="#A80036" points="1036.5,215.8281,1026.5,219.8281,1036.5,223.8281,1032.5,219.8281" style="stroke:#A80036;stroke-width:1.0;"/><text fill="#000000" font-family="sans-serif" font-size="13" font-weight="bold" lengthAdjust="spacing" textLength="9" x="1032.5" y="201.7622">4</text><text fill="#000000" font-family="sans-serif" font-size="13" lengthAdjust="spacing" textLength="51" x="1045.5" y="201.7622">initialize</text><polygon fill="#A80036" points="1201.5,244.9609,1211.5,248.9609,1201.5,252.9609,1205.5,248.9609" style="stroke:#A80036;stroke-width:1.0;"/><line style="stroke:#A80036;stroke-width:1.0;" x1="1020.5" x2="1207.5" y1="248.9609" y2="248.9609"/><text fill="#000000" font-family="sans-serif" font-size="13" font-weight="bold" lengthAdjust="spacing" textLength="9" x="1027.5" y="243.895">5</text><text fill="#000000" font-family="sans-serif" font-size="13" lengthAdjust="spacing" textLength="156" x="1040.5" y="243.895">WriteToAFile(path, data)</text><polygon fill="#A80036" points="849,274.0938,839,278.0938,849,282.0938,845,278.0938" style="stroke:#A80036;stroke-width:1.0;"/><line style="stroke:#A80036;stroke-width:1.0;stroke-dasharray:2.0,2.0;" x1="843" x2="1217.5" y1="278.0938" y2="278.0938"/><text fill="#000000" font-family="sans-serif" font-size="13" font-weight="bold" lengthAdjust="spacing" textLength="9" x="855" y="273.0278">6</text><text fill="#000000" font-family="sans-serif" font-size="13" lengthAdjust="spacing" textLength="19" x="868" y="273.0278">file</text><polygon fill="#A80036" points="581,303.2266,571,307.2266,581,311.2266,577,307.2266" style="stroke:#A80036;stroke-width:1.0;"/><line style="stroke:#A80036;stroke-width:1.0;stroke-dasharray:2.0,2.0;" x1="575" x2="827" y1="307.2266" y2="307.2266"/><text fill="#000000" font-family="sans-serif" font-size="13" font-weight="bold" lengthAdjust="spacing" textLength="9" x="587" y="302.1606">7</text><text fill="#000000" font-family="sans-serif" font-size="13" lengthAdjust="spacing" textLength="19" x="600" y="302.1606">file</text><polygon fill="#A80036" points="65,332.3594,55,336.3594,65,340.3594,61,336.3594" style="stroke:#A80036;stroke-width:1.0;"/><line style="stroke:#A80036;stroke-width:1.0;stroke-dasharray:2.0,2.0;" x1="59" x2="564" y1="336.3594" y2="336.3594"/><text fill="#000000" font-family="sans-serif" font-size="13" font-weight="bold" lengthAdjust="spacing" textLength="9" x="71" y="331.2935">8</text><text fill="#000000" font-family="sans-serif" font-size="13" lengthAdjust="spacing" textLength="183" x="84" y="331.2935">shows the containers details</text><!--MD5=[d9f2245a767c6713344b43785177bda5]
@startuml
actor "Ship Captain" as Adm
participant ":ListOfContainersOffloadedUI" as System
participant ":ListOfContainersOffloadedController" as SSC
participant ":US205" as us
participant ":FileOperation" as f

autonumber

activate Adm

Adm -> System: request to know the the list of containers to be offloaded in the next port

activate System

System -> SSC: createUS205

activate SSC

SSC -> us: demo(id)

activate us

us -> us: initialize

us -> f: WriteToAFile(path, data)

deactivate us

activate f

f - -> SSC: file

deactivate f

SSC - -> System: file

System - -> Adm: shows the containers details

deactivate SSC

deactivate System

deactivate Adm
@enduml

PlantUML version 1.2021.16beta1(Unknown compile time)
(GPL source distribution)
Java Runtime: Java(TM) SE Runtime Environment
JVM: Java HotSpot(TM) 64-Bit Server VM
Default Encoding: UTF-8
Language: en
Country: US
--></g></svg>