<?xml version="1.0" encoding="UTF-8" standalone="no"?><svg xmlns="http://www.w3.org/2000/svg" xmlns:xlink="http://www.w3.org/1999/xlink" contentScriptType="application/ecmascript" contentStyleType="text/css" height="438px" preserveAspectRatio="none" style="width:1211px;height:438px;background:#FFFFFF;" version="1.1" viewBox="0 0 1211 438" width="1211px" zoomAndPan="magnify"><defs><filter height="300%" id="f1u66wt4e3ko80" width="300%" x="-1" y="-1"><feGaussianBlur result="blurOut" stdDeviation="2.0"/><feColorMatrix in="blurOut" result="blurOut2" type="matrix" values="0 0 0 0 0 0 0 0 0 0 0 0 0 0 0 0 0 0 .4 0"/><feOffset dx="4.0" dy="4.0" in="blurOut2" result="blurOut3"/><feBlend in="SourceGraphic" in2="blurOut3" mode="normal"/></filter></defs><g><rect fill="#FFFFFF" filter="url(#f1u66wt4e3ko80)" height="238.0625" style="stroke:#A80036;stroke-width:1.0;" width="10" x="54" y="98.2969"/><rect fill="#FFFFFF" filter="url(#f1u66wt4e3ko80)" height="216.9297" style="stroke:#A80036;stroke-width:1.0;" width="10" x="721" y="119.4297"/><rect fill="#FFFFFF" filter="url(#f1u66wt4e3ko80)" height="187.7969" style="stroke:#A80036;stroke-width:1.0;" width="10" x="855" y="148.5625"/><rect fill="#FFFFFF" filter="url(#f1u66wt4e3ko80)" height="71.2656" style="stroke:#A80036;stroke-width:1.0;" width="10" x="975" y="177.6953"/><rect fill="#FFFFFF" filter="url(#f1u66wt4e3ko80)" height="29.1328" style="stroke:#A80036;stroke-width:1.0;" width="10" x="1136" y="248.9609"/><line style="stroke:#A80036;stroke-width:1.0;stroke-dasharray:5.0,5.0;" x1="59" x2="59" y1="88.2969" y2="354.3594"/><line style="stroke:#A80036;stroke-width:1.0;stroke-dasharray:5.0,5.0;" x1="726" x2="726" y1="88.2969" y2="354.3594"/><line style="stroke:#A80036;stroke-width:1.0;stroke-dasharray:5.0,5.0;" x1="860" x2="860" y1="88.2969" y2="354.3594"/><line style="stroke:#A80036;stroke-width:1.0;stroke-dasharray:5.0,5.0;" x1="980" x2="980" y1="88.2969" y2="354.3594"/><line style="stroke:#A80036;stroke-width:1.0;stroke-dasharray:5.0,5.0;" x1="1140.5" x2="1140.5" y1="88.2969" y2="354.3594"/><text fill="#000000" font-family="sans-serif" font-size="14" lengthAdjust="spacing" textLength="102" x="5" y="84.9951">Fleet Manager</text><ellipse cx="59" cy="15" fill="#FEFECE" filter="url(#f1u66wt4e3ko80)" rx="8" ry="8" style="stroke:#A80036;stroke-width:2.0;"/><path d="M59,23 L59,50 M46,31 L72,31 M59,50 L46,65 M59,50 L72,65 " fill="none" filter="url(#f1u66wt4e3ko80)" style="stroke:#A80036;stroke-width:2.0;"/><text fill="#000000" font-family="sans-serif" font-size="14" lengthAdjust="spacing" textLength="102" x="5" y="366.3545">Fleet Manager</text><ellipse cx="59" cy="379.6563" fill="#FEFECE" filter="url(#f1u66wt4e3ko80)" rx="8" ry="8" style="stroke:#A80036;stroke-width:2.0;"/><path d="M59,387.6563 L59,414.6563 M46,395.6563 L72,395.6563 M59,414.6563 L46,429.6563 M59,414.6563 L72,429.6563 " fill="none" filter="url(#f1u66wt4e3ko80)" style="stroke:#A80036;stroke-width:2.0;"/><rect fill="#FEFECE" filter="url(#f1u66wt4e3ko80)" height="30.2969" style="stroke:#A80036;stroke-width:1.5;" width="90" x="679" y="53"/><text fill="#000000" font-family="sans-serif" font-size="14" lengthAdjust="spacing" textLength="76" x="686" y="72.9951">:IdleShipUI</text><rect fill="#FEFECE" filter="url(#f1u66wt4e3ko80)" height="30.2969" style="stroke:#A80036;stroke-width:1.5;" width="90" x="679" y="353.3594"/><text fill="#000000" font-family="sans-serif" font-size="14" lengthAdjust="spacing" textLength="76" x="686" y="373.3545">:IdleShipUI</text><rect fill="#FEFECE" filter="url(#f1u66wt4e3ko80)" height="30.2969" style="stroke:#A80036;stroke-width:1.5;" width="150" x="783" y="53"/><text fill="#000000" font-family="sans-serif" font-size="14" lengthAdjust="spacing" textLength="136" x="790" y="72.9951">:IdleShipController</text><rect fill="#FEFECE" filter="url(#f1u66wt4e3ko80)" height="30.2969" style="stroke:#A80036;stroke-width:1.5;" width="150" x="783" y="353.3594"/><text fill="#000000" font-family="sans-serif" font-size="14" lengthAdjust="spacing" textLength="136" x="790" y="373.3545">:IdleShipController</text><rect fill="#FEFECE" filter="url(#f1u66wt4e3ko80)" height="30.2969" style="stroke:#A80036;stroke-width:1.5;" width="62" x="947" y="53"/><text fill="#000000" font-family="sans-serif" font-size="14" lengthAdjust="spacing" textLength="48" x="954" y="72.9951">:US404</text><rect fill="#FEFECE" filter="url(#f1u66wt4e3ko80)" height="30.2969" style="stroke:#A80036;stroke-width:1.5;" width="62" x="947" y="353.3594"/><text fill="#000000" font-family="sans-serif" font-size="14" lengthAdjust="spacing" textLength="48" x="954" y="373.3545">:US404</text><rect fill="#FEFECE" filter="url(#f1u66wt4e3ko80)" height="30.2969" style="stroke:#A80036;stroke-width:1.5;" width="117" x="1080.5" y="53"/><text fill="#000000" font-family="sans-serif" font-size="14" lengthAdjust="spacing" textLength="103" x="1087.5" y="72.9951">:FileOperation</text><rect fill="#FEFECE" filter="url(#f1u66wt4e3ko80)" height="30.2969" style="stroke:#A80036;stroke-width:1.5;" width="117" x="1080.5" y="353.3594"/><text fill="#000000" font-family="sans-serif" font-size="14" lengthAdjust="spacing" textLength="103" x="1087.5" y="373.3545">:FileOperation</text><rect fill="#FFFFFF" filter="url(#f1u66wt4e3ko80)" height="238.0625" style="stroke:#A80036;stroke-width:1.0;" width="10" x="54" y="98.2969"/><rect fill="#FFFFFF" filter="url(#f1u66wt4e3ko80)" height="216.9297" style="stroke:#A80036;stroke-width:1.0;" width="10" x="721" y="119.4297"/><rect fill="#FFFFFF" filter="url(#f1u66wt4e3ko80)" height="187.7969" style="stroke:#A80036;stroke-width:1.0;" width="10" x="855" y="148.5625"/><rect fill="#FFFFFF" filter="url(#f1u66wt4e3ko80)" height="71.2656" style="stroke:#A80036;stroke-width:1.0;" width="10" x="975" y="177.6953"/><rect fill="#FFFFFF" filter="url(#f1u66wt4e3ko80)" height="29.1328" style="stroke:#A80036;stroke-width:1.0;" width="10" x="1136" y="248.9609"/><polygon fill="#A80036" points="709,115.4297,719,119.4297,709,123.4297,713,119.4297" style="stroke:#A80036;stroke-width:1.0;"/><line style="stroke:#A80036;stroke-width:1.0;" x1="64" x2="715" y1="119.4297" y2="119.4297"/><text fill="#000000" font-family="sans-serif" font-size="13" font-weight="bold" lengthAdjust="spacing" textLength="9" x="71" y="114.3638">1</text><text fill="#000000" font-family="sans-serif" font-size="13" lengthAdjust="spacing" textLength="625" x="84" y="114.3638">want to know the number of days each ship has been idle since the beginning of the current year</text><polygon fill="#A80036" points="843,144.5625,853,148.5625,843,152.5625,847,148.5625" style="stroke:#A80036;stroke-width:1.0;"/><line style="stroke:#A80036;stroke-width:1.0;" x1="731" x2="849" y1="148.5625" y2="148.5625"/><text fill="#000000" font-family="sans-serif" font-size="13" font-weight="bold" lengthAdjust="spacing" textLength="9" x="738" y="143.4966">2</text><text fill="#000000" font-family="sans-serif" font-size="13" lengthAdjust="spacing" textLength="82" x="751" y="143.4966">createUS404</text><polygon fill="#A80036" points="963,173.6953,973,177.6953,963,181.6953,967,177.6953" style="stroke:#A80036;stroke-width:1.0;"/><line style="stroke:#A80036;stroke-width:1.0;" x1="865" x2="969" y1="177.6953" y2="177.6953"/><text fill="#000000" font-family="sans-serif" font-size="13" font-weight="bold" lengthAdjust="spacing" textLength="8" x="872" y="172.6294">3</text><text fill="#000000" font-family="sans-serif" font-size="13" lengthAdjust="spacing" textLength="47" x="884" y="172.6294">demo()</text><line style="stroke:#A80036;stroke-width:1.0;" x1="985" x2="1027" y1="206.8281" y2="206.8281"/><line style="stroke:#A80036;stroke-width:1.0;" x1="1027" x2="1027" y1="206.8281" y2="219.8281"/><line style="stroke:#A80036;stroke-width:1.0;" x1="986" x2="1027" y1="219.8281" y2="219.8281"/><polygon fill="#A80036" points="996,215.8281,986,219.8281,996,223.8281,992,219.8281" style="stroke:#A80036;stroke-width:1.0;"/><text fill="#000000" font-family="sans-serif" font-size="13" font-weight="bold" lengthAdjust="spacing" textLength="9" x="992" y="201.7622">4</text><text fill="#000000" font-family="sans-serif" font-size="13" lengthAdjust="spacing" textLength="51" x="1005" y="201.7622">initialize</text><polygon fill="#A80036" points="1124,244.9609,1134,248.9609,1124,252.9609,1128,248.9609" style="stroke:#A80036;stroke-width:1.0;"/><line style="stroke:#A80036;stroke-width:1.0;" x1="980" x2="1130" y1="248.9609" y2="248.9609"/><text fill="#000000" font-family="sans-serif" font-size="13" font-weight="bold" lengthAdjust="spacing" textLength="9" x="987" y="243.895">5</text><text fill="#000000" font-family="sans-serif" font-size="13" lengthAdjust="spacing" textLength="119" x="1000" y="243.895">WriteToAFile(data)</text><polygon fill="#A80036" points="876,274.0938,866,278.0938,876,282.0938,872,278.0938" style="stroke:#A80036;stroke-width:1.0;"/><line style="stroke:#A80036;stroke-width:1.0;stroke-dasharray:2.0,2.0;" x1="870" x2="1140" y1="278.0938" y2="278.0938"/><text fill="#000000" font-family="sans-serif" font-size="13" font-weight="bold" lengthAdjust="spacing" textLength="9" x="882" y="273.0278">6</text><text fill="#000000" font-family="sans-serif" font-size="13" lengthAdjust="spacing" textLength="19" x="895" y="273.0278">file</text><polygon fill="#A80036" points="742,303.2266,732,307.2266,742,311.2266,738,307.2266" style="stroke:#A80036;stroke-width:1.0;"/><line style="stroke:#A80036;stroke-width:1.0;stroke-dasharray:2.0,2.0;" x1="736" x2="854" y1="307.2266" y2="307.2266"/><text fill="#000000" font-family="sans-serif" font-size="13" font-weight="bold" lengthAdjust="spacing" textLength="9" x="748" y="302.1606">7</text><text fill="#000000" font-family="sans-serif" font-size="13" lengthAdjust="spacing" textLength="19" x="761" y="302.1606">file</text><polygon fill="#A80036" points="70,332.3594,60,336.3594,70,340.3594,66,336.3594" style="stroke:#A80036;stroke-width:1.0;"/><line style="stroke:#A80036;stroke-width:1.0;stroke-dasharray:2.0,2.0;" x1="64" x2="725" y1="336.3594" y2="336.3594"/><text fill="#000000" font-family="sans-serif" font-size="13" font-weight="bold" lengthAdjust="spacing" textLength="9" x="76" y="331.2935">8</text><text fill="#000000" font-family="sans-serif" font-size="13" lengthAdjust="spacing" textLength="168" x="89" y="331.2935">shows the requested data</text><!--MD5=[455096c10ef0682c3d1047e030b16241]
@startuml
actor "Fleet Manager" as Adm
participant ":IdleShipUI" as System
participant ":IdleShipController" as SSC
participant ":US404" as us
participant ":FileOperation" as f

autonumber

activate Adm

Adm -> System: want to know the number of days each ship has been idle since the beginning of the current year

activate System

System -> SSC: createUS404

activate SSC

SSC -> us: demo()

activate us

us -> us: initialize

us -> f: WriteToAFile(data)

deactivate us

activate f

f - -> SSC: file

deactivate f

SSC - -> System: file

System - -> Adm: shows the requested data

deactivate SSC

deactivate System

deactivate Adm
@enduml

PlantUML version 1.2021.17beta9(Unknown compile time)
(GPL source distribution)
Java Runtime: Java(TM) SE Runtime Environment
JVM: Java HotSpot(TM) 64-Bit Server VM
Default Encoding: UTF-8
Language: en
Country: US
--></g></svg>