<?xml version="1.0" encoding="UTF-8" standalone="no"?><svg xmlns="http://www.w3.org/2000/svg" xmlns:xlink="http://www.w3.org/1999/xlink" contentScriptType="application/ecmascript" contentStyleType="text/css" height="496px" preserveAspectRatio="none" style="width:1124px;height:496px;background:#FFFFFF;" version="1.1" viewBox="0 0 1124 496" width="1124px" zoomAndPan="magnify"><defs><filter height="300%" id="f1o0ib4bjv3kkg" width="300%" x="-1" y="-1"><feGaussianBlur result="blurOut" stdDeviation="2.0"/><feColorMatrix in="blurOut" result="blurOut2" type="matrix" values="0 0 0 0 0 0 0 0 0 0 0 0 0 0 0 0 0 0 .4 0"/><feOffset dx="4.0" dy="4.0" in="blurOut2" result="blurOut3"/><feBlend in="SourceGraphic" in2="blurOut3" mode="normal"/></filter></defs><g><rect fill="#FFFFFF" filter="url(#f1o0ib4bjv3kkg)" height="296.3281" style="stroke:#A80036;stroke-width:1.0;" width="10" x="24.5" y="98.2969"/><rect fill="#FFFFFF" filter="url(#f1o0ib4bjv3kkg)" height="29.1328" style="stroke:#A80036;stroke-width:1.0;" width="10" x="439.5" y="119.4297"/><rect fill="#FFFFFF" filter="url(#f1o0ib4bjv3kkg)" height="216.9297" style="stroke:#A80036;stroke-width:1.0;" width="10" x="439.5" y="177.6953"/><rect fill="#FFFFFF" filter="url(#f1o0ib4bjv3kkg)" height="187.7969" style="stroke:#A80036;stroke-width:1.0;" width="10" x="629.5" y="206.8281"/><rect fill="#FFFFFF" filter="url(#f1o0ib4bjv3kkg)" height="71.2656" style="stroke:#A80036;stroke-width:1.0;" width="10" x="850.5" y="235.9609"/><rect fill="#FFFFFF" filter="url(#f1o0ib4bjv3kkg)" height="29.1328" style="stroke:#A80036;stroke-width:1.0;" width="10" x="1048.5" y="307.2266"/><line style="stroke:#A80036;stroke-width:1.0;stroke-dasharray:5.0,5.0;" x1="29" x2="29" y1="88.2969" y2="412.625"/><line style="stroke:#A80036;stroke-width:1.0;stroke-dasharray:5.0,5.0;" x1="444.5" x2="444.5" y1="88.2969" y2="412.625"/><line style="stroke:#A80036;stroke-width:1.0;stroke-dasharray:5.0,5.0;" x1="634.5" x2="634.5" y1="88.2969" y2="412.625"/><line style="stroke:#A80036;stroke-width:1.0;stroke-dasharray:5.0,5.0;" x1="855.5" x2="855.5" y1="88.2969" y2="412.625"/><line style="stroke:#A80036;stroke-width:1.0;stroke-dasharray:5.0,5.0;" x1="1053" x2="1053" y1="88.2969" y2="412.625"/><text fill="#000000" font-family="sans-serif" font-size="14" lengthAdjust="spacing" textLength="43" x="5" y="84.9951">Client</text><ellipse cx="29.5" cy="15" fill="#FEFECE" filter="url(#f1o0ib4bjv3kkg)" rx="8" ry="8" style="stroke:#A80036;stroke-width:2.0;"/><path d="M29.5,23 L29.5,50 M16.5,31 L42.5,31 M29.5,50 L16.5,65 M29.5,50 L42.5,65 " fill="none" filter="url(#f1o0ib4bjv3kkg)" style="stroke:#A80036;stroke-width:2.0;"/><text fill="#000000" font-family="sans-serif" font-size="14" lengthAdjust="spacing" textLength="43" x="5" y="424.6201">Client</text><ellipse cx="29.5" cy="437.9219" fill="#FEFECE" filter="url(#f1o0ib4bjv3kkg)" rx="8" ry="8" style="stroke:#A80036;stroke-width:2.0;"/><path d="M29.5,445.9219 L29.5,472.9219 M16.5,453.9219 L42.5,453.9219 M29.5,472.9219 L16.5,487.9219 M29.5,472.9219 L42.5,487.9219 " fill="none" filter="url(#f1o0ib4bjv3kkg)" style="stroke:#A80036;stroke-width:2.0;"/><rect fill="#FEFECE" filter="url(#f1o0ib4bjv3kkg)" height="30.2969" style="stroke:#A80036;stroke-width:1.5;" width="146" x="369.5" y="53"/><text fill="#000000" font-family="sans-serif" font-size="14" lengthAdjust="spacing" textLength="132" x="376.5" y="72.9951">:RouteContainerUI</text><rect fill="#FEFECE" filter="url(#f1o0ib4bjv3kkg)" height="30.2969" style="stroke:#A80036;stroke-width:1.5;" width="146" x="369.5" y="411.625"/><text fill="#000000" font-family="sans-serif" font-size="14" lengthAdjust="spacing" textLength="132" x="376.5" y="431.6201">:RouteContainerUI</text><rect fill="#FEFECE" filter="url(#f1o0ib4bjv3kkg)" height="30.2969" style="stroke:#A80036;stroke-width:1.5;" width="206" x="529.5" y="53"/><text fill="#000000" font-family="sans-serif" font-size="14" lengthAdjust="spacing" textLength="192" x="536.5" y="72.9951">:RouteContainerController</text><rect fill="#FEFECE" filter="url(#f1o0ib4bjv3kkg)" height="30.2969" style="stroke:#A80036;stroke-width:1.5;" width="206" x="529.5" y="411.625"/><text fill="#000000" font-family="sans-serif" font-size="14" lengthAdjust="spacing" textLength="192" x="536.5" y="431.6201">:RouteContainerController</text><rect fill="#FEFECE" filter="url(#f1o0ib4bjv3kkg)" height="30.2969" style="stroke:#A80036;stroke-width:1.5;" width="64" x="821.5" y="53"/><text fill="#000000" font-family="sans-serif" font-size="14" lengthAdjust="spacing" textLength="50" x="828.5" y="72.9951">:US305</text><rect fill="#FEFECE" filter="url(#f1o0ib4bjv3kkg)" height="30.2969" style="stroke:#A80036;stroke-width:1.5;" width="64" x="821.5" y="411.625"/><text fill="#000000" font-family="sans-serif" font-size="14" lengthAdjust="spacing" textLength="50" x="828.5" y="431.6201">:US305</text><rect fill="#FEFECE" filter="url(#f1o0ib4bjv3kkg)" height="30.2969" style="stroke:#A80036;stroke-width:1.5;" width="117" x="993" y="53"/><text fill="#000000" font-family="sans-serif" font-size="14" lengthAdjust="spacing" textLength="103" x="1000" y="72.9951">:FileOperation</text><rect fill="#FEFECE" filter="url(#f1o0ib4bjv3kkg)" height="30.2969" style="stroke:#A80036;stroke-width:1.5;" width="117" x="993" y="411.625"/><text fill="#000000" font-family="sans-serif" font-size="14" lengthAdjust="spacing" textLength="103" x="1000" y="431.6201">:FileOperation</text><rect fill="#FFFFFF" filter="url(#f1o0ib4bjv3kkg)" height="296.3281" style="stroke:#A80036;stroke-width:1.0;" width="10" x="24.5" y="98.2969"/><rect fill="#FFFFFF" filter="url(#f1o0ib4bjv3kkg)" height="29.1328" style="stroke:#A80036;stroke-width:1.0;" width="10" x="439.5" y="119.4297"/><rect fill="#FFFFFF" filter="url(#f1o0ib4bjv3kkg)" height="216.9297" style="stroke:#A80036;stroke-width:1.0;" width="10" x="439.5" y="177.6953"/><rect fill="#FFFFFF" filter="url(#f1o0ib4bjv3kkg)" height="187.7969" style="stroke:#A80036;stroke-width:1.0;" width="10" x="629.5" y="206.8281"/><rect fill="#FFFFFF" filter="url(#f1o0ib4bjv3kkg)" height="71.2656" style="stroke:#A80036;stroke-width:1.0;" width="10" x="850.5" y="235.9609"/><rect fill="#FFFFFF" filter="url(#f1o0ib4bjv3kkg)" height="29.1328" style="stroke:#A80036;stroke-width:1.0;" width="10" x="1048.5" y="307.2266"/><polygon fill="#A80036" points="427.5,115.4297,437.5,119.4297,427.5,123.4297,431.5,119.4297" style="stroke:#A80036;stroke-width:1.0;"/><line style="stroke:#A80036;stroke-width:1.0;" x1="34.5" x2="433.5" y1="119.4297" y2="119.4297"/><text fill="#000000" font-family="sans-serif" font-size="13" font-weight="bold" lengthAdjust="spacing" textLength="9" x="41.5" y="114.3638">1</text><text fill="#000000" font-family="sans-serif" font-size="13" lengthAdjust="spacing" textLength="373" x="54.5" y="114.3638">wish to know the route of a specific container I am leasing</text><polygon fill="#A80036" points="45.5,144.5625,35.5,148.5625,45.5,152.5625,41.5,148.5625" style="stroke:#A80036;stroke-width:1.0;"/><line style="stroke:#A80036;stroke-width:1.0;stroke-dasharray:2.0,2.0;" x1="39.5" x2="443.5" y1="148.5625" y2="148.5625"/><text fill="#000000" font-family="sans-serif" font-size="13" font-weight="bold" lengthAdjust="spacing" textLength="9" x="51.5" y="143.4966">2</text><text fill="#000000" font-family="sans-serif" font-size="13" lengthAdjust="spacing" textLength="171" x="64.5" y="143.4966">request the data to search</text><polygon fill="#A80036" points="427.5,173.6953,437.5,177.6953,427.5,181.6953,431.5,177.6953" style="stroke:#A80036;stroke-width:1.0;"/><line style="stroke:#A80036;stroke-width:1.0;" x1="34.5" x2="433.5" y1="177.6953" y2="177.6953"/><text fill="#000000" font-family="sans-serif" font-size="13" font-weight="bold" lengthAdjust="spacing" textLength="8" x="41.5" y="172.6294">3</text><text fill="#000000" font-family="sans-serif" font-size="13" lengthAdjust="spacing" textLength="358" x="53.5" y="172.6294">types their registration code and the container identifier</text><polygon fill="#A80036" points="617.5,202.8281,627.5,206.8281,617.5,210.8281,621.5,206.8281" style="stroke:#A80036;stroke-width:1.0;"/><line style="stroke:#A80036;stroke-width:1.0;" x1="449.5" x2="623.5" y1="206.8281" y2="206.8281"/><text fill="#000000" font-family="sans-serif" font-size="13" font-weight="bold" lengthAdjust="spacing" textLength="9" x="456.5" y="201.7622">4</text><text fill="#000000" font-family="sans-serif" font-size="13" lengthAdjust="spacing" textLength="82" x="469.5" y="201.7622">createUS307</text><polygon fill="#A80036" points="838.5,231.9609,848.5,235.9609,838.5,239.9609,842.5,235.9609" style="stroke:#A80036;stroke-width:1.0;"/><line style="stroke:#A80036;stroke-width:1.0;" x1="639.5" x2="844.5" y1="235.9609" y2="235.9609"/><text fill="#000000" font-family="sans-serif" font-size="13" font-weight="bold" lengthAdjust="spacing" textLength="9" x="646.5" y="230.895">5</text><text fill="#000000" font-family="sans-serif" font-size="13" lengthAdjust="spacing" textLength="179" x="659.5" y="230.895">demo(user_id, container_id)</text><line style="stroke:#A80036;stroke-width:1.0;" x1="860.5" x2="902.5" y1="265.0938" y2="265.0938"/><line style="stroke:#A80036;stroke-width:1.0;" x1="902.5" x2="902.5" y1="265.0938" y2="278.0938"/><line style="stroke:#A80036;stroke-width:1.0;" x1="861.5" x2="902.5" y1="278.0938" y2="278.0938"/><polygon fill="#A80036" points="871.5,274.0938,861.5,278.0938,871.5,282.0938,867.5,278.0938" style="stroke:#A80036;stroke-width:1.0;"/><text fill="#000000" font-family="sans-serif" font-size="13" font-weight="bold" lengthAdjust="spacing" textLength="9" x="867.5" y="260.0278">6</text><text fill="#000000" font-family="sans-serif" font-size="13" lengthAdjust="spacing" textLength="51" x="880.5" y="260.0278">initialize</text><polygon fill="#A80036" points="1036.5,303.2266,1046.5,307.2266,1036.5,311.2266,1040.5,307.2266" style="stroke:#A80036;stroke-width:1.0;"/><line style="stroke:#A80036;stroke-width:1.0;" x1="855.5" x2="1042.5" y1="307.2266" y2="307.2266"/><text fill="#000000" font-family="sans-serif" font-size="13" font-weight="bold" lengthAdjust="spacing" textLength="9" x="862.5" y="302.1606">7</text><text fill="#000000" font-family="sans-serif" font-size="13" lengthAdjust="spacing" textLength="156" x="875.5" y="302.1606">WriteToAFile(path, data)</text><polygon fill="#A80036" points="650.5,332.3594,640.5,336.3594,650.5,340.3594,646.5,336.3594" style="stroke:#A80036;stroke-width:1.0;"/><line style="stroke:#A80036;stroke-width:1.0;stroke-dasharray:2.0,2.0;" x1="644.5" x2="1052.5" y1="336.3594" y2="336.3594"/><text fill="#000000" font-family="sans-serif" font-size="13" font-weight="bold" lengthAdjust="spacing" textLength="9" x="656.5" y="331.2935">8</text><text fill="#000000" font-family="sans-serif" font-size="13" lengthAdjust="spacing" textLength="19" x="669.5" y="331.2935">file</text><polygon fill="#A80036" points="460.5,361.4922,450.5,365.4922,460.5,369.4922,456.5,365.4922" style="stroke:#A80036;stroke-width:1.0;"/><line style="stroke:#A80036;stroke-width:1.0;stroke-dasharray:2.0,2.0;" x1="454.5" x2="628.5" y1="365.4922" y2="365.4922"/><text fill="#000000" font-family="sans-serif" font-size="13" font-weight="bold" lengthAdjust="spacing" textLength="9" x="466.5" y="360.4263">9</text><text fill="#000000" font-family="sans-serif" font-size="13" lengthAdjust="spacing" textLength="19" x="479.5" y="360.4263">file</text><polygon fill="#A80036" points="40.5,390.625,30.5,394.625,40.5,398.625,36.5,394.625" style="stroke:#A80036;stroke-width:1.0;"/><line style="stroke:#A80036;stroke-width:1.0;stroke-dasharray:2.0,2.0;" x1="34.5" x2="443.5" y1="394.625" y2="394.625"/><text fill="#000000" font-family="sans-serif" font-size="13" font-weight="bold" lengthAdjust="spacing" textLength="19" x="46.5" y="389.5591">10</text><text fill="#000000" font-family="sans-serif" font-size="13" lengthAdjust="spacing" textLength="168" x="69.5" y="389.5591">shows the requested data</text><!--MD5=[eba6b1bceac7aeb05dde6e59c880ae2d]
@startuml
actor "Client" as Adm
participant ":RouteContainerUI" as System
participant ":RouteContainerController" as SSC
participant ":US305" as us
participant ":FileOperation" as f

autonumber

activate Adm

Adm -> System: wish to know the route of a specific container I am leasing

activate System

System - -> Adm: request the data to search

deactivate System

Adm -> System: types their registration code and the container identifier

activate System

System -> SSC: createUS307

activate SSC

SSC -> us: demo(user_id, container_id)

activate us

us -> us: initialize

us -> f: WriteToAFile(path, data)

deactivate us

activate f

f - -> SSC: file

deactivate f

SSC - -> System: file

System - -> Adm: shows the requested data

deactivate SSC

deactivate System

deactivate Adm
@enduml

PlantUML version 1.2021.17beta4(Unknown compile time)
(GPL source distribution)
Java Runtime: Java(TM) SE Runtime Environment
JVM: Java HotSpot(TM) 64-Bit Server VM
Default Encoding: UTF-8
Language: en
Country: US
--></g></svg>