<?xml version="1.0" encoding="UTF-8" standalone="no"?><svg xmlns="http://www.w3.org/2000/svg" xmlns:xlink="http://www.w3.org/1999/xlink" contentScriptType="application/ecmascript" contentStyleType="text/css" height="213px" preserveAspectRatio="none" style="width:330px;height:213px;" version="1.1" viewBox="0 0 330 213" width="330px" zoomAndPan="magnify"><defs><filter height="300%" id="fh7i8o3vuj472" width="300%" x="-1" y="-1"><feGaussianBlur result="blurOut" stdDeviation="2.0"/><feColorMatrix in="blurOut" result="blurOut2" type="matrix" values="0 0 0 0 0 0 0 0 0 0 0 0 0 0 0 0 0 0 .4 0"/><feOffset dx="4.0" dy="4.0" in="blurOut2" result="blurOut3"/><feBlend in="SourceGraphic" in2="blurOut3" mode="normal"/></filter></defs><g><!--MD5=[02e4b9b7573f1156f41e60aa5b4e25a4]
class Company--><rect codeLine="13" fill="#FEFECE" filter="url(#fh7i8o3vuj472)" height="40" id="Company" style="stroke:#A80036;stroke-width:1.5;" width="85" x="7" y="83"/><ellipse cx="22" cy="99" fill="#ADD1B2" rx="11" ry="11" style="stroke:#A80036;stroke-width:1.0;"/><path d="M24,95.5 Q24.2031,95 24.4375,94.75 Q24.6719,94.5 24.9375,94.5 Q25.4063,94.5 25.7031,94.7813 Q26,95.0625 26,95.7188 L26,97.2813 Q26,97.9375 25.7188,98.2188 Q25.4375,98.5 25,98.5 Q24.6094,98.5 24.3594,98.3281 Q24.1094,98.1563 24,97.7031 Q23.9531,97.3906 23.7813,97.2188 Q23.4688,96.8906 22.9063,96.7031 Q22.3438,96.5 21.7813,96.5 Q21.0781,96.5 20.4844,96.7813 Q19.9063,97.0625 19.4531,97.6875 Q19,98.3125 19,99.1719 L19,100.0938 Q19,101.125 19.8438,101.8125 Q20.6875,102.5 22.1875,102.5 Q23.0781,102.5 23.7031,102.2969 Q24.0625,102.1875 24.4688,101.8281 Q24.7344,101.625 24.875,101.5625 Q25.0156,101.5 25.1875,101.5 Q25.5156,101.5 25.75,101.7656 Q26,102.0156 26,102.375 Q26,102.7188 25.6563,103.125 Q25.1563,103.7188 24.3594,104.0469 Q23.3125,104.5 22.0313,104.5 Q20.5313,104.5 19.3281,103.9063 Q18.3594,103.4375 17.6719,102.4219 Q17,101.4063 17,100.2031 L17,99.1094 Q17,97.8594 17.5938,96.7656 Q18.2031,95.6719 19.25,95.0938 Q20.3125,94.5 21.5,94.5 Q22.2188,94.5 22.8438,94.75 Q23.4688,95 24,95.5 Z " fill="#000000"/><text fill="#000000" font-family="sans-serif" font-size="12" lengthAdjust="spacing" textLength="53" x="36" y="103.9102">Company</text><line style="stroke:#A80036;stroke-width:1.5;" x1="8" x2="91" y1="115" y2="115"/><!--MD5=[0dc7f2ddb409b58bcf52b12238c25399]
class Ship--><rect codeLine="17" fill="#FEFECE" filter="url(#fh7i8o3vuj472)" height="192.1953" id="Ship" style="stroke:#A80036;stroke-width:1.5;" width="100" x="216" y="7"/><ellipse cx="250.35" cy="23" fill="#ADD1B2" rx="11" ry="11" style="stroke:#A80036;stroke-width:1.0;"/><path d="M252.35,19.5 Q252.5531,19 252.7875,18.75 Q253.0219,18.5 253.2875,18.5 Q253.7563,18.5 254.0531,18.7813 Q254.35,19.0625 254.35,19.7188 L254.35,21.2813 Q254.35,21.9375 254.0688,22.2188 Q253.7875,22.5 253.35,22.5 Q252.9594,22.5 252.7094,22.3281 Q252.4594,22.1563 252.35,21.7031 Q252.3031,21.3906 252.1313,21.2188 Q251.8188,20.8906 251.2563,20.7031 Q250.6938,20.5 250.1313,20.5 Q249.4281,20.5 248.8344,20.7813 Q248.2563,21.0625 247.8031,21.6875 Q247.35,22.3125 247.35,23.1719 L247.35,24.0938 Q247.35,25.125 248.1938,25.8125 Q249.0375,26.5 250.5375,26.5 Q251.4281,26.5 252.0531,26.2969 Q252.4125,26.1875 252.8188,25.8281 Q253.0844,25.625 253.225,25.5625 Q253.3656,25.5 253.5375,25.5 Q253.8656,25.5 254.1,25.7656 Q254.35,26.0156 254.35,26.375 Q254.35,26.7188 254.0063,27.125 Q253.5063,27.7188 252.7094,28.0469 Q251.6625,28.5 250.3813,28.5 Q248.8813,28.5 247.6781,27.9063 Q246.7094,27.4375 246.0219,26.4219 Q245.35,25.4063 245.35,24.2031 L245.35,23.1094 Q245.35,21.8594 245.9438,20.7656 Q246.5531,19.6719 247.6,19.0938 Q248.6625,18.5 249.85,18.5 Q250.5688,18.5 251.1938,18.75 Q251.8188,19 252.35,19.5 Z " fill="#000000"/><text fill="#000000" font-family="sans-serif" font-size="12" lengthAdjust="spacing" textLength="25" x="268.65" y="27.9102">Ship</text><line style="stroke:#A80036;stroke-width:1.5;" x1="217" x2="315" y1="39" y2="39"/><text fill="#000000" font-family="sans-serif" font-size="11" lengthAdjust="spacing" textLength="28" x="222" y="54.4189">-mmsi</text><text fill="#000000" font-family="sans-serif" font-size="11" lengthAdjust="spacing" textLength="51" x="222" y="68.2549">-shipName</text><text fill="#000000" font-family="sans-serif" font-size="11" lengthAdjust="spacing" textLength="20" x="222" y="82.0908">-imo</text><text fill="#000000" font-family="sans-serif" font-size="11" lengthAdjust="spacing" textLength="88" x="222" y="95.9268">-num_energy_gen</text><text fill="#000000" font-family="sans-serif" font-size="11" lengthAdjust="spacing" textLength="71" x="222" y="109.7627">-gen_pow_out</text><text fill="#000000" font-family="sans-serif" font-size="11" lengthAdjust="spacing" textLength="41" x="222" y="123.5986">-callSign</text><text fill="#000000" font-family="sans-serif" font-size="11" lengthAdjust="spacing" textLength="60" x="222" y="137.4346">-vesselType</text><text fill="#000000" font-family="sans-serif" font-size="11" lengthAdjust="spacing" textLength="33" x="222" y="151.2705">-length</text><text fill="#000000" font-family="sans-serif" font-size="11" lengthAdjust="spacing" textLength="31" x="222" y="165.1064">-width</text><text fill="#000000" font-family="sans-serif" font-size="11" lengthAdjust="spacing" textLength="45" x="222" y="178.9424">-capacity</text><text fill="#000000" font-family="sans-serif" font-size="11" lengthAdjust="spacing" textLength="27" x="222" y="192.7783">-draft</text><!--MD5=[37a14a5de6d6fd738aee271300f4b5c8]
link Company to Ship--><path codeLine="10" d="M92.11,103 C127.57,103 178.57,103 215.99,103 " fill="none" id="Company-Ship" style="stroke:#A80036;stroke-width:1.0;"/><polygon fill="#000000" points="132,94.1758,122.9549,91.2369,122.9549,97.1147,132,94.1758" style="stroke:#000000;stroke-width:1.0;"/><text fill="#000000" font-family="sans-serif" font-size="13" lengthAdjust="spacing" textLength="49" x="136" y="99.4951">contains</text><text fill="#000000" font-family="sans-serif" font-size="13" lengthAdjust="spacing" textLength="7" x="100.0352" y="117.9003">1</text><text fill="#000000" font-family="sans-serif" font-size="13" lengthAdjust="spacing" textLength="5" x="202.9494" y="117.7321">*</text><!--MD5=[601aa0ae5cb2fa40d8590d3b58f90b65]
@startuml
'https://plantuml.com/class-diagram

hide methods
left to right direction
skinparam classAttributeIconSize 0

class Company
class Ship

Company "1" - - "*" Ship: contains >


class Company {

}

class Ship{
 - mmsi
 - shipName
 - imo
 - num_energy_gen
 - gen_pow_out
 - callSign
 - vesselType
 - length
 - width
 - capacity
 - draft
}

@enduml

@startuml

hide methods
left to right direction
skinparam classAttributeIconSize 0

class Company
class Ship

Company "1" - - "*" Ship: contains >


class Company {

}

class Ship{
 - mmsi
 - shipName
 - imo
 - num_energy_gen
 - gen_pow_out
 - callSign
 - vesselType
 - length
 - width
 - capacity
 - draft
}

@enduml

PlantUML version 1.2021.5(Sun Apr 25 12:20:28 BST 2021)
(GPL source distribution)
Java Runtime: OpenJDK Runtime Environment
JVM: OpenJDK 64-Bit Server VM
Default Encoding: Cp1252
Language: pt
Country: PT
--></g></svg>