<?xml version="1.0" encoding="UTF-8" standalone="no"?><svg xmlns="http://www.w3.org/2000/svg" xmlns:xlink="http://www.w3.org/1999/xlink" contentScriptType="application/ecmascript" contentStyleType="text/css" height="496px" preserveAspectRatio="none" style="width:1307px;height:496px;background:#FFFFFF;" version="1.1" viewBox="0 0 1307 496" width="1307px" zoomAndPan="magnify"><defs><filter height="300%" id="f1neasrtmq9epy" width="300%" x="-1" y="-1"><feGaussianBlur result="blurOut" stdDeviation="2.0"/><feColorMatrix in="blurOut" result="blurOut2" type="matrix" values="0 0 0 0 0 0 0 0 0 0 0 0 0 0 0 0 0 0 .4 0"/><feOffset dx="4.0" dy="4.0" in="blurOut2" result="blurOut3"/><feBlend in="SourceGraphic" in2="blurOut3" mode="normal"/></filter></defs><g><rect fill="#FFFFFF" filter="url(#f1neasrtmq9epy)" height="296.3281" style="stroke:#A80036;stroke-width:1.0;" width="10" x="49" y="98.2969"/><rect fill="#FFFFFF" filter="url(#f1neasrtmq9epy)" height="29.1328" style="stroke:#A80036;stroke-width:1.0;" width="10" x="474" y="119.4297"/><rect fill="#FFFFFF" filter="url(#f1neasrtmq9epy)" height="216.9297" style="stroke:#A80036;stroke-width:1.0;" width="10" x="474" y="177.6953"/><rect fill="#FFFFFF" filter="url(#f1neasrtmq9epy)" height="187.7969" style="stroke:#A80036;stroke-width:1.0;" width="10" x="812" y="206.8281"/><rect fill="#FFFFFF" filter="url(#f1neasrtmq9epy)" height="71.2656" style="stroke:#A80036;stroke-width:1.0;" width="10" x="1034" y="235.9609"/><rect fill="#FFFFFF" filter="url(#f1neasrtmq9epy)" height="29.1328" style="stroke:#A80036;stroke-width:1.0;" width="10" x="1232" y="307.2266"/><line style="stroke:#A80036;stroke-width:1.0;stroke-dasharray:5.0,5.0;" x1="54" x2="54" y1="88.2969" y2="412.625"/><line style="stroke:#A80036;stroke-width:1.0;stroke-dasharray:5.0,5.0;" x1="479" x2="479" y1="88.2969" y2="412.625"/><line style="stroke:#A80036;stroke-width:1.0;stroke-dasharray:5.0,5.0;" x1="817" x2="817" y1="88.2969" y2="412.625"/><line style="stroke:#A80036;stroke-width:1.0;stroke-dasharray:5.0,5.0;" x1="1039" x2="1039" y1="88.2969" y2="412.625"/><line style="stroke:#A80036;stroke-width:1.0;stroke-dasharray:5.0,5.0;" x1="1236.5" x2="1236.5" y1="88.2969" y2="412.625"/><text fill="#000000" font-family="sans-serif" font-size="14" lengthAdjust="spacing" textLength="92" x="5" y="84.9951">PortManager</text><ellipse cx="54" cy="15" fill="#FEFECE" filter="url(#f1neasrtmq9epy)" rx="8" ry="8" style="stroke:#A80036;stroke-width:2.0;"/><path d="M54,23 L54,50 M41,31 L67,31 M54,50 L41,65 M54,50 L67,65 " fill="none" filter="url(#f1neasrtmq9epy)" style="stroke:#A80036;stroke-width:2.0;"/><text fill="#000000" font-family="sans-serif" font-size="14" lengthAdjust="spacing" textLength="92" x="5" y="424.6201">PortManager</text><ellipse cx="54" cy="437.9219" fill="#FEFECE" filter="url(#f1neasrtmq9epy)" rx="8" ry="8" style="stroke:#A80036;stroke-width:2.0;"/><path d="M54,445.9219 L54,472.9219 M41,453.9219 L67,453.9219 M54,472.9219 L41,487.9219 M54,472.9219 L67,487.9219 " fill="none" filter="url(#f1neasrtmq9epy)" style="stroke:#A80036;stroke-width:2.0;"/><rect fill="#FEFECE" filter="url(#f1neasrtmq9epy)" height="30.2969" style="stroke:#A80036;stroke-width:1.5;" width="294" x="330" y="53"/><text fill="#000000" font-family="sans-serif" font-size="14" lengthAdjust="spacing" textLength="280" x="337" y="72.9951">:CurrentSpecificationGivenContainerUI</text><rect fill="#FEFECE" filter="url(#f1neasrtmq9epy)" height="30.2969" style="stroke:#A80036;stroke-width:1.5;" width="294" x="330" y="411.625"/><text fill="#000000" font-family="sans-serif" font-size="14" lengthAdjust="spacing" textLength="280" x="337" y="431.6201">:CurrentSpecificationGivenContainerUI</text><rect fill="#FEFECE" filter="url(#f1neasrtmq9epy)" height="30.2969" style="stroke:#A80036;stroke-width:1.5;" width="354" x="638" y="53"/><text fill="#000000" font-family="sans-serif" font-size="14" lengthAdjust="spacing" textLength="340" x="645" y="72.9951">:CurrentSpecificationGivenContainerController</text><rect fill="#FEFECE" filter="url(#f1neasrtmq9epy)" height="30.2969" style="stroke:#A80036;stroke-width:1.5;" width="354" x="638" y="411.625"/><text fill="#000000" font-family="sans-serif" font-size="14" lengthAdjust="spacing" textLength="340" x="645" y="431.6201">:CurrentSpecificationGivenContainerController</text><rect fill="#FEFECE" filter="url(#f1neasrtmq9epy)" height="30.2969" style="stroke:#A80036;stroke-width:1.5;" width="62" x="1006" y="53"/><text fill="#000000" font-family="sans-serif" font-size="14" lengthAdjust="spacing" textLength="48" x="1013" y="72.9951">:US204</text><rect fill="#FEFECE" filter="url(#f1neasrtmq9epy)" height="30.2969" style="stroke:#A80036;stroke-width:1.5;" width="62" x="1006" y="411.625"/><text fill="#000000" font-family="sans-serif" font-size="14" lengthAdjust="spacing" textLength="48" x="1013" y="431.6201">:US204</text><rect fill="#FEFECE" filter="url(#f1neasrtmq9epy)" height="30.2969" style="stroke:#A80036;stroke-width:1.5;" width="117" x="1176.5" y="53"/><text fill="#000000" font-family="sans-serif" font-size="14" lengthAdjust="spacing" textLength="103" x="1183.5" y="72.9951">:FileOperation</text><rect fill="#FEFECE" filter="url(#f1neasrtmq9epy)" height="30.2969" style="stroke:#A80036;stroke-width:1.5;" width="117" x="1176.5" y="411.625"/><text fill="#000000" font-family="sans-serif" font-size="14" lengthAdjust="spacing" textLength="103" x="1183.5" y="431.6201">:FileOperation</text><rect fill="#FFFFFF" filter="url(#f1neasrtmq9epy)" height="296.3281" style="stroke:#A80036;stroke-width:1.0;" width="10" x="49" y="98.2969"/><rect fill="#FFFFFF" filter="url(#f1neasrtmq9epy)" height="29.1328" style="stroke:#A80036;stroke-width:1.0;" width="10" x="474" y="119.4297"/><rect fill="#FFFFFF" filter="url(#f1neasrtmq9epy)" height="216.9297" style="stroke:#A80036;stroke-width:1.0;" width="10" x="474" y="177.6953"/><rect fill="#FFFFFF" filter="url(#f1neasrtmq9epy)" height="187.7969" style="stroke:#A80036;stroke-width:1.0;" width="10" x="812" y="206.8281"/><rect fill="#FFFFFF" filter="url(#f1neasrtmq9epy)" height="71.2656" style="stroke:#A80036;stroke-width:1.0;" width="10" x="1034" y="235.9609"/><rect fill="#FFFFFF" filter="url(#f1neasrtmq9epy)" height="29.1328" style="stroke:#A80036;stroke-width:1.0;" width="10" x="1232" y="307.2266"/><polygon fill="#A80036" points="462,115.4297,472,119.4297,462,123.4297,466,119.4297" style="stroke:#A80036;stroke-width:1.0;"/><line style="stroke:#A80036;stroke-width:1.0;" x1="59" x2="468" y1="119.4297" y2="119.4297"/><text fill="#000000" font-family="sans-serif" font-size="13" font-weight="bold" lengthAdjust="spacing" textLength="9" x="66" y="114.3638">1</text><text fill="#000000" font-family="sans-serif" font-size="13" lengthAdjust="spacing" textLength="383" x="79" y="114.3638">request to know the current situation of a specific container</text><polygon fill="#A80036" points="70,144.5625,60,148.5625,70,152.5625,66,148.5625" style="stroke:#A80036;stroke-width:1.0;"/><line style="stroke:#A80036;stroke-width:1.0;stroke-dasharray:2.0,2.0;" x1="64" x2="478" y1="148.5625" y2="148.5625"/><text fill="#000000" font-family="sans-serif" font-size="13" font-weight="bold" lengthAdjust="spacing" textLength="9" x="76" y="143.4966">2</text><text fill="#000000" font-family="sans-serif" font-size="13" lengthAdjust="spacing" textLength="200" x="89" y="143.4966">asks for the container identifier</text><polygon fill="#A80036" points="462,173.6953,472,177.6953,462,181.6953,466,177.6953" style="stroke:#A80036;stroke-width:1.0;"/><line style="stroke:#A80036;stroke-width:1.0;" x1="59" x2="468" y1="177.6953" y2="177.6953"/><text fill="#000000" font-family="sans-serif" font-size="13" font-weight="bold" lengthAdjust="spacing" textLength="8" x="66" y="172.6294">3</text><text fill="#000000" font-family="sans-serif" font-size="13" lengthAdjust="spacing" textLength="163" x="78" y="172.6294">types the data requested</text><polygon fill="#A80036" points="800,202.8281,810,206.8281,800,210.8281,804,206.8281" style="stroke:#A80036;stroke-width:1.0;"/><line style="stroke:#A80036;stroke-width:1.0;" x1="484" x2="806" y1="206.8281" y2="206.8281"/><text fill="#000000" font-family="sans-serif" font-size="13" font-weight="bold" lengthAdjust="spacing" textLength="9" x="491" y="201.7622">4</text><text fill="#000000" font-family="sans-serif" font-size="13" lengthAdjust="spacing" textLength="82" x="504" y="201.7622">createUS204</text><polygon fill="#A80036" points="1022,231.9609,1032,235.9609,1022,239.9609,1026,235.9609" style="stroke:#A80036;stroke-width:1.0;"/><line style="stroke:#A80036;stroke-width:1.0;" x1="822" x2="1028" y1="235.9609" y2="235.9609"/><text fill="#000000" font-family="sans-serif" font-size="13" font-weight="bold" lengthAdjust="spacing" textLength="9" x="829" y="230.895">5</text><text fill="#000000" font-family="sans-serif" font-size="13" lengthAdjust="spacing" textLength="58" x="842" y="230.895">demo(id)</text><line style="stroke:#A80036;stroke-width:1.0;" x1="1044" x2="1086" y1="265.0938" y2="265.0938"/><line style="stroke:#A80036;stroke-width:1.0;" x1="1086" x2="1086" y1="265.0938" y2="278.0938"/><line style="stroke:#A80036;stroke-width:1.0;" x1="1045" x2="1086" y1="278.0938" y2="278.0938"/><polygon fill="#A80036" points="1055,274.0938,1045,278.0938,1055,282.0938,1051,278.0938" style="stroke:#A80036;stroke-width:1.0;"/><text fill="#000000" font-family="sans-serif" font-size="13" font-weight="bold" lengthAdjust="spacing" textLength="9" x="1051" y="260.0278">6</text><text fill="#000000" font-family="sans-serif" font-size="13" lengthAdjust="spacing" textLength="51" x="1064" y="260.0278">initialize</text><polygon fill="#A80036" points="1220,303.2266,1230,307.2266,1220,311.2266,1224,307.2266" style="stroke:#A80036;stroke-width:1.0;"/><line style="stroke:#A80036;stroke-width:1.0;" x1="1039" x2="1226" y1="307.2266" y2="307.2266"/><text fill="#000000" font-family="sans-serif" font-size="13" font-weight="bold" lengthAdjust="spacing" textLength="9" x="1046" y="302.1606">7</text><text fill="#000000" font-family="sans-serif" font-size="13" lengthAdjust="spacing" textLength="156" x="1059" y="302.1606">WriteToAFile(path, data)</text><polygon fill="#A80036" points="833,332.3594,823,336.3594,833,340.3594,829,336.3594" style="stroke:#A80036;stroke-width:1.0;"/><line style="stroke:#A80036;stroke-width:1.0;stroke-dasharray:2.0,2.0;" x1="827" x2="1236" y1="336.3594" y2="336.3594"/><text fill="#000000" font-family="sans-serif" font-size="13" font-weight="bold" lengthAdjust="spacing" textLength="9" x="839" y="331.2935">8</text><text fill="#000000" font-family="sans-serif" font-size="13" lengthAdjust="spacing" textLength="19" x="852" y="331.2935">file</text><polygon fill="#A80036" points="495,361.4922,485,365.4922,495,369.4922,491,365.4922" style="stroke:#A80036;stroke-width:1.0;"/><line style="stroke:#A80036;stroke-width:1.0;stroke-dasharray:2.0,2.0;" x1="489" x2="811" y1="365.4922" y2="365.4922"/><text fill="#000000" font-family="sans-serif" font-size="13" font-weight="bold" lengthAdjust="spacing" textLength="9" x="501" y="360.4263">9</text><text fill="#000000" font-family="sans-serif" font-size="13" lengthAdjust="spacing" textLength="19" x="514" y="360.4263">file</text><polygon fill="#A80036" points="65,390.625,55,394.625,65,398.625,61,394.625" style="stroke:#A80036;stroke-width:1.0;"/><line style="stroke:#A80036;stroke-width:1.0;stroke-dasharray:2.0,2.0;" x1="59" x2="478" y1="394.625" y2="394.625"/><text fill="#000000" font-family="sans-serif" font-size="13" font-weight="bold" lengthAdjust="spacing" textLength="19" x="71" y="389.5591">10</text><text fill="#000000" font-family="sans-serif" font-size="13" lengthAdjust="spacing" textLength="183" x="94" y="389.5591">shows the containers details</text><!--MD5=[c02305ca2fb6791ae5adbcce3064ba6c]
@startuml
actor PortManager as Adm
participant ":CurrentSpecificationGivenContainerUI" as System
participant ":CurrentSpecificationGivenContainerController" as SSC
participant ":US204" as us
participant ":FileOperation" as f

autonumber

activate Adm

Adm -> System: request to know the current situation of a specific container

activate System

System - -> Adm: asks for the container identifier

deactivate System

Adm -> System: types the data requested

activate System

System -> SSC: createUS204

activate SSC

SSC -> us: demo(id)

activate us

us -> us: initialize

us -> f: WriteToAFile(path, data)

deactivate us

activate f

f - -> SSC: file

deactivate f

SSC - -> System: file

System - -> Adm: shows the containers details

deactivate SSC

deactivate System

deactivate Adm
@enduml

PlantUML version 1.2021.16beta1(Unknown compile time)
(GPL source distribution)
Java Runtime: Java(TM) SE Runtime Environment
JVM: Java HotSpot(TM) 64-Bit Server VM
Default Encoding: UTF-8
Language: en
Country: US
--></g></svg>